<svg width="354" height="334" viewBox="0 0 354 334" fill="none" xmlns="http://www.w3.org/2000/svg">
<path d="M107.742 232.41L289.81 232.41C293.697 232.41 296.848 229.259 296.848 225.372V11.006C296.848 7.11916 293.697 3.96826 289.81 3.96826L107.742 3.96826C103.855 3.96826 100.704 7.11916 100.704 11.006L100.704 225.372C100.704 229.259 103.855 232.41 107.742 232.41Z" fill="white"/>
<path d="M100.271 225.373V11.006C100.273 9.0254 101.061 7.1266 102.462 5.72616C103.862 4.32572 105.761 3.538 107.742 3.53583H289.81C291.79 3.538 293.689 4.32572 295.09 5.72616C296.49 7.1266 297.278 9.0254 297.28 11.006V225.373C297.278 227.354 296.49 229.253 295.09 230.653C293.689 232.054 291.791 232.841 289.81 232.844H107.742C105.761 232.841 103.862 232.054 102.462 230.653C101.061 229.253 100.273 227.354 100.271 225.373ZM107.742 4.40191C105.991 4.40386 104.312 5.1003 103.073 6.33845C101.835 7.5766 101.139 9.25535 101.137 11.0064V225.373C101.139 227.124 101.835 228.803 103.073 230.041C104.312 231.279 105.99 231.976 107.742 231.978H289.81C291.561 231.976 293.24 231.279 294.478 230.041C295.716 228.803 296.413 227.124 296.415 225.373V11.006C296.413 9.25491 295.716 7.57617 294.478 6.33802C293.24 5.09987 291.561 4.40343 289.81 4.40148L107.742 4.40191Z" fill="#292A2E"/>
<path d="M144.997 333.165C144.935 333.165 144.873 333.152 144.817 333.126C144.76 333.1 144.71 333.062 144.669 333.016C144.629 332.969 144.599 332.914 144.581 332.854C144.564 332.794 144.559 332.732 144.568 332.67L159.043 232.781C159.05 232.724 159.069 232.669 159.097 232.619C159.126 232.569 159.164 232.526 159.21 232.491C159.256 232.456 159.308 232.431 159.364 232.417C159.419 232.402 159.477 232.399 159.534 232.407C159.591 232.416 159.646 232.435 159.695 232.465C159.744 232.494 159.787 232.533 159.821 232.58C159.855 232.626 159.88 232.679 159.893 232.735C159.906 232.79 159.909 232.848 159.899 232.905L145.423 332.795C145.408 332.897 145.356 332.991 145.278 333.059C145.2 333.127 145.1 333.164 144.997 333.165Z" fill="#292A2E"/>
<path d="M252.556 333.165C252.452 333.165 252.352 333.127 252.274 333.059C252.195 332.991 252.144 332.897 252.129 332.794L237.654 232.904C237.639 232.792 237.67 232.678 237.738 232.588C237.807 232.497 237.909 232.437 238.021 232.421C238.133 232.405 238.247 232.433 238.339 232.5C238.43 232.568 238.492 232.668 238.51 232.78L252.987 332.671C252.996 332.732 252.991 332.795 252.974 332.854C252.956 332.914 252.926 332.969 252.886 333.016C252.845 333.063 252.795 333.1 252.738 333.126C252.682 333.152 252.621 333.165 252.558 333.165L252.556 333.165Z" fill="#292A2E"/>
<g opacity="0.1">
<path d="M120.507 114.078L277.045 114.078C279.797 114.078 282.028 111.847 282.028 109.095V25.4594C282.028 22.7075 279.797 20.4767 277.045 20.4767L120.507 20.4767C117.755 20.4767 115.524 22.7075 115.524 25.4594V109.095C115.524 111.847 117.755 114.078 120.507 114.078Z" fill="#367CFF"/>
</g>
<g opacity="0.1">
<path d="M115.348 210.791V130.225C115.35 128.843 115.9 127.517 116.877 126.54C117.855 125.562 119.18 125.012 120.563 125.011H276.556C277.938 125.012 279.264 125.562 280.241 126.54C281.218 127.517 281.768 128.843 281.77 130.225V210.791C281.768 212.174 281.218 213.499 280.241 214.477C279.263 215.455 277.938 216.004 276.555 216.006H120.563C119.18 216.004 117.855 215.455 116.877 214.477C115.9 213.499 115.35 212.174 115.348 210.791Z" fill="#367CFF"/>
</g>
<path d="M261.825 204.115H264.921C265.386 204.115 265.764 203.737 265.764 203.271V144.129C265.764 143.663 265.386 143.286 264.921 143.286H261.825C261.359 143.286 260.981 143.663 260.981 144.129V203.271C260.981 203.737 261.359 204.115 261.825 204.115Z" fill="white"/>
<path opacity="0.3" d="M266.608 204.115H269.704C270.17 204.115 270.548 203.737 270.548 203.271V163.234C270.548 162.768 270.17 162.39 269.704 162.39H266.608C266.142 162.39 265.765 162.768 265.765 163.234V203.271C265.765 203.737 266.142 204.115 266.608 204.115Z" fill="#367CFF"/>
<path d="M223.546 204.114H226.642C227.107 204.114 227.485 203.737 227.485 203.271V197.261C227.485 196.795 227.107 196.417 226.642 196.417H223.546C223.08 196.417 222.702 196.795 222.702 197.261V203.271C222.702 203.737 223.08 204.114 223.546 204.114Z" fill="white"/>
<path opacity="0.3" d="M228.329 204.114H231.425C231.891 204.114 232.268 203.737 232.268 203.271V159.799C232.268 159.333 231.891 158.956 231.425 158.956H228.329C227.863 158.956 227.485 159.333 227.485 159.799V203.271C227.485 203.737 227.863 204.114 228.329 204.114Z" fill="#367CFF"/>
<path d="M242.685 204.114H245.781C246.247 204.114 246.625 203.737 246.625 203.271V168.548C246.625 168.082 246.247 167.704 245.781 167.704H242.685C242.219 167.704 241.842 168.082 241.842 168.548V203.271C241.842 203.737 242.219 204.114 242.685 204.114Z" fill="white"/>
<path opacity="0.3" d="M247.469 204.114H250.565C251.031 204.114 251.408 203.737 251.408 203.271V181.128C251.408 180.662 251.031 180.285 250.565 180.285H247.469C247.003 180.285 246.625 180.662 246.625 181.128V203.271C246.625 203.737 247.003 204.114 247.469 204.114Z" fill="#367CFF"/>
<path d="M166.126 204.114H169.222C169.688 204.114 170.066 203.737 170.066 203.271V155.893C170.066 155.427 169.688 155.05 169.222 155.05H166.126C165.66 155.05 165.283 155.427 165.283 155.893V203.271C165.283 203.737 165.66 204.114 166.126 204.114Z" fill="white"/>
<path opacity="0.3" d="M170.91 204.115H174.006C174.472 204.115 174.85 203.737 174.85 203.271V173.958C174.85 173.492 174.472 173.114 174.006 173.114H170.91C170.444 173.114 170.066 173.492 170.066 173.958V203.271C170.066 203.737 170.444 204.115 170.91 204.115Z" fill="#367CFF"/>
<path d="M204.406 204.115H207.502C207.968 204.115 208.346 203.737 208.346 203.271V163.547C208.346 163.081 207.968 162.703 207.502 162.703H204.406C203.94 162.703 203.563 163.081 203.563 163.547V203.271C203.563 203.737 203.94 204.115 204.406 204.115Z" fill="white"/>
<path opacity="0.3" d="M209.189 204.115H212.285C212.751 204.115 213.129 203.737 213.129 203.271V168.235C213.129 167.769 212.751 167.392 212.285 167.392H209.189C208.723 167.392 208.346 167.769 208.346 168.235V203.271C208.346 203.737 208.723 204.115 209.189 204.115Z" fill="#367CFF"/>
<path d="M185.266 204.115H188.362C188.828 204.115 189.206 203.737 189.206 203.271V144.129C189.206 143.663 188.828 143.286 188.362 143.286H185.266C184.801 143.286 184.423 143.663 184.423 144.129V203.271C184.423 203.737 184.801 204.115 185.266 204.115Z" fill="white"/>
<path opacity="0.3" d="M190.05 204.115H193.146C193.612 204.115 193.989 203.737 193.989 203.271V147.059C193.989 146.593 193.612 146.216 193.146 146.216H190.05C189.584 146.216 189.206 146.593 189.206 147.059V203.271C189.206 203.737 189.584 204.115 190.05 204.115Z" fill="#367CFF"/>
<path d="M146.987 204.115H150.083C150.549 204.115 150.927 203.737 150.927 203.271V144.129C150.927 143.663 150.549 143.286 150.083 143.286H146.987C146.521 143.286 146.144 143.663 146.144 144.129V203.271C146.144 203.737 146.521 204.115 146.987 204.115Z" fill="white"/>
<path opacity="0.3" d="M151.77 204.115H154.866C155.332 204.115 155.71 203.737 155.71 203.271V163.234C155.71 162.768 155.332 162.39 154.866 162.39H151.77C151.304 162.39 150.927 162.768 150.927 163.234V203.271C150.927 203.737 151.304 204.115 151.77 204.115Z" fill="#367CFF"/>
<path d="M127.848 204.114H130.944C131.409 204.114 131.787 203.737 131.787 203.271V168.548C131.787 168.082 131.409 167.704 130.944 167.704H127.848C127.382 167.704 127.004 168.082 127.004 168.548V203.271C127.004 203.737 127.382 204.114 127.848 204.114Z" fill="white"/>
<path opacity="0.3" d="M132.631 204.114H135.727C136.193 204.114 136.57 203.737 136.57 203.271V181.128C136.57 180.662 136.193 180.285 135.727 180.285H132.631C132.165 180.285 131.787 180.662 131.787 181.128V203.271C131.787 203.737 132.165 204.114 132.631 204.114Z" fill="#367CFF"/>
<path opacity="0.2" d="M270.591 50.5153V102.293C270.591 102.514 270.503 102.725 270.347 102.881C270.192 103.036 269.981 103.124 269.76 103.124H127.791C127.571 103.124 127.36 103.036 127.204 102.881C127.048 102.725 126.961 102.514 126.961 102.293V74.8055C126.961 74.6597 126.999 74.5164 127.072 74.3902C127.145 74.2639 127.25 74.159 127.376 74.0861L152.512 59.5735C152.64 59.4995 152.785 59.4611 152.933 59.4623C153.081 59.4634 153.226 59.504 153.353 59.58L164.669 66.3424C164.81 66.4271 164.973 66.4678 165.138 66.4591C165.303 66.4505 165.461 66.393 165.593 66.294L177.475 57.3751C177.596 57.284 177.739 57.2278 177.89 57.2125C178.041 57.1973 178.193 57.2236 178.33 57.2886L192.992 64.2623C193.149 64.3369 193.325 64.3605 193.496 64.3299C193.666 64.2993 193.823 64.2161 193.944 64.0917L210.223 47.3773C210.364 47.2326 210.552 47.1441 210.753 47.1281C210.954 47.1122 211.154 47.17 211.316 47.2907L221.886 55.2058C222.039 55.3206 222.228 55.379 222.419 55.3711C222.61 55.3632 222.792 55.2896 222.936 55.1625L229.852 49.0164C229.991 48.8923 230.168 48.8188 230.355 48.8079C230.541 48.797 230.726 48.8492 230.879 48.9562L240.694 55.8079C240.836 55.9062 241.004 55.9584 241.176 55.9571C241.348 55.9559 241.515 55.9013 241.655 55.801L258.627 43.5862C258.757 43.4921 258.912 43.438 259.073 43.4303C259.234 43.4226 259.393 43.4617 259.532 43.5429L270.18 49.7968C270.305 49.8701 270.409 49.9751 270.481 50.1012C270.553 50.2272 270.591 50.37 270.591 50.5153Z" fill="#367CFF"/>
<path opacity="0.61" d="M127.438 74.0917C127.511 74.0919 127.582 74.0726 127.645 74.0359L152.859 59.4782L164.863 66.6523C164.934 66.6945 165.016 66.7148 165.098 66.7105C165.18 66.7061 165.259 66.6775 165.325 66.6281L177.853 57.2236L193.28 64.5605C193.358 64.5975 193.446 64.6091 193.531 64.5936C193.617 64.578 193.695 64.5362 193.756 64.4739L210.703 47.0717L222.107 55.6114C222.184 55.6688 222.278 55.698 222.373 55.694C222.469 55.6901 222.56 55.6532 222.632 55.5897L230.3 48.7736L240.867 56.1524C240.938 56.2015 241.022 56.2276 241.108 56.227C241.194 56.2264 241.278 56.1991 241.347 56.1489L259.018 43.4342L269.903 49.8271C269.95 49.8547 270.002 49.8728 270.056 49.8804C270.11 49.888 270.165 49.8848 270.218 49.8711C270.271 49.8574 270.32 49.8335 270.364 49.8006C270.407 49.7678 270.444 49.7267 270.472 49.6797C270.499 49.6327 270.517 49.5807 270.525 49.5267C270.533 49.4727 270.529 49.4177 270.516 49.3649C270.502 49.3121 270.478 49.2625 270.445 49.219C270.412 49.1755 270.371 49.1388 270.324 49.1112L259.205 42.5807C259.136 42.54 259.056 42.5203 258.975 42.5241C258.895 42.5278 258.817 42.5549 258.752 42.6019L241.101 55.3028L230.506 47.9071C230.43 47.8535 230.337 47.8273 230.244 47.8327C230.151 47.8381 230.062 47.8748 229.993 47.9369L222.332 54.7453L210.905 46.19C210.824 46.1296 210.724 46.1006 210.624 46.1086C210.523 46.1166 210.429 46.1609 210.359 46.2333L193.365 63.684L177.98 56.3666C177.912 56.3341 177.836 56.3209 177.761 56.3285C177.685 56.3362 177.613 56.3643 177.553 56.4099L165.047 65.7979L153.073 58.6416C153.01 58.6037 152.937 58.5835 152.863 58.5829C152.789 58.5824 152.716 58.6016 152.652 58.6385L127.227 73.3178C127.148 73.3636 127.086 73.4343 127.051 73.5188C127.016 73.6033 127.01 73.697 127.034 73.7853C127.058 73.8736 127.11 73.9517 127.183 74.0073C127.255 74.0629 127.344 74.0931 127.435 74.093L127.438 74.0917Z" fill="#367CFF"/>
<path d="M35.1285 313.918C35.1285 313.918 37.0827 324.046 46.5672 324.612C56.0517 325.178 53.9949 332.732 53.9949 332.732H17.7505V314.624L35.1285 313.918Z" fill="#367CFF"/>
<path d="M15.2925 129.131C15.2925 129.131 18.0028 126.086 17.979 132.993C17.8894 158.759 16.1508 320.382 16.1508 320.382L39.9675 320.182L54.3949 128.084L15.2925 129.131Z" fill="#262626"/>
<path d="M75.7974 313.918C75.7974 313.918 77.7516 324.046 87.2361 324.612C96.7207 325.178 94.6639 332.732 94.6639 332.732H58.4194V314.624L75.7974 313.918Z" fill="#367CFF"/>
<path d="M80.4038 131.132C80.4038 131.132 83.379 219.193 83.07 223.497L80.2722 319.714L56.8494 320.147L53.0721 220.016C53.0721 220.016 50.5963 192.394 43.9226 166.746C40.5082 153.582 38.4533 140.103 37.7903 126.52L80.4038 131.132Z" fill="#262626"/>
<path d="M49.5034 193.567L51.4563 163.698C51.4563 163.698 53.4625 176.115 53.4625 186.818C53.4625 192.05 52.3852 212.763 52.3852 212.763L49.5034 193.567Z" fill="#0A0A0A"/>
<path d="M15.0337 129.128L14.9558 129.132C14.9558 129.132 15.0121 127.631 15.0337 129.128Z" fill="#333333"/>
<path d="M15.1314 129.128L15.0535 129.132C15.0535 129.132 15.1097 127.631 15.1314 129.128Z" fill="#333333"/>
<path d="M145.64 57.653C145.496 57.3689 145.268 57.1363 144.987 56.9875C144.706 56.8386 144.385 56.7808 144.069 56.822C144.072 56.803 144.07 56.7836 144.064 56.7654C144.058 56.7473 144.047 56.731 144.033 56.718C144.019 56.7049 144.002 56.6955 143.983 56.6906C143.964 56.6856 143.945 56.6853 143.926 56.6895L144.991 55.9265C145.31 55.7084 145.539 55.3821 145.636 55.0081C145.733 54.6342 145.691 54.2377 145.518 53.8922C145.337 53.5563 145.037 53.2998 144.677 53.1726C144.317 53.0453 143.923 53.0563 143.57 53.2036C143.573 53.1888 143.563 53.1741 143.56 53.1603L143.998 52.8465C144.297 52.6397 144.516 52.3359 144.617 51.9864C144.718 51.637 144.696 51.2633 144.553 50.9286C144.459 50.7206 144.32 50.536 144.146 50.3882C143.973 50.2403 143.768 50.1328 143.548 50.0735C143.327 50.0143 143.097 50.0046 142.872 50.0453C142.648 50.086 142.435 50.176 142.249 50.3088L141.24 51.0329C141.237 51.0269 141.24 51.02 141.236 51.0143C141.232 51.0087 141.221 51.0065 141.215 51.0005C141.447 50.7397 141.583 50.4078 141.602 50.0593C141.62 49.7108 141.519 49.3664 141.316 49.0826C140.84 48.3157 139.739 48.4723 139.086 48.9402L133.143 53.046L134.205 51.2571C134.419 50.9131 134.494 50.5005 134.416 50.1029C134.337 49.7053 134.111 49.3524 133.782 49.1155C133.608 48.9991 133.412 48.9193 133.207 48.8811C133.001 48.8428 132.789 48.8469 132.585 48.8931C132.381 48.9393 132.188 49.0265 132.019 49.1496C131.85 49.2727 131.707 49.429 131.601 49.6089L125.801 59.3748C125.12 60.5204 124.913 61.8862 125.224 63.1821C125.534 64.4779 126.338 65.6015 127.464 66.3143C128.769 67.1411 130.292 67.5592 131.837 67.5148C133.382 67.4705 134.878 66.9658 136.134 66.0654L145.11 59.6319C145.408 59.41 145.623 59.0938 145.719 58.7346C145.815 58.3754 145.787 57.9943 145.64 57.653Z" fill="#E98862"/>
<g opacity="0.25">
<path d="M135.358 55.0895C135.38 55.1194 135.413 55.1396 135.45 55.1458C135.486 55.1519 135.524 55.1435 135.554 55.1224L141.202 51.2109C141.217 51.2003 141.23 51.1867 141.24 51.1711C141.25 51.1554 141.257 51.1378 141.26 51.1195C141.264 51.1011 141.264 51.0823 141.26 51.064C141.256 51.0458 141.248 51.0285 141.237 51.0131C141.227 50.9978 141.213 50.9847 141.198 50.9746C141.182 50.9644 141.164 50.9575 141.146 50.9542C141.128 50.9509 141.109 50.9512 141.091 50.9551C141.072 50.9591 141.055 50.9666 141.04 50.9772L135.392 54.8886C135.361 54.9102 135.34 54.943 135.333 54.9801C135.327 55.0172 135.335 55.0554 135.356 55.0864L135.358 55.0895Z" fill="#0C0C0C"/>
</g>
<g opacity="0.25">
<path d="M137.015 57.6275C137.036 57.6576 137.069 57.6779 137.106 57.6842C137.142 57.6904 137.18 57.682 137.21 57.6608L143.513 53.2953C143.544 53.2737 143.565 53.2408 143.572 53.2037C143.578 53.1667 143.57 53.1285 143.549 53.0975C143.526 53.0676 143.494 53.0472 143.457 53.0405C143.42 53.0338 143.382 53.0414 143.351 53.0616L137.048 57.4271C137.017 57.4486 136.996 57.4815 136.99 57.5186C136.983 57.5556 136.991 57.5939 137.013 57.6249L137.015 57.6275Z" fill="#0C0C0C"/>
</g>
<g opacity="0.25">
<path d="M138.793 60.3872C138.815 60.4172 138.847 60.4374 138.884 60.4436C138.921 60.4497 138.958 60.4413 138.989 60.4201L144.016 56.938C144.047 56.9166 144.068 56.8837 144.075 56.8466C144.082 56.8095 144.073 56.7712 144.052 56.7402C144.031 56.7092 143.998 56.688 143.961 56.6813C143.923 56.6746 143.885 56.6828 143.854 56.7043L138.827 60.1864C138.796 60.2079 138.774 60.2408 138.768 60.2779C138.761 60.315 138.769 60.3532 138.791 60.3842L138.793 60.3872Z" fill="#0C0C0C"/>
</g>
<path d="M122.378 57.1492L105.343 86.1624L84.5563 58.8979L67.2939 74.461L96.7742 112.641L96.9672 112.913C98.1473 114.529 99.7194 115.818 101.535 116.658C103.351 117.499 105.351 117.863 107.347 117.717C109.343 117.571 111.269 116.92 112.943 115.824C114.617 114.728 115.985 113.224 116.917 111.453L141.141 67.5838L122.378 57.1492Z" fill="#367CFF"/>
<path d="M103.673 89.6514C103.639 89.6513 103.605 89.6431 103.574 89.6276C103.549 89.6147 103.527 89.5969 103.508 89.5753C103.49 89.5536 103.476 89.5286 103.467 89.5015C103.458 89.4745 103.455 89.4459 103.457 89.4176C103.459 89.3893 103.467 89.3616 103.48 89.3363L105.15 86.0641C105.163 86.0388 105.181 86.0163 105.203 85.9979C105.224 85.9794 105.249 85.9654 105.276 85.9566C105.303 85.9479 105.332 85.9445 105.36 85.9468C105.389 85.949 105.416 85.9569 105.442 85.9698C105.467 85.9827 105.489 86.0005 105.508 86.0222C105.526 86.0438 105.54 86.0688 105.549 86.0959C105.558 86.1229 105.561 86.1515 105.559 86.1798C105.557 86.2081 105.549 86.2358 105.536 86.2611L103.866 89.5333C103.848 89.5688 103.82 89.5986 103.786 89.6195C103.752 89.6403 103.713 89.6514 103.673 89.6514Z" fill="#0C0C0C"/>
<path d="M83.3572 85.9973L82.8372 95.1611L83.2693 95.1856L83.7893 86.0218L83.3572 85.9973Z" fill="#0C0C0C"/>
<path d="M28.4651 19.6778C28.4651 19.6778 27.667 29.8777 25.3275 33.5546C18.5928 44.1402 16.5381 56.1122 23.0868 62.4553C29.6354 68.7983 71.8663 69.374 75.2302 54.9981C78.0639 42.895 72.2991 41.5234 71.0084 31.4956C70.4245 26.9592 68.7841 17.4413 68.7841 17.4413" fill="#0A0A0A"/>
<path d="M64.4795 52.6997C64.4068 52.6902 63.5979 66.1139 48.0036 64.9435C37.208 64.1346 33.3589 52.6807 33.1113 52.6807C34.2752 52.4335 36.2355 52.0747 36.7523 51.7977C38.452 50.8844 40.5555 49.934 41.1035 46.6328C41.4194 44.7284 40.8836 34.9958 41.0485 33.071L57.6197 36.7695C57.3881 40.8355 55.7676 50.2612 61.4476 51.9293C62.3929 52.205 63.4109 52.4591 64.4795 52.6997Z" fill="#E98862"/>
<path opacity="0.52" d="M57.8521 48.0771C57.5925 47.2406 57.4253 46.3782 57.3534 45.5053C57.1712 43.5133 57.2074 41.5073 57.4616 39.5232C54.0935 39.0687 50.9204 37.6784 48.303 35.5104C47.9953 36.647 46.303 41.6133 46.7717 42.6928C47.6573 44.734 51.8193 48.0771 57.8521 48.0771Z" fill="#0C0C0C"/>
<path d="M55.6555 43.8524C49.1155 44.409 40.6927 41.6978 39.0427 32.9776L37.5534 25.1093C35.903 16.3891 39.1453 8.45324 47.356 6.8994C55.5663 5.34555 63.0412 11.2532 64.6916 19.9733L65.3508 23.4567C65.984 26.8029 67.3249 42.8595 55.6555 43.8524Z" fill="#E98862"/>
<path d="M63.0105 23.8367C63.5789 23.8367 64.0397 23.3759 64.0397 22.8075C64.0397 22.239 63.5789 21.7782 63.0105 21.7782C62.442 21.7782 61.9812 22.239 61.9812 22.8075C61.9812 23.3759 62.442 23.8367 63.0105 23.8367Z" fill="#0C0C0C"/>
<path d="M52.4665 25.2451C53.035 25.2451 53.4958 24.7843 53.4958 24.2158C53.4958 23.6474 53.035 23.1866 52.4665 23.1866C51.8981 23.1866 51.4373 23.6474 51.4373 24.2158C51.4373 24.7843 51.8981 25.2451 52.4665 25.2451Z" fill="#0C0C0C"/>
<path d="M58.2531 31.7613H58.2691C58.6017 31.6959 58.9304 31.6121 59.2537 31.5103C59.7363 31.3549 60.3691 31.0982 60.2865 30.662C60.1925 30.1651 57.8172 25.0621 57.5462 24.4816C57.5226 24.431 57.4798 24.3917 57.4272 24.3726C57.3747 24.3535 57.3167 24.3561 57.266 24.3797C57.2153 24.4033 57.1761 24.4462 57.157 24.4987C57.1379 24.5513 57.1404 24.6093 57.1641 24.66C58.1773 26.8332 59.8091 30.4062 59.8718 30.7407C59.8177 30.8957 59.0161 31.1904 58.1907 31.3467C58.1365 31.3562 58.0882 31.3864 58.056 31.4311C58.0239 31.4757 58.0104 31.5311 58.0185 31.5855C58.0267 31.6399 58.0558 31.689 58.0996 31.7222C58.1434 31.7555 58.1985 31.7703 58.2531 31.7635V31.7613Z" fill="#0C0C0C"/>
<path d="M57.0371 35.5265C58.3763 35.3525 59.6559 34.8663 60.7728 34.1072C60.8197 34.0768 60.8525 34.0289 60.8641 33.9742C60.8757 33.9195 60.8651 33.8624 60.8347 33.8155C60.8042 33.7686 60.7563 33.7357 60.7016 33.7241C60.6469 33.7125 60.5898 33.7231 60.5429 33.7536C58.1256 35.3287 55.7239 35.5832 53.5974 34.4894C53.5544 34.4662 53.5102 34.4452 53.4649 34.4267C53.4125 34.4082 53.3549 34.4112 53.3046 34.435C53.2543 34.4588 53.2155 34.5015 53.1966 34.5538C53.1777 34.6061 53.1803 34.6638 53.2037 34.7142C53.2271 34.7647 53.2695 34.8038 53.3217 34.8231C53.3386 34.83 53.365 34.8448 53.4048 34.8664C54.5228 35.4431 55.7876 35.6729 57.0371 35.5265Z" fill="#0C0C0C"/>
<path d="M30.9854 27.8516L38.3434 26.5021C43.9173 24.2466 45.6032 14.5967 45.6032 14.5967C45.6032 14.5967 52.3761 21.196 68.7841 17.4434C68.7841 17.4434 65.4946 -5.43879 41.2537 1.21246C33.4373 3.35798 27.8275 11.2345 28.5286 21.7613C29.016 29.1397 30.9854 27.8516 30.9854 27.8516Z" fill="#0A0A0A"/>
<path d="M40.0553 35.5378C37.5604 36.01 35.0323 33.7234 34.5584 31.2281C34.0844 28.7329 35.8486 26.9743 38.3439 26.5021L39.9453 27.9304L42.2003 35.1318L40.0553 35.5378Z" fill="#E98862"/>
<path d="M59.0497 20.3092C59.7776 19.8395 60.6183 19.574 61.4839 19.5405C61.9101 19.5217 62.3367 19.5668 62.7495 19.6743C63.1583 19.7793 63.5522 19.9354 63.9221 20.1387C63.9742 20.1644 64.0141 20.2096 64.033 20.2645C64.052 20.3195 64.0484 20.3797 64.0232 20.432C63.998 20.4844 63.9531 20.5246 63.8983 20.544C63.8435 20.5634 63.7833 20.5604 63.7307 20.5356L63.7152 20.5282C63.3734 20.3604 63.0119 20.236 62.6392 20.1582C62.2706 20.0793 61.8922 20.0567 61.5168 20.0911C60.7724 20.1534 60.0577 20.4115 59.4453 20.8394L59.4254 20.8537C59.3902 20.8793 59.3504 20.8977 59.3081 20.9079C59.2658 20.918 59.2219 20.9198 59.1789 20.913C59.136 20.9062 59.0948 20.891 59.0577 20.8683C59.0206 20.8456 58.9883 20.8158 58.9627 20.7806C58.9371 20.7454 58.9188 20.7055 58.9086 20.6632C58.8984 20.6209 58.8967 20.577 58.9035 20.5341C58.9103 20.4911 58.9255 20.4499 58.9482 20.4128C58.9709 20.3757 59.0007 20.3435 59.0359 20.3179L59.0497 20.3092Z" fill="#0C0C0C"/>
<path d="M52.4856 21.8543C51.76 21.6771 51.0005 21.6945 50.2838 21.905C49.9214 22.0087 49.5767 22.1666 49.2615 22.3733C48.9418 22.5811 48.6497 22.8283 48.3919 23.1091L48.3802 23.1208C48.3399 23.1613 48.2853 23.1845 48.2282 23.1855C48.1711 23.1865 48.1157 23.1653 48.0739 23.1263C48.0321 23.0873 48.0071 23.0336 48.0042 22.9766C48.0013 22.9195 48.0206 22.8635 48.0582 22.8204C48.3296 22.4971 48.6406 22.2093 48.984 21.9638C49.3297 21.714 49.7112 21.5178 50.1154 21.3817C50.9348 21.1 51.8149 21.0438 52.6635 21.219C52.7496 21.2374 52.8248 21.2894 52.8726 21.3633C52.9204 21.4373 52.9369 21.5272 52.9184 21.6133C52.8999 21.6994 52.848 21.7746 52.774 21.8224C52.7001 21.8702 52.6102 21.8867 52.5241 21.8682L52.5107 21.8652L52.4856 21.8543Z" fill="#0C0C0C"/>
<path d="M57.322 37.5055C57.5645 37.4778 57.8043 37.4296 58.0387 37.3615C58.0657 37.3542 58.0909 37.3416 58.113 37.3245C58.1351 37.3073 58.1535 37.286 58.1672 37.2616C58.1809 37.2373 58.1897 37.2105 58.1929 37.1828C58.1962 37.155 58.1939 37.1269 58.1862 37.1001C58.1784 37.0733 58.1655 37.0482 58.148 37.0264C58.1305 37.0047 58.1088 36.9866 58.0843 36.9732C58.0597 36.9599 58.0327 36.9516 58.0049 36.9488C57.9771 36.9459 57.949 36.9487 57.9223 36.9568C56.5108 37.3624 55.7084 36.8249 55.6751 36.8015C55.6291 36.7694 55.5723 36.7568 55.5171 36.7666C55.4619 36.7763 55.4129 36.8075 55.3807 36.8534C55.3486 36.8993 55.336 36.956 55.3457 37.0112C55.3555 37.0663 55.3868 37.1154 55.4327 37.1475C56.0022 37.481 56.6697 37.6075 57.322 37.5055Z" fill="#0C0C0C"/>
<path d="M38.3617 26.4091L38.2886 26.2052C47.6138 22.8573 45.3333 13.7061 45.3094 13.6139L45.5185 13.5593C45.5432 13.6528 47.8757 22.9932 38.3617 26.4091Z" fill="#0C0C0C"/>
<path opacity="0.1" d="M51.6356 32.4038C52.7122 32.2879 53.5162 31.5538 53.4312 30.764C53.3462 29.9742 52.4045 29.4279 51.3279 29.5437C50.2512 29.6596 49.4473 30.3937 49.5323 31.1835C49.6173 31.9733 50.5589 32.5196 51.6356 32.4038Z" fill="#0C0C0C"/>
<path opacity="0.1" d="M63.0317 29.3826C63.1182 30.1712 64.0601 30.7165 65.1369 30.6023C65.323 30.5821 65.5065 30.5428 65.6845 30.485C65.745 29.5466 65.7585 28.6433 65.7407 27.8066C65.4431 27.7288 65.1335 27.7071 64.8279 27.7426C63.751 27.8569 62.9477 28.5909 63.0317 29.3826Z" fill="#0C0C0C"/>
<path d="M83.8543 82.2523C83.363 88.0227 80.9738 124.024 80.5016 131.132H18.0136C17.6457 124.721 13.398 96.6892 12.0038 84.1532C10.6729 72.1908 8.06165 66.2018 9.97561 62.6651C13.1032 56.8852 21.6498 53.5455 27.4774 52.7565C31.0361 52.2747 36.388 51.9293 36.388 51.9293C36.388 51.9293 36.8411 61.0966 47.6471 61.6069C62.3567 62.2994 61.3746 51.9293 61.4473 51.9293C63.8304 51.9293 77.4437 53.4377 80.7743 55.4118C89.8498 60.7862 84.8969 70.0236 83.8543 82.2523Z" fill="#367CFF"/>
<path d="M124.415 86.2832L118.392 115.56C118.27 116.154 117.947 116.689 117.478 117.074C117.01 117.459 116.423 117.673 115.816 117.678L74.3399 118.031C73.9443 118.034 73.5529 117.949 73.1944 117.782C72.8359 117.614 72.5195 117.369 72.2682 117.063C72.0169 116.757 71.8371 116.399 71.742 116.015C71.647 115.631 71.639 115.231 71.7187 114.843L77.7419 85.5669C77.8644 84.9725 78.187 84.438 78.6557 84.0525C79.1245 83.6671 79.7112 83.4539 80.3181 83.4486L121.794 83.0954C122.19 83.0921 122.581 83.1773 122.94 83.3448C123.298 83.5123 123.615 83.7578 123.866 84.0634C124.117 84.3691 124.297 84.727 124.392 85.1111C124.487 85.4952 124.495 85.8956 124.415 86.2832Z" fill="#292A2E"/>
<path d="M85.7401 107.078C85.7623 107.464 85.6444 107.844 85.4082 108.15C85.172 108.455 84.8333 108.665 84.4546 108.741L83.1778 109.022C83.2006 109.03 83.2212 109.043 83.2378 109.06C83.2544 109.077 83.2665 109.099 83.273 109.122C83.2761 109.149 83.27 109.176 83.2557 109.2C83.5627 109.286 83.8351 109.466 84.0353 109.714C84.2354 109.962 84.3532 110.266 84.3724 110.585C84.3742 110.956 84.2508 111.316 84.0223 111.608C83.7937 111.901 83.4733 112.107 83.1129 112.195L72.3312 114.588C71.78 114.712 71.2167 114.775 70.6518 114.774C69.3934 114.774 68.1539 114.468 67.0402 113.882C65.9265 113.296 64.972 112.448 64.2589 111.411C63.5028 110.314 63.2046 108.966 63.4277 107.652C63.6508 106.338 64.3776 105.164 65.4535 104.378L74.6251 97.6734C74.827 97.5257 75.0616 97.4292 75.309 97.3921L74.465 101.491L74.6901 101.439L74.7377 101.43L81.7711 99.9977C82.5545 99.8246 83.6279 100.11 83.7664 101.002C83.8407 101.343 83.7972 101.7 83.6432 102.013C83.4892 102.327 83.2336 102.579 82.9181 102.729C82.9224 102.733 82.9311 102.737 82.9311 102.746C82.9311 102.755 82.9267 102.759 82.9267 102.768L84.143 102.499C84.3655 102.45 84.5962 102.451 84.8184 102.501C85.0407 102.552 85.2489 102.651 85.4282 102.792C85.6075 102.933 85.7533 103.111 85.8551 103.315C85.9569 103.519 86.0123 103.743 86.0171 103.971C86.0171 104.335 85.8912 104.687 85.6608 104.969C85.4305 105.251 85.1098 105.444 84.7533 105.516L84.2295 105.633C84.2252 105.65 84.2295 105.668 84.2209 105.681C84.6024 105.684 84.9692 105.828 85.25 106.087C85.5308 106.345 85.7055 106.698 85.7401 107.078Z" fill="#E98862"/>
<g opacity="0.25">
<path d="M75.9249 104.188C75.9333 104.224 75.9554 104.256 75.9866 104.276C76.0178 104.296 76.0556 104.303 76.092 104.296L82.8215 102.916C82.8405 102.913 82.8587 102.906 82.8749 102.896C82.8912 102.885 82.9052 102.872 82.9161 102.856C82.9271 102.84 82.9347 102.822 82.9385 102.804C82.9423 102.785 82.9423 102.765 82.9385 102.747C82.9346 102.728 82.927 102.71 82.9161 102.694C82.9051 102.678 82.8911 102.665 82.8748 102.655C82.8586 102.644 82.8404 102.638 82.8214 102.635C82.8024 102.632 82.783 102.632 82.7644 102.637L76.0348 104.017C75.9979 104.025 75.9655 104.047 75.9447 104.078C75.9239 104.11 75.9165 104.148 75.924 104.185L75.9249 104.188Z" fill="#0C0C0C"/>
</g>
<g opacity="0.25">
<path d="M76.4517 107.173C76.46 107.209 76.4822 107.241 76.5134 107.261C76.5446 107.281 76.5825 107.288 76.6188 107.28L84.1292 105.741C84.1661 105.733 84.1984 105.711 84.2192 105.679C84.24 105.648 84.2474 105.61 84.24 105.573C84.2312 105.536 84.209 105.505 84.1778 105.484C84.1467 105.464 84.1089 105.456 84.0721 105.462L76.5617 107.002C76.5247 107.01 76.4923 107.032 76.4715 107.063C76.4508 107.095 76.4433 107.133 76.4509 107.17L76.4517 107.173Z" fill="#0C0C0C"/>
</g>
<g opacity="0.25">
<path d="M77.0035 110.409C77.0119 110.445 77.034 110.477 77.0652 110.497C77.0964 110.517 77.1342 110.524 77.1706 110.517L83.1613 109.288C83.1803 109.285 83.1984 109.278 83.2147 109.268C83.231 109.258 83.245 109.244 83.2559 109.229C83.2668 109.213 83.2744 109.195 83.2783 109.176C83.2821 109.157 83.2821 109.138 83.2783 109.119C83.2744 109.1 83.2668 109.082 83.2558 109.067C83.2449 109.051 83.2309 109.037 83.2146 109.027C83.1983 109.017 83.1802 109.01 83.1612 109.007C83.1422 109.004 83.1228 109.005 83.1042 109.01L77.1134 110.238C77.0951 110.242 77.0778 110.249 77.0623 110.26C77.0469 110.27 77.0336 110.284 77.0233 110.299C77.013 110.315 77.0059 110.332 77.0024 110.35C76.9988 110.369 76.9989 110.388 77.0026 110.406L77.0035 110.409Z" fill="#0C0C0C"/>
</g>
<path d="M71.6633 118.855L13.1691 129.425C11.3437 129.623 9.49718 129.396 7.7743 128.762C6.05143 128.127 4.49911 127.101 3.23916 125.766C1.97921 124.43 1.04591 122.821 0.512496 121.064C-0.0209196 119.307 -0.139935 117.45 0.164789 115.64L8.35343 66.9653C8.87631 63.8573 10.6124 61.0842 13.1799 59.2563C15.7473 57.4283 18.9357 56.6951 22.0437 57.218C25.1517 57.7409 27.9247 59.477 29.7527 62.0444C31.5807 64.6119 32.3138 67.8003 31.791 70.9083L26.2075 104.416L69.0915 99.0312L71.6633 118.855Z" fill="#367CFF"/>
<path d="M13.1686 129.641C13.1146 129.641 13.0626 129.621 13.0228 129.584C12.983 129.548 12.9583 129.498 12.9535 129.444C12.9487 129.39 12.9642 129.336 12.997 129.293C13.0297 129.251 13.0774 129.221 13.1305 129.212L71.4222 118.678L68.9058 99.2715L26.2339 104.63C26.2004 104.635 26.1664 104.631 26.1346 104.62C26.1027 104.609 26.074 104.59 26.0508 104.566C26.0274 104.541 26.01 104.512 26 104.48C25.99 104.448 25.9877 104.413 25.9932 104.38L29.5424 82.9652C29.547 82.9371 29.5571 82.9102 29.5721 82.8861C29.5871 82.8619 29.6068 82.841 29.6299 82.8244C29.653 82.8079 29.6791 82.796 29.7068 82.7896C29.7345 82.7831 29.7632 82.7822 29.7913 82.7868C29.8194 82.7915 29.8463 82.8016 29.8705 82.8166C29.8946 82.8317 29.9156 82.8513 29.9322 82.8745C29.9487 82.8976 29.9606 82.9238 29.967 82.9516C29.9734 82.9793 29.9743 83.0081 29.9696 83.0361L26.4676 104.165L69.0646 98.8148C69.1214 98.8077 69.1786 98.8233 69.2239 98.8583C69.2691 98.8932 69.2987 98.9447 69.3061 99.0014L71.878 118.825C71.8852 118.88 71.8709 118.936 71.8382 118.981C71.8054 119.025 71.7565 119.056 71.7018 119.066L13.2075 129.638C13.1946 129.64 13.1816 129.641 13.1686 129.641Z" fill="#0C0C0C"/>
<path d="M26.173 104.203L22.4104 104.805L22.4788 105.232L26.2414 104.63L26.173 104.203Z" fill="#0C0C0C"/>
<path d="M333.186 333.34H4.0564C3.97604 333.34 3.89898 333.308 3.84216 333.251C3.78534 333.194 3.75342 333.117 3.75342 333.037C3.75342 332.957 3.78534 332.88 3.84216 332.823C3.89898 332.766 3.97604 332.734 4.0564 332.734H333.186C333.225 332.734 333.265 332.742 333.302 332.757C333.338 332.772 333.372 332.795 333.4 332.823C333.428 332.851 333.45 332.884 333.466 332.921C333.481 332.958 333.489 332.997 333.489 333.037C333.489 333.077 333.481 333.116 333.466 333.153C333.45 333.19 333.428 333.223 333.4 333.251C333.372 333.279 333.338 333.302 333.302 333.317C333.265 333.332 333.225 333.34 333.186 333.34Z" fill="#292A2E"/>
<path d="M317.549 286.68C317.502 286.68 317.456 286.671 317.413 286.653C317.37 286.635 317.331 286.609 317.298 286.576C316.796 286.075 315.979 276.878 313.778 249.494C312.878 238.289 312.027 227.706 311.406 221.274C311.363 220.814 311.184 220.761 311.125 220.743C310.275 220.487 307.691 222.525 306.248 224.309C306.189 224.383 306.103 224.43 306.009 224.44C305.915 224.449 305.821 224.422 305.748 224.362C305.674 224.303 305.628 224.217 305.618 224.123C305.608 224.029 305.635 223.935 305.695 223.862C306.647 222.682 309.759 219.589 311.33 220.062C311.566 220.143 311.77 220.298 311.911 220.504C312.053 220.71 312.124 220.956 312.115 221.206C312.736 227.643 313.586 238.229 314.488 249.437C315.825 266.077 317.34 284.928 317.838 286.116C317.876 286.17 317.899 286.232 317.903 286.297C317.908 286.363 317.895 286.428 317.865 286.486C317.835 286.544 317.79 286.593 317.734 286.627C317.678 286.661 317.614 286.679 317.549 286.679V286.68Z" fill="#494949"/>
<path d="M310.492 233.076C316.396 228.343 318.353 220.977 314.863 216.623C311.373 212.269 303.757 212.576 297.853 217.308C291.949 222.041 289.992 229.407 293.482 233.761C296.972 238.115 304.588 237.808 310.492 233.076Z" fill="#0CBC8B"/>
<path opacity="0.2" d="M310.492 233.076C316.396 228.343 318.353 220.977 314.863 216.623C311.373 212.269 303.757 212.576 297.853 217.308C291.949 222.041 289.992 229.407 293.482 233.761C296.972 238.115 304.588 237.808 310.492 233.076Z" fill="white"/>
<path d="M295.138 234.869C295.104 234.869 295.071 234.86 295.042 234.841C295.013 234.823 294.991 234.798 294.976 234.767C294.962 234.736 294.957 234.702 294.961 234.669C294.965 234.635 294.979 234.604 295.001 234.578L311.827 214.287C311.857 214.251 311.9 214.228 311.947 214.224C311.994 214.219 312.041 214.234 312.078 214.264C312.114 214.294 312.137 214.337 312.141 214.384C312.145 214.431 312.131 214.478 312.101 214.514L295.274 234.805C295.257 234.825 295.236 234.841 295.213 234.852C295.189 234.863 295.164 234.869 295.138 234.869Z" fill="white"/>
<path d="M321.219 282.331C321.179 282.331 321.14 282.324 321.102 282.311C321.058 282.295 321.017 282.272 320.982 282.24C320.948 282.209 320.919 282.172 320.899 282.13C320.878 282.088 320.867 282.042 320.864 281.995C320.861 281.949 320.868 281.902 320.883 281.858L327.202 263.681C327.388 263.147 327.705 262.668 328.124 262.288C328.544 261.908 329.051 261.64 329.601 261.507C330.151 261.374 330.725 261.382 331.272 261.529C331.818 261.675 332.318 261.957 332.728 262.348L336.069 265.54C336.137 265.605 336.177 265.695 336.179 265.789C336.181 265.883 336.146 265.975 336.08 266.043C336.015 266.111 335.926 266.151 335.831 266.153C335.737 266.155 335.645 266.12 335.577 266.055L332.236 262.862C331.913 262.554 331.518 262.332 331.086 262.216C330.655 262.1 330.202 262.094 329.768 262.199C329.334 262.303 328.933 262.515 328.602 262.815C328.271 263.115 328.021 263.493 327.874 263.915L321.555 282.094C321.53 282.163 321.485 282.223 321.425 282.266C321.365 282.308 321.293 282.331 321.219 282.331Z" fill="#494949"/>
<path d="M345.406 275.604C349.781 272.141 349.521 264.524 344.825 258.591C340.129 252.658 332.775 250.655 328.399 254.119C324.024 257.582 324.284 265.199 328.98 271.132C333.676 277.065 341.03 279.067 345.406 275.604Z" fill="#0CBC8B"/>
<path d="M314.678 285.521C314.598 285.521 314.52 285.494 314.458 285.445C314.395 285.395 314.35 285.326 314.332 285.248L303.728 240.9C303.655 240.598 303.501 240.321 303.282 240.101C303.062 239.88 302.786 239.725 302.484 239.651C302.182 239.577 301.866 239.588 301.57 239.683C301.273 239.777 301.009 239.952 300.805 240.187L297.536 243.966C297.474 244.037 297.387 244.081 297.292 244.088C297.198 244.094 297.105 244.063 297.034 244.002C296.963 243.94 296.919 243.852 296.912 243.758C296.905 243.664 296.936 243.571 296.998 243.5L300.267 239.722C300.557 239.388 300.932 239.14 301.353 239.005C301.774 238.871 302.224 238.855 302.653 238.96C303.082 239.065 303.474 239.286 303.786 239.599C304.098 239.912 304.317 240.305 304.42 240.735L315.024 285.083C315.035 285.128 315.037 285.175 315.029 285.222C315.022 285.268 315.006 285.312 314.981 285.352C314.957 285.392 314.925 285.426 314.887 285.454C314.849 285.481 314.806 285.501 314.761 285.512C314.734 285.518 314.706 285.521 314.678 285.521Z" fill="#494949"/>
<path d="M310.766 253.819C312.055 246.363 308.643 239.548 303.145 238.597C297.646 237.646 292.143 242.92 290.854 250.376C289.565 257.832 292.977 264.647 298.475 265.598C303.974 266.549 309.477 261.275 310.766 253.819Z" fill="#0CBC8B"/>
<path d="M317.55 286.68C317.535 286.68 317.521 286.68 317.507 286.678C317.413 286.666 317.328 286.618 317.27 286.544C317.212 286.469 317.185 286.375 317.197 286.281L323.97 231.29C324.044 230.691 324.289 230.126 324.677 229.663C325.064 229.2 325.576 228.859 326.153 228.68C326.729 228.502 327.345 228.493 327.926 228.656C328.508 228.819 329.029 229.147 329.429 229.599L337.17 238.367C337.202 238.402 337.227 238.443 337.243 238.488C337.259 238.532 337.266 238.58 337.264 238.627C337.261 238.674 337.25 238.72 337.229 238.763C337.208 238.806 337.18 238.844 337.144 238.875C337.109 238.907 337.067 238.93 337.022 238.946C336.978 238.961 336.93 238.967 336.883 238.963C336.836 238.96 336.79 238.947 336.747 238.926C336.705 238.904 336.668 238.875 336.637 238.838L328.896 230.071C328.586 229.722 328.183 229.47 327.734 229.344C327.285 229.219 326.81 229.225 326.365 229.363C325.92 229.501 325.523 229.764 325.224 230.122C324.925 230.479 324.735 230.915 324.677 231.377L317.904 286.368C317.893 286.454 317.851 286.534 317.786 286.591C317.721 286.649 317.637 286.681 317.55 286.68Z" fill="#494949"/>
<path d="M345.109 243.24C347.81 238.357 344.632 231.43 338.011 227.767C331.389 224.105 323.832 225.094 321.131 229.977C318.43 234.86 321.608 241.787 328.23 245.45C334.851 249.112 342.408 248.123 345.109 243.24Z" fill="#0CBC8B"/>
<path opacity="0.2" d="M345.406 275.604C349.781 272.141 349.521 264.524 344.825 258.591C340.129 252.658 332.775 250.655 328.399 254.119C324.024 257.582 324.284 265.199 328.98 271.132C333.676 277.065 341.03 279.067 345.406 275.604Z" fill="white"/>
<path opacity="0.5" d="M310.766 253.819C312.055 246.363 308.643 239.548 303.145 238.597C297.646 237.646 292.143 242.92 290.854 250.376C289.565 257.832 292.977 264.647 298.475 265.598C303.974 266.549 309.477 261.275 310.766 253.819Z" fill="white"/>
<path opacity="0.5" d="M345.109 243.24C347.81 238.357 344.632 231.43 338.011 227.767C331.389 224.105 323.832 225.094 321.131 229.977C318.43 234.86 321.608 241.787 328.23 245.45C334.851 249.112 342.408 248.123 345.109 243.24Z" fill="white"/>
<path d="M326.212 333.34H308.886L306.015 277.906H329.083L326.212 333.34Z" fill="#292A2E"/>
<path opacity="0.3" d="M326.212 333.34H308.886L306.015 277.906H329.083L326.212 333.34Z" fill="white"/>
<path d="M345.406 275.779C345.379 275.779 345.352 275.773 345.328 275.761C345.303 275.749 345.282 275.732 345.265 275.711L328.259 254.225C328.229 254.188 328.216 254.141 328.221 254.094C328.227 254.047 328.251 254.005 328.288 253.975C328.325 253.946 328.372 253.933 328.419 253.938C328.466 253.944 328.508 253.968 328.538 254.005L345.544 275.49C345.565 275.516 345.578 275.547 345.582 275.581C345.586 275.614 345.58 275.648 345.566 275.678C345.551 275.708 345.528 275.733 345.5 275.751C345.471 275.769 345.438 275.778 345.405 275.778L345.406 275.779Z" fill="white"/>
<path d="M343.978 244.961C343.94 244.961 343.903 244.949 343.873 244.927L322.109 229.036C322.089 229.023 322.072 229.006 322.059 228.985C322.047 228.965 322.038 228.943 322.034 228.919C322.03 228.896 322.03 228.872 322.036 228.848C322.041 228.825 322.051 228.803 322.065 228.784C322.079 228.765 322.097 228.748 322.118 228.736C322.138 228.724 322.161 228.716 322.185 228.713C322.209 228.709 322.233 228.711 322.256 228.717C322.279 228.724 322.3 228.734 322.319 228.749L344.082 244.64C344.112 244.662 344.134 244.693 344.146 244.729C344.158 244.764 344.157 244.803 344.146 244.839C344.134 244.874 344.111 244.905 344.081 244.927C344.051 244.949 344.014 244.961 343.976 244.961H343.978Z" fill="white"/>
<path d="M297.591 265.366C297.576 265.366 297.56 265.364 297.545 265.36C297.5 265.348 297.461 265.318 297.437 265.278C297.414 265.237 297.407 265.189 297.419 265.144L304.347 239.188C304.36 239.143 304.39 239.105 304.431 239.082C304.471 239.059 304.519 239.053 304.564 239.065C304.609 239.077 304.647 239.106 304.671 239.146C304.695 239.186 304.702 239.234 304.691 239.279L297.763 265.233C297.753 265.271 297.731 265.305 297.7 265.329C297.669 265.353 297.631 265.366 297.591 265.366Z" fill="white"/>
</svg>
