<svg width="89" height="50" viewBox="0 0 89 50" fill="none" xmlns="http://www.w3.org/2000/svg">
<path d="M82.448 8.67102H81.1036C80.9967 8.6712 80.8925 8.63818 80.8052 8.57654C80.718 8.5149 80.6521 8.4277 80.6167 8.32701C80.5138 8.03199 80.392 7.74384 80.2523 7.46432C80.204 7.36762 80.1875 7.25818 80.2051 7.15157C80.2226 7.04495 80.2734 6.94658 80.3502 6.87044L81.3057 5.9163C81.4028 5.81926 81.4574 5.68771 81.4574 5.55055C81.4574 5.41338 81.4028 5.28183 81.3057 5.18479L79.2414 3.12435C79.1442 3.02739 79.0125 2.97293 78.8751 2.97293C78.7378 2.97293 78.6061 3.02739 78.5089 3.12435L77.5362 4.09571C77.4604 4.17161 77.3628 4.22199 77.257 4.23983C77.1512 4.25768 77.0425 4.24209 76.9459 4.19525C76.6713 4.06135 76.3885 3.94494 76.0992 3.84672C75.9972 3.81203 75.9087 3.74631 75.8461 3.6588C75.7835 3.57128 75.7499 3.46638 75.7501 3.35882V1.98276C75.7501 1.91487 75.7368 1.84764 75.7107 1.78492C75.6847 1.7222 75.6466 1.6652 75.5985 1.6172C75.5505 1.5692 75.4934 1.53112 75.4306 1.50514C75.3678 1.47917 75.3004 1.46581 75.2324 1.46582H72.3142C72.2462 1.46581 72.1789 1.47917 72.116 1.50514C72.0532 1.53112 71.9962 1.5692 71.9481 1.6172C71.9 1.6652 71.8619 1.7222 71.8359 1.78492C71.8098 1.84764 71.7965 1.91487 71.7965 1.98276V3.35882C71.7967 3.46638 71.7631 3.57128 71.7005 3.6588C71.6379 3.74631 71.5494 3.81203 71.4474 3.84672C71.1581 3.94492 70.8753 4.06133 70.6008 4.19525C70.5042 4.24209 70.3955 4.25768 70.2897 4.23983C70.1839 4.22199 70.0863 4.17161 70.0106 4.09571L69.0378 3.12435C68.9406 3.02741 68.8089 2.97296 68.6715 2.97296C68.5342 2.97296 68.4024 3.02741 68.3052 3.12435L66.2408 5.18479C66.1437 5.28183 66.0892 5.41338 66.0892 5.55055C66.0892 5.68771 66.1437 5.81926 66.2408 5.9163L67.1964 6.87044C67.2732 6.94659 67.3239 7.04496 67.3415 7.15158C67.3591 7.2582 67.3425 7.36763 67.2942 7.46432C67.1544 7.74367 67.033 8.03185 66.9308 8.32701C66.8951 8.42769 66.829 8.51483 66.7416 8.57645C66.6542 8.63806 66.5499 8.6711 66.4429 8.67102H65.0985C65.0305 8.671 64.9632 8.68435 64.9004 8.71032C64.8375 8.73629 64.7805 8.77437 64.7324 8.82237C64.6843 8.87038 64.6462 8.92738 64.6202 8.99011C64.5942 9.05284 64.5808 9.12007 64.5808 9.18796V12.103C64.5808 12.1709 64.5942 12.2381 64.6202 12.3009C64.6462 12.3636 64.6843 12.4206 64.7324 12.4686C64.7805 12.5166 64.8375 12.5547 64.9004 12.5807C64.9632 12.6066 65.0305 12.62 65.0985 12.6199H66.4077C66.5166 12.6199 66.6227 12.6541 66.7109 12.7179C66.7991 12.7816 66.8649 12.8715 66.8989 12.9748C66.9999 13.2778 67.1207 13.5739 67.2606 13.8611C67.3081 13.9578 67.3242 14.0669 67.3066 14.1732C67.289 14.2795 67.2387 14.3777 67.1627 14.4541L66.2407 15.3748C66.1925 15.4227 66.1544 15.4797 66.1283 15.5424C66.1023 15.6051 66.0889 15.6723 66.0889 15.7402C66.0889 15.8081 66.1023 15.8754 66.1283 15.9381C66.1544 16.0008 66.1925 16.0577 66.2407 16.1057L68.305 18.1667C68.4022 18.2637 68.534 18.3181 68.6713 18.3181C68.8087 18.3181 68.9404 18.2637 69.0376 18.1667L69.9414 17.2641C70.0184 17.1874 70.1177 17.1369 70.2251 17.1196C70.3324 17.1023 70.4426 17.1193 70.5398 17.1679C70.8322 17.3138 71.1342 17.4397 71.4437 17.5446C71.5463 17.5792 71.6355 17.6451 71.6987 17.7329C71.762 17.8208 71.7961 17.9262 71.7963 18.0344V19.3072C71.7962 19.3751 71.8095 19.4424 71.8354 19.5053C71.8614 19.5681 71.8995 19.6252 71.9476 19.6733C71.9957 19.7214 72.0528 19.7595 72.1157 19.7856C72.1785 19.8116 72.2459 19.825 72.314 19.8251H75.2323C75.3003 19.825 75.3677 19.8116 75.4306 19.7856C75.4934 19.7595 75.5505 19.7214 75.5986 19.6733C75.6467 19.6252 75.6848 19.5681 75.7108 19.5053C75.7367 19.4424 75.7501 19.3751 75.7499 19.3072V18.0346C75.7502 17.9264 75.7843 17.821 75.8475 17.7332C75.9108 17.6453 75.9999 17.5794 76.1025 17.5448C76.4121 17.4399 76.7141 17.314 77.0064 17.1681C77.1037 17.1194 77.2138 17.1025 77.3212 17.1198C77.4286 17.1371 77.5278 17.1876 77.6048 17.2643L78.5087 18.1669C78.6059 18.2639 78.7376 18.3183 78.875 18.3183C79.0123 18.3183 79.144 18.2639 79.2412 18.1669L81.3056 16.1055C81.3537 16.0575 81.3918 16.0006 81.4179 15.9379C81.4439 15.8752 81.4574 15.8079 81.4574 15.74C81.4574 15.6722 81.4439 15.6049 81.4179 15.5422C81.3918 15.4795 81.3537 15.4225 81.3056 15.3746L80.3835 14.4539C80.3075 14.3775 80.2572 14.2793 80.2396 14.173C80.2221 14.0667 80.2381 13.9576 80.2856 13.8609C80.4255 13.5737 80.5464 13.2777 80.6474 12.9746C80.6813 12.8713 80.7471 12.7814 80.8353 12.7177C80.9235 12.654 81.0297 12.6197 81.1385 12.6198H82.4476C82.5156 12.6198 82.583 12.6064 82.6458 12.5805C82.7086 12.5545 82.7657 12.5164 82.8137 12.4684C82.8618 12.4204 82.9 12.3634 82.926 12.3007C82.952 12.2379 82.9653 12.1707 82.9653 12.1028V9.18796C82.9653 9.1201 82.952 9.0529 82.926 8.9902C82.9 8.92749 82.8619 8.87051 82.8139 8.82251C82.7658 8.77451 82.7088 8.73642 82.646 8.71043C82.5833 8.68444 82.516 8.67105 82.448 8.67102ZM73.7737 14.953C72.9204 14.953 72.0863 14.7004 71.3768 14.2271C70.6673 13.7538 70.1143 13.081 69.7877 12.2938C69.4611 11.5066 69.3757 10.6405 69.5421 9.80478C69.7086 8.9691 70.1195 8.20148 70.7228 7.59899C71.3262 6.99651 72.0949 6.58622 72.9318 6.42001C73.7687 6.2538 74.6361 6.33914 75.4244 6.66524C76.2127 6.99134 76.8865 7.54355 77.3605 8.25203C77.8345 8.96051 78.0874 9.79344 78.0874 10.6455C78.0872 11.7879 77.6327 12.8834 76.8238 13.6912C76.0148 14.499 74.9177 14.9528 73.7737 14.953Z" fill="#F4F4F4"/>
<path d="M25.2731 40.1184H24.2856C24.2071 40.1185 24.1305 40.0943 24.0664 40.049C24.0023 40.0037 23.9539 39.9396 23.928 39.8657C23.8523 39.6489 23.7629 39.4373 23.6602 39.232C23.6248 39.1609 23.6127 39.0805 23.6256 39.0022C23.6385 38.9239 23.6758 38.8517 23.7321 38.7957L24.4344 38.0947C24.5057 38.0234 24.5458 37.9268 24.5458 37.826C24.5458 37.7253 24.5057 37.6287 24.4344 37.5574L22.9181 36.044C22.8467 35.9728 22.75 35.9328 22.6491 35.9328C22.5482 35.9328 22.4514 35.9728 22.38 36.044L21.6656 36.7575C21.6099 36.8132 21.5383 36.8502 21.4606 36.8633C21.3829 36.8764 21.303 36.865 21.2322 36.8306C21.0305 36.7322 20.8228 36.6467 20.6103 36.5746C20.5354 36.5491 20.4704 36.5008 20.4244 36.4366C20.3784 36.3723 20.3537 36.2952 20.3539 36.2162V35.2056C20.3539 35.1558 20.3441 35.1064 20.325 35.0603C20.3059 35.0142 20.2778 34.9724 20.2425 34.9371C20.2072 34.9018 20.1653 34.8739 20.1192 34.8548C20.073 34.8357 20.0236 34.8259 19.9736 34.8259H17.8294C17.7795 34.8259 17.73 34.8357 17.6839 34.8548C17.6378 34.8739 17.5958 34.9018 17.5605 34.9371C17.5252 34.9724 17.4972 35.0142 17.4781 35.0603C17.459 35.1064 17.4492 35.1558 17.4492 35.2056V36.2164C17.4493 36.2954 17.4247 36.3725 17.3787 36.4368C17.3327 36.501 17.2677 36.5493 17.1928 36.5748C16.9803 36.6469 16.7726 36.7324 16.5709 36.8308C16.5 36.8652 16.4202 36.8766 16.3425 36.8635C16.2648 36.8504 16.1931 36.8134 16.1375 36.7577L15.4229 36.0442C15.3516 35.9729 15.2548 35.9329 15.1539 35.9329C15.053 35.9329 14.9562 35.9729 14.8848 36.0442L13.3686 37.5576C13.2973 37.6288 13.2572 37.7255 13.2572 37.8262C13.2572 37.927 13.2973 38.0236 13.3686 38.0949L14.0704 38.7957C14.1268 38.8517 14.1641 38.9239 14.177 39.0022C14.1899 39.0805 14.1778 39.1609 14.1424 39.232C14.0396 39.4372 13.9504 39.6489 13.8753 39.8657C13.8491 39.9396 13.8006 40.0036 13.7364 40.0489C13.6723 40.0942 13.5957 40.1184 13.5171 40.1184H12.5294C12.4795 40.1184 12.43 40.1282 12.3839 40.1473C12.3377 40.1664 12.2958 40.1943 12.2605 40.2296C12.2252 40.2649 12.1972 40.3067 12.1781 40.3528C12.159 40.3989 12.1492 40.4482 12.1492 40.4981V42.6392C12.1492 42.6891 12.159 42.7385 12.1781 42.7846C12.1972 42.8306 12.2252 42.8725 12.2605 42.9078C12.2958 42.943 12.3377 42.971 12.3839 42.9901C12.43 43.0091 12.4795 43.019 12.5294 43.0189H13.491C13.571 43.0188 13.649 43.044 13.7138 43.0908C13.7786 43.1376 13.8269 43.2037 13.8519 43.2796C13.9261 43.5021 14.0149 43.7196 14.1176 43.9306C14.1525 44.0016 14.1643 44.0818 14.1514 44.1599C14.1385 44.2379 14.1016 44.3101 14.0457 44.3662L13.3685 45.0425C13.3332 45.0777 13.3052 45.1195 13.286 45.1655C13.2669 45.2116 13.2571 45.2609 13.2571 45.3107C13.2571 45.3606 13.2669 45.4099 13.286 45.4559C13.3052 45.502 13.3332 45.5438 13.3685 45.579L14.8847 47.0932C14.9561 47.1644 15.0529 47.2044 15.1538 47.2044C15.2547 47.2044 15.3515 47.1644 15.4228 47.0932L16.0867 46.4302C16.1433 46.3738 16.2162 46.3367 16.2951 46.3241C16.374 46.3115 16.4548 46.3239 16.5262 46.3598C16.741 46.4669 16.9628 46.5593 17.1902 46.6364C17.2656 46.6618 17.3311 46.7102 17.3775 46.7747C17.424 46.8392 17.449 46.9166 17.4492 46.996V47.9311C17.4491 47.981 17.4589 48.0304 17.478 48.0765C17.497 48.1227 17.525 48.1646 17.5603 48.1999C17.5957 48.2352 17.6376 48.2633 17.6838 48.2824C17.7299 48.3015 17.7794 48.3113 17.8294 48.3113H19.9731C20.023 48.3113 20.0725 48.3015 20.1187 48.2824C20.1649 48.2633 20.2068 48.2352 20.2421 48.1999C20.2774 48.1646 20.3054 48.1227 20.3245 48.0765C20.3436 48.0304 20.3534 47.981 20.3533 47.9311V46.996C20.3535 46.9166 20.3785 46.8392 20.425 46.7747C20.4714 46.7102 20.5369 46.6618 20.6123 46.6364C20.8396 46.5593 21.0615 46.4669 21.2763 46.3598C21.3476 46.3239 21.4285 46.3115 21.5074 46.3241C21.5863 46.3367 21.6592 46.3738 21.7157 46.4302L22.3796 47.0932C22.451 47.1644 22.5478 47.2044 22.6487 47.2044C22.7496 47.2044 22.8464 47.1644 22.9177 47.0932L24.4344 45.579C24.4697 45.5438 24.4977 45.502 24.5168 45.4559C24.5359 45.4099 24.5458 45.3606 24.5458 45.3107C24.5458 45.2609 24.5359 45.2116 24.5168 45.1655C24.4977 45.1195 24.4697 45.0777 24.4344 45.0425L23.7572 44.3662C23.7013 44.31 23.6644 44.2379 23.6515 44.1599C23.6386 44.0818 23.6504 44.0016 23.6852 43.9306C23.788 43.7196 23.8767 43.5021 23.951 43.2796C23.9759 43.2037 24.0243 43.1376 24.0891 43.0908C24.1539 43.044 24.2319 43.0188 24.3119 43.0189H25.2734C25.3234 43.019 25.3728 43.0091 25.419 42.9901C25.4651 42.971 25.507 42.943 25.5423 42.9078C25.5777 42.8725 25.6057 42.8306 25.6248 42.7846C25.6439 42.7385 25.6537 42.6891 25.6537 42.6392V40.4981C25.6537 40.4482 25.6439 40.3988 25.6247 40.3527C25.6056 40.3066 25.5776 40.2647 25.5422 40.2295C25.5069 40.1942 25.4649 40.1662 25.4187 40.1472C25.3725 40.1281 25.323 40.1183 25.2731 40.1184ZM18.9016 44.7326C18.2749 44.7326 17.6622 44.547 17.1411 44.1993C16.6201 43.8516 16.2139 43.3575 15.9741 42.7793C15.7342 42.2011 15.6715 41.5649 15.7938 40.9511C15.916 40.3374 16.2178 39.7736 16.661 39.3311C17.1041 38.8885 17.6687 38.5872 18.2834 38.4651C18.8981 38.343 19.5352 38.4057 20.1142 38.6452C20.6932 38.8846 21.1881 39.2902 21.5362 39.8105C21.8844 40.3309 22.0703 40.9426 22.0703 41.5684C22.0703 41.984 21.9883 42.3954 21.8291 42.7793C21.6698 43.1632 21.4364 43.512 21.1422 43.8058C20.8479 44.0996 20.4986 44.3327 20.1142 44.4917C19.7297 44.6507 19.3177 44.7326 18.9016 44.7326Z" fill="#F4F4F4"/>
<path d="M17.8673 22.6218H16.5228C16.4159 22.622 16.3116 22.5889 16.2244 22.5273C16.1372 22.4657 16.0713 22.3785 16.0359 22.2778C15.933 21.9827 15.8112 21.6945 15.6715 21.415C15.6232 21.3183 15.6067 21.2089 15.6243 21.1022C15.6418 20.9956 15.6926 20.8973 15.7694 20.8211L16.7249 19.867C16.822 19.7699 16.8765 19.6384 16.8765 19.5012C16.8765 19.3641 16.822 19.2325 16.7249 19.1355L14.6607 17.075C14.5635 16.9781 14.4317 16.9236 14.2944 16.9236C14.157 16.9236 14.0253 16.9781 13.9281 17.075L12.9553 18.0464C12.8796 18.1223 12.782 18.1727 12.6762 18.1906C12.5704 18.2084 12.4616 18.1928 12.3651 18.1459C12.0905 18.012 11.8077 17.8956 11.5184 17.7974C11.4164 17.7627 11.3279 17.697 11.2653 17.6095C11.2027 17.522 11.1691 17.4171 11.1693 17.3095V15.9334C11.1693 15.8655 11.156 15.7983 11.13 15.7356C11.104 15.6729 11.0658 15.6159 11.0177 15.5679C10.9697 15.5198 10.9126 15.4818 10.8498 15.4558C10.787 15.4298 10.7196 15.4165 10.6516 15.4165H7.73335C7.66537 15.4165 7.59805 15.4299 7.53524 15.4558C7.47243 15.4818 7.41537 15.5199 7.3673 15.5679C7.31923 15.6159 7.28111 15.6729 7.25511 15.7356C7.22911 15.7983 7.21574 15.8656 7.21576 15.9334V17.3095C7.21595 17.4171 7.18238 17.522 7.11977 17.6095C7.05716 17.697 6.96867 17.7627 6.86673 17.7974C6.57737 17.8956 6.29454 18.012 6.01994 18.1459C5.92344 18.1928 5.81469 18.2084 5.70887 18.1906C5.60306 18.1727 5.50547 18.1223 5.42974 18.0464L4.45698 17.075C4.3598 16.9781 4.22806 16.9236 4.0907 16.9236C3.95334 16.9236 3.8216 16.9781 3.72442 17.075L1.65995 19.1355C1.56288 19.2325 1.50835 19.3641 1.50835 19.5012C1.50835 19.6384 1.56288 19.7699 1.65995 19.867L2.61557 20.8211C2.69234 20.8973 2.74311 20.9956 2.76068 21.1023C2.77825 21.2089 2.76171 21.3183 2.71342 21.415C2.57356 21.6944 2.45214 21.9826 2.34994 22.2778C2.31422 22.3785 2.24813 22.4656 2.16076 22.5272C2.0734 22.5888 1.96906 22.6219 1.86211 22.6218H0.517682C0.449697 22.6218 0.38237 22.6351 0.319551 22.6611C0.256732 22.687 0.199653 22.7251 0.151575 22.7731C0.103497 22.8211 0.0653648 22.8781 0.0393566 22.9408C0.0133484 23.0035 -2.52409e-05 23.0708 8.07316e-08 23.1386V26.0537C-3.7901e-05 26.1216 0.0133264 26.1888 0.0393289 26.2516C0.0653314 26.3143 0.103462 26.3713 0.151541 26.4193C0.19962 26.4673 0.256704 26.5054 0.319529 26.5314C0.382354 26.5573 0.449688 26.5707 0.517682 26.5706H1.82677C1.93564 26.5706 2.04175 26.6049 2.12995 26.6686C2.21816 26.7323 2.28396 26.8222 2.31796 26.9255C2.41899 27.2286 2.53984 27.5246 2.67971 27.8119C2.72717 27.9086 2.74324 28.0177 2.72569 28.124C2.70813 28.2302 2.65782 28.3284 2.58176 28.4048L1.65976 29.3255C1.61165 29.3734 1.57349 29.4304 1.54745 29.4931C1.52141 29.5558 1.508 29.623 1.508 29.6909C1.508 29.7588 1.52141 29.826 1.54745 29.8887C1.57349 29.9514 1.61165 30.0084 1.65976 30.0564L3.72413 32.1177C3.82131 32.2146 3.95305 32.2691 4.09041 32.2691C4.22777 32.2691 4.35951 32.2146 4.45669 32.1177L5.36049 31.2151C5.4375 31.1384 5.53673 31.0878 5.64413 31.0705C5.75154 31.0533 5.86165 31.0702 5.95888 31.1189C6.25127 31.2648 6.55327 31.3906 6.86278 31.4954C6.96542 31.5301 7.05462 31.596 7.11787 31.6838C7.18112 31.7717 7.21525 31.8771 7.21548 31.9853V33.2581C7.21536 33.3261 7.22866 33.3934 7.25462 33.4562C7.28058 33.519 7.31869 33.5761 7.36676 33.6242C7.41483 33.6723 7.47193 33.7104 7.53478 33.7365C7.59764 33.7625 7.66501 33.7759 7.73306 33.7759H10.6513C10.7194 33.7759 10.7868 33.7625 10.8497 33.7365C10.9125 33.7105 10.9696 33.6723 11.0177 33.6242C11.0658 33.5761 11.1039 33.519 11.1299 33.4562C11.1558 33.3934 11.1691 33.3261 11.169 33.2581V31.9853C11.1692 31.8771 11.2034 31.7717 11.2666 31.6838C11.3299 31.596 11.4191 31.5301 11.5217 31.4954C11.8312 31.3906 12.1332 31.2648 12.4255 31.1189C12.5228 31.0702 12.6329 31.0533 12.7403 31.0705C12.8477 31.0878 12.9469 31.1384 13.0239 31.2151L13.9278 32.1177C14.025 32.2146 14.1567 32.2691 14.2941 32.2691C14.4314 32.2691 14.5632 32.2146 14.6604 32.1177L16.7246 30.0564C16.7728 30.0084 16.8109 29.9514 16.837 29.8887C16.863 29.826 16.8764 29.7588 16.8764 29.6909C16.8764 29.623 16.863 29.5558 16.837 29.4931C16.8109 29.4304 16.7728 29.3734 16.7246 29.3255L15.8026 28.4048C15.7266 28.3284 15.6763 28.2302 15.6587 28.124C15.6412 28.0177 15.6572 27.9086 15.7047 27.8119C15.8446 27.5247 15.9655 27.2286 16.0664 26.9255C16.1004 26.8222 16.1662 26.7323 16.2545 26.6686C16.3427 26.6049 16.4488 26.5706 16.5576 26.5706H17.8668C17.9348 26.5707 18.0021 26.5573 18.0649 26.5313C18.1278 26.5054 18.1848 26.4673 18.2329 26.4193C18.281 26.3713 18.3191 26.3143 18.3451 26.2515C18.3711 26.1888 18.3844 26.1216 18.3844 26.0537V23.1386C18.3845 23.0016 18.33 22.8702 18.233 22.7733C18.1361 22.6764 18.0045 22.6219 17.8673 22.6218ZM9.19288 28.9036C8.33961 28.9037 7.50548 28.6511 6.79597 28.1778C6.08647 27.7045 5.53347 27.0317 5.2069 26.2445C4.88034 25.4573 4.79487 24.5911 4.96132 23.7555C5.12776 22.9198 5.53864 22.1522 6.142 21.5497C6.74535 20.9472 7.51408 20.5369 8.35096 20.3707C9.18784 20.2045 10.0553 20.2898 10.8436 20.6159C11.6319 20.942 12.3056 21.4942 12.7797 22.2027C13.2537 22.9112 13.5066 23.7441 13.5065 24.5962C13.5064 25.7385 13.0519 26.8341 12.243 27.6419C11.434 28.4496 10.3369 28.9035 9.19288 28.9036Z" fill="#F4F4F4"/>
<path d="M13.6103 41.5947L64.25 41.5947C65.4936 41.5947 66.5017 40.5881 66.5017 39.3463V2.32349C66.5017 1.0817 65.4936 0.0750237 64.25 0.0750237L13.6103 0.0750237C12.3667 0.0750237 11.3586 1.0817 11.3586 2.32349L11.3586 39.3463C11.3586 40.5881 12.3667 41.5947 13.6103 41.5947Z" fill="white"/>
<path d="M11.2837 39.3462V2.32338C11.2844 1.70739 11.5298 1.11685 11.966 0.681285C12.4022 0.245723 12.9936 0.000712657 13.6105 0L64.2504 0C64.8673 0.000712657 65.4587 0.245723 65.8949 0.681285C66.3311 1.11685 66.5765 1.70739 66.5772 2.32338V39.3462C66.5765 39.9622 66.3311 40.5527 65.8949 40.9883C65.4587 41.4239 64.8673 41.6689 64.2504 41.6695H13.6105C12.9936 41.6689 12.4022 41.4239 11.966 40.9883C11.5298 40.5527 11.2844 39.9622 11.2837 39.3462ZM13.6105 0.149936C13.0334 0.150598 12.4802 0.379808 12.0721 0.787284C11.664 1.19476 11.4345 1.74722 11.4338 2.32348V39.3462C11.4345 39.9224 11.664 40.4749 12.0721 40.8824C12.4802 41.2898 13.0334 41.519 13.6105 41.5197H64.2504C64.8275 41.519 65.3808 41.2898 65.7888 40.8824C66.1969 40.4749 66.4264 39.9224 66.4271 39.3462V2.32338C66.4264 1.74712 66.1969 1.19464 65.7888 0.787159C65.3808 0.379679 64.8275 0.150476 64.2504 0.14984L13.6105 0.149936Z" fill="#292A2E"/>
<path d="M11.3589 2.32342V4.58592H66.5018V2.32342C66.5018 1.72715 66.2646 1.1553 65.8424 0.733647C65.4202 0.311989 64.8476 0.0750532 64.2505 0.0749512H13.6106C13.0134 0.0749512 12.4407 0.311842 12.0184 0.733511C11.5961 1.15518 11.3589 1.72709 11.3589 2.32342Z" fill="#292A2E"/>
<path d="M21.0649 25.1916C19.8591 25.1916 18.6804 24.8345 17.6778 24.1656C16.6752 23.4966 15.8938 22.5458 15.4323 21.4334C14.9709 20.321 14.8502 19.097 15.0854 17.916C15.3206 16.7351 15.9013 15.6504 16.7539 14.799C17.6065 13.9476 18.6929 13.3677 19.8755 13.1328C21.0581 12.8979 22.2839 13.0185 23.3979 13.4793C24.512 13.9401 25.4641 14.7204 26.134 15.7215C26.8039 16.7226 27.1615 17.8997 27.1615 19.1037C27.1596 20.7177 26.5167 22.2651 25.3738 23.4064C24.2308 24.5477 22.6812 25.1897 21.0649 25.1916ZM21.0649 13.2082C19.8972 13.2082 18.7557 13.554 17.7848 14.2018C16.8139 14.8496 16.0572 15.7703 15.6103 16.8476C15.1634 17.9249 15.0465 19.1103 15.2743 20.2539C15.5021 21.3975 16.0644 22.448 16.8901 23.2725C17.7158 24.097 18.7678 24.6585 19.9131 24.8859C21.0583 25.1134 22.2454 24.9967 23.3242 24.5505C24.403 24.1042 25.3251 23.3486 25.9739 22.3791C26.6226 21.4096 26.9689 20.2697 26.9689 19.1037C26.9671 17.5406 26.3446 16.042 25.2378 14.9367C24.1309 13.8314 22.6302 13.2096 21.0649 13.2078V13.2082Z" fill="#292A2E"/>
<path d="M38.9304 25.1916C37.7246 25.1916 36.5458 24.8345 35.5433 24.1656C34.5407 23.4966 33.7593 22.5458 33.2978 21.4334C32.8364 20.321 32.7156 19.097 32.9509 17.916C33.1861 16.7351 33.7668 15.6504 34.6194 14.799C35.472 13.9476 36.5583 13.3677 37.741 13.1328C38.9236 12.8979 40.1494 13.0185 41.2634 13.4793C42.3774 13.9401 43.3296 14.7204 43.9995 15.7215C44.6694 16.7226 45.027 17.8997 45.027 19.1037C45.0251 20.7177 44.3822 22.2651 43.2393 23.4064C42.0963 24.5477 40.5467 25.1897 38.9304 25.1916ZM38.9304 13.2082C37.7627 13.2082 36.6212 13.554 35.6503 14.2018C34.6794 14.8496 33.9226 15.7703 33.4758 16.8476C33.0289 17.9249 32.912 19.1103 33.1398 20.2539C33.3676 21.3975 33.9299 22.448 34.7556 23.2725C35.5813 24.097 36.6333 24.6585 37.7785 24.8859C38.9238 25.1134 40.1109 24.9967 41.1897 24.5505C42.2685 24.1042 43.1906 23.3486 43.8393 22.3791C44.4881 21.4096 44.8343 20.2697 44.8343 19.1037C44.8326 17.5406 44.2101 16.042 43.1032 14.9367C41.9964 13.8314 40.4957 13.2096 38.9304 13.2078V13.2082Z" fill="#292A2E"/>
<path d="M56.7958 25.1916C55.59 25.1916 54.4113 24.8345 53.4087 24.1656C52.4062 23.4966 51.6247 22.5458 51.1633 21.4334C50.7019 20.321 50.5811 19.097 50.8164 17.916C51.0516 16.7351 51.6323 15.6504 52.4849 14.799C53.3375 13.9476 54.4238 13.3677 55.6064 13.1328C56.7891 12.8979 58.0149 13.0185 59.1289 13.4793C60.2429 13.9401 61.1951 14.7204 61.865 15.7215C62.5349 16.7226 62.8924 17.8997 62.8924 19.1037C62.8906 20.7177 62.2477 22.2651 61.1047 23.4064C59.9618 24.5477 58.4122 25.1897 56.7958 25.1916ZM56.7958 13.2082C55.6281 13.2082 54.4867 13.554 53.5158 14.2018C52.5448 14.8496 51.7881 15.7703 51.3413 16.8476C50.8944 17.9249 50.7775 19.1103 51.0053 20.2539C51.2331 21.3975 51.7954 22.448 52.6211 23.2725C53.4468 24.097 54.4988 24.6585 55.644 24.8859C56.7893 25.1134 57.9764 24.9967 59.0552 24.5505C60.134 24.1042 61.0561 23.3486 61.7048 22.3791C62.3535 21.4096 62.6998 20.2697 62.6998 19.1037C62.6981 17.5406 62.0755 16.042 60.9687 14.9367C59.8619 13.8314 58.3612 13.2096 56.7958 13.2078V13.2082Z" fill="#292A2E"/>
<path opacity="0.6" d="M60.591 19.981V16.1904H56.2112V19.1645H59.4496L60.591 19.981Z" fill="#0CBC8B"/>
<path d="M53.0002 22.7356V17.6091H58.9239V21.6314H54.544L53.0002 22.7356Z" fill="#0CBC8B"/>
<path d="M54.3432 20.1724C54.6267 20.1724 54.8565 19.9429 54.8565 19.6598C54.8565 19.3767 54.6267 19.1472 54.3432 19.1472C54.0597 19.1472 53.8298 19.3767 53.8298 19.6598C53.8298 19.9429 54.0597 20.1724 54.3432 20.1724Z" fill="white"/>
<path d="M55.9621 20.1724C56.2456 20.1724 56.4754 19.9429 56.4754 19.6598C56.4754 19.3767 56.2456 19.1472 55.9621 19.1472C55.6786 19.1472 55.4487 19.3767 55.4487 19.6598C55.4487 19.9429 55.6786 20.1724 55.9621 20.1724Z" fill="white"/>
<path d="M57.5815 20.1724C57.865 20.1724 58.0948 19.9429 58.0948 19.6598C58.0948 19.3767 57.865 19.1472 57.5815 19.1472C57.298 19.1472 57.0681 19.3767 57.0681 19.6598C57.0681 19.9429 57.298 20.1724 57.5815 20.1724Z" fill="white"/>
<path d="M24.1022 20.9665C24.1612 21.0058 24.2028 21.0663 24.2183 21.1354C24.2339 21.2045 24.2222 21.2769 24.1857 21.3376L23.8536 21.8902C23.7655 22.0396 23.6232 22.1495 23.4562 22.197C22.9043 22.3482 21.6871 22.3785 19.736 20.4305C17.7849 18.4825 17.8156 17.2664 17.967 16.7155C18.0145 16.5487 18.1244 16.4066 18.274 16.3185L18.8275 15.987C18.8883 15.9506 18.9609 15.9389 19.03 15.9545C19.0992 15.9701 19.1597 16.0116 19.199 16.0706L20.0814 17.3923C20.12 17.4502 20.1352 17.5205 20.124 17.5891C20.1129 17.6577 20.0762 17.7195 20.0212 17.7623L19.5256 18.147C19.4736 18.187 19.4377 18.2444 19.4244 18.3086C19.4112 18.3728 19.4214 18.4397 19.4532 18.497C19.5986 18.7582 19.7364 19.0661 20.4189 19.7485C21.1014 20.4308 21.4109 20.5676 21.6721 20.7128C21.7296 20.7446 21.7965 20.7548 21.8608 20.7414C21.9251 20.7281 21.9825 20.6922 22.0225 20.6402L22.4078 20.1456C22.4505 20.0907 22.5125 20.0539 22.5813 20.0428C22.65 20.0316 22.7204 20.0469 22.7784 20.0855L24.1022 20.9665Z" fill="#0CBC8B"/>
<path opacity="0.6" d="M42.072 21.244H35.8131C35.7427 21.2443 35.675 21.2168 35.625 21.1673C35.575 21.1179 35.5467 21.0507 35.5463 20.9804L35.5244 17.2345C35.5242 17.2034 35.5302 17.1727 35.5419 17.1439C35.5536 17.1152 35.5709 17.0891 35.5928 17.067C35.6146 17.0449 35.6406 17.0274 35.6692 17.0154C35.6979 17.0033 35.7286 16.9971 35.7597 16.9969L42.0764 16.9646C42.1391 16.9643 42.1993 16.9888 42.2439 17.0328C42.2885 17.0769 42.3137 17.1368 42.3141 17.1994L42.336 20.9776C42.3361 21.0124 42.3295 21.0469 42.3163 21.0791C42.3031 21.1113 42.2837 21.1407 42.2592 21.1654C42.2347 21.1901 42.2056 21.2098 42.1734 21.2233C42.1413 21.2368 42.1068 21.2438 42.072 21.244Z" fill="#0CBC8B"/>
<path d="M42.2465 17.0353C41.8728 17.3094 39.1588 19.304 39.1559 19.306C39.0822 19.3472 38.9988 19.3681 38.9143 19.3664C38.8298 19.3647 38.7473 19.3405 38.6753 19.2963L35.5884 17.0718C35.6104 17.0483 35.6369 17.0295 35.6664 17.0166C35.6959 17.0038 35.7277 16.997 35.7599 16.9968L42.076 16.9641C42.1078 16.964 42.1392 16.9703 42.1685 16.9825C42.1977 16.9947 42.2243 17.0127 42.2465 17.0353Z" fill="#0CBC8B"/>
<path d="M68.1527 21.6554C69.365 21.6554 70.3477 20.6741 70.3477 19.4635C70.3477 18.253 69.365 17.2717 68.1527 17.2717C66.9405 17.2717 65.9578 18.253 65.9578 19.4635C65.9578 20.6741 66.9405 21.6554 68.1527 21.6554Z" fill="#367CFF"/>
<path d="M67.124 19.256C67.0676 19.256 67.0123 19.2395 66.9652 19.2085C66.918 19.1775 66.8809 19.1335 66.8586 19.0817C66.819 18.99 65.9002 16.8003 66.8982 13.5881C67.9792 10.1086 71.7445 10.0681 71.7824 10.0681C71.859 10.0681 71.9325 10.0985 71.9867 10.1526C72.0409 10.2067 72.0713 10.2801 72.0713 10.3566C72.0713 10.4332 72.0409 10.5065 71.9867 10.5607C71.9325 10.6148 71.859 10.6452 71.7824 10.6452C71.6448 10.6452 68.403 10.6905 67.4495 13.7589C66.5143 16.7692 67.3798 18.8324 67.3887 18.8529C67.4077 18.8968 67.4154 18.9447 67.4113 18.9923C67.4071 19.0399 67.3912 19.0858 67.3649 19.1257C67.3386 19.1656 67.3028 19.1984 67.2606 19.2211C67.2185 19.2438 67.1714 19.2557 67.1235 19.2558L67.124 19.256Z" fill="#367CFF"/>
<path d="M67.3578 21.6556C68.5701 21.6556 69.5528 20.6743 69.5528 19.4638C69.5528 18.2533 68.5701 17.272 67.3578 17.272C66.1456 17.272 65.1628 18.2533 65.1628 19.4638C65.1628 20.6743 66.1456 21.6556 67.3578 21.6556Z" fill="#367CFF"/>
<path opacity="0.3" d="M67.3578 21.6556C68.5701 21.6556 69.5528 20.6743 69.5528 19.4638C69.5528 18.2533 68.5701 17.272 67.3578 17.272C66.1456 17.272 65.1628 18.2533 65.1628 19.4638C65.1628 20.6743 66.1456 21.6556 67.3578 21.6556Z" fill="white"/>
<path d="M67.8844 21.6556C69.0967 21.6556 70.0794 20.6743 70.0794 19.4638C70.0794 18.2533 69.0967 17.272 67.8844 17.272C66.6722 17.272 65.6895 18.2533 65.6895 19.4638C65.6895 20.6743 66.6722 21.6556 67.8844 21.6556Z" fill="#367CFF"/>
<path d="M78.2384 15.52C78.2384 15.52 78.9437 18.8943 79.7858 19.9152C82.2106 22.854 83.2747 26.3843 81.5349 28.5376C79.795 30.691 67.6743 32.4302 66.1248 28.2246C64.8206 24.6839 66.2198 24.057 66.2368 20.989C66.2445 19.6007 66.4368 16.673 66.4368 16.673" fill="#0A0A0A"/>
<path d="M68.1082 26.4396C68.1303 26.4367 68.3762 30.5107 73.1158 30.1555C76.397 29.9101 77.5669 26.4335 77.6426 26.4335C77.2888 26.3585 76.6931 26.2493 76.536 26.1656C76.0193 25.8883 75.3803 25.5999 75.2134 24.598C75.1171 24.0209 75.2804 21.0662 75.2302 20.4817L70.1936 21.6042C70.264 22.8382 70.7566 25.6989 69.0302 26.2051C68.7425 26.2895 68.433 26.3665 68.1082 26.4396Z" fill="#E98862"/>
<path opacity="0.5" d="M70.1226 25.0363C70.2014 24.7824 70.2523 24.5207 70.2741 24.2558C70.3294 23.6512 70.3184 23.0424 70.2411 22.4402C71.2647 22.3022 72.2291 21.8803 73.0246 21.2224C73.1182 21.5673 73.6325 23.0743 73.49 23.4021C73.221 24.0218 71.9562 25.0363 70.1226 25.0363Z" fill="#0C0C0C"/>
<path d="M71.0191 24.1414C73.0128 24.0666 75.4528 22.9377 75.6268 20.2497L75.7839 17.8243C75.9579 15.1365 74.6852 12.8662 72.1508 12.7025C69.6163 12.539 67.5807 14.5955 67.4067 17.2835L67.3371 18.3571C67.2704 19.3889 67.4621 24.2746 71.0191 24.1414Z" fill="#E98862"/>
<path opacity="0.1" d="M71.8067 20.5435C72.1357 20.5385 72.3995 20.3392 72.3958 20.0985C72.3921 19.8577 72.1224 19.6666 71.7933 19.6716C71.4643 19.6766 71.2005 19.8759 71.2042 20.1166C71.2079 20.3574 71.4776 20.5485 71.8067 20.5435Z" fill="#0C0C0C"/>
<path opacity="0.1" d="M68.2564 20.0558C68.2594 20.296 67.9957 20.4953 67.6667 20.5008C67.6098 20.5016 67.5529 20.4966 67.4971 20.4857C67.4439 20.2057 67.4063 19.9343 67.3806 19.6819C67.4675 19.6474 67.5601 19.6294 67.6537 19.6288C67.983 19.6233 68.2526 19.8144 68.2564 20.0558Z" fill="#0C0C0C"/>
<path d="M68.1667 18.2451C68.3389 18.2451 68.4785 18.1058 68.4785 17.9341C68.4785 17.7623 68.3389 17.623 68.1667 17.623C67.9946 17.623 67.855 17.7623 67.855 17.9341C67.855 18.1058 67.9946 18.2451 68.1667 18.2451Z" fill="#0C0C0C"/>
<path d="M71.2517 18.4753C71.4239 18.4753 71.5635 18.3361 71.5635 18.1643C71.5635 17.9925 71.4239 17.8533 71.2517 17.8533C71.0795 17.8533 70.9399 17.9925 70.9399 18.1643C70.9399 18.3361 71.0795 18.4753 71.2517 18.4753Z" fill="#0C0C0C"/>
<path opacity="0.5" d="M69.7869 20.5954H69.7819C69.6792 20.588 69.5769 20.5749 69.4756 20.5564C69.3242 20.5275 69.1238 20.4735 69.1326 20.3391C69.1422 20.1859 69.6695 18.5606 69.7297 18.3757C69.7355 18.3602 69.747 18.3474 69.7619 18.3402C69.7768 18.3329 69.794 18.3318 69.8098 18.3369C69.8255 18.342 69.8387 18.353 69.8465 18.3676C69.8544 18.3822 69.8562 18.3993 69.8517 18.4152C69.6267 19.1077 69.2672 20.2443 69.2606 20.3474C69.2828 20.392 69.5355 20.4511 69.7903 20.4676C69.8068 20.4688 69.8221 20.4763 69.8331 20.4885C69.8442 20.5007 69.8501 20.5167 69.8497 20.5332C69.8492 20.5496 69.8425 20.5653 69.8308 20.5769C69.8191 20.5885 69.8034 20.5952 69.787 20.5955L69.7869 20.5954Z" fill="#0C0C0C"/>
<path opacity="0.5" d="M70.2932 21.6838C69.8828 21.6812 69.4787 21.5826 69.1135 21.3957C69.106 21.3921 69.0992 21.3869 69.0937 21.3806C69.0881 21.3743 69.0838 21.367 69.0811 21.3591C69.0756 21.3431 69.0767 21.3255 69.0842 21.3103C69.0916 21.2951 69.1049 21.2834 69.1209 21.2779C69.137 21.2725 69.1546 21.2736 69.1699 21.281C69.9574 21.6651 70.6916 21.6528 71.2923 21.2455C71.3045 21.2369 71.317 21.2289 71.33 21.2216C71.3451 21.2147 71.3622 21.214 71.3778 21.2194C71.3935 21.2249 71.4064 21.2362 71.4138 21.2509C71.4213 21.2657 71.4228 21.2827 71.4179 21.2985C71.413 21.3143 71.4022 21.3276 71.3878 21.3356C71.383 21.3383 71.3752 21.3437 71.3643 21.3512C71.0484 21.5658 70.6755 21.6816 70.2932 21.6838Z" fill="#0C0C0C"/>
<path d="M77.8359 18.4046L75.5655 18.2711C73.8003 17.7983 72.9335 14.9541 72.9335 14.9541C72.9335 14.9541 71.5213 17.1929 66.4323 16.6707C66.4323 16.6707 66.1843 9.55688 73.7493 10.7614C76.1821 11.1488 78.1714 13.2826 78.3515 16.4794C78.4777 18.7198 77.8359 18.4046 77.8359 18.4046Z" fill="#0A0A0A"/>
<path d="M75.4164 21.0586C76.1869 21.1084 76.8643 20.3258 76.9141 19.5567C76.9639 18.7876 76.367 18.3232 75.5968 18.2734L75.1665 18.7632L74.7542 21.0159L75.4164 21.0586Z" fill="#E98862"/>
<path d="M69.0336 17.2302C68.828 17.1231 68.5977 17.0722 68.3661 17.0826C68.2496 17.0871 68.1345 17.1091 68.0246 17.1479C67.9137 17.1864 67.8081 17.2387 67.7103 17.3034L67.7072 17.3053C67.6963 17.312 67.6832 17.3141 67.6707 17.3113C67.6582 17.3085 67.6473 17.3009 67.6404 17.2901C67.6335 17.2794 67.631 17.2664 67.6335 17.2539C67.6361 17.2414 67.6434 17.2304 67.654 17.2232C67.7571 17.1498 67.869 17.0897 67.9871 17.0443C68.1059 16.9979 68.2311 16.9697 68.3584 16.9605C68.616 16.9403 68.8744 16.9894 69.1065 17.1027C69.124 17.1114 69.1373 17.1267 69.1434 17.1451C69.1496 17.1636 69.1482 17.1838 69.1395 17.2012C69.1307 17.2186 69.1154 17.2318 69.0969 17.238C69.0784 17.2442 69.0582 17.2427 69.0407 17.234L69.0389 17.2331L69.0336 17.2302Z" fill="#0C0C0C"/>
<path d="M71.0915 17.2369C71.336 17.1534 71.5985 17.1368 71.8516 17.1889C71.9768 17.2138 72.0974 17.2573 72.2096 17.318C72.3212 17.3777 72.4247 17.4512 72.5178 17.5367C72.5272 17.5452 72.533 17.5569 72.5339 17.5695C72.5347 17.5822 72.5307 17.5946 72.5225 17.6043C72.5144 17.614 72.5028 17.6202 72.4902 17.6215C72.4776 17.6229 72.465 17.6193 72.4549 17.6116L72.452 17.6093C72.363 17.5329 72.2648 17.468 72.1596 17.416C72.0553 17.3639 71.9438 17.3279 71.8288 17.309C71.6003 17.2699 71.3654 17.2918 71.1482 17.3725L71.1429 17.3746C71.1339 17.3781 71.1243 17.3798 71.1146 17.3796C71.1049 17.3794 71.0954 17.3773 71.0865 17.3735C71.0777 17.3696 71.0697 17.364 71.063 17.3571C71.0563 17.3501 71.051 17.3419 71.0475 17.3329C71.044 17.324 71.0423 17.3144 71.0425 17.3047C71.0427 17.2951 71.0448 17.2856 71.0487 17.2768C71.0526 17.268 71.0581 17.26 71.0651 17.2533C71.0721 17.2466 71.0803 17.2414 71.0893 17.2379L71.0915 17.2369Z" fill="#0C0C0C"/>
<path opacity="0.52" d="M70.2811 22.2917C70.207 22.2923 70.1329 22.2867 70.0596 22.2749C70.0513 22.2735 70.0433 22.2706 70.0362 22.2662C70.029 22.2618 70.0228 22.2561 70.0178 22.2493C70.0129 22.2425 70.0093 22.2347 70.0074 22.2266C70.0054 22.2184 70.0051 22.2099 70.0064 22.2016C70.0077 22.1933 70.0107 22.1854 70.0151 22.1782C70.0195 22.1711 70.0253 22.1648 70.0321 22.1599C70.0389 22.155 70.0466 22.1514 70.0548 22.1495C70.063 22.1475 70.0714 22.1472 70.0798 22.1485C70.5205 22.2185 70.7426 22.0266 70.7519 22.0185C70.7645 22.0071 70.7811 22.0012 70.7981 22.002C70.8151 22.0029 70.831 22.0104 70.8424 22.023C70.8538 22.0356 70.8597 22.0522 70.8589 22.0692C70.858 22.0861 70.8504 22.102 70.8378 22.1134C70.6785 22.2353 70.4818 22.2983 70.2811 22.2917Z" fill="#0C0C0C"/>
<path d="M75.5904 18.2372C74.0287 17.8849 73.3968 16.9257 73.1418 16.1831C72.9747 15.6874 72.9131 15.1624 72.9611 14.6416L73.0093 14.648C72.9622 15.162 73.0232 15.6802 73.1883 16.1692C73.4397 16.8996 74.0624 17.8427 75.6015 18.1903L75.5904 18.2372Z" fill="#0C0C0C"/>
<path d="M51.5765 28.0073L50.031 25.0972C49.997 25.0333 49.95 24.9771 49.8931 24.9323C49.8362 24.8875 49.7706 24.855 49.7004 24.8369C49.6303 24.8188 49.5571 24.8155 49.4856 24.8272C49.4141 24.8389 49.3458 24.8654 49.285 24.9049C49.1751 24.9812 49.0975 25.0956 49.0673 25.2258C49.037 25.356 49.0563 25.4928 49.1213 25.6097L49.4527 26.2337L47.5085 24.749C47.2953 24.5802 46.9255 24.5092 46.7515 24.7606C46.6783 24.853 46.6386 24.9674 46.6388 25.0852C46.6391 25.203 46.6793 25.3172 46.753 25.4093C46.7509 25.4109 46.749 25.4127 46.7472 25.4147C46.7459 25.4164 46.7456 25.4184 46.7446 25.4202L46.4158 25.1592C46.3548 25.111 46.2839 25.077 46.2081 25.0597C46.1324 25.0423 46.0537 25.0421 45.9778 25.0589C45.9019 25.0758 45.8308 25.1094 45.7695 25.1572C45.7083 25.205 45.6585 25.2659 45.6238 25.3353C45.5714 25.4458 45.5585 25.5709 45.5874 25.6897C45.6163 25.8085 45.6851 25.9139 45.7824 25.9881L45.9225 26.0989C45.9211 26.1044 45.9207 26.1101 45.9214 26.1158C45.8095 26.0628 45.6823 26.0514 45.5627 26.0835C45.4431 26.1155 45.3388 26.189 45.2685 26.2908C45.1948 26.4045 45.1668 26.5417 45.19 26.6751C45.2132 26.8085 45.286 26.9283 45.3937 27.0105L45.7413 27.2857C45.7336 27.2852 45.726 27.2866 45.7189 27.2897C45.7119 27.2928 45.7057 27.2976 45.7009 27.3035C45.6956 27.3109 45.6925 27.3197 45.6921 27.3287C45.5793 27.3093 45.4632 27.3273 45.3616 27.3801C45.2601 27.433 45.1787 27.5176 45.1301 27.6211C45.0812 27.7308 45.0708 27.8538 45.1007 27.9702C45.1305 28.0865 45.1988 28.1894 45.2945 28.2622L48.2275 30.584C48.6378 30.9087 49.1359 31.1038 49.658 31.144C50.18 31.1843 50.7022 31.068 51.1576 30.81C51.5503 30.5875 51.8406 30.221 51.9669 29.7882C52.0933 29.3554 52.0456 28.8904 51.8341 28.4922L51.5765 28.0073Z" fill="#E98862"/>
<g opacity="0.2">
<path d="M48.6701 26.8881C48.6622 26.8979 48.6508 26.9042 48.6383 26.9057C48.6258 26.9072 48.6132 26.9037 48.6033 26.8961L46.7562 25.4818C46.7511 25.478 46.7469 25.4732 46.7438 25.4677C46.7406 25.4622 46.7385 25.4562 46.7377 25.4499C46.7369 25.4437 46.7373 25.4373 46.7389 25.4312C46.7406 25.4251 46.7434 25.4194 46.7473 25.4143C46.7511 25.4093 46.7559 25.4051 46.7614 25.402C46.7669 25.3988 46.7729 25.3967 46.7792 25.3959C46.7855 25.3951 46.7918 25.3955 46.798 25.3971C46.8041 25.3988 46.8098 25.4016 46.8148 25.4054L48.6619 26.8198C48.672 26.8276 48.6786 26.839 48.6803 26.8516C48.6819 26.8642 48.6785 26.877 48.6708 26.8871L48.6701 26.8881Z" fill="#0C0C0C"/>
</g>
<g opacity="0.2">
<path d="M48.0679 27.7188C48.06 27.7286 48.0486 27.7349 48.0361 27.7364C48.0236 27.7379 48.0111 27.7344 48.0011 27.7268L45.94 26.1484C45.9299 26.1407 45.9232 26.1292 45.9216 26.1166C45.9199 26.104 45.9233 26.0912 45.931 26.0811C45.9391 26.0714 45.9505 26.0651 45.963 26.0634C45.9755 26.0618 45.9881 26.0649 45.9984 26.0722L48.0598 27.6501C48.0699 27.6579 48.0766 27.6693 48.0782 27.6819C48.0799 27.6945 48.0765 27.7073 48.0688 27.7174L48.0679 27.7188Z" fill="#0C0C0C"/>
</g>
<g opacity="0.2">
<path d="M47.421 28.6225C47.4131 28.6323 47.4017 28.6386 47.3892 28.6401C47.3767 28.6416 47.3641 28.6381 47.3541 28.6305L45.7098 27.3715C45.6996 27.3637 45.693 27.3522 45.6913 27.3396C45.6897 27.3269 45.6931 27.3141 45.7009 27.304C45.7086 27.2939 45.7201 27.2872 45.7328 27.2856C45.7455 27.2839 45.7583 27.2873 45.7684 27.2951L47.4127 28.5544C47.4228 28.5622 47.4294 28.5736 47.4311 28.5862C47.4328 28.5988 47.4294 28.6116 47.4216 28.6217L47.421 28.6225Z" fill="#0C0C0C"/>
</g>
<path d="M62.5847 28.1686L57.5871 36.916L52.4795 27.603L46.3757 31.0061L54.593 45.4245C54.859 45.8878 55.2301 46.2824 55.6765 46.5766C56.4252 47.0666 57.3381 47.2395 58.2145 47.0573C59.0908 46.8752 59.8589 46.3528 60.3496 45.6053L60.3918 45.5409L69.1562 32.1856L62.5847 28.1686Z" fill="#367CFF"/>
<path d="M51.5767 28.0075L50.0311 25.0974C49.9971 25.0335 49.9502 24.9773 49.8933 24.9325C49.8364 24.8877 49.7707 24.8552 49.7006 24.8371C49.6304 24.819 49.5572 24.8157 49.4857 24.8274C49.4142 24.8391 49.3459 24.8655 49.2852 24.905C49.1753 24.9814 49.0977 25.0958 49.0674 25.226C49.0372 25.3562 49.0564 25.493 49.1214 25.6099L49.4529 26.2339L49.9681 27.3607" fill="#E98862"/>
<path d="M73.2042 29.1367C76.4877 28.9821 76.6259 26.1992 76.6259 26.1992C76.6259 26.1992 78.2528 26.3041 79.3343 26.4503C81.105 26.6895 82.273 27.2891 83.2026 28.2172C84.0673 29.0808 84.5938 30.0149 84.0367 35.9796C83.6334 40.2978 83.9172 49.7979 83.9172 49.7979H64.1008C64.1008 49.7979 62.9125 37.3466 62.7468 35.4025C62.4307 31.6913 61.1361 29.5994 62.9456 27.6876C64.2579 26.3012 67.6457 26.1992 69.0093 26.1994C69.0315 26.1994 68.7326 29.3472 73.2042 29.1367Z" fill="#367CFF"/>
<path d="M62.862 34.782C62.8612 34.7692 62.8554 34.7573 62.8458 34.7489C62.8362 34.7404 62.8236 34.7361 62.8108 34.7369C62.7981 34.7377 62.7861 34.7436 62.7777 34.7531C62.7692 34.7627 62.7649 34.7753 62.7657 34.788L63.1687 41.2152C63.1694 41.2267 63.1743 41.2376 63.1824 41.2459C63.1905 41.2541 63.2014 41.2592 63.2129 41.2601C63.2152 41.2602 63.2175 41.2602 63.2197 41.2601C63.2261 41.2597 63.2322 41.2581 63.2379 41.2553C63.2436 41.2525 63.2487 41.2486 63.2529 41.2439C63.2571 41.2392 63.2603 41.2336 63.2623 41.2276C63.2644 41.2217 63.2652 41.2153 63.2648 41.209" fill="#0C0C0C"/>
<path d="M67.228 44.1641L64.0226 43.3863C63.9521 43.3692 63.8789 43.367 63.8075 43.3797C63.7362 43.3924 63.6683 43.4199 63.6081 43.4602C63.5479 43.5006 63.4969 43.5531 63.4581 43.6142C63.4194 43.6754 63.3938 43.744 63.383 43.8155C63.3673 43.9483 63.4014 44.0821 63.4789 44.1911C63.5564 44.3002 63.6716 44.3766 63.8023 44.4056L64.4897 44.5723L62.0871 45.0386C61.8191 45.0857 61.5204 45.3148 61.5933 45.6116C61.6138 45.7276 61.6731 45.8332 61.7615 45.9113C61.8499 45.9893 61.9622 46.0351 62.08 46.0412C62.0798 46.0438 62.0798 46.0464 62.08 46.049C62.08 46.0511 62.0818 46.0526 62.0823 46.0547L61.6691 46.1274C61.5925 46.1409 61.5199 46.1713 61.4567 46.2164C61.3934 46.2615 61.341 46.3201 61.3032 46.388C61.2655 46.4558 61.2434 46.5312 61.2386 46.6087C61.2337 46.6862 61.2463 46.7638 61.2752 46.8358C61.3232 46.9483 61.4083 47.0409 61.5165 47.0982C61.6246 47.1555 61.7492 47.174 61.8694 47.1506L62.0453 47.1196C62.0485 47.1243 62.0525 47.1283 62.0572 47.1316C61.9433 47.1801 61.8503 47.2674 61.7949 47.378C61.7395 47.4887 61.7254 47.6153 61.755 47.7354C61.7911 47.8659 61.8752 47.9781 61.9905 48.0494C62.1058 48.1207 62.2438 48.146 62.377 48.1201L62.8138 48.0432C62.8084 48.0486 62.8044 48.0552 62.8021 48.0625C62.7997 48.0698 62.7992 48.0776 62.8004 48.0851C62.8024 48.094 62.8069 48.1022 62.8134 48.1086C62.7239 48.1799 62.6604 48.2785 62.6325 48.3894C62.6047 48.5003 62.6141 48.6172 62.6593 48.7223C62.7091 48.8316 62.7943 48.921 62.9012 48.976C63.0082 49.031 63.1306 49.0483 63.2486 49.0251L66.9347 48.3758C67.4503 48.2851 67.9271 48.0426 68.3038 47.6794C68.6805 47.3163 68.9401 46.8491 69.0491 46.3377C69.1432 45.8968 69.0614 45.4366 68.8211 45.0549C68.5808 44.6732 68.2009 44.4002 67.7622 44.2937L67.228 44.1641Z" fill="#E98862"/>
<g opacity="0.2">
<path d="M64.4608 45.5916C64.4629 45.604 64.46 45.6168 64.4528 45.6271C64.4456 45.6375 64.4347 45.6446 64.4223 45.6469L62.1368 46.0874C62.1306 46.0886 62.1243 46.0886 62.1181 46.0873C62.1119 46.086 62.106 46.0835 62.1007 46.08C62.0955 46.0765 62.091 46.0719 62.0875 46.0666C62.0841 46.0614 62.0817 46.0555 62.0805 46.0493C62.0793 46.0431 62.0793 46.0367 62.0806 46.0305C62.0818 46.0243 62.0843 46.0184 62.0879 46.0132C62.0914 46.008 62.096 46.0035 62.1012 46C62.1065 45.9966 62.1124 45.9941 62.1186 45.993L64.4041 45.5524C64.4103 45.5512 64.4167 45.5512 64.4229 45.5525C64.4291 45.5538 64.435 45.5563 64.4403 45.5599C64.4455 45.5635 64.45 45.568 64.4535 45.5734C64.457 45.5787 64.4593 45.5846 64.4605 45.5908L64.4608 45.5916Z" fill="#0C0C0C"/>
</g>
<g opacity="0.2">
<path d="M64.6834 46.5926C64.6855 46.605 64.6826 46.6178 64.6754 46.6281C64.6682 46.6384 64.6572 46.6455 64.6449 46.6478L62.0943 47.1395C62.0881 47.1406 62.0817 47.1406 62.0755 47.1393C62.0693 47.138 62.0634 47.1355 62.0581 47.1319C62.0529 47.1283 62.0484 47.1238 62.045 47.1185C62.0415 47.1132 62.0391 47.1072 62.038 47.101C62.036 47.0885 62.0389 47.0757 62.046 47.0652C62.0532 47.0548 62.0641 47.0474 62.0765 47.0447L64.6271 46.5531C64.6333 46.5519 64.6397 46.552 64.6459 46.5533C64.6521 46.5546 64.658 46.5571 64.6632 46.5606C64.6685 46.5642 64.6729 46.5688 64.6764 46.5741C64.6799 46.5794 64.6822 46.5853 64.6834 46.5916V46.5926Z" fill="#0C0C0C"/>
</g>
<g opacity="0.2">
<path d="M64.9302 47.6755C64.9322 47.6879 64.9294 47.7006 64.9222 47.7109C64.915 47.7212 64.904 47.7283 64.8916 47.7306L62.8571 48.1222C62.8509 48.1234 62.8445 48.1234 62.8383 48.1221C62.8321 48.1208 62.8262 48.1184 62.821 48.1148C62.8158 48.1113 62.8113 48.1068 62.8078 48.1015C62.8043 48.0963 62.8019 48.0904 62.8007 48.0842C62.7995 48.078 62.7995 48.0716 62.8008 48.0654C62.802 48.0593 62.8045 48.0534 62.8081 48.0482C62.8116 48.0429 62.8161 48.0385 62.8214 48.035C62.8267 48.0315 62.8326 48.0291 62.8388 48.0279L64.8733 47.6364C64.8796 47.6352 64.886 47.6352 64.8922 47.6365C64.8984 47.6378 64.9043 47.6403 64.9096 47.6439C64.9148 47.6474 64.9193 47.652 64.9228 47.6573C64.9262 47.6626 64.9286 47.6685 64.9298 47.6748L64.9302 47.6755Z" fill="#0C0C0C"/>
</g>
<path d="M66.9092 49.6351L84.1336 49.729C84.6884 49.7892 85.2496 49.7204 85.7732 49.5277C86.2968 49.335 86.7686 49.0238 87.1515 48.6185C87.5345 48.2131 87.8181 47.7247 87.9803 47.1915C88.1424 46.6583 88.1786 46.0949 88.0861 45.5454L84.2488 30.1959C84.1726 29.7266 84.0043 29.2771 83.7535 28.873C83.5026 28.4689 83.1743 28.1184 82.7873 27.8415C82.4004 27.5646 81.9624 27.3668 81.4986 27.2595C81.0348 27.1523 80.5543 27.1376 80.0849 27.2164C79.6154 27.2952 79.1661 27.4659 78.7629 27.7187C78.3598 27.9715 78.0106 28.3014 77.7356 28.6895C77.4605 29.0775 77.265 29.516 77.1603 29.9797C77.0556 30.4435 77.0437 30.9233 77.1254 31.3916L80.0683 42.9553L66.9925 43.3846L66.9092 49.6351Z" fill="#367CFF"/>
<path d="M82.3197 42.9066C82.3318 42.9065 82.3434 42.9019 82.3522 42.8937C82.361 42.8854 82.3664 42.8742 82.3673 42.8622C82.3682 42.8502 82.3645 42.8383 82.357 42.8288C82.3495 42.8194 82.3386 42.8131 82.3267 42.8113L80.096 42.892C80.0897 42.8909 80.0833 42.8912 80.0772 42.8926C80.071 42.8941 80.0652 42.8968 80.0601 42.9006C80.055 42.9043 80.0507 42.9091 80.0475 42.9145C80.0442 42.92 80.0421 42.926 80.0413 42.9323C80.0394 42.9448 80.0426 42.9576 80.0502 42.9678C80.0578 42.9781 80.0691 42.9849 80.0817 42.9868L82.3125 42.9061C82.3148 42.9065 82.3173 42.9066 82.3197 42.9066Z" fill="#0C0C0C"/>
<path d="M83.6325 49.7979C83.6453 49.7988 83.6579 49.7945 83.6675 49.7861C83.6771 49.7776 83.683 49.7657 83.6838 49.753C83.6846 49.7402 83.6803 49.7277 83.6719 49.7181C83.6635 49.7085 83.6515 49.7026 83.6388 49.7018L67.0099 49.5982L67.0829 43.443L80.0805 42.9869C80.088 42.9878 80.0956 42.9871 80.1027 42.9846C80.1098 42.9821 80.1163 42.978 80.1215 42.9726C80.1267 42.9672 80.1306 42.9606 80.1328 42.9534C80.1351 42.9462 80.1356 42.9386 80.1343 42.9312L78.7169 35.9806C78.7159 35.9744 78.7137 35.9684 78.7104 35.963C78.7071 35.9576 78.7027 35.9529 78.6975 35.9492C78.6923 35.9455 78.6865 35.9429 78.6803 35.9416C78.6741 35.9402 78.6677 35.9401 78.6614 35.9412C78.6488 35.9433 78.6376 35.9503 78.6302 35.9607C78.6228 35.9711 78.6198 35.984 78.6219 35.9966L80.0281 42.8827L67.0463 43.3409C67.0399 43.34 67.0334 43.3405 67.0272 43.3422C67.021 43.3439 67.0152 43.3468 67.0102 43.3508C67.0051 43.3547 67.0009 43.3597 66.9978 43.3653C66.9947 43.3709 66.9927 43.3771 66.992 43.3835L66.9087 49.6348C66.9074 49.6473 66.911 49.6599 66.9187 49.6697C66.9265 49.6796 66.9379 49.6861 66.9503 49.6877L83.6259 49.7975C83.6281 49.7978 83.6303 49.7979 83.6325 49.7979Z" fill="#0C0C0C"/>
<path d="M58.7959 47.9917L54.0839 33.5281C54.0011 33.274 53.8399 33.0525 53.6233 32.8954C53.4067 32.7384 53.146 32.6538 52.8783 32.6538H33.6814C33.4813 32.6538 33.284 32.7011 33.1057 32.7918C32.9274 32.8825 32.7732 33.0141 32.6556 33.1758C32.538 33.3375 32.4604 33.5247 32.4291 33.722C32.3979 33.9194 32.4139 34.1214 32.4758 34.3114L37.1878 48.7751C37.2706 49.0292 37.4318 49.2507 37.6483 49.4078C37.8649 49.5648 38.1257 49.6494 38.3933 49.6494H57.5902C57.7903 49.6494 57.9876 49.6021 58.1659 49.5113C58.3442 49.4206 58.4985 49.289 58.616 49.1273C58.7336 48.9656 58.8112 48.7785 58.8425 48.5811C58.8737 48.3837 58.8578 48.1817 58.7959 47.9917Z" fill="#292A2E"/>
<path d="M67.8021 48.4768H54.9519C54.6317 48.4768 54.3721 48.736 54.3721 49.0558V49.0706C54.3721 49.3903 54.6317 49.6496 54.9519 49.6496H67.8021C68.1224 49.6496 68.3819 49.3903 68.3819 49.0706V49.0558C68.3819 48.736 68.1224 48.4768 67.8021 48.4768Z" fill="#292A2E"/>
<path d="M45.3469 43.5792C46.4589 43.5792 47.3603 42.679 47.3603 41.5686C47.3603 40.4582 46.4589 39.5581 45.3469 39.5581C44.2349 39.5581 43.3335 40.4582 43.3335 41.5686C43.3335 42.679 44.2349 43.5792 45.3469 43.5792Z" fill="white"/>
<path d="M76.7258 19.1345C76.6492 19.1345 76.5757 19.1041 76.5215 19.05C76.4673 18.9959 76.4369 18.9225 76.4369 18.846V15.5593C76.4369 13.8868 75.9732 12.5617 75.0962 11.7271C74.2649 10.9359 73.072 10.5721 71.5519 10.6449C71.5139 10.6469 71.4758 10.6414 71.4399 10.6287C71.4041 10.616 71.371 10.5964 71.3428 10.5709C71.3145 10.5454 71.2916 10.5146 71.2753 10.4802C71.259 10.4458 71.2497 10.4086 71.2479 10.3706C71.2461 10.3327 71.2518 10.2947 71.2647 10.2589C71.2776 10.2232 71.2975 10.1903 71.3231 10.1622C71.3488 10.1342 71.3798 10.1114 71.4143 10.0953C71.4488 10.0793 71.4861 10.0701 71.5242 10.0685C73.2088 9.98726 74.5451 10.4051 75.4953 11.3092C76.4896 12.2554 77.0151 13.7251 77.0151 15.5592V18.8459C77.0152 18.8838 77.0077 18.9214 76.9931 18.9564C76.9786 18.9915 76.9573 19.0233 76.9304 19.0501C76.9035 19.0769 76.8716 19.0982 76.8365 19.1127C76.8014 19.1271 76.7638 19.1346 76.7258 19.1345Z" fill="#367CFF"/>
<path d="M76.2941 21.6554C77.5063 21.6554 78.4891 20.6741 78.4891 19.4635C78.4891 18.253 77.5063 17.2717 76.2941 17.2717C75.0818 17.2717 74.0991 18.253 74.0991 19.4635C74.0991 20.6741 75.0818 21.6554 76.2941 21.6554Z" fill="#367CFF"/>
<path d="M76.3787 21.1055C76.3634 21.0944 76.346 21.0864 76.3275 21.082C76.309 21.0777 76.2899 21.0769 76.2712 21.0799C76.2524 21.0829 76.2345 21.0896 76.2183 21.0995C76.2021 21.1095 76.1881 21.1225 76.177 21.1378L76.0091 21.3695C75.8032 21.6528 75.5332 21.8834 75.2211 22.0425C74.909 22.2017 74.5636 22.2849 74.2132 22.2854H71.5409V22.2289C71.5409 22.1524 71.5104 22.079 71.4562 22.0249C71.402 21.9708 71.3285 21.9404 71.2519 21.9404H70.3475C70.2709 21.9404 70.1974 21.9708 70.1432 22.0249C70.089 22.079 70.0586 22.1524 70.0586 22.2289V22.6513C70.0586 22.7279 70.089 22.8013 70.1432 22.8554C70.1974 22.9095 70.2709 22.9399 70.3475 22.9399H71.2519C71.3285 22.9399 71.402 22.9095 71.4562 22.8554C71.5104 22.8013 71.5409 22.7279 71.5409 22.6513V22.5744H74.2132C74.6093 22.5738 74.9997 22.4798 75.3525 22.2999C75.7052 22.12 76.0104 21.8593 76.2431 21.5392L76.4111 21.3075C76.4223 21.2921 76.4304 21.2747 76.4348 21.2562C76.4392 21.2377 76.44 21.2186 76.437 21.1998C76.434 21.181 76.4273 21.163 76.4173 21.1469C76.4073 21.1307 76.3942 21.1166 76.3787 21.1055Z" fill="#367CFF"/>
<path d="M76.821 21.6554C78.0332 21.6554 79.0159 20.6741 79.0159 19.4635C79.0159 18.253 78.0332 17.2717 76.821 17.2717C75.6087 17.2717 74.626 18.253 74.626 19.4635C74.626 20.6741 75.6087 21.6554 76.821 21.6554Z" fill="#367CFF"/>
<path opacity="0.3" d="M76.821 21.6554C78.0332 21.6554 79.0159 20.6741 79.0159 19.4635C79.0159 18.253 78.0332 17.2717 76.821 17.2717C75.6087 17.2717 74.626 18.253 74.626 19.4635C74.626 20.6741 75.6087 21.6554 76.821 21.6554Z" fill="white"/>
<path d="M35.1327 49.8934H88.3937C88.4193 49.8934 88.4438 49.8833 88.4618 49.8653C88.4799 49.8474 88.4901 49.823 88.4901 49.7975C88.4901 49.7721 88.4799 49.7477 88.4618 49.7297C88.4438 49.7118 88.4193 49.7017 88.3937 49.7017H35.1327C35.1071 49.7017 35.0826 49.7118 35.0646 49.7297C35.0465 49.7477 35.0364 49.7721 35.0364 49.7975C35.0364 49.823 35.0465 49.8474 35.0646 49.8653C35.0826 49.8833 35.1071 49.8934 35.1327 49.8934Z" fill="#292A2E"/>
</svg>
