<svg width="79" height="80" viewBox="0 0 79 80" fill="none" xmlns="http://www.w3.org/2000/svg">
<g clip-path="url(#clip0_71_960)">
<path d="M64.0817 52.8679H44.7921C44.0068 52.8679 43.3701 53.5108 43.3701 54.3038V64.8669C43.3701 65.6599 44.0068 66.3028 44.7921 66.3028H64.0817C64.867 66.3028 65.5036 65.6599 65.5036 64.8669V54.3038C65.5036 53.5108 64.867 52.8679 64.0817 52.8679Z" fill="white"/>
<path opacity="0.1" d="M64.0817 52.8679H44.7921C44.0068 52.8679 43.3701 53.5108 43.3701 54.3038V64.8669C43.3701 65.6599 44.0068 66.3028 44.7921 66.3028H64.0817C64.867 66.3028 65.5036 65.6599 65.5036 64.8669V54.3038C65.5036 53.5108 64.867 52.8679 64.0817 52.8679Z" fill="#367CFF"/>
<path d="M59.4068 60.0717H57.6988C57.5948 60.0717 57.5105 60.1568 57.5105 60.2618V64.0846C57.5105 64.1896 57.5948 64.2747 57.6988 64.2747H59.4068C59.5107 64.2747 59.595 64.1896 59.595 64.0846V60.2618C59.595 60.1568 59.5107 60.0717 59.4068 60.0717Z" fill="white"/>
<path d="M63.5227 56.8029H61.8147C61.7108 56.8029 61.6265 56.888 61.6265 56.993V64.0846C61.6265 64.1896 61.7108 64.2747 61.8147 64.2747H63.5227C63.6267 64.2747 63.711 64.1896 63.711 64.0846V56.993C63.711 56.888 63.6267 56.8029 63.5227 56.8029Z" fill="white"/>
<path d="M47.0589 60.0717H45.3509C45.2469 60.0717 45.1626 60.1568 45.1626 60.2618V64.0846C45.1626 64.1896 45.2469 64.2747 45.3509 64.2747H47.0589C47.1628 64.2747 47.2471 64.1896 47.2471 64.0846V60.2618C47.2471 60.1568 47.1628 60.0717 47.0589 60.0717Z" fill="white"/>
<path d="M51.1748 55.3165H49.4668C49.3629 55.3165 49.2786 55.4017 49.2786 55.5067V64.0845C49.2786 64.1895 49.3629 64.2747 49.4668 64.2747H51.1748C51.2788 64.2747 51.3631 64.1895 51.3631 64.0845V55.5067C51.3631 55.4017 51.2788 55.3165 51.1748 55.3165Z" fill="white"/>
<path d="M55.2908 59.1295H53.5828C53.4788 59.1295 53.3945 59.2146 53.3945 59.3196V64.0845C53.3945 64.1895 53.4788 64.2746 53.5828 64.2746H55.2908C55.3948 64.2746 55.4791 64.1895 55.4791 64.0845V59.3196C55.4791 59.2146 55.3948 59.1295 55.2908 59.1295Z" fill="white"/>
<path d="M29.3654 44.651H4.8834C3.88664 44.651 3.07861 45.4669 3.07861 46.4734V59.8799C3.07861 60.8864 3.88664 61.7023 4.8834 61.7023H29.3654C30.3621 61.7023 31.1701 60.8864 31.1701 59.8799V46.4734C31.1701 45.4669 30.3621 44.651 29.3654 44.651Z" fill="white"/>
<path opacity="0.1" d="M29.3654 44.651H4.8834C3.88664 44.651 3.07861 45.4669 3.07861 46.4734V59.8799C3.07861 60.8864 3.88664 61.7023 4.8834 61.7023H29.3654C30.3621 61.7023 31.1701 60.8864 31.1701 59.8799V46.4734C31.1701 45.4669 30.3621 44.651 29.3654 44.651Z" fill="#367CFF"/>
<path d="M23.4321 53.7938H21.2643C21.1324 53.7938 21.0254 53.9019 21.0254 54.0351V58.887C21.0254 59.0202 21.1324 59.1282 21.2643 59.1282H23.4321C23.5641 59.1282 23.6711 59.0202 23.6711 58.887V54.0351C23.6711 53.9019 23.5641 53.7938 23.4321 53.7938Z" fill="white"/>
<path d="M28.656 49.6451H26.4882C26.3562 49.6451 26.2493 49.7532 26.2493 49.8864V58.887C26.2493 59.0203 26.3562 59.1283 26.4882 59.1283H28.656C28.788 59.1283 28.8949 59.0203 28.8949 58.887V49.8864C28.8949 49.7532 28.788 49.6451 28.656 49.6451Z" fill="white"/>
<path d="M7.76025 53.7938H5.59246C5.46049 53.7938 5.35352 53.9019 5.35352 54.0351V58.887C5.35352 59.0202 5.46049 59.1282 5.59246 59.1282H7.76025C7.89222 59.1282 7.9992 59.0202 7.9992 58.887V54.0351C7.9992 53.9019 7.89222 53.7938 7.76025 53.7938Z" fill="white"/>
<path d="M12.9841 47.7588H10.8163C10.6844 47.7588 10.5774 47.8668 10.5774 48.0001V58.8869C10.5774 59.0202 10.6844 59.1282 10.8163 59.1282H12.9841C13.1161 59.1282 13.2231 59.0202 13.2231 58.8869V48.0001C13.2231 47.8668 13.1161 47.7588 12.9841 47.7588Z" fill="white"/>
<path d="M18.2083 52.5981H16.0405C15.9085 52.5981 15.8015 52.7062 15.8015 52.8394V58.887C15.8015 59.0202 15.9085 59.1282 16.0405 59.1282H18.2083C18.3402 59.1282 18.4472 59.0202 18.4472 58.887V52.8394C18.4472 52.7062 18.3402 52.5981 18.2083 52.5981Z" fill="white"/>
<path d="M75.7814 0H47.6641C46.5193 0 45.5913 0.937099 45.5913 2.09307V17.4904C45.5913 18.6463 46.5193 19.5834 47.6641 19.5834H75.7814C76.9262 19.5834 77.8542 18.6463 77.8542 17.4904V2.09307C77.8542 0.937099 76.9262 0 75.7814 0Z" fill="white"/>
<path opacity="0.1" d="M75.7814 0H47.6641C46.5193 0 45.5913 0.937099 45.5913 2.09307V17.4904C45.5913 18.6463 46.5193 19.5834 47.6641 19.5834H75.7814C76.9262 19.5834 77.8542 18.6463 77.8542 17.4904V2.09307C77.8542 0.937099 76.9262 0 75.7814 0Z" fill="#367CFF"/>
<path d="M68.9672 10.5006H66.4775C66.326 10.5006 66.2031 10.6247 66.2031 10.7777V16.3501C66.2031 16.5031 66.326 16.6272 66.4775 16.6272H68.9672C69.1188 16.6272 69.2416 16.5031 69.2416 16.3501V10.7777C69.2416 10.6247 69.1188 10.5006 68.9672 10.5006Z" fill="white"/>
<path d="M74.967 5.73584H72.4773C72.3257 5.73584 72.2029 5.8599 72.2029 6.01294V16.3501C72.2029 16.5031 72.3257 16.6272 72.4773 16.6272H74.967C75.1185 16.6272 75.2414 16.5031 75.2414 16.3501V6.01294C75.2414 5.8599 75.1185 5.73584 74.967 5.73584Z" fill="white"/>
<path d="M50.9682 10.5006H48.4785C48.327 10.5006 48.2041 10.6247 48.2041 10.7777V16.3501C48.2041 16.5031 48.327 16.6272 48.4785 16.6272H50.9682C51.1197 16.6272 51.2426 16.5031 51.2426 16.3501V10.7777C51.2426 10.6247 51.1197 10.5006 50.9682 10.5006Z" fill="white"/>
<path d="M56.9679 3.56934H54.4783C54.3267 3.56934 54.2039 3.6934 54.2039 3.84643V16.35C54.2039 16.5031 54.3267 16.6271 54.4783 16.6271H56.9679C57.1195 16.6271 57.2424 16.5031 57.2424 16.35V3.84643C57.2424 3.6934 57.1195 3.56934 56.9679 3.56934Z" fill="white"/>
<path d="M62.9675 9.12732H60.4778C60.3262 9.12732 60.2034 9.25138 60.2034 9.40442V16.35C60.2034 16.503 60.3262 16.6271 60.4778 16.6271H62.9675C63.119 16.6271 63.2419 16.503 63.2419 16.35V9.40442C63.2419 9.25138 63.119 9.12732 62.9675 9.12732Z" fill="white"/>
<path d="M14.7275 16.1638H1.01111C0.452688 16.1638 0 16.6209 0 17.1848V24.696C0 25.2599 0.452688 25.717 1.01111 25.717H14.7275C15.2859 25.717 15.7386 25.2599 15.7386 24.696V17.1848C15.7386 16.6209 15.2859 16.1638 14.7275 16.1638Z" fill="white"/>
<path opacity="0.3" d="M14.7275 16.1638H1.01111C0.452688 16.1638 0 16.6209 0 17.1848V24.696C0 25.2599 0.452688 25.717 1.01111 25.717H14.7275C15.2859 25.717 15.7386 25.2599 15.7386 24.696V17.1848C15.7386 16.6209 15.2859 16.1638 14.7275 16.1638Z" fill="#367CFF"/>
<path d="M11.4036 21.2863H10.189C10.1151 21.2863 10.0552 21.3468 10.0552 21.4214V24.1398C10.0552 24.2144 10.1151 24.275 10.189 24.275H11.4036C11.4775 24.275 11.5374 24.2144 11.5374 24.1398V21.4214C11.5374 21.3468 11.4775 21.2863 11.4036 21.2863Z" fill="white"/>
<path d="M14.3301 18.9618H13.1155C13.0416 18.9618 12.9817 19.0223 12.9817 19.0969V24.1397C12.9817 24.2143 13.0416 24.2748 13.1155 24.2748H14.3301C14.404 24.2748 14.4639 24.2143 14.4639 24.1397V19.0969C14.4639 19.0223 14.404 18.9618 14.3301 18.9618Z" fill="white"/>
<path d="M2.62308 21.2863H1.4085C1.33458 21.2863 1.27466 21.3468 1.27466 21.4214V24.1398C1.27466 24.2144 1.33458 24.275 1.4085 24.275H2.62308C2.69699 24.275 2.75692 24.2144 2.75692 24.1398V21.4214C2.75692 21.3468 2.69699 21.2863 2.62308 21.2863Z" fill="white"/>
<path d="M5.54983 17.905H4.33526C4.26134 17.905 4.20142 17.9655 4.20142 18.0402V24.1398C4.20142 24.2144 4.26134 24.2749 4.33526 24.2749H5.54983C5.62375 24.2749 5.68367 24.2144 5.68367 24.1398V18.0402C5.68367 17.9655 5.62375 17.905 5.54983 17.905Z" fill="white"/>
<path d="M8.47659 20.6163H7.26201C7.1881 20.6163 7.12817 20.6768 7.12817 20.7515V24.1397C7.12817 24.2144 7.1881 24.2749 7.26201 24.2749H8.47659C8.55051 24.2749 8.61043 24.2144 8.61043 24.1397V20.7515C8.61043 20.6768 8.55051 20.6163 8.47659 20.6163Z" fill="white"/>
<path d="M13.0767 50.0248L68.4757 50.0248C69.8361 50.0248 70.939 48.9111 70.939 47.5374V6.58018C70.939 5.20643 69.8361 4.09278 68.4757 4.09278L13.0767 4.09278C11.7163 4.09278 10.6134 5.20643 10.6134 6.58018L10.6134 47.5374C10.6134 48.9111 11.7163 50.0248 13.0767 50.0248Z" fill="white"/>
<path d="M10.5312 47.5374V6.58021C10.532 5.89875 10.8004 5.24543 11.2776 4.76356C11.7548 4.2817 12.4018 4.01066 13.0767 4.00989H68.4756C69.1504 4.01066 69.7974 4.2817 70.2746 4.76356C70.7518 5.24543 71.0203 5.89875 71.021 6.58021V47.5374C71.0203 48.2189 70.7518 48.8722 70.2746 49.354C69.7974 49.8359 69.1504 50.107 68.4756 50.1077H13.0767C12.4018 50.107 11.7548 49.8359 11.2776 49.354C10.8004 48.8722 10.532 48.2189 10.5312 47.5374V47.5374ZM13.0767 4.17571C12.4454 4.17646 11.8401 4.43003 11.3937 4.8808C10.9473 5.33157 10.6962 5.94272 10.6955 6.58021V47.5374C10.6962 48.1749 10.9473 48.7861 11.3937 49.2368C11.8401 49.6876 12.4454 49.9412 13.0767 49.9419H68.4756C69.1069 49.9412 69.7122 49.6876 70.1586 49.2369C70.605 48.7861 70.8561 48.1749 70.8568 47.5374V6.58021C70.8561 5.94272 70.605 5.33155 70.1586 4.88077C69.7122 4.43 69.1069 4.17644 68.4756 4.17571H13.0767Z" fill="#292A2E"/>
<path d="M10.6135 6.57993V9.08284H70.9387V6.57993C70.9387 5.92023 70.6792 5.28755 70.2173 4.82107C69.7553 4.35459 69.1287 4.09253 68.4754 4.09253H13.0768C12.4235 4.09253 11.797 4.35459 11.335 4.82107C10.8731 5.28755 10.6135 5.92023 10.6135 6.57993Z" fill="#292A2E"/>
<path d="M67.6794 11.4612H44.1738C43.5969 11.4612 43.1292 11.9335 43.1292 12.5161V29.3067C43.1292 29.8893 43.5969 30.3616 44.1738 30.3616H67.6794C68.2564 30.3616 68.7241 29.8893 68.7241 29.3067V12.5161C68.7241 11.9335 68.2564 11.4612 67.6794 11.4612Z" fill="white"/>
<path opacity="0.15" d="M67.6794 11.4612H44.1738C43.5969 11.4612 43.1292 11.9335 43.1292 12.5161V29.3067C43.1292 29.8893 43.5969 30.3616 44.1738 30.3616H67.6794C68.2564 30.3616 68.7241 29.8893 68.7241 29.3067V12.5161C68.7241 11.9335 68.2564 11.4612 67.6794 11.4612Z" fill="#367CFF"/>
<path d="M47.7234 13.8197H45.6919C45.5975 13.8197 45.521 13.897 45.521 13.9922V27.8307C45.521 27.926 45.5975 28.0032 45.6919 28.0032H47.7234C47.8177 28.0032 47.8942 27.926 47.8942 27.8307V13.9922C47.8942 13.897 47.8177 13.8197 47.7234 13.8197Z" fill="#FAFAFA"/>
<path opacity="0.6" d="M45.521 20.7722H47.894V27.8306C47.894 27.8764 47.876 27.9203 47.8439 27.9526C47.8119 27.985 47.7684 28.0032 47.7231 28.0032H45.6919C45.6465 28.0032 45.6031 27.985 45.571 27.9526C45.539 27.9203 45.521 27.8764 45.521 27.8306V20.7722Z" fill="#367CFF"/>
<path d="M52.3327 13.8197H50.3012C50.2069 13.8197 50.1304 13.897 50.1304 13.9922V27.8307C50.1304 27.926 50.2069 28.0032 50.3012 28.0032H52.3327C52.4271 28.0032 52.5036 27.926 52.5036 27.8307V13.9922C52.5036 13.897 52.4271 13.8197 52.3327 13.8197Z" fill="#FAFAFA"/>
<path opacity="0.6" d="M50.1304 18.8064H52.5034V27.8305C52.5034 27.8763 52.4854 27.9202 52.4533 27.9525C52.4213 27.9849 52.3778 28.0031 52.3325 28.0031H50.3012C50.2559 28.0031 50.2125 27.9849 50.1804 27.9525C50.1484 27.9202 50.1304 27.8763 50.1304 27.8305V18.8064Z" fill="#367CFF"/>
<path d="M66.1614 13.8197H64.1299C64.0355 13.8197 63.959 13.897 63.959 13.9922V27.8307C63.959 27.926 64.0355 28.0032 64.1299 28.0032H66.1614C66.2557 28.0032 66.3322 27.926 66.3322 27.8307V13.9922C66.3322 13.897 66.2557 13.8197 66.1614 13.8197Z" fill="#FAFAFA"/>
<path opacity="0.6" d="M63.959 16.8231H66.332V27.8307C66.332 27.8765 66.314 27.9204 66.2819 27.9527C66.2499 27.9851 66.2064 28.0033 66.1611 28.0033H64.1299C64.0846 28.0033 64.0412 27.9851 64.0091 27.9527C63.9771 27.9204 63.9591 27.8765 63.9591 27.8307V16.8231H63.959Z" fill="#367CFF"/>
<path d="M56.9424 13.8197H54.9109C54.8165 13.8197 54.74 13.897 54.74 13.9922V27.8307C54.74 27.926 54.8165 28.0032 54.9109 28.0032H56.9424C57.0367 28.0032 57.1132 27.926 57.1132 27.8307V13.9922C57.1132 13.897 57.0367 13.8197 56.9424 13.8197Z" fill="#FAFAFA"/>
<path opacity="0.6" d="M54.74 23.9518H57.113V27.8307C57.113 27.8765 57.095 27.9204 57.0629 27.9527C57.0309 27.9851 56.9874 28.0033 56.9421 28.0033H54.9109C54.8655 28.0033 54.8221 27.9851 54.79 27.9527C54.758 27.9204 54.74 27.8765 54.74 27.8307V23.9518Z" fill="#367CFF"/>
<path d="M61.5522 13.8197H59.5207C59.4264 13.8197 59.3499 13.897 59.3499 13.9922V27.8307C59.3499 27.926 59.4264 28.0032 59.5207 28.0032H61.5522C61.6466 28.0032 61.7231 27.926 61.7231 27.8307V13.9922C61.7231 13.897 61.6466 13.8197 61.5522 13.8197Z" fill="#FAFAFA"/>
<path opacity="0.6" d="M59.3494 21.4733H61.7224V27.8306C61.7224 27.8763 61.7044 27.9202 61.6723 27.9526C61.6403 27.9849 61.5968 28.0031 61.5515 28.0031H59.5205C59.498 28.0031 59.4758 27.9987 59.4551 27.99C59.4344 27.9813 59.4155 27.9686 59.3997 27.9526C59.3838 27.9366 59.3712 27.9175 59.3626 27.8966C59.354 27.8757 59.3496 27.8532 59.3496 27.8306V21.4733H59.3494Z" fill="#367CFF"/>
<path opacity="0.15" d="M67.2287 32.2118H44.3419C43.516 32.2118 42.8464 32.8879 42.8464 33.7219V46.2361C42.8464 47.0701 43.516 47.7462 44.3419 47.7462H67.2287C68.0546 47.7462 68.7242 47.0701 68.7242 46.2361V33.7219C68.7242 32.8879 68.0546 32.2118 67.2287 32.2118Z" fill="#367CFF"/>
<path d="M58.3262 36.092C58.6332 36.092 58.882 35.8407 58.882 35.5307C58.882 35.2207 58.6332 34.9694 58.3262 34.9694C58.0191 34.9694 57.7703 35.2207 57.7703 35.5307C57.7703 35.8407 58.0191 36.092 58.3262 36.092Z" fill="#367CFF"/>
<path d="M58.3262 38.9535C58.6332 38.9535 58.882 38.7021 58.882 38.3921C58.882 38.0821 58.6332 37.8308 58.3262 37.8308C58.0191 37.8308 57.7703 38.0821 57.7703 38.3921C57.7703 38.7021 58.0191 38.9535 58.3262 38.9535Z" fill="#262626"/>
<path d="M58.3262 41.815C58.6332 41.815 58.882 41.5637 58.882 41.2537C58.882 40.9437 58.6332 40.6924 58.3262 40.6924C58.0191 40.6924 57.7703 40.9437 57.7703 41.2537C57.7703 41.5637 58.0191 41.815 58.3262 41.815Z" fill="white"/>
<path opacity="0.5" d="M58.3262 44.6765C58.6332 44.6765 58.882 44.4252 58.882 44.1152C58.882 43.8051 58.6332 43.5538 58.3262 43.5538C58.0191 43.5538 57.7703 43.8051 57.7703 44.1152C57.7703 44.4252 58.0191 44.6765 58.3262 44.6765Z" fill="#367CFF"/>
<path d="M66.0405 35.5304C66.0405 35.6147 66.0074 35.6954 65.9484 35.755C65.8894 35.8146 65.8094 35.848 65.726 35.848H60.3827C60.3084 35.8494 60.2359 35.8249 60.1773 35.7787C60.1186 35.7326 60.0775 35.6674 60.0608 35.5943C60.0515 35.5481 60.0524 35.5004 60.0636 35.4546C60.0748 35.4089 60.0959 35.3662 60.1255 35.3297C60.155 35.2932 60.1922 35.2637 60.2344 35.2435C60.2766 35.2233 60.3227 35.2129 60.3694 35.2129H65.726C65.7673 35.2129 65.8082 35.2211 65.8464 35.237C65.8845 35.253 65.9192 35.2764 65.9484 35.3059C65.9776 35.3354 66.0008 35.3704 66.0166 35.4089C66.0324 35.4474 66.0405 35.4887 66.0405 35.5304V35.5304Z" fill="white"/>
<path d="M66.0405 38.3921C66.0405 38.4763 66.0074 38.5571 65.9484 38.6166C65.8894 38.6762 65.8094 38.7096 65.726 38.7096H60.3859C60.3423 38.7103 60.299 38.7021 60.2586 38.6856C60.2182 38.669 60.1815 38.6445 60.1506 38.6133C60.1197 38.5822 60.0954 38.5452 60.0789 38.5044C60.0625 38.4636 60.0544 38.4198 60.055 38.3758C60.0592 38.2945 60.0941 38.2179 60.1526 38.1618C60.2111 38.1058 60.2887 38.0746 60.3694 38.0746H65.726C65.7673 38.0746 65.8082 38.0828 65.8463 38.0987C65.8845 38.1147 65.9192 38.1381 65.9484 38.1675C65.9776 38.197 66.0007 38.232 66.0165 38.2705C66.0323 38.3091 66.0405 38.3504 66.0405 38.3921V38.3921Z" fill="white"/>
<path d="M66.0405 41.2536C66.0405 41.3379 66.0073 41.4186 65.9483 41.4782C65.8894 41.5377 65.8094 41.5712 65.726 41.5712H60.3369C60.262 41.5712 60.1901 41.5411 60.1372 41.4877C60.0842 41.4342 60.0544 41.3616 60.0544 41.286V41.2214C60.0544 41.1457 60.0842 41.0732 60.1372 41.0197C60.1901 40.9662 60.262 40.9362 60.3369 40.9362H65.726C65.7673 40.9361 65.8082 40.9443 65.8463 40.9603C65.8845 40.9762 65.9191 40.9996 65.9483 41.0291C65.9775 41.0586 66.0007 41.0936 66.0165 41.1321C66.0323 41.1706 66.0405 41.2119 66.0405 41.2536Z" fill="white"/>
<path d="M66.0405 44.1153C66.0405 44.1995 66.0074 44.2803 65.9484 44.3398C65.8894 44.3994 65.8094 44.4328 65.726 44.4328H60.384C60.3096 44.4343 60.2369 44.4099 60.1781 44.3638C60.1193 44.3176 60.0779 44.2526 60.0608 44.1794C60.0515 44.1332 60.0524 44.0855 60.0636 44.0397C60.0748 43.994 60.0959 43.9513 60.1254 43.9148C60.1549 43.8783 60.1921 43.8488 60.2343 43.8286C60.2764 43.8084 60.3225 43.798 60.3692 43.798H65.7259C65.7671 43.7979 65.808 43.8061 65.8462 43.8221C65.8844 43.838 65.9191 43.8613 65.9483 43.8908C65.9775 43.9203 66.0007 43.9553 66.0165 43.9938C66.0323 44.0323 66.0405 44.0736 66.0405 44.1153Z" fill="white"/>
<path d="M47.896 39.8231C47.8962 40.5073 48.1064 41.1747 48.4978 41.7333C48.8892 42.2918 49.4425 42.7141 50.0815 42.9419L49.1829 45.1549C47.947 44.6846 46.9136 43.7914 46.2629 42.6308C45.6123 41.4702 45.3854 40.1159 45.622 38.8038C45.8586 37.4917 46.5436 36.305 47.5576 35.4504C48.5716 34.5959 49.8504 34.1277 51.1712 34.1274V36.5165C50.3026 36.5165 49.4697 36.8648 48.8555 37.4849C48.2413 38.105 47.8961 38.9461 47.896 39.8231V39.8231Z" fill="#367CFF"/>
<path d="M56.8121 39.8229H54.4461C54.4461 38.9458 54.1011 38.1046 53.4869 37.4844C52.8727 36.8642 52.0397 36.5158 51.1711 36.5158V34.1267C52.6672 34.1267 54.102 34.7268 55.1599 35.7951C56.2178 36.8633 56.8121 38.3122 56.8121 39.8229V39.8229Z" fill="#262626"/>
<path d="M56.8122 39.8229C56.812 41.1136 56.378 42.366 55.5811 43.3751C54.7841 44.3842 53.6715 45.0902 52.4254 45.3776L52.0247 43.016C52.7197 42.8264 53.3335 42.4109 53.7712 41.8337C54.2089 41.2565 54.4461 40.5498 54.4463 39.8229H56.8122Z" fill="white"/>
<path opacity="0.5" d="M52.4254 45.3776C51.3462 45.6245 50.2189 45.5469 49.1829 45.1544L50.0815 42.9417C50.707 43.1634 51.3842 43.1894 52.0246 43.0163L52.4254 45.3776Z" fill="#367CFF"/>
<path opacity="0.15" d="M39.5627 11.4612H14.3032C13.4869 11.4612 12.8252 12.1294 12.8252 12.9536V46.2537C12.8252 47.0779 13.4869 47.7461 14.3032 47.7461H39.5627C40.379 47.7461 41.0407 47.0779 41.0407 46.2537V12.9536C41.0407 12.1294 40.379 11.4612 39.5627 11.4612Z" fill="#367CFF"/>
<path d="M34.5669 25.6225C34.5669 27.2782 34.0807 28.8967 33.1698 30.2734C32.2588 31.6501 30.9641 32.7231 29.4492 33.3567C27.9344 33.9903 26.2675 34.1561 24.6593 33.8331C23.0511 33.5101 21.574 32.7128 20.4145 31.5421C19.2551 30.3713 18.4655 28.8797 18.1456 27.2558C17.8257 25.6319 17.9899 23.9487 18.6174 22.419C19.2449 20.8893 20.3074 19.5819 21.6708 18.6621C23.0341 17.7422 24.6369 17.2512 26.2766 17.2512V25.6225H34.5669Z" fill="#FAFAFA"/>
<path opacity="0.6" d="M35.5833 24.5351H27.2935V16.1638C29.4921 16.1639 31.6007 17.0459 33.1553 18.6158C34.7099 20.1857 35.5833 22.315 35.5833 24.5351V24.5351Z" fill="#367CFF"/>
<path opacity="0.6" d="M17.6802 38.7428C17.9872 38.7428 18.236 38.4915 18.236 38.1814C18.236 37.8714 17.9872 37.6201 17.6802 37.6201C17.3731 37.6201 17.1243 37.8714 17.1243 38.1814C17.1243 38.4915 17.3731 38.7428 17.6802 38.7428Z" fill="#367CFF"/>
<path d="M17.6802 41.6042C17.9872 41.6042 18.236 41.3529 18.236 41.0429C18.236 40.7329 17.9872 40.4816 17.6802 40.4816C17.3731 40.4816 17.1243 40.7329 17.1243 41.0429C17.1243 41.3529 17.3731 41.6042 17.6802 41.6042Z" fill="#FAFAFA"/>
<path opacity="0.6" d="M36.7257 38.1817C36.7257 38.2659 36.6926 38.3466 36.6336 38.4062C36.5746 38.4658 36.4946 38.4992 36.4112 38.4992H19.7368C19.6625 38.5006 19.5899 38.4761 19.5313 38.4299C19.4726 38.3837 19.4315 38.3186 19.4148 38.2454C19.4055 38.1992 19.4064 38.1515 19.4176 38.1057C19.4288 38.06 19.45 38.0173 19.4795 37.9808C19.509 37.9443 19.5463 37.9149 19.5884 37.8947C19.6306 37.8745 19.6767 37.864 19.7234 37.864H36.4112C36.4525 37.864 36.4934 37.8722 36.5316 37.8882C36.5697 37.9042 36.6044 37.9276 36.6336 37.9571C36.6628 37.9866 36.686 38.0216 36.7018 38.0601C36.7176 38.0986 36.7257 38.1399 36.7257 38.1817V38.1817Z" fill="#367CFF"/>
<path d="M36.7257 41.0428C36.7257 41.127 36.6926 41.2078 36.6336 41.2673C36.5746 41.3269 36.4946 41.3603 36.4112 41.3603H19.74C19.6964 41.361 19.6531 41.3528 19.6127 41.3363C19.5723 41.3197 19.5355 41.2952 19.5047 41.2641C19.4738 41.2329 19.4494 41.1959 19.433 41.1551C19.4165 41.1143 19.4084 41.0706 19.409 41.0265C19.4132 40.9452 19.4482 40.8686 19.5067 40.8125C19.5652 40.7565 19.6428 40.7252 19.7234 40.7252H36.4112C36.4525 40.7252 36.4934 40.7334 36.5316 40.7494C36.5697 40.7654 36.6044 40.7887 36.6336 40.8182C36.6628 40.8477 36.686 40.8827 36.7018 40.9213C36.7176 40.9598 36.7257 41.0011 36.7257 41.0428V41.0428Z" fill="white"/>
<path d="M10.4162 71.0619C10.4073 71.0619 10.3986 71.0601 10.3904 71.0567C10.3822 71.0533 10.3747 71.0482 10.3685 71.0419C10.2733 70.9459 10.1184 69.184 9.70085 63.9383C9.52998 61.7919 9.36855 59.7645 9.2508 58.5324C9.24259 58.4444 9.2086 58.4341 9.19751 58.4308C9.03633 58.3817 8.54605 58.7721 8.27238 59.1139C8.2668 59.1209 8.25992 59.1267 8.25213 59.131C8.24434 59.1352 8.2358 59.1379 8.22698 59.1389C8.21816 59.1398 8.20925 59.139 8.20074 59.1365C8.19224 59.1339 8.18431 59.1297 8.17742 59.1241C8.17052 59.1185 8.16479 59.1115 8.16055 59.1037C8.15631 59.0958 8.15365 59.0872 8.15272 59.0783C8.15179 59.0694 8.1526 59.0603 8.15511 59.0518C8.15762 59.0432 8.16178 59.0352 8.16736 59.0282C8.348 58.8022 8.93829 58.2097 9.23635 58.3002C9.28117 58.3158 9.31985 58.3454 9.34666 58.3849C9.37347 58.4243 9.38699 58.4715 9.38522 58.5193C9.50305 59.7525 9.66439 61.7804 9.83543 63.9274C10.0892 67.1151 10.3765 70.7263 10.471 70.9539C10.4782 70.9641 10.4825 70.9761 10.4834 70.9886C10.4843 71.001 10.4817 71.0135 10.4761 71.0246C10.4704 71.0358 10.4618 71.0451 10.4513 71.0516C10.4407 71.0582 10.4286 71.0617 10.4162 71.0617V71.0619Z" fill="#494949"/>
<path d="M9.07756 60.7934C10.1976 59.8868 10.5688 58.4757 9.90672 57.6416C9.24462 56.8076 7.7999 56.8663 6.67987 57.7729C5.55983 58.6795 5.1886 60.0906 5.8507 60.9247C6.51281 61.7587 7.95752 61.7 9.07756 60.7934Z" fill="#0CBC8B"/>
<path opacity="0.2" d="M9.07756 60.7934C10.1976 59.8868 10.5688 58.4757 9.90672 57.6416C9.24462 56.8076 7.7999 56.8663 6.67987 57.7729C5.55983 58.6795 5.1886 60.0906 5.8507 60.9247C6.51281 61.7587 7.95752 61.7 9.07756 60.7934Z" fill="white"/>
<path d="M6.16455 61.1366C6.15815 61.1366 6.15189 61.1348 6.14649 61.1313C6.14109 61.1278 6.13678 61.1229 6.13406 61.117C6.13134 61.1112 6.13032 61.1047 6.13113 61.0983C6.13193 61.0919 6.13453 61.0858 6.13861 61.0808L9.33065 57.1938C9.33636 57.1869 9.34458 57.1825 9.3535 57.1817C9.36242 57.1808 9.3713 57.1836 9.37819 57.1894C9.38508 57.1951 9.38942 57.2034 9.39025 57.2124C9.39108 57.2214 9.38834 57.2304 9.38262 57.2374L6.19058 61.1244C6.18741 61.1282 6.18343 61.1313 6.17893 61.1334C6.17443 61.1356 6.16952 61.1367 6.16455 61.1366V61.1366Z" fill="white"/>
<path d="M11.1124 70.2285C11.1016 70.2285 11.091 70.2259 11.0814 70.2209C11.0719 70.2159 11.0636 70.2087 11.0574 70.1998C11.0512 70.191 11.0471 70.1807 11.0456 70.17C11.0441 70.1592 11.0451 70.1483 11.0486 70.138L12.2474 66.656C12.2827 66.5537 12.3428 66.4619 12.4223 66.3892C12.5018 66.3164 12.5982 66.2649 12.7025 66.2395C12.8068 66.2141 12.9158 66.2155 13.0194 66.2436C13.123 66.2718 13.218 66.3258 13.2956 66.4006L13.9295 67.0121C13.942 67.0246 13.9492 67.0417 13.9494 67.0596C13.9497 67.0774 13.943 67.0947 13.9307 67.1076C13.9185 67.1205 13.9018 67.128 13.8841 67.1286C13.8664 67.1292 13.8492 67.1227 13.8362 67.1106L13.2023 66.4992C13.1411 66.4401 13.0661 66.3975 12.9843 66.3752C12.9025 66.353 12.8164 66.3519 12.7341 66.3719C12.6517 66.392 12.5757 66.4326 12.5129 66.4901C12.4502 66.5476 12.4027 66.62 12.3749 66.7008L11.1761 70.1832C11.1714 70.1965 11.1628 70.208 11.1514 70.2161C11.1399 70.2242 11.1263 70.2286 11.1124 70.2285V70.2285Z" fill="#494949"/>
<path d="M15.7004 68.9397C16.5304 68.2762 16.4811 66.817 15.5902 65.6805C14.6993 64.544 13.3042 64.1604 12.4741 64.8239C11.6441 65.4873 11.6934 66.9465 12.5843 68.083C13.4752 69.2196 14.8703 69.6031 15.7004 68.9397Z" fill="#0CBC8B"/>
<path d="M9.87148 70.8397C9.85631 70.8397 9.84157 70.8346 9.82966 70.8251C9.81774 70.8156 9.80934 70.8023 9.8058 70.7874L7.79409 62.2919C7.78037 62.234 7.7511 62.181 7.70949 62.1388C7.66788 62.0966 7.61554 62.0668 7.55824 62.0527C7.50093 62.0386 7.44088 62.0407 7.3847 62.0588C7.32851 62.0769 7.27836 62.1103 7.23976 62.1554L6.6195 62.8791C6.61379 62.8862 6.60674 62.892 6.59876 62.8963C6.59079 62.9005 6.58205 62.9031 6.57306 62.9039C6.56407 62.9047 6.55502 62.9036 6.54644 62.9008C6.53786 62.898 6.52992 62.8935 6.5231 62.8875C6.51628 62.8816 6.51071 62.8743 6.50672 62.8661C6.50273 62.858 6.5004 62.8491 6.49987 62.84C6.49934 62.8309 6.50063 62.8218 6.50364 62.8132C6.50666 62.8046 6.51135 62.7967 6.51744 62.79L7.1377 62.0662C7.19256 62.0022 7.26383 61.9547 7.34367 61.929C7.4235 61.9033 7.50882 61.9003 7.59024 61.9203C7.67165 61.9404 7.74601 61.9828 7.80514 62.0427C7.86427 62.1027 7.90587 62.178 7.92539 62.2603L9.93709 70.7557C9.93916 70.7644 9.9395 70.7735 9.93811 70.7823C9.93672 70.7911 9.93362 70.7996 9.92898 70.8072C9.92434 70.8149 9.91826 70.8215 9.91109 70.8267C9.90391 70.832 9.89579 70.8357 9.88717 70.8378C9.88204 70.8391 9.87677 70.8397 9.87148 70.8397V70.8397Z" fill="#494949"/>
<path d="M9.12908 64.7668C9.37368 63.3385 8.72635 62.033 7.68322 61.8509C6.64009 61.6687 5.59618 62.6789 5.35158 64.1072C5.10698 65.5355 5.75431 66.841 6.79744 67.0232C7.84057 67.2053 8.88448 66.1951 9.12908 64.7668Z" fill="#0CBC8B"/>
<path d="M10.4164 71.0618C10.4136 71.0618 10.4109 71.0616 10.4082 71.0613C10.3904 71.059 10.3742 71.0498 10.3632 71.0356C10.3522 71.0213 10.3472 71.0033 10.3494 70.9853L11.6342 60.4511C11.6482 60.3363 11.6947 60.2281 11.7682 60.1394C11.8416 60.0507 11.9389 59.9853 12.0483 59.9511C12.1576 59.9169 12.2745 59.9153 12.3847 59.9465C12.495 59.9777 12.5939 60.0405 12.6697 60.1271L14.1384 61.8067C14.1442 61.8134 14.1487 61.8212 14.1516 61.8297C14.1545 61.8381 14.1557 61.8471 14.1552 61.856C14.1546 61.865 14.1523 61.8737 14.1484 61.8818C14.1445 61.8898 14.1391 61.897 14.1325 61.9029C14.1258 61.9088 14.1181 61.9134 14.1097 61.9163C14.1013 61.9192 14.0925 61.9204 14.0836 61.9199C14.0748 61.9193 14.0661 61.917 14.0582 61.9131C14.0502 61.9092 14.0431 61.9037 14.0372 61.897L12.5686 60.2174C12.51 60.1504 12.4335 60.102 12.3483 60.0778C12.2631 60.0537 12.1728 60.0549 12.0883 60.0813C12.0038 60.1077 11.9286 60.1583 11.8718 60.2268C11.815 60.2953 11.7791 60.379 11.7682 60.4676L10.4833 71.0019C10.4813 71.0184 10.4734 71.0336 10.4611 71.0446C10.4487 71.0556 10.4328 71.0617 10.4164 71.0618V71.0618Z" fill="#494949"/>
<path d="M15.6442 62.7402C16.1566 61.8048 15.5538 60.4778 14.2977 59.7762C13.0416 59.0746 11.6079 59.2641 11.0955 60.1995C10.5831 61.1349 11.186 62.4619 12.4421 63.1635C13.6982 63.8651 15.1318 63.6756 15.6442 62.7402Z" fill="#0CBC8B"/>
<path opacity="0.2" d="M15.7004 68.9397C16.5304 68.2762 16.4811 66.817 15.5902 65.6805C14.6993 64.544 13.3042 64.1604 12.4741 64.8239C11.6441 65.4873 11.6934 66.9465 12.5843 68.083C13.4752 69.2196 14.8703 69.6031 15.7004 68.9397Z" fill="white"/>
<path opacity="0.5" d="M9.12908 64.7668C9.37368 63.3385 8.72635 62.033 7.68322 61.8509C6.64009 61.6687 5.59618 62.6789 5.35158 64.1072C5.10698 65.5355 5.75431 66.841 6.79744 67.0232C7.84057 67.2053 8.88448 66.1951 9.12908 64.7668Z" fill="white"/>
<path opacity="0.5" d="M15.6442 62.7402C16.1566 61.8048 15.5538 60.4778 14.2977 59.7762C13.0416 59.0746 11.6079 59.2641 11.0955 60.1995C10.5831 61.1349 11.186 62.4619 12.4421 63.1635C13.6982 63.8651 15.1318 63.6756 15.6442 62.7402Z" fill="white"/>
<path d="M12.0595 80H8.77267L8.22803 69.3809H12.6042L12.0595 80Z" fill="#292A2E"/>
<path opacity="0.3" d="M12.0595 80H8.77267L8.22803 69.3809H12.6042L12.0595 80Z" fill="white"/>
<path d="M15.7008 68.9735C15.6957 68.9735 15.6906 68.9724 15.686 68.9701C15.6814 68.9679 15.6774 68.9646 15.6743 68.9606L12.448 64.8448C12.4452 64.8413 12.4432 64.8373 12.442 64.833C12.4408 64.8287 12.4404 64.8242 12.4409 64.8197C12.4414 64.8153 12.4428 64.811 12.4449 64.8071C12.4471 64.8032 12.45 64.7997 12.4534 64.7969C12.4569 64.7942 12.4609 64.7921 12.4652 64.7909C12.4694 64.7896 12.4739 64.7893 12.4783 64.7898C12.4827 64.7903 12.487 64.7917 12.4908 64.7938C12.4947 64.796 12.4981 64.7989 12.5009 64.8025L15.7272 68.9183C15.7328 68.9254 15.7353 68.9344 15.7342 68.9434C15.7332 68.9523 15.7287 68.9605 15.7216 68.9661C15.7157 68.9709 15.7084 68.9735 15.7008 68.9735V68.9735Z" fill="white"/>
<path d="M15.4299 63.07C15.4227 63.0699 15.4158 63.0677 15.41 63.0634L11.2815 60.0193C11.2778 60.0167 11.2746 60.0134 11.2722 60.0096C11.2697 60.0058 11.2681 60.0015 11.2673 59.997C11.2666 59.9925 11.2667 59.9879 11.2677 59.9835C11.2688 59.979 11.2707 59.9748 11.2733 59.9712C11.276 59.9675 11.2793 59.9644 11.2832 59.962C11.2871 59.9597 11.2914 59.9581 11.2958 59.9575C11.3003 59.9569 11.3048 59.9571 11.3092 59.9583C11.3136 59.9594 11.3177 59.9615 11.3212 59.9643L15.4498 63.0084C15.4556 63.0126 15.4599 63.0186 15.462 63.0254C15.4642 63.0323 15.4642 63.0396 15.462 63.0465C15.4598 63.0533 15.4555 63.0593 15.4497 63.0635C15.4439 63.0677 15.437 63.07 15.4299 63.07V63.07Z" fill="white"/>
<path d="M6.62995 66.9787C6.62698 66.9787 6.62403 66.9783 6.62117 66.9775C6.61258 66.9752 6.60525 66.9695 6.60077 66.9618C6.5963 66.954 6.59504 66.9448 6.59727 66.9361L7.91153 61.9637C7.91392 61.9551 7.91954 61.9478 7.92721 61.9433C7.93487 61.9388 7.94398 61.9375 7.95259 61.9396C7.96119 61.9419 7.96853 61.9476 7.97301 61.9554C7.97749 61.9631 7.97873 61.9724 7.97648 61.9811L6.66247 66.9534C6.66057 66.9606 6.65635 66.9671 6.65047 66.9716C6.64459 66.9762 6.63737 66.9787 6.62995 66.9787V66.9787Z" fill="white"/>
<path d="M73.6915 80H6.32652C6.31128 80 6.29666 79.9939 6.28588 79.983C6.2751 79.9721 6.26904 79.9573 6.26904 79.942C6.26904 79.9266 6.2751 79.9118 6.28588 79.9009C6.29666 79.89 6.31128 79.8839 6.32652 79.8839H73.6915C73.7067 79.8839 73.7213 79.89 73.7321 79.9009C73.7429 79.9118 73.7489 79.9266 73.7489 79.942C73.7489 79.9573 73.7429 79.9721 73.7321 79.983C73.7213 79.9939 73.7067 80 73.6915 80Z" fill="#292A2E"/>
<path d="M23.4652 76.2793C23.4652 76.2793 23.8359 78.2199 25.635 78.3283C27.434 78.4368 27.0441 79.8839 27.0441 79.8839H20.1685V76.4147L23.4652 76.2793Z" fill="#367CFF"/>
<path d="M19.7021 40.881C19.7021 40.881 20.2163 40.2977 20.2118 41.6209C20.1948 46.5567 19.865 77.5177 19.865 77.5177L24.3832 77.4794L27.1202 40.6804L19.7021 40.881Z" fill="#262626"/>
<path d="M31.1803 76.2793C31.1803 76.2793 31.551 78.2199 33.3503 78.328C35.1496 78.4361 34.7594 79.8835 34.7594 79.8835H27.8835V76.4147L31.1803 76.2793Z" fill="#367CFF"/>
<path d="M32.0541 41.2643C32.0541 41.2643 32.6185 58.1336 32.5599 58.958L32.0291 77.3897L27.5855 77.4726L26.869 58.2911C26.869 58.2911 26.3994 53 25.1333 48.0867C24.4856 45.565 24.0957 42.9829 23.97 40.3809V40.3809L32.0541 41.2643Z" fill="#262626"/>
<path d="M26.1921 53.2246L26.5626 47.5028C26.5626 47.5028 26.9432 49.8815 26.9432 51.9318C26.9432 52.934 26.7388 56.9018 26.7388 56.9018L26.1921 53.2246Z" fill="#0A0A0A"/>
<path d="M19.653 40.8805L19.6382 40.8813C19.6382 40.8813 19.649 40.5936 19.653 40.8805Z" fill="#333333"/>
<path d="M19.6715 40.8806L19.6567 40.8814C19.6567 40.8814 19.6674 40.5937 19.6715 40.8806Z" fill="#333333"/>
<path d="M44.43 27.1884C44.4028 27.1339 44.3596 27.0894 44.3062 27.0609C44.2528 27.0323 44.192 27.0212 44.1321 27.0291C44.1327 27.0237 44.1315 27.0183 44.1289 27.0137C44.1261 27.0101 44.1224 27.0072 44.1182 27.0055C44.114 27.0038 44.1094 27.0032 44.1049 27.0038L44.307 26.8576C44.3675 26.8158 44.4109 26.7533 44.4293 26.6816C44.4477 26.61 44.4398 26.534 44.407 26.4679C44.3725 26.4035 44.3157 26.3544 44.2474 26.33C44.1791 26.3056 44.1043 26.3077 44.0375 26.3359C44.038 26.333 44.0361 26.3303 44.0357 26.3277L44.1187 26.2676C44.1755 26.228 44.217 26.1698 44.2361 26.1028C44.2553 26.0359 44.251 25.9643 44.2239 25.9001C44.2061 25.8603 44.1798 25.825 44.1468 25.7967C44.1138 25.7684 44.075 25.7478 44.0332 25.7364C43.9914 25.7251 43.9477 25.7232 43.9051 25.731C43.8625 25.7388 43.8221 25.7561 43.7869 25.7815L43.5954 25.9202C43.5948 25.9191 43.5954 25.9177 43.5946 25.9166C43.5939 25.9156 43.5918 25.9152 43.5907 25.914C43.6347 25.864 43.6606 25.8004 43.6641 25.7337C43.6675 25.6669 43.6485 25.6009 43.6099 25.5465C43.5196 25.3996 43.3108 25.4297 43.1869 25.5193L42.0593 26.3058L42.2608 25.9632C42.3014 25.8972 42.3156 25.8182 42.3007 25.7421C42.2858 25.6659 42.2429 25.5983 42.1806 25.5528C42.1476 25.5305 42.1105 25.5153 42.0714 25.508C42.0324 25.5006 41.9923 25.5014 41.9536 25.5103C41.9148 25.5191 41.8783 25.5359 41.8462 25.5594C41.8141 25.583 41.7871 25.613 41.7668 25.6474L40.6665 27.5181C40.5374 27.7376 40.4981 27.9992 40.557 28.2475C40.6159 28.4957 40.7683 28.711 40.9819 28.8476V28.8476C41.2296 29.0059 41.5185 29.086 41.8116 29.0775C42.1046 29.069 42.3885 28.9724 42.6268 28.7999L44.3295 27.5674C44.3861 27.5249 44.4268 27.4643 44.4451 27.3955C44.4633 27.3267 44.458 27.2537 44.43 27.1884V27.1884Z" fill="#E98862"/>
<g opacity="0.25">
<path d="M42.4796 26.6973C42.4837 26.7031 42.4899 26.707 42.4968 26.7082C42.5038 26.7094 42.5109 26.7078 42.5167 26.7037L43.588 25.9544C43.591 25.9524 43.5934 25.9498 43.5954 25.9468C43.5973 25.9438 43.5986 25.9404 43.5992 25.9369C43.5999 25.9334 43.5998 25.9298 43.599 25.9263C43.5983 25.9228 43.5969 25.9195 43.5949 25.9165C43.5928 25.9136 43.5903 25.9111 43.5873 25.9091C43.5843 25.9072 43.581 25.9059 43.5775 25.9052C43.574 25.9046 43.5704 25.9046 43.567 25.9054C43.5635 25.9062 43.5602 25.9076 43.5573 25.9096L42.486 26.6589C42.4801 26.663 42.4761 26.6693 42.4748 26.6764C42.4735 26.6835 42.4751 26.6909 42.4791 26.6968L42.4796 26.6973Z" fill="#0C0C0C"/>
</g>
<g opacity="0.25">
<path d="M42.7938 27.1836C42.7979 27.1893 42.8041 27.1932 42.8111 27.1944C42.818 27.1956 42.8251 27.194 42.8309 27.1899L44.0266 26.3537C44.0324 26.3496 44.0364 26.3433 44.0377 26.3362C44.039 26.3291 44.0374 26.3217 44.0333 26.3158C44.0291 26.3101 44.0229 26.3062 44.0159 26.3049C44.0089 26.3036 44.0017 26.3051 43.9958 26.3089L42.8002 27.1451C42.7943 27.1493 42.7903 27.1556 42.789 27.1627C42.7877 27.1698 42.7893 27.1771 42.7934 27.1831L42.7938 27.1836Z" fill="#0C0C0C"/>
</g>
<g opacity="0.25">
<path d="M43.1312 27.7122C43.1353 27.718 43.1415 27.7219 43.1484 27.7231C43.1554 27.7242 43.1625 27.7227 43.1683 27.7186L44.1221 27.0516C44.128 27.0475 44.132 27.0412 44.1333 27.0341C44.1345 27.0269 44.133 27.0196 44.1289 27.0137C44.1248 27.0077 44.1186 27.0037 44.1115 27.0024C44.1045 27.0011 44.0972 27.0027 44.0914 27.0068L43.1376 27.6738C43.1317 27.678 43.1277 27.6843 43.1264 27.6914C43.1251 27.6985 43.1267 27.7058 43.1308 27.7117L43.1312 27.7122Z" fill="#0C0C0C"/>
</g>
<path d="M40.0171 27.092L36.7855 32.6499L32.8421 27.427L29.5671 30.4083L35.1597 37.7222L35.1963 37.7743C35.4202 38.0839 35.7184 38.3308 36.0629 38.4919C36.4074 38.6529 36.7869 38.7227 37.1655 38.6947C37.5441 38.6667 37.9094 38.5419 38.227 38.3319C38.5447 38.1219 38.8041 37.8337 38.9809 37.4945L43.5765 29.0909L40.0171 27.092Z" fill="#367CFF"/>
<path d="M36.4686 33.3182C36.4616 33.3182 36.4547 33.3164 36.4485 33.313C36.4424 33.3095 36.4372 33.3045 36.4335 33.2984C36.4299 33.2924 36.4278 33.2854 36.4275 33.2783C36.4273 33.2712 36.4288 33.2642 36.432 33.2579L36.7489 32.631C36.7538 32.6212 36.7624 32.6138 36.7728 32.6104C36.7832 32.607 36.7944 32.6079 36.8041 32.613C36.8138 32.618 36.8211 32.6267 36.8245 32.6371C36.8278 32.6476 36.8269 32.659 36.8219 32.6688L36.5052 33.2956C36.5017 33.3024 36.4965 33.3081 36.4901 33.3121C36.4836 33.3161 36.4762 33.3182 36.4686 33.3182Z" fill="#0C0C0C"/>
<path d="M32.6145 32.6181L32.5159 34.3735L32.5978 34.3782L32.6965 32.6228L32.6145 32.6181Z" fill="#0C0C0C"/>
<path d="M22.2012 19.9138C22.2012 19.9138 22.0498 21.8678 21.606 22.5721C20.3282 24.5999 19.9386 26.8933 21.1808 28.1084C22.423 29.3234 30.4343 29.4342 31.0729 26.6798C31.6105 24.3613 30.5168 24.0987 30.272 22.1776C30.1612 21.3085 29.85 19.4854 29.85 19.4854" fill="#0A0A0A"/>
<path d="M29.0333 26.2397C29.0195 26.2379 28.866 28.8093 25.9077 28.5852C23.8597 28.4302 23.1294 26.2361 23.0825 26.2361C23.3033 26.1887 23.6752 26.12 23.7732 26.0669C24.0957 25.892 24.4947 25.7099 24.5987 25.0775C24.6586 24.7127 24.557 22.8483 24.5883 22.4795L27.7319 23.1881C27.688 23.9669 27.3806 25.7725 28.4581 26.0921C28.6375 26.1449 28.8306 26.1935 29.0333 26.2397Z" fill="#E98862"/>
<path opacity="0.52" d="M27.7762 25.3542C27.7269 25.194 27.6952 25.0288 27.6816 24.8615C27.647 24.4799 27.6539 24.0957 27.7021 23.7156C27.0632 23.6285 26.4612 23.3622 25.9647 22.9469C25.9063 23.1646 25.5852 24.116 25.6742 24.3227C25.8422 24.7138 26.6317 25.3542 27.7762 25.3542Z" fill="#0C0C0C"/>
<path d="M27.3594 24.5448C26.1187 24.6514 24.5209 24.1321 24.2079 22.4616L23.9253 20.9543C23.6122 19.2839 24.2273 17.7637 25.785 17.466C27.3425 17.1683 28.7606 18.3 29.0737 19.9705L29.1987 20.6378C29.3189 21.2787 29.5733 24.3546 27.3594 24.5448Z" fill="#E98862"/>
<path d="M28.7548 20.7105C28.8627 20.7105 28.9501 20.6222 28.9501 20.5133C28.9501 20.4044 28.8627 20.3162 28.7548 20.3162C28.647 20.3162 28.5596 20.4044 28.5596 20.5133C28.5596 20.6222 28.647 20.7105 28.7548 20.7105Z" fill="#0C0C0C"/>
<path d="M26.7543 20.9804C26.8622 20.9804 26.9496 20.8921 26.9496 20.7832C26.9496 20.6743 26.8622 20.5861 26.7543 20.5861C26.6465 20.5861 26.5591 20.6743 26.5591 20.7832C26.5591 20.8921 26.6465 20.9804 26.7543 20.9804Z" fill="#0C0C0C"/>
<path opacity="0.52" d="M27.8521 22.229L27.8551 22.2285C27.9182 22.216 27.9806 22.2 28.0419 22.1805C28.1335 22.1507 28.2534 22.1016 28.2378 22.018C28.22 21.9228 27.7693 20.9452 27.718 20.8341C27.7158 20.8292 27.7127 20.8249 27.7088 20.8212C27.7049 20.8176 27.7004 20.8148 27.6954 20.8129C27.6905 20.8111 27.6852 20.8102 27.68 20.8105C27.6747 20.8107 27.6695 20.8119 27.6647 20.8142C27.6599 20.8164 27.6556 20.8196 27.6521 20.8236C27.6485 20.8275 27.6458 20.8321 27.644 20.8371C27.6422 20.8421 27.6414 20.8475 27.6416 20.8528C27.6419 20.8581 27.6432 20.8633 27.6455 20.8681C27.8377 21.2845 28.1472 21.9689 28.1592 22.033C28.1489 22.0628 27.9968 22.1191 27.8402 22.1491C27.83 22.1509 27.8208 22.1567 27.8147 22.1652C27.8086 22.1738 27.806 22.1844 27.8076 22.1948C27.8091 22.2052 27.8146 22.2146 27.823 22.221C27.8313 22.2274 27.8417 22.2302 27.8521 22.2289V22.229Z" fill="#0C0C0C"/>
<path opacity="0.52" d="M27.6217 22.9498C27.8757 22.9166 28.1185 22.8234 28.3303 22.678C28.3392 22.6721 28.3455 22.6629 28.3476 22.6525C28.3498 22.642 28.3478 22.6311 28.342 22.6221C28.3362 22.6131 28.3271 22.6068 28.3168 22.6046C28.3064 22.6024 28.2956 22.6045 28.2867 22.6103C27.8282 22.912 27.3725 22.9608 26.9691 22.7513C26.961 22.7468 26.9526 22.7428 26.944 22.7392C26.934 22.7355 26.923 22.736 26.9134 22.7406C26.9038 22.7451 26.8964 22.7534 26.8928 22.7635C26.8892 22.7735 26.8897 22.7847 26.8942 22.7944C26.8987 22.8041 26.9068 22.8116 26.9168 22.8152C26.9199 22.8165 26.925 22.8193 26.9325 22.8235C27.1446 22.9339 27.3846 22.9779 27.6217 22.9498V22.9498Z" fill="#0C0C0C"/>
<path d="M22.679 21.4796L24.0753 21.2212C25.1327 20.789 25.4526 18.9406 25.4526 18.9406C25.4526 18.9406 26.737 20.2047 29.8497 19.4857C29.8497 19.4857 29.2257 15.1022 24.627 16.3765C23.1442 16.7875 22.08 18.2963 22.2126 20.3129C22.3056 21.7264 22.679 21.4796 22.679 21.4796Z" fill="#0A0A0A"/>
<path d="M24.4 22.9521C23.9267 23.0426 23.4471 22.6045 23.3572 22.1265C23.2673 21.6485 23.6019 21.3117 24.0753 21.2212L24.3791 21.4948L24.8066 22.8743L24.4 22.9521Z" fill="#E98862"/>
<path d="M28.0034 20.0348C28.1414 19.9447 28.3009 19.8938 28.4652 19.8875C28.546 19.8839 28.6269 19.8925 28.7052 19.9132C28.7828 19.9333 28.8575 19.9631 28.9277 20.0021C28.9376 20.007 28.9451 20.0157 28.9487 20.0262C28.9523 20.0368 28.9517 20.0483 28.9469 20.0583C28.9421 20.0683 28.9336 20.0761 28.9232 20.0798C28.9128 20.0835 28.9014 20.0829 28.8914 20.0782L28.8884 20.0768C28.8236 20.0446 28.755 20.0208 28.6842 20.0059C28.6143 19.9907 28.5426 19.9864 28.4714 19.9929C28.3302 20.0049 28.1946 20.0543 28.0784 20.1363L28.0746 20.1391C28.068 20.144 28.0604 20.1475 28.0524 20.1495C28.0444 20.1514 28.036 20.1518 28.0279 20.1505C28.0197 20.1492 28.0119 20.1462 28.0049 20.1419C27.9978 20.1375 27.9917 20.1318 27.9869 20.1251C27.982 20.1184 27.9785 20.1107 27.9766 20.1026C27.9747 20.0945 27.9743 20.0861 27.9756 20.0779C27.9769 20.0696 27.9798 20.0617 27.9841 20.0546C27.9884 20.0475 27.9941 20.0414 28.0007 20.0365L28.0034 20.0348Z" fill="#0C0C0C"/>
<path d="M26.7582 20.3308C26.6205 20.2968 26.4764 20.3001 26.3405 20.3406C26.2717 20.3604 26.2063 20.3906 26.1465 20.4302C26.0859 20.47 26.0305 20.5174 25.9816 20.5711L25.9793 20.5734C25.9717 20.5811 25.9613 20.5856 25.9505 20.5858C25.9397 20.586 25.9292 20.5819 25.9212 20.5744C25.9133 20.567 25.9086 20.5567 25.908 20.5457C25.9075 20.5348 25.9111 20.5241 25.9183 20.5158C25.9697 20.4539 26.0287 20.3987 26.0939 20.3517C26.1595 20.3039 26.2318 20.2663 26.3085 20.2402C26.464 20.1863 26.6309 20.1755 26.7919 20.209C26.8082 20.2126 26.8225 20.2225 26.8316 20.2367C26.8407 20.2509 26.8438 20.2681 26.8403 20.2846C26.8368 20.3011 26.8269 20.3155 26.8129 20.3246C26.7989 20.3338 26.7818 20.337 26.7655 20.3334L26.7629 20.3328L26.7582 20.3308Z" fill="#0C0C0C"/>
<path opacity="0.52" d="M27.6756 23.3292C27.7216 23.3239 27.7671 23.3146 27.8115 23.3016C27.8217 23.2986 27.8304 23.2917 27.8355 23.2823C27.8406 23.2729 27.8419 23.2619 27.839 23.2516C27.836 23.2413 27.8292 23.2326 27.8199 23.2274C27.8106 23.2222 27.7997 23.2209 27.7894 23.2239C27.5217 23.3017 27.3695 23.199 27.3631 23.1942C27.3544 23.188 27.3436 23.1856 27.3332 23.1875C27.3227 23.1894 27.3134 23.1954 27.3073 23.2042C27.3012 23.213 27.2988 23.2238 27.3007 23.2344C27.3025 23.245 27.3084 23.2544 27.3171 23.2605C27.4252 23.3246 27.5518 23.3488 27.6756 23.3292V23.3292Z" fill="#0C0C0C"/>
<path d="M24.0786 21.2032L24.0647 21.1642C25.8338 20.5229 25.4011 18.7699 25.3966 18.7522L25.4363 18.7417C25.441 18.7597 25.8834 20.549 24.0786 21.2032Z" fill="#0C0C0C"/>
<path opacity="0.1" d="M26.5905 22.3452C26.7947 22.323 26.9471 22.1824 26.931 22.0311C26.9149 21.8799 26.7363 21.7753 26.5321 21.7975C26.3279 21.8197 26.1754 21.9603 26.1915 22.1115C26.2077 22.2628 26.3863 22.3674 26.5905 22.3452Z" fill="#0C0C0C"/>
<path opacity="0.1" d="M28.7587 21.773C28.7751 21.9241 28.9538 22.0286 29.1581 22.0067C29.1934 22.0028 29.2282 21.9952 29.262 21.9841C29.2735 21.8044 29.276 21.6314 29.2726 21.4712C29.2162 21.4562 29.1574 21.452 29.0995 21.4589C28.8952 21.4807 28.7428 21.6213 28.7587 21.773Z" fill="#0C0C0C"/>
<path d="M32.7089 31.9007C32.6157 33.0061 32.1624 39.9027 32.0728 41.2643H20.2184C20.1486 40.0363 19.3428 34.6664 19.0783 32.2649C18.8258 29.9734 18.3304 28.8261 18.6935 28.1486C19.2868 27.0414 20.9082 26.4016 22.0137 26.2504C22.6888 26.1582 23.7041 26.092 23.7041 26.092C23.7041 26.092 23.7901 27.8481 25.8401 27.9459C28.6306 28.0786 28.4443 26.092 28.4581 26.092C28.9102 26.092 31.4927 26.381 32.1246 26.7592C33.846 27.7887 32.9067 29.5586 32.7089 31.9007Z" fill="#367CFF"/>
<path d="M40.4036 32.673L39.2609 38.2811C39.2378 38.395 39.1767 38.4974 39.0879 38.5713C38.999 38.6453 38.8877 38.6862 38.7726 38.6873L30.9043 38.755C30.8293 38.7556 30.755 38.7393 30.687 38.7072C30.619 38.6751 30.559 38.6281 30.5113 38.5696C30.4636 38.511 30.4295 38.4424 30.4115 38.3689C30.3934 38.2953 30.3919 38.2186 30.4071 38.1443L31.5497 32.5361C31.5729 32.4222 31.6341 32.3198 31.723 32.246C31.812 32.1721 31.9233 32.1313 32.0384 32.1303L39.9067 32.0626C39.9817 32.0621 40.0559 32.0784 40.1238 32.1105C40.1917 32.1426 40.2517 32.1896 40.2993 32.2481C40.347 32.3066 40.381 32.3751 40.3991 32.4486C40.4171 32.5221 40.4186 32.5988 40.4036 32.673Z" fill="#292A2E"/>
<path d="M33.0666 36.6566C33.0708 36.7305 33.0484 36.8034 33.0036 36.8619C32.9588 36.9204 32.8946 36.9605 32.8227 36.975L32.5805 37.0289C32.5848 37.0304 32.5887 37.0328 32.5919 37.0362C32.595 37.0395 32.5973 37.0436 32.5986 37.048C32.5992 37.0532 32.598 37.0584 32.5953 37.0629C32.6535 37.0794 32.7052 37.1139 32.7432 37.1614C32.7811 37.209 32.8035 37.2673 32.8071 37.3282C32.8075 37.3993 32.7841 37.4684 32.7407 37.5244C32.6974 37.5803 32.6366 37.6199 32.5682 37.6367L30.5228 38.0952C30.4183 38.1189 30.3114 38.1309 30.2042 38.1308C29.9655 38.1308 29.7304 38.0721 29.5191 37.9599C29.3078 37.8477 29.1267 37.6852 28.9915 37.4866C28.848 37.2764 28.7914 37.0181 28.8338 36.7664C28.8761 36.5148 29.014 36.2898 29.2181 36.1393L30.958 34.8549C30.9963 34.8266 31.0408 34.8081 31.0877 34.801L30.9276 35.5862L30.9703 35.5763L30.9794 35.5746L32.3137 35.3002C32.4623 35.267 32.6659 35.3217 32.6922 35.4925C32.7063 35.5579 32.698 35.6262 32.6688 35.6863C32.6396 35.7463 32.5911 35.7946 32.5312 35.8234C32.5321 35.8242 32.5337 35.825 32.5337 35.8267C32.5337 35.8283 32.5329 35.8292 32.5329 35.8308L32.7636 35.7794C32.8058 35.77 32.8496 35.7701 32.8918 35.7798C32.9339 35.7894 32.9734 35.8085 33.0074 35.8354C33.0414 35.8624 33.0691 35.8966 33.0884 35.9357C33.1077 35.9748 33.1182 36.0177 33.1192 36.0613C33.1191 36.131 33.0953 36.1986 33.0516 36.2525C33.0079 36.3065 32.947 36.3435 32.8794 36.3573L32.78 36.3797C32.7792 36.383 32.78 36.3863 32.7784 36.3888C32.8508 36.3894 32.9204 36.4171 32.9737 36.4666C33.0269 36.5161 33.0601 36.5838 33.0666 36.6566V36.6566Z" fill="#E98862"/>
<g opacity="0.25">
<path d="M31.2046 36.103C31.2061 36.1099 31.2103 36.116 31.2163 36.1198C31.2222 36.1237 31.2294 36.125 31.2363 36.1236L32.5129 35.8592C32.5164 35.8584 32.5197 35.857 32.5226 35.855C32.5255 35.853 32.528 35.8505 32.53 35.8475C32.5319 35.8445 32.5333 35.8412 32.534 35.8377C32.5346 35.8341 32.5346 35.8305 32.5339 35.827C32.5332 35.8235 32.5318 35.8202 32.5298 35.8173C32.5278 35.8143 32.5253 35.8118 32.5223 35.8098C32.5194 35.8078 32.5161 35.8065 32.5126 35.8058C32.5091 35.8051 32.5055 35.8051 32.5021 35.8059L31.2254 36.0702C31.2184 36.0716 31.2123 36.0758 31.2083 36.0819C31.2044 36.0879 31.203 36.0953 31.2044 36.1024L31.2046 36.103Z" fill="#0C0C0C"/>
</g>
<g opacity="0.25">
<path d="M31.3046 36.6748C31.3062 36.6817 31.3104 36.6877 31.3163 36.6916C31.3222 36.6954 31.3294 36.6968 31.3363 36.6954L32.7611 36.4003C32.7681 36.3989 32.7742 36.3947 32.7781 36.3886C32.7821 36.3826 32.7835 36.3753 32.7821 36.3682C32.7804 36.3612 32.7762 36.3552 32.7703 36.3512C32.7644 36.3473 32.7572 36.3458 32.7502 36.3469L31.3253 36.642C31.3218 36.6428 31.3185 36.6441 31.3156 36.6461C31.3126 36.6481 31.3101 36.6507 31.3082 36.6537C31.3062 36.6567 31.3049 36.66 31.3042 36.6635C31.3035 36.667 31.3035 36.6706 31.3043 36.6741L31.3046 36.6748Z" fill="#0C0C0C"/>
</g>
<g opacity="0.25">
<path d="M31.4094 37.2945C31.411 37.3014 31.4152 37.3074 31.4211 37.3112C31.427 37.3151 31.4342 37.3164 31.4411 37.315L32.5776 37.0796C32.5811 37.0789 32.5843 37.0775 32.5873 37.0755C32.5902 37.0735 32.5927 37.0709 32.5947 37.0679C32.5966 37.065 32.598 37.0616 32.5986 37.0581C32.5993 37.0546 32.5993 37.051 32.5986 37.0475C32.5979 37.044 32.5965 37.0407 32.5945 37.0377C32.5925 37.0348 32.59 37.0322 32.587 37.0303C32.584 37.0283 32.5807 37.0269 32.5773 37.0262C32.5738 37.0256 32.5702 37.0256 32.5667 37.0263L31.4303 37.2616C31.4232 37.2631 31.4171 37.2673 31.4132 37.2733C31.4092 37.2793 31.4078 37.2867 31.4092 37.2938L31.4094 37.2945Z" fill="#0C0C0C"/>
</g>
<path d="M30.3962 38.9124L19.2993 40.9374C18.9531 40.9754 18.6029 40.9318 18.2761 40.8102C17.9493 40.6885 17.6549 40.4921 17.4159 40.2362C17.1769 39.9804 16.9999 39.6721 16.8987 39.3356C16.7976 38.9991 16.775 38.6435 16.8328 38.2967L18.3858 28.9725C18.4347 28.6775 18.5407 28.3951 18.6977 28.1415C18.8548 27.8879 19.0597 27.6681 19.301 27.4945C19.5422 27.321 19.8149 27.1971 20.1036 27.13C20.3922 27.0629 20.6911 27.0539 20.9832 27.1036C21.2753 27.1532 21.5548 27.2604 21.8058 27.4192C22.0568 27.578 22.2744 27.7851 22.4461 28.0288C22.6178 28.2725 22.7403 28.548 22.8065 28.8396C22.8727 29.1311 22.8813 29.4329 22.832 29.7278L21.7728 36.1466L29.9083 35.1149L30.3962 38.9124Z" fill="#367CFF"/>
<path d="M19.2993 40.9788C19.289 40.9787 19.2792 40.9748 19.2716 40.9678C19.2641 40.9609 19.2594 40.9513 19.2585 40.941C19.2576 40.9307 19.2605 40.9204 19.2667 40.9122C19.2729 40.9039 19.282 40.8983 19.292 40.8965L30.3504 38.8786L29.8729 35.161L21.7779 36.1876C21.7715 36.1884 21.7651 36.1878 21.759 36.1856C21.753 36.1835 21.7475 36.1799 21.7431 36.1752C21.7387 36.1706 21.7354 36.1649 21.7335 36.1588C21.7316 36.1526 21.7311 36.146 21.7322 36.1397L22.4055 32.0373C22.4063 32.0319 22.4082 32.0267 22.411 32.0221C22.4139 32.0174 22.4176 32.0134 22.422 32.0102C22.4264 32.007 22.4314 32.0048 22.4367 32.0036C22.4419 32.0024 22.4474 32.0022 22.4527 32.0032C22.458 32.0041 22.4631 32.006 22.4677 32.0089C22.4723 32.0118 22.4763 32.0155 22.4794 32.02C22.4826 32.0244 22.4848 32.0294 22.486 32.0347C22.4873 32.04 22.4874 32.0455 22.4865 32.0509L21.8221 36.0984L29.9031 35.0736C29.9139 35.0722 29.9247 35.0752 29.9333 35.0819C29.9419 35.0886 29.9475 35.0985 29.9489 35.1094L30.4368 38.9068C30.4382 38.9174 30.4354 38.928 30.4292 38.9366C30.423 38.9452 30.4138 38.951 30.4034 38.9529L19.3067 40.9781C19.3042 40.9785 19.3017 40.9787 19.2993 40.9788V40.9788Z" fill="#0C0C0C"/>
<path d="M21.7665 36.1057L21.0527 36.2211L21.0657 36.303L21.7795 36.1876L21.7665 36.1057Z" fill="#0C0C0C"/>
<path d="M77.0914 45.8721H52.8069C51.7982 45.8721 50.9805 46.6978 50.9805 47.7164V56.1126C50.9805 57.1312 51.7982 57.957 52.8069 57.957H77.0914C78.1001 57.957 78.9179 57.1312 78.9179 56.1126V47.7164C78.9179 46.6978 78.1001 45.8721 77.0914 45.8721Z" fill="white"/>
<path opacity="0.4" d="M77.0914 45.8721H52.8069C51.7982 45.8721 50.9805 46.6978 50.9805 47.7164V56.1126C50.9805 57.1312 51.7982 57.957 52.8069 57.957H77.0914C78.1001 57.957 78.9179 57.1312 78.9179 56.1126V47.7164C78.9179 46.6978 78.1001 45.8721 77.0914 45.8721Z" fill="#367CFF"/>
<path d="M77.0915 58.0394H52.807C52.301 58.0388 51.8159 57.8356 51.4581 57.4743C51.1003 57.113 50.899 56.6231 50.8984 56.1122V47.7167C50.899 47.2057 51.1003 46.7159 51.4581 46.3546C51.8159 45.9933 52.301 45.79 52.807 45.7894H77.0915C77.5975 45.79 78.0826 45.9933 78.4404 46.3546C78.7982 46.7159 78.9995 47.2057 79.0001 47.7167V56.1125C78.9994 56.6234 78.7981 57.1132 78.4403 57.4744C78.0825 57.8356 77.5974 58.0388 77.0915 58.0394V58.0394ZM52.807 45.9549C52.3445 45.9555 51.9011 46.1412 51.574 46.4715C51.247 46.8018 51.0631 47.2496 51.0627 47.7167V56.1125C51.0633 56.5794 51.2473 57.0271 51.5743 57.3572C51.9013 57.6873 52.3446 57.873 52.807 57.8736H77.0915C77.554 57.873 77.9973 57.6873 78.3244 57.3571C78.6514 57.0269 78.8353 56.5792 78.8359 56.1122V47.7167C78.8353 47.2497 78.6514 46.802 78.3244 46.4717C77.9973 46.1415 77.554 45.9558 77.0915 45.9553L52.807 45.9549Z" fill="#292A2E"/>
<path d="M53.4857 55.3819C53.4636 55.3819 53.4419 55.3759 53.4229 55.3645C53.4038 55.3531 53.3882 55.3368 53.3776 55.3171C53.367 55.2975 53.3618 55.2754 53.3626 55.2531C53.3634 55.2308 53.3701 55.2091 53.3821 55.1903C53.4088 55.1488 56.0927 51.0049 60.3578 51.0049C62.5864 51.0049 63.9367 51.8733 65.2427 52.7129C66.4515 53.4903 67.5933 54.2246 69.3601 54.2246C72.9723 54.2246 75.8823 48.9272 75.9112 48.8737C75.9269 48.8448 75.9533 48.8233 75.9847 48.814C76.016 48.8047 76.0497 48.8084 76.0784 48.8242C76.1071 48.84 76.1283 48.8667 76.1375 48.8984C76.1467 48.93 76.1431 48.9641 76.1274 48.993C76.0063 49.2169 73.117 54.4736 69.3601 54.4736C67.5215 54.4736 66.3503 53.7204 65.1103 52.9231C63.8342 52.1023 62.5147 51.2538 60.3578 51.2538C56.229 51.2538 53.6154 55.2842 53.5894 55.3249C53.5783 55.3424 53.5629 55.3568 53.5448 55.3668C53.5267 55.3767 53.5064 55.3819 53.4857 55.3819V55.3819Z" fill="white"/>
<path d="M76.0538 49.4203C76.32 49.4203 76.5358 49.2024 76.5358 48.9336C76.5358 48.6648 76.32 48.4469 76.0538 48.4469C75.7876 48.4469 75.5718 48.6648 75.5718 48.9336C75.5718 49.2024 75.7876 49.4203 76.0538 49.4203Z" fill="white"/>
</g>
<defs>
<clipPath id="clip0_71_960">
<rect width="79" height="80" fill="white"/>
</clipPath>
</defs>
</svg>
