<svg width="437" height="385" viewBox="0 0 437 385" fill="none" xmlns="http://www.w3.org/2000/svg">
<path d="M124.589 157.478L304.531 157.478C308.95 157.478 312.532 153.682 312.532 148.999V9.37282C312.532 4.68968 308.95 0.89325 304.531 0.89325L124.589 0.89325C120.17 0.89325 116.588 4.68968 116.588 9.37282L116.588 148.999C116.588 153.682 120.17 157.478 124.589 157.478Z" fill="white"/>
<path d="M304.531 157.828H124.589C122.38 157.825 120.263 156.894 118.701 155.239C117.139 153.584 116.261 151.34 116.258 148.999V9.3728C116.261 7.03197 117.139 4.78775 118.701 3.13254C120.263 1.47732 122.38 0.546284 124.589 0.543701L304.531 0.543701C306.74 0.546283 308.858 1.4773 310.42 3.13251C311.982 4.78771 312.86 7.03193 312.863 9.3728V148.999C312.86 151.34 311.982 153.584 310.42 155.239C308.858 156.894 306.74 157.825 304.531 157.828ZM124.589 1.24277C122.555 1.24524 120.605 2.10258 119.167 3.62673C117.729 5.15087 116.92 7.21734 116.918 9.3728V148.999C116.92 151.154 117.729 153.221 119.167 154.745C120.605 156.269 122.555 157.126 124.589 157.129H304.531C306.565 157.126 308.515 156.269 309.953 154.745C311.392 153.221 312.201 151.154 312.203 148.999V9.3728C312.201 7.2173 311.392 5.15083 309.953 3.6267C308.515 2.10257 306.565 1.24524 304.531 1.24277H124.589Z" fill="#292A2E"/>
<path d="M139.906 14.0472L127.045 15.3397C125.717 15.4731 124.742 16.7226 124.868 18.1303L126.088 31.7604C126.213 33.1681 127.392 34.2011 128.721 34.0676L141.581 32.7751C142.91 32.6416 143.884 31.3922 143.758 29.9844L142.539 16.3544C142.413 14.9467 141.234 13.9137 139.906 14.0472Z" fill="#292A2E"/>
<path d="M176.53 43.6128L163.685 42.1495C162.359 41.9984 161.167 43.0156 161.025 44.4216L159.641 58.0341C159.498 59.44 160.458 60.7023 161.785 60.8534L174.629 62.3166C175.956 62.4678 177.147 61.4505 177.29 60.0446L178.673 46.4321C178.816 45.0262 177.856 43.7639 176.53 43.6128Z" fill="white"/>
<path d="M174.894 62.758C174.792 62.7579 174.689 62.7521 174.588 62.7406L161.744 61.2758C161.001 61.1903 160.321 60.7962 159.853 60.1799C159.384 59.5637 159.166 58.7757 159.245 57.9888L160.627 44.3769C160.666 43.9872 160.778 43.6095 160.955 43.2654C161.133 42.9214 161.372 42.6177 161.66 42.3717C161.948 42.1258 162.279 41.9424 162.634 41.832C162.989 41.7216 163.361 41.6863 163.728 41.7283L176.572 43.193C177.315 43.2779 177.995 43.6719 178.464 44.2883C178.933 44.9047 179.151 45.693 179.071 46.4801L177.689 60.0919C177.615 60.8232 177.289 61.4996 176.773 61.9916C176.257 62.4836 175.588 62.7565 174.894 62.758H174.894ZM174.673 61.8968C175.204 61.9575 175.737 61.7919 176.153 61.4364C176.569 61.081 176.835 60.5649 176.893 60.0016L178.275 46.3893C178.332 45.8259 178.176 45.2616 177.84 44.8203C177.505 44.3791 177.018 44.0971 176.486 44.0363L163.642 42.572C163.379 42.542 163.113 42.5672 162.859 42.6462C162.605 42.7253 162.368 42.8565 162.162 43.0326C161.956 43.2086 161.784 43.426 161.657 43.6722C161.53 43.9185 161.451 44.1888 161.422 44.4677L160.04 58.0796C159.984 58.6429 160.14 59.2069 160.476 59.648C160.811 60.0891 161.298 60.3712 161.829 60.4325L174.673 61.8968Z" fill="#292A2E"/>
<path d="M233.523 65.197C233.458 65.1971 233.393 65.1801 233.335 65.1474C233.277 65.1147 233.227 65.0673 233.191 65.0096C225.041 52.1625 212.678 49.8235 203.739 50.1205C197.694 50.3644 191.726 51.64 186.064 53.8983C185.966 53.9403 185.857 53.9397 185.759 53.8965C185.662 53.8533 185.585 53.7712 185.544 53.6678C185.504 53.5645 185.503 53.4485 185.543 53.3449C185.583 53.2413 185.66 53.1586 185.757 53.1148C191.509 50.8192 197.572 49.5217 203.714 49.2725C212.851 48.968 225.501 51.3672 233.855 64.5357C233.896 64.5995 233.919 64.6738 233.923 64.7506C233.926 64.8274 233.91 64.9038 233.876 64.9717C233.842 65.0396 233.791 65.0964 233.729 65.136C233.667 65.1756 233.596 65.1966 233.523 65.1966V65.197Z" fill="#292A2E"/>
<path d="M233.671 65.3706C233.634 65.3705 233.598 65.365 233.562 65.3545L225.361 62.8997C225.259 62.8691 225.172 62.7968 225.12 62.6987C225.068 62.6005 225.056 62.4845 225.084 62.3762C225.113 62.268 225.181 62.1762 225.274 62.1213C225.367 62.0663 225.476 62.0526 225.578 62.0831L233.394 64.4221L235.602 56.1385C235.633 56.0327 235.701 55.9439 235.793 55.891C235.885 55.8381 235.993 55.8253 236.093 55.8555C236.194 55.8856 236.279 55.9562 236.331 56.0522C236.383 56.1482 236.398 56.262 236.372 56.3693L234.056 65.0609C234.032 65.1499 233.982 65.2283 233.913 65.2842C233.843 65.3401 233.758 65.3704 233.671 65.3706Z" fill="#292A2E"/>
<path d="M246.534 69.1758L233.673 70.4683C232.345 70.6018 231.37 71.8512 231.496 73.259L232.716 86.889C232.842 88.2967 234.021 89.3297 235.349 89.1962L248.21 87.9038C249.538 87.7703 250.513 86.5208 250.387 85.1131L249.167 71.483C249.041 70.0753 247.862 69.0423 246.534 69.1758Z" fill="#367CFF"/>
<path d="M288.566 27.2737L275.675 26.3952C274.343 26.3044 273.194 27.3749 273.109 28.786L272.28 42.449C272.194 43.8601 273.204 45.0777 274.536 45.1684L287.427 46.0469C288.759 46.1377 289.908 45.0672 289.993 43.6561L290.822 29.9931C290.908 28.582 289.898 27.3644 288.566 27.2737Z" fill="#292A2E"/>
<path d="M295.851 71.8601L283.006 70.3954C281.68 70.2442 280.489 71.2613 280.346 72.6673L278.964 86.2799C278.821 87.6858 279.781 88.9482 281.107 89.0995L293.952 90.5641C295.278 90.7154 296.47 89.6983 296.612 88.2923L297.994 74.6797C298.137 73.2737 297.177 72.0113 295.851 71.8601Z" fill="#0CBC8B"/>
<path d="M225.343 116.204L212.483 117.496C211.154 117.63 210.18 118.879 210.306 120.287L211.525 133.917C211.651 135.325 212.83 136.358 214.158 136.224L227.019 134.932C228.347 134.798 229.322 133.549 229.196 132.141L227.977 118.511C227.851 117.103 226.672 116.07 225.343 116.204Z" fill="white"/>
<path d="M213.929 136.66C213.229 136.659 212.554 136.381 212.036 135.881C211.518 135.382 211.194 134.696 211.127 133.957L209.908 120.327C209.838 119.539 210.066 118.754 210.542 118.144C211.018 117.534 211.703 117.15 212.446 117.074L225.306 115.781C225.674 115.744 226.045 115.785 226.399 115.9C226.752 116.015 227.081 116.203 227.366 116.452C227.651 116.702 227.887 117.009 228.06 117.355C228.233 117.702 228.34 118.081 228.375 118.471L229.595 132.101C229.665 132.889 229.436 133.674 228.961 134.283C228.485 134.893 227.8 135.278 227.057 135.354L214.197 136.646C214.107 136.655 214.017 136.66 213.929 136.66ZM225.576 116.616C225.512 116.616 225.447 116.62 225.383 116.626L212.521 117.917C211.989 117.971 211.499 118.247 211.158 118.683C210.817 119.12 210.654 119.682 210.704 120.246L211.923 133.876C211.975 134.439 212.235 134.958 212.647 135.319C213.059 135.68 213.589 135.853 214.121 135.801L226.981 134.508C227.513 134.454 228.003 134.178 228.344 133.742C228.684 133.305 228.848 132.743 228.798 132.179L227.578 118.55C227.531 118.021 227.299 117.53 226.929 117.172C226.559 116.815 226.076 116.616 225.575 116.615L225.576 116.616Z" fill="#292A2E"/>
<path d="M142.419 111.594L129.558 112.886C128.23 113.02 127.255 114.269 127.381 115.677L128.6 129.307C128.726 130.715 129.905 131.748 131.234 131.614L144.094 130.322C145.423 130.188 146.397 128.939 146.271 127.531L145.052 113.901C144.926 112.493 143.747 111.46 142.419 111.594Z" fill="#367CFF"/>
<path d="M245.313 62.2316C245.297 62.2316 245.282 62.2307 245.267 62.229C245.214 62.2227 245.164 62.2054 245.118 62.1784C245.072 62.1513 245.031 62.1149 244.999 62.0713C244.966 62.0276 244.942 61.9776 244.927 61.924C244.913 61.8704 244.909 61.8144 244.915 61.759C245.516 57.4764 246.765 53.3247 248.615 49.4639C252.617 41.2418 258.894 36.5261 266.762 35.8236C266.868 35.8142 266.973 35.8496 267.054 35.9222C267.135 35.9948 267.185 36.0986 267.194 36.2107C267.203 36.3228 267.17 36.4341 267.101 36.52C267.033 36.606 266.935 36.6596 266.829 36.669C248.478 38.3047 245.736 61.6207 245.71 61.8562C245.698 61.9594 245.652 62.0547 245.578 62.1239C245.505 62.1931 245.411 62.2314 245.313 62.2316Z" fill="#292A2E"/>
<path d="M262.956 40.8727C262.876 40.8727 262.799 40.8479 262.733 40.8014C262.667 40.7549 262.616 40.6887 262.586 40.6113C262.555 40.5338 262.547 40.4486 262.563 40.3663C262.578 40.284 262.616 40.2084 262.672 40.149L266.37 36.2121L262.656 32.2926C262.617 32.2535 262.587 32.2068 262.566 32.1551C262.545 32.1034 262.534 32.0478 262.533 31.9914C262.532 31.9351 262.542 31.8792 262.562 31.8271C262.582 31.7749 262.612 31.7275 262.65 31.6876C262.687 31.6477 262.732 31.6161 262.781 31.5946C262.83 31.5732 262.883 31.5623 262.936 31.5627C262.989 31.5631 263.042 31.5746 263.09 31.5968C263.139 31.6189 263.183 31.6511 263.22 31.6915L267.218 35.9105C267.293 35.99 267.335 36.0979 267.335 36.2104C267.335 36.3229 267.293 36.4308 267.218 36.5103L263.238 40.7475C263.201 40.7871 263.157 40.8185 263.108 40.84C263.06 40.8615 263.008 40.8726 262.956 40.8727Z" fill="#292A2E"/>
<path d="M219.292 109.867C219.206 109.867 219.123 109.838 219.054 109.784C218.985 109.73 218.934 109.654 218.909 109.567C218.85 109.36 213.093 88.7587 227.995 80.2134C228.041 80.1856 228.092 80.1679 228.145 80.1613C228.198 80.1547 228.252 80.1593 228.303 80.1749C228.354 80.1905 228.402 80.2167 228.443 80.2521C228.485 80.2874 228.519 80.3312 228.544 80.3808C228.57 80.4304 228.585 80.4849 228.591 80.541C228.596 80.5971 228.59 80.6538 228.575 80.7077C228.559 80.7616 228.533 80.8116 228.499 80.8549C228.465 80.8981 228.423 80.9337 228.376 80.9595C214.055 89.1706 219.618 109.116 219.676 109.317C219.694 109.381 219.698 109.448 219.688 109.513C219.677 109.578 219.652 109.64 219.615 109.694C219.578 109.747 219.529 109.79 219.473 109.82C219.417 109.85 219.356 109.866 219.293 109.866L219.292 109.867Z" fill="#292A2E"/>
<path d="M226.473 85.8721C226.408 85.872 226.344 85.8551 226.286 85.8229C226.229 85.7907 226.179 85.7441 226.143 85.6871C226.106 85.6302 226.083 85.5646 226.075 85.4961C226.068 85.4276 226.076 85.3582 226.1 85.2939L227.77 80.7479L223.48 78.9764C223.383 78.9343 223.306 78.8535 223.264 78.7513C223.223 78.6492 223.221 78.5339 223.259 78.4303C223.297 78.3267 223.372 78.243 223.467 78.1973C223.563 78.1515 223.672 78.1474 223.77 78.1857L228.433 80.109C228.482 80.1292 228.527 80.1595 228.565 80.198C228.603 80.2366 228.633 80.2827 228.654 80.3337C228.676 80.3847 228.687 80.4396 228.688 80.4953C228.689 80.551 228.68 80.6064 228.661 80.6584L226.846 85.5997C226.817 85.6798 226.766 85.7486 226.699 85.7972C226.633 85.8458 226.554 85.8719 226.473 85.8721Z" fill="#292A2E"/>
<path d="M169.512 39.7991C169.406 39.7991 169.304 39.7544 169.229 39.6748C169.154 39.5953 169.112 39.4874 169.112 39.3749C169.112 32.931 167.317 28.0121 163.777 24.7552C157.493 18.9747 147.72 20.3682 147.621 20.383C147.516 20.3989 147.41 20.37 147.325 20.3025C147.24 20.235 147.184 20.1345 147.169 20.0231C147.154 19.9117 147.181 19.7986 147.245 19.7086C147.308 19.6186 147.403 19.559 147.508 19.5431C147.922 19.4799 157.735 18.0771 164.298 24.1108C168.024 27.5361 169.913 32.6718 169.912 39.3749C169.912 39.4306 169.902 39.4857 169.882 39.5372C169.862 39.5887 169.832 39.6354 169.795 39.6748C169.758 39.7142 169.714 39.7455 169.665 39.7668C169.616 39.7881 169.564 39.7991 169.512 39.7991Z" fill="#292A2E"/>
<path d="M169.531 39.951C169.519 39.951 169.506 39.951 169.493 39.951C169.441 39.9458 169.39 39.9297 169.344 39.9036C169.297 39.8776 169.256 39.842 169.222 39.7991L165.623 35.1928C165.555 35.1061 165.523 34.9945 165.533 34.8824C165.543 34.7704 165.594 34.6671 165.676 34.5953C165.758 34.5236 165.863 34.4892 165.969 34.4997C166.075 34.5102 166.172 34.5649 166.24 34.6515L169.585 38.9329L173.623 35.3901C173.664 35.3546 173.71 35.3278 173.761 35.3115C173.811 35.2951 173.864 35.2893 173.916 35.2946C173.968 35.2998 174.019 35.3159 174.066 35.342C174.112 35.3681 174.153 35.4036 174.187 35.4465C174.22 35.4894 174.245 35.5389 174.261 35.5921C174.276 35.6454 174.282 35.7013 174.277 35.7568C174.272 35.8123 174.257 35.8661 174.232 35.9154C174.207 35.9646 174.174 36.0082 174.133 36.0437L169.786 39.8551C169.714 39.9173 169.624 39.9512 169.531 39.951Z" fill="#292A2E"/>
<path d="M178.381 86.594H165.462C164.128 86.594 163.046 87.7404 163.046 89.1545V102.846C163.046 104.26 164.128 105.406 165.462 105.406H178.381C179.715 105.406 180.797 104.26 180.797 102.846V89.1545C180.797 87.7404 179.715 86.594 178.381 86.594Z" fill="#0CBC8B"/>
<path d="M211.282 111.615C211.193 111.615 211.106 111.584 211.036 111.525C210.966 111.467 210.916 111.386 210.894 111.294C206.432 92.3754 184.613 93.7023 184.396 93.718C184.343 93.7217 184.291 93.7145 184.241 93.6966C184.191 93.6788 184.145 93.6507 184.105 93.614C184.065 93.5772 184.033 93.5326 184.009 93.4826C183.986 93.4325 183.972 93.3781 183.969 93.3224C183.965 93.2667 183.972 93.2108 183.989 93.1579C184.006 93.105 184.032 93.0561 184.067 93.0141C184.101 92.972 184.144 92.9376 184.191 92.9128C184.238 92.8881 184.289 92.8734 184.342 92.8696C188.361 92.7255 192.374 93.2853 196.221 94.5265C201.933 96.4179 209.251 100.827 211.671 111.086C211.683 111.141 211.686 111.197 211.678 111.252C211.67 111.307 211.652 111.36 211.625 111.408C211.598 111.455 211.563 111.497 211.52 111.53C211.478 111.563 211.43 111.587 211.379 111.601C211.347 111.61 211.315 111.615 211.282 111.615Z" fill="#292A2E"/>
<path d="M211.337 111.758C211.254 111.758 211.173 111.731 211.106 111.68L206.576 108.273C206.49 108.208 206.431 108.109 206.413 107.998C206.396 107.887 206.42 107.773 206.482 107.682C206.543 107.59 206.637 107.528 206.741 107.509C206.846 107.49 206.953 107.517 207.04 107.582L211.238 110.739L214.231 106.14C214.291 106.049 214.384 105.986 214.488 105.966C214.592 105.946 214.699 105.971 214.786 106.035C214.873 106.098 214.933 106.196 214.952 106.306C214.971 106.416 214.949 106.53 214.89 106.622L211.667 111.575C211.637 111.621 211.598 111.661 211.554 111.691C211.509 111.721 211.459 111.742 211.407 111.752C211.384 111.756 211.361 111.758 211.337 111.758Z" fill="#292A2E"/>
<path d="M408.108 384.544L408.894 384.383L396.608 254.992L395.822 255.152L408.108 384.544Z" fill="#494949"/>
<path d="M362.361 384.544L363.147 384.383L350.861 254.992L350.075 255.152L362.361 384.544Z" fill="#494949"/>
<path d="M261.238 384.544L260.452 384.383L272.738 254.992L273.525 255.152L261.238 384.544Z" fill="#494949"/>
<path d="M306.986 384.544L306.2 384.383L318.486 254.992L319.272 255.152L306.986 384.544Z" fill="#494949"/>
<path d="M323.275 198.043L316.098 255.014L316.892 255.126L324.069 198.156L323.275 198.043Z" fill="#494949"/>
<path d="M405.656 198.043L398.478 255.014L399.272 255.126L406.449 198.155L405.656 198.043Z" fill="#494949"/>
<path d="M316.171 259.244H396.749C398.923 259.244 400.685 257.376 400.685 255.072V255.072C400.685 252.768 398.923 250.9 396.749 250.9H316.171C313.997 250.9 312.234 252.768 312.234 255.072V255.072C312.234 257.376 313.997 259.244 316.171 259.244Z" fill="#292A2E"/>
<path opacity="0.8" d="M316.171 259.244H396.749C398.923 259.244 400.685 257.376 400.685 255.072V255.072C400.685 252.768 398.923 250.9 396.749 250.9H316.171C313.997 250.9 312.234 252.768 312.234 255.072V255.072C312.234 257.376 313.997 259.244 316.171 259.244Z" fill="white"/>
<path d="M311.834 255.072C311.835 253.854 312.293 252.686 313.106 251.824C313.919 250.963 315.021 250.478 316.171 250.477H396.749C397.899 250.477 399.002 250.961 399.815 251.823C400.629 252.685 401.086 253.854 401.086 255.073C401.086 256.292 400.629 257.461 399.815 258.323C399.002 259.185 397.899 259.669 396.749 259.669H316.171C315.021 259.667 313.919 259.183 313.106 258.321C312.293 257.459 311.835 256.291 311.834 255.072ZM316.171 251.325C315.233 251.325 314.333 251.719 313.67 252.422C313.007 253.125 312.634 254.078 312.634 255.072C312.634 256.066 313.007 257.019 313.67 257.722C314.333 258.425 315.233 258.82 316.171 258.82H396.749C397.687 258.82 398.586 258.425 399.249 257.722C399.912 257.019 400.285 256.066 400.285 255.072C400.285 254.078 399.912 253.125 399.249 252.422C398.586 251.719 397.687 251.325 396.749 251.325H316.171Z" fill="#292A2E"/>
<path d="M271.945 259.244H352.523C354.697 259.244 356.46 257.376 356.46 255.072V255.072C356.46 252.768 354.697 250.9 352.523 250.9H271.945C269.771 250.9 268.009 252.768 268.009 255.072V255.072C268.009 257.376 269.771 259.244 271.945 259.244Z" fill="white"/>
<path d="M267.606 255.072C267.608 253.853 268.066 252.685 268.879 251.823C269.692 250.962 270.795 250.477 271.945 250.477H352.523C353.673 250.477 354.777 250.961 355.59 251.823C356.403 252.685 356.86 253.854 356.86 255.073C356.86 256.292 356.403 257.461 355.59 258.323C354.777 259.185 353.673 259.669 352.523 259.669H271.945C270.795 259.668 269.692 259.183 268.879 258.321C268.065 257.46 267.608 256.291 267.606 255.072ZM271.945 251.325C271.481 251.325 271.021 251.422 270.592 251.61C270.163 251.799 269.773 252.075 269.445 252.423C269.116 252.771 268.856 253.184 268.678 253.638C268.5 254.093 268.409 254.581 268.409 255.073C268.409 255.565 268.5 256.052 268.678 256.507C268.856 256.962 269.116 257.375 269.445 257.723C269.773 258.071 270.163 258.347 270.592 258.535C271.021 258.723 271.481 258.82 271.945 258.82H352.523C353.461 258.82 354.361 258.426 355.024 257.723C355.687 257.02 356.059 256.067 356.059 255.073C356.059 254.079 355.687 253.125 355.024 252.423C354.361 251.72 353.461 251.325 352.523 251.325H271.945Z" fill="#292A2E"/>
<path d="M327.693 198.102H405.841C407.118 198.102 408.352 197.609 409.313 196.715C410.273 195.822 410.893 194.589 411.058 193.246L416.227 151.174C416.323 150.387 416.261 149.588 416.043 148.83C415.825 148.071 415.457 147.37 414.963 146.774C414.469 146.179 413.861 145.701 413.18 145.374C412.498 145.047 411.758 144.878 411.01 144.878H332.863C331.584 144.878 330.35 145.37 329.389 146.264C328.429 147.158 327.808 148.392 327.644 149.735L322.474 191.806C322.378 192.593 322.441 193.392 322.659 194.151C322.877 194.909 323.245 195.61 323.739 196.206C324.233 196.802 324.841 197.279 325.523 197.606C326.205 197.933 326.945 198.102 327.693 198.102Z" fill="#292A2E"/>
<path opacity="0.8" d="M327.693 198.102H405.841C407.118 198.102 408.352 197.609 409.313 196.715C410.273 195.822 410.893 194.589 411.058 193.246L416.227 151.174C416.323 150.387 416.261 149.588 416.043 148.83C415.825 148.071 415.457 147.37 414.963 146.774C414.469 146.179 413.861 145.701 413.18 145.374C412.498 145.047 411.758 144.878 411.01 144.878H332.863C331.584 144.878 330.35 145.37 329.389 146.264C328.429 147.158 327.808 148.392 327.644 149.735L322.474 191.806C322.378 192.593 322.441 193.392 322.659 194.151C322.877 194.909 323.245 195.61 323.739 196.206C324.233 196.802 324.841 197.279 325.523 197.606C326.205 197.933 326.945 198.102 327.693 198.102Z" fill="white"/>
<path d="M323.441 196.485C322.91 195.844 322.513 195.09 322.279 194.274C322.044 193.458 321.976 192.598 322.08 191.751L327.249 149.68C327.43 148.236 328.098 146.911 329.131 145.95C330.163 144.989 331.489 144.458 332.863 144.455H411.011C411.816 144.455 412.612 144.637 413.346 144.988C414.079 145.34 414.733 145.854 415.265 146.495C415.796 147.137 416.192 147.891 416.427 148.707C416.661 149.523 416.729 150.383 416.625 151.23L411.456 193.3C411.276 194.744 410.607 196.069 409.575 197.03C408.542 197.991 407.216 198.523 405.842 198.526H327.693C326.888 198.526 326.093 198.344 325.36 197.992C324.626 197.64 323.972 197.126 323.441 196.485ZM332.863 145.303C331.683 145.306 330.545 145.763 329.659 146.588C328.772 147.413 328.199 148.55 328.044 149.79L322.875 191.861C322.785 192.587 322.844 193.326 323.045 194.027C323.246 194.728 323.586 195.375 324.043 195.925C324.499 196.476 325.061 196.917 325.69 197.219C326.32 197.521 327.004 197.678 327.695 197.678H405.842C407.022 197.675 408.161 197.219 409.047 196.394C409.934 195.568 410.508 194.431 410.663 193.191L415.831 151.12C415.921 150.393 415.863 149.655 415.661 148.954C415.46 148.253 415.12 147.606 414.664 147.055C414.208 146.505 413.646 146.064 413.016 145.761C412.386 145.459 411.703 145.303 411.012 145.303H332.863Z" fill="#292A2E"/>
<path d="M323.274 198.102H401.422C402.699 198.102 403.933 197.609 404.893 196.715C405.853 195.822 406.474 194.589 406.639 193.246L411.808 151.174C411.905 150.387 411.842 149.588 411.624 148.83C411.406 148.071 411.038 147.37 410.544 146.774C410.05 146.179 409.442 145.701 408.761 145.374C408.079 145.047 407.339 144.878 406.591 144.878H328.444C327.167 144.878 325.933 145.371 324.973 146.264C324.013 147.158 323.392 148.391 323.227 149.734L318.058 191.805C317.961 192.591 318.024 193.39 318.242 194.149C318.459 194.908 318.828 195.609 319.321 196.205C319.815 196.801 320.423 197.278 321.105 197.605C321.786 197.933 322.526 198.102 323.274 198.102Z" fill="white"/>
<path d="M319.02 196.485C318.489 195.844 318.093 195.09 317.858 194.274C317.623 193.458 317.556 192.598 317.66 191.751L322.829 149.68C323.009 148.236 323.678 146.911 324.711 145.95C325.743 144.989 327.07 144.457 328.444 144.455H406.592C407.397 144.455 408.193 144.637 408.926 144.988C409.66 145.34 410.314 145.854 410.846 146.495C411.377 147.137 411.773 147.891 412.008 148.707C412.242 149.523 412.31 150.383 412.206 151.23L407.037 193.3C406.856 194.744 406.188 196.069 405.155 197.03C404.123 197.991 402.797 198.523 401.422 198.526H323.274C322.469 198.526 321.673 198.344 320.94 197.992C320.206 197.64 319.552 197.126 319.02 196.485ZM328.444 145.303C327.264 145.306 326.126 145.762 325.239 146.587C324.353 147.412 323.779 148.55 323.624 149.79L318.455 191.861C318.366 192.587 318.424 193.326 318.625 194.027C318.826 194.728 319.166 195.375 319.623 195.925C320.079 196.476 320.641 196.917 321.27 197.219C321.9 197.521 322.584 197.678 323.275 197.678H401.422C402.601 197.675 403.74 197.219 404.627 196.394C405.513 195.568 406.087 194.431 406.242 193.191L411.411 151.12C411.5 150.394 411.442 149.655 411.241 148.954C411.04 148.253 410.699 147.606 410.243 147.055C409.787 146.505 409.225 146.064 408.595 145.762C407.966 145.459 407.282 145.303 406.591 145.303H328.444Z" fill="#292A2E"/>
<path d="M264.212 362.13C264.212 362.13 262.066 373.92 251.651 374.577C241.235 375.234 243.494 384.027 243.494 384.027H283.296V362.952L264.212 362.13Z" fill="#367CFF"/>
<path d="M299.925 354.686C299.925 354.686 302.91 366.269 293.838 371.731C284.766 377.194 290.454 384.027 290.454 384.027L326.169 365.405L317.391 346.496L299.925 354.686Z" fill="#367CFF"/>
<path d="M322.046 351.414L291.928 250.716H346.522C357.488 250.716 362.06 240.86 362.06 229.238C362.06 217.616 351.279 207.428 340.313 207.428H266.631C259.942 207.428 252.443 211.763 248.772 217.689C245.1 223.615 246.093 232.798 248.752 239.302L296.982 363.448" fill="#262626"/>
<path opacity="0.8" d="M322.046 351.414L291.928 250.716H346.522C357.488 250.716 362.06 240.86 362.06 229.238C362.06 217.616 351.279 207.428 340.313 207.428H266.631C259.942 207.428 252.443 211.763 248.772 217.689C245.1 223.615 246.093 232.798 248.752 239.302L296.982 363.448" fill="#0A0A0A"/>
<path d="M286.408 370.581L295.934 250.716L362.058 250.711C377.553 249.424 384.648 240.425 384.423 228.805C384.2 217.333 378.72 206.002 367.943 206.002H278.821C270.848 206.176 261.618 214.169 261.618 223.362L256.987 369.189" fill="#262626"/>
<path d="M388.935 206.142C388.935 206.142 391.871 226.438 387.217 237.722C381.405 251.809 359.621 250.712 359.621 250.712L360.848 206.002L388.935 206.142Z" fill="#262626"/>
<path d="M392.171 203.848L392.255 203.853C392.255 203.853 392.194 202.125 392.171 203.848Z" fill="#333333"/>
<path d="M392.065 203.848L392.149 203.853C392.149 203.853 392.088 202.125 392.065 203.848Z" fill="#333333"/>
<path d="M250.302 121.565C250.458 121.238 250.706 120.97 251.011 120.799C251.317 120.628 251.665 120.561 252.008 120.608C252.005 120.576 252.012 120.543 252.027 120.515C252.043 120.494 252.064 120.477 252.088 120.466C252.112 120.456 252.138 120.453 252.164 120.456L251.007 119.577C250.662 119.326 250.414 118.951 250.309 118.521C250.204 118.091 250.249 117.636 250.436 117.238C250.633 116.852 250.958 116.557 251.349 116.411C251.739 116.264 252.167 116.277 252.55 116.446C252.547 116.428 252.558 116.412 252.56 116.394L252.085 116.033C251.76 115.795 251.523 115.446 251.413 115.044C251.303 114.642 251.328 114.212 251.482 113.827C251.584 113.588 251.735 113.375 251.924 113.205C252.113 113.035 252.335 112.911 252.574 112.843C252.813 112.775 253.064 112.764 253.308 112.811C253.552 112.857 253.783 112.961 253.984 113.114L255.081 113.947C255.085 113.94 255.081 113.932 255.086 113.926C255.09 113.92 255.102 113.917 255.108 113.91C254.856 113.61 254.708 113.228 254.688 112.827C254.668 112.425 254.777 112.029 254.998 111.702C255.516 110.819 256.711 110.999 257.42 111.538L263.876 116.264L262.723 114.201C262.491 113.805 262.409 113.33 262.494 112.872C262.58 112.415 262.826 112.008 263.183 111.735C263.372 111.601 263.585 111.51 263.808 111.466C264.032 111.422 264.261 111.426 264.483 111.48C264.705 111.533 264.914 111.633 265.098 111.775C265.282 111.917 265.436 112.097 265.552 112.304L271.853 123.545C272.593 124.864 272.817 126.436 272.48 127.928C272.143 129.42 271.27 130.713 270.047 131.534C268.629 132.486 266.975 132.967 265.297 132.916C263.619 132.865 261.994 132.284 260.629 131.247L250.879 123.841C250.555 123.586 250.322 123.222 250.218 122.809C250.113 122.396 250.143 121.958 250.302 121.565Z" fill="#E98862"/>
<g opacity="0.25">
<path d="M261.47 118.614C261.447 118.649 261.411 118.672 261.371 118.679C261.331 118.686 261.291 118.677 261.257 118.652L255.123 114.15C255.09 114.125 255.067 114.087 255.06 114.044C255.053 114.002 255.062 113.958 255.085 113.922C255.108 113.887 255.144 113.863 255.184 113.855C255.224 113.847 255.265 113.856 255.299 113.88L261.434 118.384C261.45 118.396 261.465 118.411 261.476 118.429C261.487 118.447 261.495 118.468 261.498 118.489C261.502 118.51 261.502 118.532 261.498 118.553C261.493 118.574 261.485 118.594 261.474 118.612L261.47 118.614Z" fill="#0C0C0C"/>
</g>
<g opacity="0.25">
<path d="M259.671 121.536C259.648 121.571 259.612 121.594 259.572 121.601C259.532 121.609 259.492 121.599 259.458 121.574L252.614 116.549C252.58 116.524 252.557 116.487 252.55 116.444C252.542 116.401 252.551 116.357 252.574 116.321C252.598 116.287 252.634 116.263 252.674 116.255C252.714 116.247 252.755 116.256 252.789 116.279L259.635 121.304C259.652 121.316 259.666 121.332 259.677 121.35C259.689 121.368 259.696 121.388 259.7 121.409C259.704 121.431 259.703 121.452 259.699 121.473C259.695 121.494 259.687 121.514 259.675 121.532L259.671 121.536Z" fill="#0C0C0C"/>
</g>
<g opacity="0.25">
<path d="M257.74 124.713C257.716 124.748 257.681 124.771 257.641 124.778C257.601 124.785 257.56 124.776 257.527 124.751L252.066 120.743C252.034 120.717 252.012 120.68 252.005 120.638C251.998 120.596 252.008 120.552 252.03 120.517C252.053 120.482 252.088 120.458 252.128 120.45C252.167 120.442 252.208 120.45 252.242 120.474L257.703 124.482C257.72 124.494 257.734 124.51 257.745 124.528C257.756 124.546 257.764 124.566 257.768 124.587C257.771 124.609 257.771 124.63 257.767 124.651C257.763 124.672 257.755 124.692 257.743 124.71L257.74 124.713Z" fill="#0C0C0C"/>
</g>
<path d="M275.571 120.986L294.076 154.386L316.655 122.999L335.406 140.915L303.382 184.868L303.172 185.181C301.89 187.042 300.183 188.526 298.21 189.493C296.238 190.461 294.065 190.881 291.897 190.713C289.729 190.545 287.638 189.794 285.819 188.532C284 187.271 282.515 185.539 281.502 183.5L255.189 132.998L275.571 120.986Z" fill="#367CFF"/>
<path d="M295.888 158.402C295.929 158.402 295.968 158.391 296.003 158.37C296.038 158.35 296.068 158.32 296.089 158.283C296.11 158.247 296.122 158.205 296.123 158.163C296.125 158.12 296.116 158.078 296.098 158.04L294.284 154.273C294.254 154.216 294.205 154.174 294.147 154.155C294.088 154.136 294.025 154.142 293.971 154.171C293.917 154.201 293.875 154.251 293.855 154.313C293.835 154.374 293.839 154.441 293.865 154.499L295.679 158.266C295.699 158.307 295.729 158.342 295.766 158.366C295.803 158.39 295.845 158.402 295.888 158.402Z" fill="#0C0C0C"/>
<path d="M317.955 154.197L317.486 154.225L318.051 164.774L318.52 164.746L317.955 154.197Z" fill="#0C0C0C"/>
<path d="M377.581 77.8481C377.581 77.8481 378.449 89.5905 380.99 93.8235C388.305 106.009 390.537 119.792 383.424 127.094C376.31 134.395 330.44 135.059 326.784 118.511C323.705 104.578 329.968 102.999 331.369 91.4561C332.004 86.2339 333.785 75.2771 333.785 75.2771" fill="#0A0A0A"/>
<path d="M338.461 115.864C338.541 115.853 339.419 131.304 356.358 129.959C368.085 129.028 372.265 115.842 372.534 115.842C371.27 115.557 369.141 115.143 368.58 114.824C366.733 113.772 364.448 112.678 363.853 108.878C363.51 106.687 364.093 95.4813 363.913 93.2649L345.913 97.5229C346.164 102.203 347.924 113.054 341.754 114.975C340.728 115.294 339.622 115.586 338.461 115.864Z" fill="#E98862"/>
<path opacity="0.52" d="M345.66 110.542C345.942 109.579 346.124 108.586 346.202 107.581C346.4 105.288 346.36 102.979 346.084 100.695C349.743 100.171 353.189 98.5709 356.033 96.0752C356.367 97.3834 358.205 103.1 357.696 104.343C356.734 106.694 352.213 110.542 345.66 110.542Z" fill="#0C0C0C"/>
<path d="M348.046 105.678C355.15 106.319 364.299 103.198 366.092 93.1593L367.709 84.1011C369.502 74.0623 365.98 64.9277 357.062 63.1377C348.144 61.3489 340.025 68.1499 338.232 78.1888L337.516 82.1987C336.827 86.0507 335.371 104.535 348.046 105.678Z" fill="#E98862"/>
<path d="M340.057 82.6359C340.674 82.6359 341.175 82.1055 341.175 81.4512C341.175 80.7969 340.674 80.2664 340.057 80.2664C339.439 80.2664 338.939 80.7969 338.939 81.4512C338.939 82.1055 339.439 82.6359 340.057 82.6359Z" fill="#0C0C0C"/>
<path d="M351.51 84.2572C352.128 84.2572 352.628 83.7268 352.628 83.0724C352.628 82.4181 352.128 81.8877 351.51 81.8877C350.893 81.8877 350.392 82.4181 350.392 83.0724C350.392 83.7268 350.893 84.2572 351.51 84.2572Z" fill="#0C0C0C"/>
<path d="M345.225 91.759C345.219 91.7586 345.213 91.7578 345.207 91.7565C344.846 91.681 344.489 91.5845 344.138 91.4676C343.613 91.289 342.926 90.9929 343.017 90.492C343.119 89.9202 345.699 84.0443 345.993 83.377C346.019 83.3186 346.066 83.2734 346.123 83.2514C346.18 83.2293 346.243 83.2322 346.298 83.2593C346.353 83.2865 346.396 83.3357 346.416 83.3962C346.437 83.4567 346.435 83.5235 346.409 83.5819C345.308 86.0846 343.536 90.1993 343.467 90.5811C343.526 90.7596 344.397 91.0986 345.293 91.2788C345.352 91.2899 345.404 91.3248 345.439 91.3761C345.474 91.4274 345.489 91.4911 345.48 91.5536C345.471 91.6161 345.439 91.6725 345.392 91.7107C345.345 91.749 345.285 91.7662 345.226 91.7586L345.225 91.759Z" fill="#0C0C0C"/>
<path d="M346.545 96.0934C345.091 95.8931 343.701 95.3334 342.487 94.4594C342.436 94.4243 342.401 94.3691 342.388 94.3061C342.376 94.2431 342.387 94.1774 342.42 94.1235C342.454 94.0695 342.506 94.0318 342.565 94.0185C342.625 94.0052 342.687 94.0175 342.737 94.0526C345.363 95.8656 347.972 96.1587 350.282 94.901C350.328 94.8739 350.376 94.8496 350.425 94.8285C350.483 94.8066 350.546 94.8096 350.601 94.837C350.656 94.8643 350.698 94.9136 350.719 94.9742C350.739 95.0347 350.736 95.1014 350.711 95.1597C350.685 95.218 350.638 95.263 350.581 95.2849C350.563 95.293 350.533 95.3099 350.491 95.3328C349.277 95.9967 347.903 96.2615 346.545 96.0934Z" fill="#0C0C0C"/>
<path d="M374.844 87.258L366.849 85.7046C360.794 83.1078 358.964 71.9991 358.964 71.9991C358.964 71.9991 351.609 79.5963 333.788 75.2755C333.788 75.2755 337.362 48.9333 363.693 56.5925C372.183 59.0625 378.276 68.1304 377.518 80.2487C376.983 88.7414 374.844 87.258 374.844 87.258Z" fill="#0A0A0A"/>
<path d="M364.992 96.1066C367.702 96.65 370.447 94.0178 370.961 91.1435C371.474 88.2692 369.56 86.2463 366.849 85.7029L365.108 87.3475L362.661 95.6374L364.992 96.1066Z" fill="#E98862"/>
<path d="M344.359 78.5752C343.569 78.034 342.655 77.7284 341.715 77.6903C341.252 77.6684 340.789 77.7203 340.34 77.8443C339.896 77.9652 339.468 78.1449 339.066 78.3792C339.015 78.4119 338.977 78.4638 338.96 78.5246C338.943 78.5855 338.948 78.6509 338.974 78.7081C339 78.7653 339.045 78.8101 339.101 78.8337C339.157 78.8573 339.218 78.8579 339.275 78.8356L339.291 78.8276C339.663 78.635 340.056 78.4924 340.461 78.4034C340.861 78.3125 341.272 78.2865 341.679 78.3262C342.488 78.3976 343.264 78.6948 343.929 79.1877L343.951 79.2042C343.989 79.2377 344.033 79.2626 344.08 79.2774C344.128 79.2921 344.177 79.2964 344.226 79.2899C344.275 79.2834 344.323 79.2664 344.365 79.2397C344.408 79.2131 344.445 79.1775 344.473 79.1351C344.502 79.0928 344.523 79.0446 344.534 78.9935C344.544 78.9424 344.545 78.8895 344.535 78.8382C344.526 78.7868 344.507 78.738 344.479 78.6949C344.451 78.6518 344.415 78.6152 344.373 78.5875L344.359 78.5752Z" fill="#0C0C0C"/>
<path d="M351.489 80.3543C352.278 80.15 353.103 80.1701 353.881 80.4124C354.275 80.5318 354.649 80.7136 354.992 80.9516C355.339 81.1901 355.656 81.474 355.936 81.7966L355.949 81.8101C355.994 81.8524 356.052 81.8755 356.112 81.8748C356.171 81.8742 356.229 81.8498 356.273 81.8065C356.317 81.7632 356.344 81.7041 356.348 81.6408C356.353 81.5775 356.336 81.5146 356.299 81.4644C356.004 81.0923 355.666 80.761 355.293 80.4782C354.918 80.1909 354.503 79.965 354.064 79.8079C353.174 79.4835 352.218 79.4188 351.297 79.6209C351.209 79.6475 351.134 79.7085 351.087 79.7915C351.04 79.8745 351.024 79.9734 351.043 80.0681C351.062 80.1628 351.115 80.2463 351.19 80.3015C351.265 80.3568 351.357 80.3797 351.447 80.3658L351.462 80.3619L351.489 80.3543Z" fill="#0C0C0C"/>
<path d="M346.236 98.3718C345.972 98.3399 345.712 98.2845 345.457 98.2061C345.399 98.1883 345.349 98.1466 345.32 98.0903C345.291 98.034 345.284 97.9677 345.3 97.9058C345.317 97.844 345.357 97.7918 345.41 97.7607C345.463 97.7296 345.526 97.7221 345.584 97.7399C347.117 98.2061 347.989 97.5882 348.026 97.5615C348.075 97.5245 348.137 97.51 348.197 97.5211C348.257 97.5322 348.31 97.568 348.345 97.6206C348.38 97.6733 348.393 97.7385 348.383 97.8019C348.372 97.8652 348.339 97.9216 348.289 97.9586C347.67 98.3432 346.945 98.4892 346.236 98.3718Z" fill="#0C0C0C"/>
<path d="M366.832 85.5973L366.912 85.3627C356.782 81.5089 359.259 70.9737 359.285 70.8677L359.058 70.8045C359.031 70.9127 356.497 81.665 366.832 85.5973Z" fill="#0C0C0C"/>
<path opacity="0.1" d="M354.697 91.093C354.789 90.1839 353.916 89.3388 352.746 89.2054C351.577 89.0721 350.554 89.701 350.462 90.6101C350.369 91.5192 351.242 92.3643 352.412 92.4977C353.581 92.631 354.604 92.0021 354.697 91.093Z" fill="#0C0C0C"/>
<path opacity="0.1" d="M340.034 89.0205C339.939 89.9283 338.917 90.5565 337.747 90.4246C337.545 90.4017 337.346 90.3565 337.152 90.2897C337.086 89.2093 337.072 88.1687 337.091 87.2067C337.414 87.1167 337.751 87.0917 338.083 87.1329C339.251 87.2644 340.125 88.1093 340.034 89.0205Z" fill="#0C0C0C"/>
<path d="M317.415 149.884C317.949 156.527 320.544 197.818 321.058 206.002L388.934 206.155C389.335 198.774 393.948 166.505 395.462 152.073C396.908 138.302 399.745 131.407 397.664 127.336C394.266 120.682 384.983 116.837 378.652 115.929C374.787 115.374 368.973 114.977 368.973 114.977C368.973 114.977 368.481 125.53 356.743 126.118C340.765 126.916 341.832 114.977 341.753 114.977C339.164 114.977 324.377 116.713 320.759 118.986C310.903 125.171 316.283 135.806 317.415 149.884Z" fill="#367CFF"/>
<path d="M273.357 154.525L279.9 188.228C280.033 188.912 280.383 189.528 280.892 189.972C281.401 190.415 282.039 190.661 282.698 190.667L327.75 191.073C328.18 191.077 328.605 190.979 328.995 190.786C329.384 190.593 329.728 190.311 330.001 189.959C330.274 189.607 330.469 189.195 330.573 188.753C330.676 188.311 330.684 187.849 330.598 187.403L324.055 153.7C323.922 153.016 323.572 152.4 323.063 151.957C322.553 151.513 321.916 151.268 321.257 151.262L276.204 150.855C275.775 150.851 275.349 150.949 274.96 151.142C274.571 151.335 274.227 151.617 273.954 151.969C273.681 152.321 273.486 152.733 273.382 153.175C273.279 153.618 273.27 154.079 273.357 154.525Z" fill="#292A2E"/>
<path d="M315.368 178.465C315.344 178.909 315.472 179.347 315.728 179.698C315.985 180.05 316.353 180.291 316.764 180.378L318.151 180.702C318.126 180.711 318.104 180.726 318.086 180.746C318.068 180.766 318.054 180.79 318.047 180.817C318.044 180.848 318.051 180.879 318.066 180.906C317.733 181.005 317.437 181.212 317.219 181.498C317.002 181.784 316.874 182.134 316.853 182.501C316.851 182.928 316.985 183.343 317.234 183.679C317.482 184.016 317.83 184.253 318.221 184.354L329.933 187.112C330.532 187.253 331.143 187.324 331.757 187.324C333.124 187.323 334.47 186.971 335.68 186.296C336.89 185.622 337.927 184.646 338.701 183.452C339.522 182.189 339.846 180.636 339.604 179.124C339.362 177.612 338.572 176.26 337.403 175.355L327.441 167.635C327.222 167.465 326.967 167.354 326.698 167.311L327.615 172.029L327.371 171.97L327.319 171.96L319.679 170.313C318.828 170.114 317.662 170.44 317.511 171.469C317.431 171.862 317.478 172.272 317.645 172.633C317.812 172.994 318.089 173.285 318.432 173.457C318.427 173.462 318.418 173.467 318.418 173.477C318.418 173.487 318.422 173.492 318.422 173.502L317.102 173.193C316.86 173.136 316.61 173.137 316.368 173.195C316.127 173.254 315.901 173.368 315.707 173.53C315.512 173.692 315.354 173.897 315.243 174.132C315.132 174.366 315.072 174.624 315.067 174.886C315.067 175.305 315.203 175.711 315.454 176.035C315.704 176.359 316.052 176.581 316.44 176.665L317.008 176.799C317.013 176.819 317.008 176.839 317.018 176.854C316.603 176.857 316.204 177.024 315.899 177.322C315.594 177.62 315.405 178.027 315.368 178.465Z" fill="#E98862"/>
<g opacity="0.25">
<path d="M326.029 175.137C326.02 175.179 325.996 175.215 325.962 175.238C325.928 175.262 325.887 175.27 325.848 175.261L318.538 173.672C318.517 173.668 318.498 173.66 318.481 173.648C318.463 173.637 318.448 173.621 318.437 173.603C318.425 173.585 318.417 173.565 318.413 173.543C318.409 173.522 318.409 173.5 318.413 173.478C318.417 173.457 318.426 173.436 318.437 173.418C318.449 173.4 318.464 173.385 318.481 173.373C318.499 173.361 318.518 173.353 318.538 173.35C318.559 173.346 318.58 173.347 318.6 173.352L325.91 174.941C325.93 174.945 325.949 174.953 325.965 174.965C325.982 174.977 325.997 174.993 326.008 175.011C326.019 175.029 326.027 175.049 326.03 175.07C326.034 175.091 326.034 175.113 326.03 175.134L326.029 175.137Z" fill="#0C0C0C"/>
</g>
<g opacity="0.25">
<path d="M325.457 178.574C325.448 178.615 325.424 178.652 325.39 178.675C325.356 178.698 325.315 178.706 325.275 178.697L317.117 176.924C317.097 176.92 317.078 176.911 317.062 176.899C317.045 176.887 317.031 176.872 317.019 176.854C317.008 176.836 317 176.816 316.997 176.795C316.993 176.774 316.993 176.752 316.997 176.731C317.007 176.689 317.031 176.653 317.065 176.629C317.099 176.606 317.14 176.597 317.18 176.604L325.337 178.377C325.378 178.386 325.413 178.411 325.435 178.447C325.458 178.484 325.466 178.528 325.458 178.57L325.457 178.574Z" fill="#0C0C0C"/>
</g>
<g opacity="0.25">
<path d="M324.858 182.299C324.849 182.341 324.825 182.377 324.791 182.4C324.757 182.423 324.716 182.431 324.676 182.423L318.168 181.009C318.129 180.999 318.094 180.974 318.072 180.938C318.05 180.902 318.042 180.858 318.05 180.816C318.059 180.773 318.082 180.736 318.116 180.713C318.15 180.689 318.191 180.68 318.231 180.688L324.738 182.102C324.778 182.111 324.813 182.136 324.836 182.172C324.858 182.209 324.866 182.253 324.858 182.295L324.858 182.299Z" fill="#0C0C0C"/>
</g>
<path d="M330.658 192.021L394.196 204.19C396.179 204.419 398.185 204.157 400.056 203.426C401.928 202.696 403.614 201.515 404.982 199.978C406.351 198.44 407.365 196.587 407.944 194.565C408.524 192.542 408.653 190.405 408.322 188.32L399.427 132.285C399.15 130.509 398.546 128.809 397.648 127.281C396.75 125.753 395.576 124.428 394.194 123.382C392.812 122.336 391.249 121.589 389.594 121.184C387.939 120.78 386.225 120.725 384.55 121.024C382.876 121.322 381.273 121.968 379.834 122.924C378.395 123.881 377.148 125.128 376.166 126.596C375.183 128.064 374.483 129.723 374.106 131.478C373.729 133.233 373.682 135.05 373.969 136.824L380.036 175.399L333.451 169.199L330.658 192.021Z" fill="#367CFF"/>
<path d="M394.197 204.439C394.255 204.438 394.311 204.415 394.354 204.372C394.397 204.33 394.423 204.273 394.428 204.211C394.433 204.149 394.416 204.088 394.381 204.039C394.346 203.99 394.294 203.956 394.237 203.945L330.917 191.818L333.652 169.477L380.001 175.646C380.038 175.652 380.075 175.648 380.11 175.635C380.144 175.622 380.176 175.6 380.201 175.572C380.226 175.544 380.245 175.51 380.256 175.474C380.267 175.437 380.269 175.398 380.264 175.36L376.41 150.707C376.406 150.675 376.395 150.644 376.379 150.616C376.363 150.588 376.341 150.563 376.316 150.544C376.291 150.525 376.262 150.512 376.232 150.504C376.202 150.497 376.171 150.496 376.14 150.502C376.079 150.513 376.024 150.549 375.988 150.603C375.951 150.657 375.937 150.724 375.947 150.789L379.749 175.112L333.48 168.954C333.419 168.946 333.357 168.965 333.308 169.005C333.259 169.045 333.226 169.104 333.218 169.169L330.425 191.991C330.417 192.054 330.432 192.118 330.468 192.17C330.504 192.221 330.557 192.257 330.616 192.268L394.155 204.435C394.169 204.438 394.183 204.439 394.197 204.439Z" fill="#0C0C0C"/>
<path d="M380.073 175.156L379.999 175.648L384.086 176.341L384.16 175.849L380.073 175.156Z" fill="#0C0C0C"/>
<path d="M436.721 384.293H0.280174C0.205868 384.293 0.134604 384.261 0.0820612 384.206C0.0295183 384.15 0 384.074 0 383.996C0 383.917 0.0295183 383.841 0.0820612 383.786C0.134604 383.73 0.205868 383.699 0.280174 383.699H436.72C436.794 383.699 436.865 383.73 436.918 383.786C436.971 383.841 437 383.917 437 383.996C437 384.074 436.971 384.15 436.918 384.206C436.865 384.261 436.794 384.293 436.72 384.293H436.721Z" fill="#292A2E"/>
<g opacity="0.65">
<path d="M436.721 384.293H0.280174C0.205868 384.293 0.134604 384.261 0.0820612 384.206C0.0295183 384.15 0 384.074 0 383.996C0 383.917 0.0295183 383.841 0.0820612 383.786C0.134604 383.73 0.205868 383.699 0.280174 383.699H436.72C436.794 383.699 436.865 383.73 436.918 383.786C436.971 383.841 437 383.917 437 383.996C437 384.074 436.971 384.15 436.918 384.206C436.865 384.261 436.794 384.293 436.72 384.293H436.721Z" fill="#292A2E"/>
</g>
<path d="M27.1191 384.544L26.333 384.383L38.6191 254.992L39.4051 255.152L27.1191 384.544Z" fill="#494949"/>
<path d="M72.8667 384.544L72.0806 384.383L84.3662 254.992L85.1523 255.152L72.8667 384.544Z" fill="#494949"/>
<path d="M173.989 384.544L174.775 384.383L162.489 254.992L161.703 255.152L173.989 384.544Z" fill="#494949"/>
<path d="M128.241 384.544L129.027 384.383L116.742 254.992L115.956 255.152L128.241 384.544Z" fill="#494949"/>
<path d="M111.948 198.047L111.154 198.159L118.332 255.13L119.125 255.018L111.948 198.047Z" fill="#494949"/>
<path d="M29.5667 198.046L28.7732 198.159L35.9504 255.129L36.7439 255.017L29.5667 198.046Z" fill="#494949"/>
<path d="M119.057 250.9H38.4784C36.3044 250.9 34.542 252.768 34.542 255.072V255.073C34.542 257.377 36.3044 259.245 38.4784 259.245H119.057C121.231 259.245 122.993 257.377 122.993 255.073V255.072C122.993 252.768 121.231 250.9 119.057 250.9Z" fill="#292A2E"/>
<path opacity="0.8" d="M119.057 250.9H38.4784C36.3044 250.9 34.542 252.768 34.542 255.072V255.073C34.542 257.377 36.3044 259.245 38.4784 259.245H119.057C121.231 259.245 122.993 257.377 122.993 255.073V255.072C122.993 252.768 121.231 250.9 119.057 250.9Z" fill="white"/>
<path d="M119.057 259.668H38.4785C37.909 259.668 37.3451 259.549 36.819 259.318C36.2928 259.088 35.8147 258.749 35.412 258.322C35.0093 257.895 34.6899 257.389 34.472 256.831C34.254 256.273 34.1418 255.676 34.1418 255.072C34.1418 254.469 34.254 253.871 34.472 253.313C34.6899 252.756 35.0093 252.249 35.412 251.822C35.8147 251.396 36.2928 251.057 36.819 250.826C37.3451 250.595 37.909 250.476 38.4785 250.476H119.057C120.207 250.476 121.31 250.96 122.123 251.822C122.937 252.684 123.393 253.853 123.393 255.072C123.393 256.291 122.937 257.46 122.123 258.322C121.31 259.184 120.207 259.668 119.057 259.668ZM38.4785 251.325C38.0142 251.325 37.5543 251.422 37.1253 251.61C36.6963 251.799 36.3064 252.075 35.9781 252.423C35.6497 252.771 35.3892 253.184 35.2115 253.638C35.0338 254.093 34.9423 254.58 34.9423 255.073C34.9423 255.565 35.0338 256.052 35.2115 256.507C35.3892 256.962 35.6497 257.375 35.9781 257.723C36.3064 258.071 36.6963 258.347 37.1253 258.535C37.5543 258.723 38.0142 258.82 38.4785 258.82H119.057C119.995 258.82 120.894 258.426 121.557 257.723C122.22 257.02 122.593 256.067 122.593 255.073C122.593 254.079 122.22 253.125 121.557 252.423C120.894 251.72 119.995 251.325 119.057 251.325H38.4785Z" fill="#292A2E"/>
<path d="M163.282 250.9H82.704C80.53 250.9 78.7676 252.768 78.7676 255.072V255.073C78.7676 257.377 80.53 259.245 82.704 259.245H163.282C165.456 259.245 167.219 257.377 167.219 255.073V255.072C167.219 252.768 165.456 250.9 163.282 250.9Z" fill="white"/>
<path d="M163.282 259.668H82.7041C82.1346 259.668 81.5707 259.549 81.0445 259.318C80.5184 259.088 80.0403 258.749 79.6376 258.322C79.2349 257.895 78.9155 257.389 78.6975 256.831C78.4796 256.273 78.3674 255.676 78.3674 255.072C78.3674 254.469 78.4796 253.871 78.6975 253.313C78.9155 252.756 79.2349 252.249 79.6376 251.822C80.0403 251.396 80.5184 251.057 81.0445 250.826C81.5707 250.595 82.1346 250.476 82.7041 250.476H163.282C163.852 250.476 164.416 250.595 164.942 250.826C165.468 251.057 165.946 251.396 166.349 251.822C166.751 252.249 167.071 252.756 167.289 253.313C167.507 253.871 167.619 254.469 167.619 255.072C167.619 255.676 167.507 256.273 167.289 256.831C167.071 257.389 166.751 257.895 166.349 258.322C165.946 258.749 165.468 259.088 164.942 259.318C164.416 259.549 163.852 259.668 163.282 259.668ZM82.7041 251.325C82.2397 251.325 81.7799 251.422 81.3509 251.61C80.9218 251.799 80.532 252.075 80.2037 252.423C79.8753 252.771 79.6148 253.184 79.4371 253.638C79.2594 254.093 79.1679 254.58 79.1679 255.073C79.1679 255.565 79.2594 256.052 79.4371 256.507C79.6148 256.962 79.8753 257.375 80.2037 257.723C80.532 258.071 80.9218 258.347 81.3509 258.535C81.7799 258.723 82.2397 258.82 82.7041 258.82H163.282C163.747 258.82 164.206 258.723 164.636 258.535C165.065 258.347 165.454 258.071 165.783 257.723C166.111 257.375 166.372 256.962 166.549 256.507C166.727 256.052 166.818 255.565 166.818 255.073C166.818 254.58 166.727 254.093 166.549 253.638C166.372 253.184 166.111 252.771 165.783 252.423C165.454 252.075 165.065 251.799 164.636 251.61C164.206 251.422 163.747 251.325 163.282 251.325H82.7041Z" fill="#292A2E"/>
<path d="M107.534 198.102H29.3863C28.1086 198.102 26.8746 197.609 25.9145 196.715C24.9545 195.822 24.3341 194.589 24.1691 193.246L18.9998 151.174C18.9032 150.387 18.966 149.588 19.184 148.829C19.402 148.071 19.7702 147.37 20.2639 146.774C20.7577 146.178 21.3658 145.701 22.0474 145.374C22.7291 145.047 23.4688 144.878 24.2171 144.878H102.365C103.642 144.878 104.876 145.371 105.836 146.264C106.796 147.158 107.417 148.391 107.582 149.734L112.751 191.805C112.847 192.591 112.785 193.391 112.567 194.149C112.349 194.908 111.981 195.609 111.487 196.205C110.994 196.801 110.385 197.278 109.704 197.606C109.022 197.933 108.282 198.102 107.534 198.102Z" fill="#292A2E"/>
<path opacity="0.8" d="M107.534 198.102H29.3863C28.1086 198.102 26.8746 197.609 25.9145 196.715C24.9545 195.822 24.3341 194.589 24.1691 193.246L18.9998 151.174C18.9032 150.387 18.966 149.588 19.184 148.829C19.402 148.071 19.7702 147.37 20.2639 146.774C20.7577 146.178 21.3658 145.701 22.0474 145.374C22.7291 145.047 23.4688 144.878 24.2171 144.878H102.365C103.642 144.878 104.876 145.371 105.836 146.264C106.796 147.158 107.417 148.391 107.582 149.734L112.751 191.805C112.847 192.591 112.785 193.391 112.567 194.149C112.349 194.908 111.981 195.609 111.487 196.205C110.994 196.801 110.385 197.278 109.704 197.606C109.022 197.933 108.282 198.102 107.534 198.102Z" fill="white"/>
<path d="M107.534 198.526H29.3865C28.0124 198.523 26.6861 197.991 25.6537 197.03C24.6212 196.069 23.9527 194.744 23.7722 193.3L18.6034 151.23C18.4993 150.383 18.5668 149.523 18.8013 148.707C19.0358 147.891 19.4319 147.137 19.9633 146.495C20.4946 145.854 21.1489 145.34 21.8825 144.988C22.6161 144.636 23.412 144.454 24.2173 144.454H102.365C103.739 144.458 105.065 144.989 106.097 145.95C107.13 146.911 107.798 148.236 107.979 149.68L113.148 191.751C113.252 192.597 113.184 193.457 112.95 194.274C112.715 195.09 112.319 195.844 111.788 196.485C111.256 197.127 110.602 197.64 109.869 197.992C109.135 198.344 108.339 198.526 107.534 198.526ZM24.2173 145.303C23.5259 145.303 22.8426 145.459 22.2127 145.761C21.5829 146.064 21.0212 146.505 20.565 147.055C20.1088 147.606 19.7686 148.253 19.5672 148.954C19.3658 149.655 19.3078 150.393 19.3971 151.12L24.5663 193.191C24.7211 194.431 25.295 195.568 26.1815 196.394C27.0679 197.219 28.2067 197.675 29.3865 197.678H107.534C108.225 197.678 108.909 197.521 109.538 197.219C110.168 196.917 110.73 196.476 111.186 195.925C111.642 195.375 111.983 194.727 112.184 194.027C112.385 193.326 112.443 192.587 112.354 191.861L107.187 149.79C107.032 148.55 106.458 147.412 105.572 146.587C104.685 145.762 103.546 145.306 102.367 145.303H24.2173Z" fill="#292A2E"/>
<path d="M111.952 198.102H33.8048C32.5272 198.102 31.2932 197.609 30.3333 196.715C29.3733 195.822 28.7529 194.589 28.588 193.246L23.4188 151.174C23.3222 150.387 23.385 149.588 23.603 148.829C23.8209 148.071 24.1891 147.37 24.6829 146.774C25.1767 146.178 25.7847 145.701 26.4664 145.374C27.1481 145.047 27.8878 144.878 28.636 144.878H106.783C108.061 144.878 109.295 145.371 110.255 146.264C111.215 147.158 111.835 148.391 112 149.734L117.17 191.805C117.266 192.591 117.204 193.391 116.986 194.149C116.768 194.908 116.4 195.609 115.906 196.205C115.412 196.801 114.804 197.278 114.122 197.606C113.44 197.933 112.701 198.102 111.952 198.102Z" fill="white"/>
<path d="M111.953 198.526H33.8051C32.431 198.523 31.1048 197.991 30.0724 197.03C29.04 196.069 28.3716 194.744 28.1912 193.3L23.022 151.23C22.918 150.383 22.9856 149.523 23.2202 148.707C23.4548 147.891 23.851 147.137 24.3823 146.495C24.9137 145.854 25.568 145.341 26.3015 144.989C27.0351 144.637 27.831 144.455 28.6363 144.455H106.783C108.157 144.458 109.484 144.989 110.516 145.95C111.549 146.911 112.217 148.236 112.398 149.68L117.567 191.751C117.671 192.598 117.603 193.458 117.368 194.274C117.134 195.09 116.738 195.844 116.206 196.485C115.675 197.126 115.021 197.64 114.287 197.992C113.554 198.344 112.758 198.526 111.953 198.526ZM28.6363 145.303C27.9448 145.303 27.2613 145.459 26.6313 145.761C26.0014 146.063 25.4395 146.504 24.9831 147.055C24.5268 147.606 24.1866 148.253 23.9851 148.954C23.7836 149.655 23.7256 150.394 23.8149 151.12L28.9837 193.191C29.1387 194.431 29.7128 195.569 30.5995 196.394C31.4862 197.219 32.6251 197.675 33.8051 197.678H111.953C112.644 197.678 113.327 197.521 113.957 197.219C114.587 196.917 115.149 196.476 115.605 195.925C116.061 195.375 116.401 194.728 116.603 194.027C116.804 193.326 116.862 192.587 116.773 191.861L111.604 149.79C111.449 148.55 110.875 147.412 109.988 146.587C109.102 145.762 107.963 145.306 106.783 145.303H28.6363Z" fill="#292A2E"/>
<path d="M103.339 79.969C103.339 79.969 108.532 75.8149 109.819 66.2528C110.815 58.849 104.371 63.6457 104.371 63.6457C104.371 63.6457 105.039 58.3073 101.369 58.8371C97.6988 59.3669 95.6455 64.9747 95.6455 64.9747" fill="#0C0C0C"/>
<path d="M82.4011 59.4637C82.4011 59.4637 64.1922 61.5329 70.7747 87.6833L72.3857 87.7975L75.6565 88.0299" fill="#0C0C0C"/>
<path d="M100.289 114.99C100.209 114.979 99.3205 130.6 82.1955 129.24C70.3401 128.299 66.1127 114.968 65.8413 114.968C67.1193 114.68 68.6991 114.243 69.3267 114.093C70.6949 113.756 71.9341 112.986 72.8793 111.885C73.8245 110.784 74.431 109.404 74.618 107.929C74.9646 105.714 74.3778 94.3851 74.5575 92.145L92.7557 96.453C92.5011 101.185 90.7216 112.155 96.9583 114.096C97.9973 114.415 99.1152 114.711 100.289 114.99Z" fill="#E98862"/>
<path opacity="0.52" d="M93.0106 109.611C92.7256 108.637 92.5421 107.634 92.4635 106.618C92.2637 104.299 92.304 101.965 92.5836 99.6557C88.8848 99.1266 85.4002 97.5087 82.5257 94.9857C82.1875 96.3084 80.3291 102.087 80.8446 103.344C81.8153 105.72 86.3857 109.611 93.0106 109.611Z" fill="#0C0C0C"/>
<path d="M89.2556 106.519C82.0764 105.837 73.4834 101.029 73.3593 90.701L73.2457 81.3816C73.1216 71.0529 78.1399 62.6111 87.3156 62.4877C96.4913 62.3638 103.45 70.6444 103.575 80.9726L103.624 85.0987C103.618 86.5155 103.52 87.9302 103.332 89.333C102.862 93.0447 102.132 98.6877 99.755 102.505C97.512 106.109 93.8417 106.955 89.2556 106.519Z" fill="#E98862"/>
<path d="M92.5856 97.0783C94.0673 97.1494 95.544 96.8506 96.8967 96.2057C96.9246 96.1931 96.95 96.1747 96.9712 96.1517C96.9925 96.1287 97.0093 96.1015 97.0206 96.0716C97.032 96.0417 97.0376 96.0097 97.0373 95.9775C97.037 95.9453 97.0307 95.9134 97.0187 95.8838C97.0068 95.8541 96.9895 95.8273 96.9678 95.8047C96.946 95.7822 96.9203 95.7644 96.8921 95.7524C96.8639 95.7404 96.8338 95.7344 96.8034 95.7347C96.773 95.7351 96.7429 95.7418 96.715 95.7544C93.8007 97.0694 91.1547 96.8785 89.063 95.197C89.0209 95.1616 88.9771 95.1284 88.9317 95.0978C88.8791 95.0715 88.8191 95.0672 88.7636 95.0857C88.7082 95.1041 88.6613 95.144 88.6323 95.1974C88.6032 95.2508 88.5942 95.3138 88.607 95.3739C88.6197 95.434 88.6534 95.4869 88.7012 95.5219C88.718 95.5334 88.7452 95.5559 88.7812 95.5864C89.8808 96.4743 91.2056 96.9938 92.5856 97.0783Z" fill="#0C0C0C"/>
<path d="M92.5168 99.4054C92.7845 99.4227 93.0531 99.4159 93.3197 99.3851C93.3795 99.3765 93.4338 99.3436 93.4711 99.2932C93.5083 99.2429 93.5256 99.1792 93.5191 99.1156C93.5127 99.052 93.4832 98.9936 93.4367 98.9527C93.3903 98.9119 93.3307 98.8918 93.2705 98.8968C91.6671 99.0775 90.9014 98.2987 90.869 98.2656C90.8252 98.2216 90.767 98.1975 90.7067 98.1983C90.6463 98.199 90.5887 98.2247 90.546 98.2699C90.5032 98.315 90.4788 98.376 90.4778 98.4399C90.4768 98.5038 90.4994 98.5657 90.5408 98.6122C91.0933 99.1105 91.7915 99.3908 92.5168 99.4054Z" fill="#0C0C0C"/>
<path d="M100.545 87.0847C101.17 87.0847 101.676 86.5484 101.676 85.8868C101.676 85.2252 101.17 84.6889 100.545 84.6889C99.9211 84.6889 99.415 85.2252 99.415 85.8868C99.415 86.5484 99.9211 87.0847 100.545 87.0847Z" fill="#0C0C0C"/>
<path d="M89.5029 86.3501C90.1271 86.3501 90.6332 85.8138 90.6332 85.1522C90.6332 84.4906 90.1271 83.9543 89.5029 83.9543C88.8786 83.9543 88.3726 84.4906 88.3726 85.1522C88.3726 85.8138 88.8786 86.3501 89.5029 86.3501Z" fill="#0C0C0C"/>
<path d="M73.9659 93.8396C71.1778 93.8773 68.8791 90.746 68.8427 87.7911C68.8063 84.8362 71.0485 83.1755 73.837 83.1377L75.2975 85.0987L76.3626 93.8074L73.9659 93.8396Z" fill="#E98862"/>
<path d="M76.7405 89.0908C76.7405 89.0908 77.6818 74.4762 81.8636 73.5739C84.6486 72.9729 91.402 77.1592 97.6575 75.8951C100.394 75.3437 102.992 76.0597 103.256 77.4298C103.361 77.9724 105.066 70.1762 100.78 64.2608C97.3681 59.5523 86.2023 58.2204 81.1224 59.7644C67.056 64.0407 73.2631 83.7808 73.2631 83.7808L73.8903 88.8193L76.7405 89.0908Z" fill="#0C0C0C"/>
<path d="M94.2713 93.6297H94.2889C95.1875 93.6199 96.694 93.4978 96.688 92.7851C96.682 92.1951 95.0966 85.839 94.9157 85.1162C94.9002 85.054 94.8619 85.0009 94.8094 84.9685C94.7569 84.9362 94.6944 84.9273 94.6357 84.9438C94.577 84.9603 94.5269 85.0008 94.4964 85.0564C94.4659 85.1121 94.4575 85.1783 94.473 85.2405C95.1775 88.0554 96.2261 92.3889 96.2301 92.7911C96.1433 92.9608 95.2151 93.1351 94.2849 93.1453C94.2254 93.1453 94.1682 93.1698 94.1254 93.2138C94.0827 93.2577 94.0578 93.3176 94.056 93.3807C94.0542 93.4438 94.0757 93.5051 94.1159 93.5517C94.1561 93.5983 94.2119 93.6264 94.2713 93.6301V93.6297Z" fill="#0C0C0C"/>
<path d="M97.3373 79.3917C98.2817 79.1166 99.2787 79.1166 100.223 79.3917C100.687 79.5242 101.129 79.7295 101.536 80.0009C101.938 80.2669 102.306 80.5856 102.632 80.9494C102.692 81.0142 102.727 81.1011 102.728 81.192C102.729 81.2829 102.697 81.3709 102.639 81.4375C102.581 81.5042 102.5 81.5444 102.415 81.5499C102.329 81.5554 102.245 81.5256 102.179 81.4669L102.159 81.4482C101.857 81.1518 101.521 80.8969 101.158 80.6893C100.803 80.4831 100.42 80.3351 100.023 80.2503C99.241 80.0767 98.4296 80.1247 97.6707 80.3894L97.6391 80.4013C97.5771 80.4245 97.5114 80.4346 97.4457 80.4309C97.38 80.4272 97.3157 80.4099 97.2564 80.3798C97.197 80.3498 97.1439 80.3077 97.0999 80.2559C97.0559 80.2041 97.022 80.1436 97.0001 80.0779C96.9782 80.0122 96.9687 79.9425 96.9721 79.8729C96.9756 79.8033 96.992 79.7351 97.0203 79.6723C97.0487 79.6094 97.0884 79.553 97.1373 79.5064C97.1862 79.4598 97.2433 79.4239 97.3053 79.4006C97.3161 79.3981 97.3273 79.3947 97.3373 79.3917Z" fill="#0C0C0C"/>
<path d="M90.6499 79.9945C89.9312 79.6245 89.1329 79.4622 88.336 79.5241C87.9317 79.552 87.5338 79.6447 87.1557 79.799C86.771 79.9538 86.4062 80.1591 86.0698 80.4102L86.0482 80.4251C85.9761 80.4768 85.8877 80.4965 85.802 80.48C85.7163 80.4635 85.6401 80.412 85.5897 80.3367C85.5394 80.2613 85.519 80.168 85.5328 80.0769C85.5466 79.9857 85.5935 79.9039 85.6636 79.849C86.0327 79.5344 86.4379 79.2704 86.8695 79.0634C87.3065 78.8519 87.7708 78.7109 88.2472 78.6452C89.2177 78.5055 90.2058 78.6459 91.1074 79.0516C91.2294 79.1078 91.3254 79.2131 91.3742 79.3444C91.423 79.4757 91.4206 79.6221 91.3675 79.7515C91.3144 79.8808 91.2151 79.9826 91.0912 80.0343C90.9673 80.086 90.8292 80.0834 90.7071 80.0272C90.6975 80.023 90.6883 80.0183 90.6791 80.0132L90.6499 79.9945Z" fill="#0C0C0C"/>
<path d="M95.9933 69.3305C98.0574 68.8734 99.2161 65.8929 98.5813 62.6732C97.9466 59.4535 95.7588 57.2139 93.6948 57.671C91.6308 58.128 90.4721 61.1086 91.1068 64.3282C91.7415 67.5479 93.9293 69.7875 95.9933 69.3305Z" fill="#0C0C0C"/>
<path d="M211.111 362.13C211.111 362.13 213.257 373.92 223.673 374.577C234.088 375.234 231.83 384.027 231.83 384.027H192.027V362.952L211.111 362.13Z" fill="#367CFF"/>
<path d="M135.389 354.686C135.389 354.686 132.402 366.269 141.476 371.731C150.55 377.194 144.859 384.027 144.859 384.027L109.144 365.405L117.922 346.495L135.389 354.686Z" fill="#367CFF"/>
<path d="M113.268 351.414L143.386 250.716H88.7922C77.8254 250.716 73.2542 240.86 73.2542 229.238C73.2542 217.616 84.0349 207.428 95.0009 207.428H168.683C175.371 207.428 182.871 211.763 186.542 217.689C190.213 223.615 189.221 232.798 186.561 239.302L138.331 363.448" fill="#262626"/>
<path opacity="0.8" d="M113.268 351.414L143.386 250.716H88.7922C77.8254 250.716 73.2542 240.86 73.2542 229.238C73.2542 217.616 84.0349 207.428 95.0009 207.428H168.683C175.371 207.428 182.871 211.763 186.542 217.689C190.213 223.615 189.221 232.798 186.561 239.302L138.331 363.448" fill="#0A0A0A"/>
<path d="M189.738 373.079L139.379 250.716L73.2544 250.711C57.76 249.424 50.6644 240.425 50.8897 228.805C51.1123 217.333 56.5933 206.002 67.3696 206.002H156.492C164.465 206.175 170.738 215.514 173.696 223.362L215.562 365.587" fill="#262626"/>
<path d="M46.379 206.142C46.379 206.142 43.4424 226.438 48.0973 237.722C53.9085 251.809 75.6932 250.712 75.6932 250.712L74.4657 206.002L46.379 206.142Z" fill="#262626"/>
<path d="M175.589 205.743L128.88 195.485C126.934 195.058 125.121 194.117 123.608 192.75C122.096 191.383 120.933 189.634 120.228 187.664L101.857 136.357C101.306 134.819 101.046 133.181 101.093 131.537C101.14 129.892 101.491 128.274 102.128 126.774C102.765 125.274 103.674 123.921 104.804 122.793C105.934 121.666 107.262 120.785 108.713 120.201C110.165 119.618 111.71 119.343 113.261 119.392C114.813 119.441 116.34 119.814 117.755 120.489C119.171 121.164 120.447 122.127 121.511 123.325C122.575 124.522 123.406 125.93 123.957 127.468L140.028 172.348L180.387 181.211C180.387 181.211 176.4 205.92 175.589 205.743Z" fill="#367CFF"/>
<path d="M121.566 149.386C121.026 156.102 117.203 198.002 116.683 206.275H46.4093C46.0054 198.814 44.6946 167.136 43.1637 152.546C41.702 138.624 41.172 130.679 42.8555 126.352C45.8245 118.721 53.2544 115.976 59.6539 115.057C63.562 114.496 69.4396 114.094 69.4396 114.094C69.4396 114.094 69.9371 124.764 81.8037 125.358C97.9578 126.164 96.8791 114.094 96.9588 114.094C99.576 114.094 113.821 116.111 117.383 118.572C122.413 122.047 123.9 126.783 123.959 131.134C124.027 136.144 122.178 141.769 121.566 149.386Z" fill="#367CFF"/>
<path d="M118.803 183.624C118.797 183.625 118.791 183.625 118.786 183.624C118.733 183.62 118.684 183.593 118.65 183.55C118.615 183.507 118.599 183.452 118.603 183.396L120.427 160.169C120.429 160.141 120.436 160.114 120.448 160.089C120.459 160.063 120.476 160.041 120.496 160.023C120.516 160.005 120.54 159.991 120.565 159.983C120.59 159.975 120.617 159.972 120.643 159.976C120.696 159.98 120.745 160.007 120.779 160.05C120.813 160.093 120.83 160.148 120.826 160.204L119.002 183.431C118.998 183.484 118.975 183.533 118.938 183.568C118.901 183.604 118.853 183.624 118.803 183.624Z" fill="#0C0C0C"/>
<path d="M152.273 197.563L167.693 147.329C167.964 146.446 168.491 145.677 169.2 145.131C169.909 144.586 170.762 144.292 171.638 144.292H234.458C235.113 144.292 235.758 144.456 236.342 144.771C236.925 145.087 237.43 145.544 237.814 146.105C238.199 146.667 238.453 147.317 238.556 148.002C238.658 148.688 238.606 149.389 238.403 150.049L222.983 200.283C222.712 201.166 222.185 201.935 221.476 202.48C220.767 203.026 219.914 203.32 219.038 203.32H156.217C155.562 203.319 154.917 203.155 154.334 202.84C153.75 202.525 153.246 202.068 152.861 201.506C152.477 200.945 152.223 200.295 152.12 199.609C152.018 198.924 152.071 198.222 152.273 197.563Z" fill="#292A2E"/>
<path d="M152.273 197.563L167.693 147.329C167.964 146.446 168.491 145.677 169.2 145.131C169.909 144.586 170.762 144.292 171.638 144.292H234.458C235.113 144.292 235.758 144.456 236.342 144.771C236.925 145.087 237.43 145.544 237.814 146.105C238.199 146.667 238.453 147.317 238.556 148.002C238.658 148.688 238.606 149.389 238.403 150.049L222.983 200.283C222.712 201.166 222.185 201.935 221.476 202.48C220.767 203.026 219.914 203.32 219.038 203.32H156.217C155.562 203.319 154.917 203.155 154.334 202.84C153.75 202.525 153.246 202.068 152.861 201.506C152.477 200.945 152.223 200.295 152.12 199.609C152.018 198.924 152.071 198.222 152.273 197.563Z" fill="#292A2E"/>
<path d="M164.852 199.247H122.8C121.752 199.247 120.903 200.147 120.903 201.257V201.309C120.903 202.42 121.752 203.32 122.8 203.32H164.852C165.9 203.32 166.749 202.42 166.749 201.309V201.257C166.749 200.147 165.9 199.247 164.852 199.247Z" fill="#292A2E"/>
<path d="M164.852 199.247H122.8C121.752 199.247 120.903 200.147 120.903 201.257V201.309C120.903 202.42 121.752 203.32 122.8 203.32H164.852C165.9 203.32 166.749 202.42 166.749 201.309V201.257C166.749 200.147 165.9 199.247 164.852 199.247Z" fill="#292A2E"/>
<path d="M195.338 183.239C198.976 183.239 201.926 180.113 201.926 176.256C201.926 172.4 198.976 169.274 195.338 169.274C191.699 169.274 188.749 172.4 188.749 176.256C188.749 180.113 191.699 183.239 195.338 183.239Z" fill="white"/>
<path d="M148.759 185.795L138.263 181.897L139.77 181.786C140.256 181.74 140.707 181.501 141.032 181.116C141.358 180.731 141.533 180.23 141.523 179.713C141.509 179.447 141.444 179.186 141.332 178.947C141.22 178.708 141.063 178.496 140.871 178.323C140.679 178.151 140.455 178.022 140.215 177.943C139.974 177.865 139.721 177.84 139.47 177.869L120.903 179.96L121.383 186.284C121.533 188.248 122.233 190.12 123.393 191.66C124.553 193.2 126.121 194.337 127.895 194.927L135.936 197.581C136.351 197.728 136.801 197.718 137.21 197.553C137.62 197.388 137.962 197.078 138.181 196.676C138.371 196.309 138.445 195.887 138.393 195.472C138.34 195.056 138.164 194.67 137.89 194.368C137.908 194.355 137.923 194.338 137.934 194.318C137.945 194.298 137.952 194.276 137.955 194.254C137.958 194.231 137.957 194.207 137.951 194.185C137.945 194.163 137.935 194.142 137.922 194.124L139.403 194.617C139.865 194.781 140.369 194.753 140.813 194.539C141.257 194.325 141.607 193.94 141.793 193.463C141.946 193.03 141.949 192.553 141.802 192.118C141.656 191.683 141.369 191.316 140.993 191.082C141.01 191.072 141.026 191.059 141.039 191.043L141.648 191.246C142.063 191.392 142.513 191.382 142.922 191.217C143.331 191.052 143.674 190.743 143.893 190.341C144.123 189.895 144.182 189.372 144.057 188.881C143.931 188.39 143.631 187.97 143.22 187.709C143.223 187.696 143.225 187.682 143.226 187.669L147.596 189.293C148.034 189.455 148.514 189.427 148.932 189.214C149.35 189.001 149.671 188.621 149.825 188.157C149.978 187.693 149.951 187.184 149.75 186.741C149.549 186.298 149.191 185.958 148.753 185.795H148.759Z" fill="#E98862"/>
<path opacity="0.2" d="M143.059 187.85C143.039 187.85 143.019 187.846 143 187.839L138.772 186.212C138.728 186.195 138.693 186.16 138.674 186.116C138.654 186.072 138.652 186.021 138.668 185.975C138.684 185.929 138.717 185.891 138.759 185.871C138.801 185.85 138.849 185.848 138.892 185.865L143.119 187.494C143.158 187.509 143.19 187.537 143.211 187.575C143.231 187.613 143.239 187.657 143.232 187.699C143.224 187.742 143.203 187.781 143.172 187.809C143.141 187.837 143.101 187.852 143.06 187.852L143.059 187.85Z" fill="#0A0A0A"/>
<path opacity="0.2" d="M140.922 191.108C140.902 191.108 140.883 191.104 140.864 191.097L137.532 189.844C137.51 189.836 137.49 189.823 137.473 189.807C137.456 189.791 137.443 189.771 137.433 189.749C137.423 189.728 137.417 189.704 137.416 189.68C137.415 189.655 137.418 189.631 137.426 189.608C137.433 189.586 137.445 189.565 137.461 189.547C137.476 189.529 137.494 189.514 137.515 189.504C137.536 189.493 137.558 189.487 137.581 189.486C137.604 189.485 137.627 189.488 137.648 189.496L140.981 190.749C141.019 190.764 141.052 190.792 141.073 190.83C141.093 190.868 141.101 190.912 141.094 190.955C141.087 190.998 141.066 191.036 141.034 191.064C141.003 191.092 140.963 191.108 140.922 191.108Z" fill="#0A0A0A"/>
<path opacity="0.2" d="M137.785 194.413C137.763 194.413 137.742 194.409 137.722 194.401L136.161 193.77C136.139 193.762 136.118 193.749 136.101 193.733C136.083 193.716 136.069 193.696 136.059 193.674C136.049 193.651 136.043 193.627 136.042 193.602C136.041 193.577 136.045 193.552 136.053 193.529C136.062 193.506 136.075 193.484 136.091 193.467C136.107 193.449 136.127 193.434 136.149 193.425C136.17 193.415 136.193 193.41 136.217 193.41C136.24 193.41 136.264 193.416 136.285 193.425L137.846 194.056C137.884 194.072 137.916 194.101 137.936 194.138C137.955 194.176 137.962 194.22 137.955 194.262C137.948 194.304 137.927 194.343 137.895 194.37C137.864 194.398 137.825 194.413 137.784 194.413H137.785Z" fill="#0A0A0A"/>
<path d="M129.12 176.218L85.0931 176.186L68.4375 133.126L43.5908 144.197L64.3722 195.303L64.5755 195.812C65.5921 198.296 67.3047 200.389 69.4811 201.807C71.6575 203.226 74.1926 203.901 76.7431 203.741L129.787 200.42L129.12 176.218Z" fill="#367CFF"/>
<path d="M76.0129 203.975C73.5447 203.971 71.1312 203.204 69.0674 201.769C67.0035 200.334 65.3788 198.294 64.3917 195.896L64.188 195.387L46.481 151.84L46.8484 151.672L64.7595 195.729C65.7647 198.169 67.4508 200.225 69.591 201.619C71.7313 203.013 74.2231 203.68 76.7314 203.529L129.581 200.22L128.927 176.43L84.9597 176.399L72.1517 143.29L72.522 143.129L85.2275 175.975L129.315 176.007L129.992 200.62L129.798 200.632L76.7542 203.953C76.5066 203.968 76.2595 203.975 76.0129 203.975Z" fill="#0C0C0C"/>
<path d="M340.611 207.385L339.815 207.47L356.688 384.505L357.485 384.42L340.611 207.385Z" fill="#494949"/>
<path d="M27.0418 207.387L10.1567 384.421L10.9532 384.506L27.8383 207.472L27.0418 207.387Z" fill="#494949"/>
<path d="M96.8045 207.387L79.9194 384.421L80.7159 384.506L97.601 207.472L96.8045 207.387Z" fill="#494949"/>
<path d="M410.374 207.384L409.578 207.469L426.467 384.503L427.263 384.418L410.374 207.384Z" fill="#494949"/>
<path d="M425.59 203.952H12.9317C11.1204 203.952 9.6521 205.508 9.6521 207.428C9.6521 209.347 11.1204 210.903 12.9317 210.903H425.59C427.401 210.903 428.869 209.347 428.869 207.428C428.869 205.508 427.401 203.952 425.59 203.952Z" fill="#292A2E"/>
<path opacity="0.8" d="M425.59 203.952H12.9317C11.1204 203.952 9.6521 205.508 9.6521 207.428C9.6521 209.347 11.1204 210.903 12.9317 210.903H425.59C427.401 210.903 428.869 209.347 428.869 207.428C428.869 205.508 427.401 203.952 425.59 203.952Z" fill="white"/>
<path d="M425.59 211.328H12.9334C12.4469 211.333 11.9643 211.236 11.5134 211.042C11.0625 210.849 10.6523 210.563 10.3065 210.2C9.96073 209.837 9.68623 209.405 9.49889 208.93C9.31155 208.454 9.21509 207.943 9.21509 207.428C9.21509 206.912 9.31155 206.402 9.49889 205.926C9.68623 205.45 9.96073 205.018 10.3065 204.656C10.6523 204.293 11.0625 204.007 11.5134 203.813C11.9643 203.62 12.4469 203.523 12.9334 203.528H425.59C426.56 203.539 427.486 203.954 428.167 204.684C428.849 205.415 429.232 206.4 429.232 207.428C429.232 208.455 428.849 209.441 428.167 210.171C427.486 210.901 426.56 211.317 425.59 211.328ZM12.9334 204.376C12.5524 204.372 12.1743 204.447 11.8211 204.598C11.4678 204.749 11.1464 204.973 10.8754 205.257C10.6044 205.541 10.3893 205.879 10.2425 206.252C10.0956 206.624 10.02 207.024 10.02 207.428C10.02 207.832 10.0956 208.231 10.2425 208.604C10.3893 208.976 10.6044 209.314 10.8754 209.598C11.1464 209.882 11.4678 210.106 11.8211 210.257C12.1743 210.409 12.5524 210.484 12.9334 210.479H425.59C426.348 210.47 427.072 210.144 427.604 209.573C428.137 209.002 428.436 208.231 428.436 207.428C428.436 206.625 428.137 205.854 427.604 205.283C427.072 204.711 426.348 204.386 425.59 204.376H12.9334Z" fill="#292A2E"/>
<path d="M425.59 203.952H85.3612C83.5499 203.952 82.0815 205.508 82.0815 207.428C82.0815 209.347 83.5499 210.903 85.3612 210.903H425.59C427.401 210.903 428.869 209.347 428.869 207.428C428.869 205.508 427.401 203.952 425.59 203.952Z" fill="white"/>
<path d="M425.59 211.328H85.3608C84.3915 211.317 83.4653 210.902 82.7835 210.171C82.1017 209.441 81.7192 208.455 81.7192 207.428C81.7192 206.401 82.1017 205.415 82.7835 204.685C83.4653 203.955 84.3915 203.539 85.3608 203.528H425.59C426.559 203.539 427.486 203.955 428.167 204.685C428.849 205.415 429.232 206.401 429.232 207.428C429.232 208.455 428.849 209.441 428.167 210.171C427.486 210.902 426.559 211.317 425.59 211.328ZM85.3608 204.377C84.603 204.386 83.8794 204.712 83.3467 205.283C82.814 205.854 82.5153 206.625 82.5153 207.428C82.5153 208.231 82.814 209.002 83.3467 209.573C83.8794 210.144 84.603 210.47 85.3608 210.479H425.59C426.348 210.47 427.072 210.144 427.604 209.573C428.137 209.002 428.436 208.231 428.436 207.428C428.436 206.625 428.137 205.854 427.604 205.283C427.072 204.712 426.348 204.386 425.59 204.377H85.3608Z" fill="#292A2E"/>
</svg>
