<svg width="81" height="50" viewBox="0 0 81 50" fill="none" xmlns="http://www.w3.org/2000/svg">
<path opacity="0.1" d="M67.0185 46.5979C74.0246 46.5979 76.159 40.9043 74.1406 33.9316C72.9991 29.9883 70.3595 24.8318 66.047 22.4982C54.2458 16.1122 55.8363 15.8055 52.9148 9.00833C48.1459 -2.08767 29.8079 -2.51584 22.3149 5.43528C16.4847 11.6219 13.9898 20.3433 6.04658 26.7692C-3.54131 34.5258 -0.926209 46.7103 8.28357 46.7103L67.0185 46.5979Z" fill="#367CFF"/>
<path d="M79.977 42.1894H6.08032L10.3332 33.1692H75.7241L79.977 42.1894Z" fill="#292A2E"/>
<path d="M79.977 42.1894H6.08032L10.3332 33.1692H75.7241L79.977 42.1894Z" fill="white"/>
<path d="M79.977 42.269H6.08074C6.06715 42.269 6.05377 42.2657 6.04185 42.2592C6.02994 42.2528 6.01986 42.2435 6.01258 42.2322C6.00529 42.2209 6.00102 42.2079 6.00016 42.1946C5.9993 42.1812 6.00189 42.1678 6.00768 42.1557L10.2602 33.1355C10.2667 33.1219 10.277 33.1103 10.29 33.1022C10.3029 33.0941 10.3179 33.0898 10.3332 33.0898H75.7241C75.7394 33.0898 75.7544 33.0941 75.7673 33.1022C75.7803 33.1103 75.7906 33.1219 75.7971 33.1355L80.0502 42.1557C80.056 42.1678 80.0586 42.1811 80.0578 42.1944C80.0569 42.2078 80.0527 42.2207 80.0455 42.232C80.0382 42.2433 80.0282 42.2526 80.0164 42.259C80.0045 42.2655 79.9912 42.2689 79.9777 42.269H79.977ZM6.20726 42.1101H79.85L75.6729 33.2488H10.3845L6.20726 42.1101Z" fill="#292A2E"/>
<path d="M48.1387 30.1493H40.9824V35.48H48.1387V30.1493Z" fill="#292A2E"/>
<path opacity="0.64" d="M48.1388 30.1493H40.9824V32.9971H48.1388V30.1493Z" fill="#0C0C0C"/>
<path d="M59.7602 9H29.3616C28.8835 9 28.4958 9.38191 28.4958 9.85302V30.7567C28.4958 31.2278 28.8835 31.6098 29.3616 31.6098H59.7602C60.2383 31.6098 60.6259 31.2278 60.6259 30.7567V9.85302C60.6259 9.38191 60.2383 9 59.7602 9Z" fill="#292A2E"/>
<path d="M59.3328 9.96887H29.789C29.5927 9.96887 29.4336 10.1256 29.4336 10.319V27.6557C29.4336 27.849 29.5927 28.0058 29.789 28.0058H59.3328C59.5291 28.0058 59.6882 27.849 59.6882 27.6557V10.319C59.6882 10.1256 59.5291 9.96887 59.3328 9.96887Z" fill="white"/>
<path d="M49.6279 35.0419H39.4938C39.2344 35.0419 39.0242 35.2488 39.0242 35.5041C39.0242 35.7594 39.2344 35.9664 39.4938 35.9664H49.6279C49.8872 35.9664 50.0975 35.7594 50.0975 35.5041C50.0975 35.2488 49.8872 35.0419 49.6279 35.0419Z" fill="#292A2E"/>
<path d="M39.5485 12.8491H38.2031C38.195 12.8494 38.187 12.8481 38.1795 12.8453C38.172 12.8425 38.1652 12.8382 38.1594 12.8328C38.1536 12.8273 38.149 12.8208 38.1459 12.8135C38.1427 12.8063 38.1411 12.7985 38.1411 12.7907C38.1411 12.7828 38.1427 12.775 38.1459 12.7678C38.149 12.7606 38.1536 12.754 38.1594 12.7486C38.1652 12.7431 38.172 12.7388 38.1795 12.736C38.187 12.7332 38.195 12.7319 38.2031 12.7322H39.5485C39.564 12.7328 39.5786 12.7392 39.5893 12.7501C39.6001 12.761 39.6061 12.7755 39.6061 12.7907C39.6061 12.8058 39.6001 12.8203 39.5893 12.8312C39.5786 12.8421 39.564 12.8485 39.5485 12.8491Z" fill="#292A2E"/>
<path d="M37.2332 12.8491H36.7236C36.7156 12.8494 36.7076 12.8481 36.7001 12.8453C36.6926 12.8425 36.6857 12.8382 36.6799 12.8328C36.6741 12.8273 36.6695 12.8208 36.6664 12.8135C36.6632 12.8063 36.6616 12.7985 36.6616 12.7907C36.6616 12.7828 36.6632 12.775 36.6664 12.7678C36.6695 12.7606 36.6741 12.754 36.6799 12.7486C36.6857 12.7431 36.6926 12.7388 36.7001 12.736C36.7076 12.7332 36.7156 12.7319 36.7236 12.7322H37.2332C37.2413 12.7319 37.2493 12.7332 37.2568 12.736C37.2643 12.7388 37.2712 12.7431 37.277 12.7486C37.2827 12.754 37.2873 12.7606 37.2905 12.7678C37.2936 12.775 37.2953 12.7828 37.2953 12.7907C37.2953 12.7985 37.2936 12.8063 37.2905 12.8135C37.2873 12.8208 37.2827 12.8273 37.277 12.8328C37.2712 12.8382 37.2643 12.8425 37.2568 12.8453C37.2493 12.8481 37.2413 12.8494 37.2332 12.8491Z" fill="#367CFF"/>
<path d="M37.2335 13.9109H36.7239C36.708 13.9109 36.6928 13.9047 36.6816 13.8938C36.6704 13.8828 36.6641 13.8679 36.6641 13.8524C36.6641 13.8369 36.6704 13.822 36.6816 13.8111C36.6928 13.8001 36.708 13.7939 36.7239 13.7939H37.2335C37.2494 13.7939 37.2646 13.8001 37.2758 13.8111C37.287 13.822 37.2933 13.8369 37.2933 13.8524C37.2933 13.8679 37.287 13.8828 37.2758 13.8938C37.2646 13.9047 37.2494 13.9109 37.2335 13.9109Z" fill="#367CFF"/>
<path d="M37.2335 14.9728H36.7239C36.708 14.9728 36.6928 14.9666 36.6816 14.9557C36.6704 14.9447 36.6641 14.9298 36.6641 14.9143C36.6641 14.8988 36.6704 14.8839 36.6816 14.873C36.6928 14.862 36.708 14.8558 36.7239 14.8558H37.2335C37.2494 14.8558 37.2646 14.862 37.2758 14.873C37.287 14.8839 37.2933 14.8988 37.2933 14.9143C37.2933 14.9298 37.287 14.9447 37.2758 14.9557C37.2646 14.9666 37.2494 14.9728 37.2335 14.9728Z" fill="#367CFF"/>
<path d="M37.2335 16.0347H36.7239C36.708 16.0347 36.6928 16.0285 36.6816 16.0176C36.6704 16.0066 36.6641 15.9917 36.6641 15.9762C36.6641 15.9607 36.6704 15.9458 36.6816 15.9349C36.6928 15.9239 36.708 15.9177 36.7239 15.9177H37.2335C37.2494 15.9177 37.2646 15.9239 37.2758 15.9349C37.287 15.9458 37.2933 15.9607 37.2933 15.9762C37.2933 15.9917 37.287 16.0066 37.2758 16.0176C37.2646 16.0285 37.2494 16.0347 37.2335 16.0347Z" fill="#367CFF"/>
<path d="M37.2332 17.0965H36.7236C36.7156 17.0968 36.7076 17.0955 36.7001 17.0927C36.6926 17.0899 36.6857 17.0857 36.6799 17.0802C36.6741 17.0747 36.6695 17.0682 36.6664 17.061C36.6632 17.0537 36.6616 17.046 36.6616 17.0381C36.6616 17.0302 36.6632 17.0225 36.6664 17.0152C36.6695 17.008 36.6741 17.0014 36.6799 16.996C36.6857 16.9905 36.6926 16.9863 36.7001 16.9835C36.7076 16.9807 36.7156 16.9794 36.7236 16.9797H37.2332C37.2413 16.9794 37.2493 16.9807 37.2568 16.9835C37.2643 16.9863 37.2712 16.9905 37.277 16.996C37.2827 17.0014 37.2873 17.008 37.2905 17.0152C37.2936 17.0225 37.2953 17.0302 37.2953 17.0381C37.2953 17.046 37.2936 17.0537 37.2905 17.061C37.2873 17.0682 37.2827 17.0747 37.277 17.0802C37.2712 17.0857 37.2643 17.0899 37.2568 17.0927C37.2493 17.0955 37.2413 17.0968 37.2332 17.0965Z" fill="#367CFF"/>
<path d="M37.2335 18.1582H36.7239C36.708 18.1582 36.6928 18.1521 36.6816 18.1411C36.6704 18.1301 36.6641 18.1153 36.6641 18.0997C36.6641 18.0842 36.6704 18.0694 36.6816 18.0584C36.6928 18.0474 36.708 18.0413 36.7239 18.0413H37.2335C37.2494 18.0413 37.2646 18.0474 37.2758 18.0584C37.287 18.0694 37.2933 18.0842 37.2933 18.0997C37.2933 18.1153 37.287 18.1301 37.2758 18.1411C37.2646 18.1521 37.2494 18.1582 37.2335 18.1582Z" fill="#367CFF"/>
<path d="M37.2335 19.2204H36.7239C36.708 19.2204 36.6928 19.2142 36.6816 19.2032C36.6704 19.1923 36.6641 19.1774 36.6641 19.1619C36.6641 19.1464 36.6704 19.1315 36.6816 19.1205C36.6928 19.1096 36.708 19.1034 36.7239 19.1034H37.2335C37.2494 19.1034 37.2646 19.1096 37.2758 19.1205C37.287 19.1315 37.2933 19.1464 37.2933 19.1619C37.2933 19.1774 37.287 19.1923 37.2758 19.2032C37.2646 19.2142 37.2494 19.2204 37.2335 19.2204Z" fill="#367CFF"/>
<path d="M37.2332 20.2822H36.7236C36.7156 20.2825 36.7076 20.2812 36.7001 20.2784C36.6926 20.2756 36.6857 20.2713 36.6799 20.2659C36.6741 20.2604 36.6695 20.2539 36.6664 20.2466C36.6632 20.2394 36.6616 20.2316 36.6616 20.2238C36.6616 20.2159 36.6632 20.2081 36.6664 20.2009C36.6695 20.1937 36.6741 20.1871 36.6799 20.1817C36.6857 20.1762 36.6926 20.1719 36.7001 20.1691C36.7076 20.1663 36.7156 20.165 36.7236 20.1653H37.2332C37.2413 20.165 37.2493 20.1663 37.2568 20.1691C37.2643 20.1719 37.2712 20.1762 37.277 20.1817C37.2827 20.1871 37.2873 20.1937 37.2905 20.2009C37.2936 20.2081 37.2953 20.2159 37.2953 20.2238C37.2953 20.2316 37.2936 20.2394 37.2905 20.2466C37.2873 20.2539 37.2827 20.2604 37.277 20.2659C37.2712 20.2713 37.2643 20.2756 37.2568 20.2784C37.2493 20.2812 37.2413 20.2825 37.2332 20.2822Z" fill="#367CFF"/>
<path d="M37.2335 21.3443H36.7239C36.708 21.3443 36.6928 21.3381 36.6816 21.3271C36.6704 21.3162 36.6641 21.3013 36.6641 21.2858C36.6641 21.2703 36.6704 21.2554 36.6816 21.2444C36.6928 21.2335 36.708 21.2273 36.7239 21.2273H37.2335C37.2494 21.2273 37.2646 21.2335 37.2758 21.2444C37.287 21.2554 37.2933 21.2703 37.2933 21.2858C37.2933 21.3013 37.287 21.3162 37.2758 21.3271C37.2646 21.3381 37.2494 21.3443 37.2335 21.3443Z" fill="#367CFF"/>
<path d="M37.2335 22.406H36.7239C36.708 22.406 36.6928 22.3999 36.6816 22.3889C36.6704 22.3779 36.6641 22.3631 36.6641 22.3475C36.6641 22.332 36.6704 22.3172 36.6816 22.3062C36.6928 22.2952 36.708 22.2891 36.7239 22.2891H37.2335C37.2494 22.2891 37.2646 22.2952 37.2758 22.3062C37.287 22.3172 37.2933 22.332 37.2933 22.3475C37.2933 22.3631 37.287 22.3779 37.2758 22.3889C37.2646 22.3999 37.2494 22.406 37.2335 22.406Z" fill="#367CFF"/>
<path d="M37.2332 23.4678H36.7236C36.7156 23.468 36.7076 23.4667 36.7001 23.4639C36.6926 23.4611 36.6857 23.4569 36.6799 23.4514C36.6741 23.446 36.6695 23.4394 36.6664 23.4322C36.6632 23.425 36.6616 23.4172 36.6616 23.4093C36.6616 23.4015 36.6632 23.3937 36.6664 23.3864C36.6695 23.3792 36.6741 23.3727 36.6799 23.3672C36.6857 23.3618 36.6926 23.3575 36.7001 23.3547C36.7076 23.3519 36.7156 23.3506 36.7236 23.3509H37.2332C37.2413 23.3506 37.2493 23.3519 37.2568 23.3547C37.2643 23.3575 37.2712 23.3618 37.277 23.3672C37.2827 23.3727 37.2873 23.3792 37.2905 23.3864C37.2936 23.3937 37.2953 23.4015 37.2953 23.4093C37.2953 23.4172 37.2936 23.425 37.2905 23.4322C37.2873 23.4394 37.2827 23.446 37.277 23.4514C37.2712 23.4569 37.2643 23.4611 37.2568 23.4639C37.2493 23.4667 37.2413 23.468 37.2332 23.4678Z" fill="#367CFF"/>
<path d="M37.2335 24.5298H36.7239C36.708 24.5298 36.6928 24.5236 36.6816 24.5127C36.6704 24.5017 36.6641 24.4868 36.6641 24.4713C36.6641 24.4558 36.6704 24.4409 36.6816 24.43C36.6928 24.419 36.708 24.4128 36.7239 24.4128H37.2335C37.2494 24.4128 37.2646 24.419 37.2758 24.43C37.287 24.4409 37.2933 24.4558 37.2933 24.4713C37.2933 24.4868 37.287 24.5017 37.2758 24.5127C37.2646 24.5236 37.2494 24.5298 37.2335 24.5298Z" fill="#367CFF"/>
<path d="M37.2335 25.5916H36.7239C36.708 25.5916 36.6928 25.5854 36.6816 25.5744C36.6704 25.5635 36.6641 25.5486 36.6641 25.5331C36.6641 25.5176 36.6704 25.5027 36.6816 25.4917C36.6928 25.4808 36.708 25.4746 36.7239 25.4746H37.2335C37.2494 25.4746 37.2646 25.4808 37.2758 25.4917C37.287 25.5027 37.2933 25.5176 37.2933 25.5331C37.2933 25.5486 37.287 25.5635 37.2758 25.5744C37.2646 25.5854 37.2494 25.5916 37.2335 25.5916Z" fill="#367CFF"/>
<path d="M37.2332 26.6534H36.7236C36.7156 26.6537 36.7076 26.6524 36.7001 26.6496C36.6926 26.6468 36.6857 26.6425 36.6799 26.6371C36.6741 26.6316 36.6695 26.6251 36.6664 26.6179C36.6632 26.6106 36.6616 26.6028 36.6616 26.595C36.6616 26.5871 36.6632 26.5793 36.6664 26.5721C36.6695 26.5649 36.6741 26.5583 36.6799 26.5529C36.6857 26.5474 36.6926 26.5432 36.7001 26.5404C36.7076 26.5375 36.7156 26.5362 36.7236 26.5365H37.2332C37.2413 26.5362 37.2493 26.5375 37.2568 26.5404C37.2643 26.5432 37.2712 26.5474 37.277 26.5529C37.2827 26.5583 37.2873 26.5649 37.2905 26.5721C37.2936 26.5793 37.2953 26.5871 37.2953 26.595C37.2953 26.6028 37.2936 26.6106 37.2905 26.6179C37.2873 26.6251 37.2827 26.6316 37.277 26.6371C37.2712 26.6425 37.2643 26.6468 37.2568 26.6496C37.2493 26.6524 37.2413 26.6537 37.2332 26.6534Z" fill="#367CFF"/>
<path d="M40.6238 13.911H39.3981C39.3901 13.9113 39.3821 13.91 39.3746 13.9072C39.3671 13.9044 39.3602 13.9001 39.3545 13.8947C39.3487 13.8892 39.3441 13.8827 39.3409 13.8754C39.3378 13.8682 39.3362 13.8604 39.3362 13.8525C39.3362 13.8447 39.3378 13.8369 39.3409 13.8297C39.3441 13.8224 39.3487 13.8159 39.3545 13.8104C39.3602 13.805 39.3671 13.8007 39.3746 13.7979C39.3821 13.7951 39.3901 13.7938 39.3981 13.7941H40.6238C40.6319 13.7938 40.6399 13.7951 40.6474 13.7979C40.6549 13.8007 40.6617 13.805 40.6675 13.8104C40.6733 13.8159 40.6779 13.8224 40.681 13.8297C40.6842 13.8369 40.6858 13.8447 40.6858 13.8525C40.6858 13.8604 40.6842 13.8682 40.681 13.8754C40.6779 13.8827 40.6733 13.8892 40.6675 13.8947C40.6617 13.9001 40.6549 13.9044 40.6474 13.9072C40.6399 13.91 40.6319 13.9113 40.6238 13.911Z" fill="#292A2E"/>
<path d="M39.5485 20.2823H38.2031C38.195 20.2826 38.187 20.2813 38.1795 20.2785C38.172 20.2757 38.1652 20.2715 38.1594 20.266C38.1536 20.2605 38.149 20.254 38.1459 20.2468C38.1427 20.2395 38.1411 20.2317 38.1411 20.2239C38.1411 20.216 38.1427 20.2082 38.1459 20.201C38.149 20.1938 38.1536 20.1872 38.1594 20.1818C38.1652 20.1763 38.172 20.1721 38.1795 20.1693C38.187 20.1665 38.195 20.1652 38.2031 20.1654H39.5485C39.564 20.166 39.5786 20.1724 39.5893 20.1833C39.6001 20.1942 39.6061 20.2088 39.6061 20.2239C39.6061 20.239 39.6001 20.2536 39.5893 20.2645C39.5786 20.2754 39.564 20.2818 39.5485 20.2823Z" fill="#292A2E"/>
<path d="M40.6241 21.3444H39.3984C39.3825 21.3444 39.3673 21.3382 39.3561 21.3273C39.3449 21.3163 39.3386 21.3014 39.3386 21.2859C39.3386 21.2704 39.3449 21.2555 39.3561 21.2445C39.3673 21.2336 39.3825 21.2274 39.3984 21.2274H40.6241C40.6399 21.2274 40.6551 21.2336 40.6663 21.2445C40.6775 21.2555 40.6838 21.2704 40.6838 21.2859C40.6838 21.3014 40.6775 21.3163 40.6663 21.3273C40.6551 21.3382 40.6399 21.3444 40.6241 21.3444Z" fill="#292A2E"/>
<path d="M49.1665 14.9729H40.2343C40.2185 14.9729 40.2033 14.9668 40.1921 14.9558C40.1809 14.9448 40.1746 14.93 40.1746 14.9144C40.1746 14.8989 40.1809 14.8841 40.1921 14.8731C40.2033 14.8621 40.2185 14.856 40.2343 14.856H49.1665C49.1823 14.856 49.1975 14.8621 49.2087 14.8731C49.2199 14.8841 49.2262 14.8989 49.2262 14.9144C49.2262 14.93 49.2199 14.9448 49.2087 14.9558C49.1975 14.9668 49.1823 14.9729 49.1665 14.9729Z" fill="#292A2E"/>
<path d="M55.6286 14.9729H50.4597C50.4438 14.9729 50.4286 14.9668 50.4174 14.9558C50.4062 14.9448 50.3999 14.93 50.3999 14.9144C50.3999 14.8989 50.4062 14.8841 50.4174 14.8731C50.4286 14.8621 50.4438 14.856 50.4597 14.856H55.6286C55.6444 14.856 55.6596 14.8621 55.6708 14.8731C55.682 14.8841 55.6883 14.8989 55.6883 14.9144C55.6883 14.93 55.682 14.9448 55.6708 14.9558C55.6596 14.9668 55.6444 14.9729 55.6286 14.9729Z" fill="#0CBC8B"/>
<path d="M58.4024 14.9729H56.8183C56.8025 14.9729 56.7873 14.9668 56.776 14.9558C56.7648 14.9448 56.7585 14.93 56.7585 14.9144C56.7585 14.8989 56.7648 14.8841 56.776 14.8731C56.7873 14.8621 56.8025 14.856 56.8183 14.856H58.4026C58.4184 14.856 58.4336 14.8621 58.4449 14.8731C58.4561 14.8841 58.4624 14.8989 58.4624 14.9144C58.4624 14.93 58.4561 14.9448 58.4449 14.9558C58.4336 14.9668 58.4184 14.9729 58.4026 14.9729H58.4024Z" fill="#292A2E"/>
<path d="M52.7507 17.0967H40.2343C40.2263 17.097 40.2183 17.0957 40.2108 17.0928C40.2033 17.09 40.1964 17.0858 40.1906 17.0803C40.1849 17.0749 40.1803 17.0683 40.1771 17.0611C40.174 17.0539 40.1724 17.0461 40.1724 17.0382C40.1724 17.0304 40.174 17.0226 40.1771 17.0153C40.1803 17.0081 40.1849 17.0016 40.1906 16.9961C40.1964 16.9907 40.2033 16.9864 40.2108 16.9836C40.2183 16.9808 40.2263 16.9795 40.2343 16.9798H52.7507C52.7588 16.9795 52.7668 16.9808 52.7743 16.9836C52.7818 16.9864 52.7886 16.9907 52.7944 16.9961C52.8002 17.0016 52.8048 17.0081 52.8079 17.0153C52.8111 17.0226 52.8127 17.0304 52.8127 17.0382C52.8127 17.0461 52.8111 17.0539 52.8079 17.0611C52.8048 17.0683 52.8002 17.0749 52.7944 17.0803C52.7886 17.0858 52.7818 17.09 52.7743 17.0928C52.7668 17.0957 52.7588 17.097 52.7507 17.0967Z" fill="#292A2E"/>
<path d="M55.6286 17.0967H54.0444C54.0363 17.097 54.0283 17.0957 54.0208 17.0928C54.0133 17.09 54.0065 17.0858 54.0007 17.0803C53.9949 17.0749 53.9903 17.0683 53.9872 17.0611C53.984 17.0539 53.9824 17.0461 53.9824 17.0382C53.9824 17.0304 53.984 17.0226 53.9872 17.0153C53.9903 17.0081 53.9949 17.0016 54.0007 16.9961C54.0065 16.9907 54.0133 16.9864 54.0208 16.9836C54.0283 16.9808 54.0363 16.9795 54.0444 16.9798H55.6287C55.6368 16.9795 55.6448 16.9808 55.6523 16.9836C55.6598 16.9864 55.6666 16.9907 55.6724 16.9961C55.6782 17.0016 55.6828 17.0081 55.6859 17.0153C55.6891 17.0226 55.6907 17.0304 55.6907 17.0382C55.6907 17.0461 55.6891 17.0539 55.6859 17.0611C55.6828 17.0683 55.6782 17.0749 55.6724 17.0803C55.6666 17.0858 55.6598 17.09 55.6523 17.0928C55.6448 17.0957 55.6368 17.097 55.6287 17.0967H55.6286Z" fill="#367CFF"/>
<path d="M41.5798 16.0348H40.2343C40.2185 16.0348 40.2033 16.0287 40.1921 16.0177C40.1809 16.0067 40.1746 15.9918 40.1746 15.9763C40.1746 15.9608 40.1809 15.9459 40.1921 15.935C40.2033 15.924 40.2185 15.9178 40.2343 15.9178H41.5798C41.5956 15.9178 41.6108 15.924 41.622 15.935C41.6332 15.9459 41.6395 15.9608 41.6395 15.9763C41.6395 15.9918 41.6332 16.0067 41.622 16.0177C41.6108 16.0287 41.5956 16.0348 41.5798 16.0348Z" fill="#0CBC8B"/>
<path d="M52.0444 16.0348H42.873C42.8571 16.0348 42.8419 16.0287 42.8307 16.0177C42.8195 16.0067 42.8132 15.9918 42.8132 15.9763C42.8132 15.9608 42.8195 15.9459 42.8307 15.935C42.8419 15.924 42.8571 15.9178 42.873 15.9178H52.0444C52.0602 15.9178 52.0754 15.924 52.0866 15.935C52.0978 15.9459 52.1041 15.9608 52.1041 15.9763C52.1041 15.9918 52.0978 16.0067 52.0866 16.0177C52.0754 16.0287 52.0602 16.0348 52.0444 16.0348Z" fill="#367CFF"/>
<path d="M58.4128 16.0348H53.4831C53.4672 16.0348 53.452 16.0287 53.4408 16.0177C53.4296 16.0067 53.4233 15.9918 53.4233 15.9763C53.4233 15.9608 53.4296 15.9459 53.4408 15.935C53.452 15.924 53.4672 15.9178 53.4831 15.9178H58.4128C58.4287 15.9178 58.4439 15.924 58.4551 15.935C58.4663 15.9459 58.4726 15.9608 58.4726 15.9763C58.4726 15.9918 58.4663 16.0067 58.4551 16.0177C58.4439 16.0287 58.4287 16.0348 58.4128 16.0348Z" fill="#292A2E"/>
<path d="M49.1665 18.1582H40.2343C40.2185 18.1582 40.2033 18.1521 40.1921 18.1411C40.1809 18.1301 40.1746 18.1153 40.1746 18.0997C40.1746 18.0842 40.1809 18.0694 40.1921 18.0584C40.2033 18.0474 40.2185 18.0413 40.2343 18.0413H49.1665C49.1823 18.0413 49.1975 18.0474 49.2087 18.0584C49.2199 18.0694 49.2262 18.0842 49.2262 18.0997C49.2262 18.1153 49.2199 18.1301 49.2087 18.1411C49.1975 18.1521 49.1823 18.1582 49.1665 18.1582Z" fill="#292A2E"/>
<path d="M53.2389 18.1582H50.4597C50.4438 18.1582 50.4286 18.1521 50.4174 18.1411C50.4062 18.1301 50.3999 18.1153 50.3999 18.0997C50.3999 18.0842 50.4062 18.0694 50.4174 18.0584C50.4286 18.0474 50.4438 18.0413 50.4597 18.0413H53.2389C53.2547 18.0413 53.2699 18.0474 53.2811 18.0584C53.2923 18.0694 53.2986 18.0842 53.2986 18.0997C53.2986 18.1153 53.2923 18.1301 53.2811 18.1411C53.2699 18.1521 53.2547 18.1582 53.2389 18.1582Z" fill="#0CBC8B"/>
<path d="M58.4026 18.1582H54.4287C54.4128 18.1582 54.3976 18.1521 54.3864 18.1411C54.3752 18.1301 54.3689 18.1153 54.3689 18.0997C54.3689 18.0842 54.3752 18.0694 54.3864 18.0584C54.3976 18.0474 54.4128 18.0413 54.4287 18.0413H58.4026C58.4184 18.0413 58.4336 18.0474 58.4448 18.0584C58.456 18.0694 58.4623 18.0842 58.4623 18.0997C58.4623 18.1153 58.456 18.1301 58.4448 18.1411C58.4336 18.1521 58.4184 18.1582 58.4026 18.1582Z" fill="#292A2E"/>
<path d="M41.5798 19.2205H40.2343C40.2185 19.2205 40.2033 19.2143 40.1921 19.2034C40.1809 19.1924 40.1746 19.1775 40.1746 19.162C40.1746 19.1465 40.1809 19.1316 40.1921 19.1206C40.2033 19.1097 40.2185 19.1035 40.2343 19.1035H41.5798C41.5956 19.1035 41.6108 19.1097 41.622 19.1206C41.6332 19.1316 41.6395 19.1465 41.6395 19.162C41.6395 19.1775 41.6332 19.1924 41.622 19.2034C41.6108 19.2143 41.5956 19.2205 41.5798 19.2205Z" fill="#367CFF"/>
<path d="M52.0444 19.2205H42.873C42.8571 19.2205 42.8419 19.2143 42.8307 19.2034C42.8195 19.1924 42.8132 19.1775 42.8132 19.162C42.8132 19.1465 42.8195 19.1316 42.8307 19.1206C42.8419 19.1097 42.8571 19.1035 42.873 19.1035H52.0444C52.0602 19.1035 52.0754 19.1097 52.0866 19.1206C52.0978 19.1316 52.1041 19.1465 52.1041 19.162C52.1041 19.1775 52.0978 19.1924 52.0866 19.2034C52.0754 19.2143 52.0602 19.2205 52.0444 19.2205Z" fill="#0CBC8B"/>
<path d="M48.9274 23.468H39.9953C39.9795 23.468 39.9643 23.4619 39.953 23.4509C39.9418 23.4399 39.9355 23.4251 39.9355 23.4096C39.9355 23.394 39.9418 23.3792 39.953 23.3682C39.9643 23.3572 39.9795 23.3511 39.9953 23.3511H48.9274C48.9432 23.3511 48.9584 23.3572 48.9696 23.3682C48.9808 23.3792 48.9871 23.394 48.9871 23.4096C48.9871 23.4251 48.9808 23.4399 48.9696 23.4509C48.9584 23.4619 48.9432 23.468 48.9274 23.468Z" fill="#292A2E"/>
<path d="M55.3895 23.468H50.2206C50.2048 23.468 50.1896 23.4619 50.1784 23.4509C50.1672 23.4399 50.1609 23.4251 50.1609 23.4096C50.1609 23.394 50.1672 23.3792 50.1784 23.3682C50.1896 23.3572 50.2048 23.3511 50.2206 23.3511H55.3895C55.4054 23.3511 55.4206 23.3572 55.4318 23.3682C55.443 23.3792 55.4493 23.394 55.4493 23.4096C55.4493 23.4251 55.443 23.4399 55.4318 23.4509C55.4206 23.4619 55.4054 23.468 55.3895 23.468Z" fill="#367CFF"/>
<path d="M43.7307 22.4062H39.9953C39.9795 22.4062 39.9643 22.4 39.953 22.389C39.9418 22.3781 39.9355 22.3632 39.9355 22.3477C39.9355 22.3322 39.9418 22.3173 39.953 22.3063C39.9643 22.2953 39.9795 22.2892 39.9953 22.2892H43.7307C43.7466 22.2892 43.7618 22.2953 43.773 22.3063C43.7842 22.3173 43.7905 22.3322 43.7905 22.3477C43.7905 22.3632 43.7842 22.3781 43.773 22.389C43.7618 22.4 43.7466 22.4062 43.7307 22.4062Z" fill="#0CBC8B"/>
<path d="M51.8053 22.4062H45.0236C45.0078 22.4062 44.9926 22.4 44.9814 22.389C44.9702 22.3781 44.9639 22.3632 44.9639 22.3477C44.9639 22.3322 44.9702 22.3173 44.9814 22.3063C44.9926 22.2953 45.0078 22.2892 45.0236 22.2892H51.8053C51.8211 22.2892 51.8363 22.2953 51.8475 22.3063C51.8588 22.3173 51.8651 22.3322 51.8651 22.3477C51.8651 22.3632 51.8588 22.3781 51.8475 22.389C51.8363 22.4 51.8211 22.4062 51.8053 22.4062Z" fill="#367CFF"/>
<path d="M58.1738 22.4062H53.2441C53.2282 22.4062 53.213 22.4 53.2018 22.389C53.1906 22.3781 53.1843 22.3632 53.1843 22.3477C53.1843 22.3322 53.1906 22.3173 53.2018 22.3063C53.213 22.2953 53.2282 22.2892 53.2441 22.2892H58.1738C58.1897 22.2892 58.2049 22.2953 58.2161 22.3063C58.2273 22.3173 58.2336 22.3322 58.2336 22.3477C58.2336 22.3632 58.2273 22.3781 58.2161 22.389C58.2049 22.4 58.1897 22.4062 58.1738 22.4062Z" fill="#292A2E"/>
<path d="M52.5117 25.5917H39.9953C39.9795 25.5917 39.9643 25.5855 39.953 25.5746C39.9418 25.5636 39.9355 25.5487 39.9355 25.5332C39.9355 25.5177 39.9418 25.5028 39.953 25.4919C39.9643 25.4809 39.9795 25.4747 39.9953 25.4747H52.5117C52.5276 25.4747 52.5428 25.4809 52.554 25.4919C52.5652 25.5028 52.5715 25.5177 52.5715 25.5332C52.5715 25.5487 52.5652 25.5636 52.554 25.5746C52.5428 25.5855 52.5276 25.5917 52.5117 25.5917Z" fill="#367CFF"/>
<path d="M56.1961 25.5917H53.8054C53.7895 25.5917 53.7743 25.5855 53.7631 25.5746C53.7519 25.5636 53.7456 25.5487 53.7456 25.5332C53.7456 25.5177 53.7519 25.5028 53.7631 25.4919C53.7743 25.4809 53.7895 25.4747 53.8054 25.4747H56.1961C56.212 25.4747 56.2272 25.4809 56.2384 25.4919C56.2496 25.5028 56.2559 25.5177 56.2559 25.5332C56.2559 25.5487 56.2496 25.5636 56.2384 25.5746C56.2272 25.5855 56.212 25.5917 56.1961 25.5917Z" fill="#292A2E"/>
<path d="M41.3407 24.5299H39.9953C39.9873 24.5302 39.9793 24.5289 39.9718 24.5261C39.9643 24.5233 39.9574 24.519 39.9516 24.5136C39.9459 24.5081 39.9413 24.5016 39.9381 24.4943C39.935 24.4871 39.9333 24.4793 39.9333 24.4714C39.9333 24.4636 39.935 24.4558 39.9381 24.4486C39.9413 24.4413 39.9459 24.4348 39.9516 24.4293C39.9574 24.4239 39.9643 24.4196 39.9718 24.4168C39.9793 24.414 39.9873 24.4127 39.9953 24.413H41.3407C41.3487 24.4127 41.3567 24.414 41.3642 24.4168C41.3717 24.4196 41.3785 24.4239 41.3843 24.4293C41.3901 24.4348 41.3947 24.4413 41.3979 24.4486C41.401 24.4558 41.4026 24.4636 41.4026 24.4714C41.4026 24.4793 41.401 24.4871 41.3979 24.4943C41.3947 24.5016 41.3901 24.5081 41.3843 24.5136C41.3785 24.519 41.3717 24.5233 41.3642 24.5261C41.3567 24.5289 41.3487 24.5302 41.3407 24.5299Z" fill="#367CFF"/>
<path d="M51.8052 24.5299H42.634C42.6259 24.5302 42.6179 24.5289 42.6104 24.5261C42.6029 24.5233 42.5961 24.519 42.5903 24.5136C42.5845 24.5081 42.5799 24.5016 42.5768 24.4943C42.5736 24.4871 42.572 24.4793 42.572 24.4714C42.572 24.4636 42.5736 24.4558 42.5768 24.4486C42.5799 24.4413 42.5845 24.4348 42.5903 24.4293C42.5961 24.4239 42.6029 24.4196 42.6104 24.4168C42.6179 24.414 42.6259 24.4127 42.634 24.413H51.8052C51.8132 24.4127 51.8212 24.414 51.8287 24.4168C51.8362 24.4196 51.8431 24.4239 51.8489 24.4293C51.8546 24.4348 51.8592 24.4413 51.8624 24.4486C51.8655 24.4558 51.8671 24.4636 51.8671 24.4714C51.8671 24.4793 51.8655 24.4871 51.8624 24.4943C51.8592 24.5016 51.8546 24.5081 51.8489 24.5136C51.8431 24.519 51.8362 24.5233 51.8287 24.5261C51.8212 24.5289 51.8132 24.5302 51.8052 24.5299Z" fill="#292A2E"/>
<path d="M58.1738 24.5299H53.2441C53.2361 24.5302 53.2281 24.5289 53.2205 24.5261C53.213 24.5233 53.2062 24.519 53.2004 24.5136C53.1946 24.5081 53.19 24.5016 53.1869 24.4943C53.1838 24.4871 53.1821 24.4793 53.1821 24.4714C53.1821 24.4636 53.1838 24.4558 53.1869 24.4486C53.19 24.4413 53.1946 24.4348 53.2004 24.4293C53.2062 24.4239 53.213 24.4196 53.2205 24.4168C53.2281 24.414 53.2361 24.4127 53.2441 24.413H58.1738C58.1818 24.4127 58.1898 24.414 58.1973 24.4168C58.2048 24.4196 58.2117 24.4239 58.2175 24.4293C58.2233 24.4348 58.2279 24.4413 58.231 24.4486C58.2341 24.4558 58.2358 24.4636 58.2358 24.4714C58.2358 24.4793 58.2341 24.4871 58.231 24.4943C58.2279 24.5016 58.2233 24.5081 58.2175 24.5136C58.2117 24.519 58.2048 24.5233 58.1973 24.5261C58.1898 24.5289 58.1818 24.5302 58.1738 24.5299Z" fill="#0CBC8B"/>
<path d="M48.9274 26.6537H39.9953C39.9795 26.6537 39.9643 26.6475 39.953 26.6366C39.9418 26.6256 39.9355 26.6107 39.9355 26.5952C39.9355 26.5797 39.9418 26.5648 39.953 26.5539C39.9643 26.5429 39.9795 26.5367 39.9953 26.5367H48.9274C48.9432 26.5367 48.9584 26.5429 48.9696 26.5539C48.9808 26.5648 48.9871 26.5797 48.9871 26.5952C48.9871 26.6107 48.9808 26.6256 48.9696 26.6366C48.9584 26.6475 48.9432 26.6537 48.9274 26.6537Z" fill="#0CBC8B"/>
<path d="M53.0001 26.6537H50.2209C50.205 26.6537 50.1898 26.6475 50.1786 26.6366C50.1674 26.6256 50.1611 26.6107 50.1611 26.5952C50.1611 26.5797 50.1674 26.5648 50.1786 26.5539C50.1898 26.5429 50.205 26.5367 50.2209 26.5367H53.0001C53.0159 26.5367 53.0311 26.5429 53.0423 26.5539C53.0535 26.5648 53.0598 26.5797 53.0598 26.5952C53.0598 26.6107 53.0535 26.6256 53.0423 26.6366C53.0311 26.6475 53.0159 26.6537 53.0001 26.6537Z" fill="#292A2E"/>
<path d="M58.1634 26.6537H54.1894C54.1735 26.6537 54.1583 26.6475 54.1471 26.6366C54.1359 26.6256 54.1296 26.6107 54.1296 26.5952C54.1296 26.5797 54.1359 26.5648 54.1471 26.5539C54.1583 26.5429 54.1735 26.5367 54.1894 26.5367H58.1633C58.1792 26.5367 58.1944 26.5429 58.2056 26.5539C58.2168 26.5648 58.2231 26.5797 58.2231 26.5952C58.2231 26.6107 58.2168 26.6256 58.2056 26.6366C58.1944 26.6475 58.1792 26.6537 58.1633 26.6537H58.1634Z" fill="#367CFF"/>
<path d="M35.9146 27.2343C35.9067 27.2343 35.8989 27.2328 35.8917 27.2298C35.8844 27.2269 35.8778 27.2225 35.8723 27.2171C35.8667 27.2116 35.8623 27.2051 35.8593 27.198C35.8563 27.1909 35.8547 27.1832 35.8547 27.1755V10.9963C35.8547 10.9806 35.861 10.9657 35.8723 10.9546C35.8835 10.9436 35.8987 10.9374 35.9146 10.9374C35.9304 10.9374 35.9456 10.9436 35.9568 10.9546C35.9681 10.9657 35.9744 10.9806 35.9744 10.9963V27.1755C35.9744 27.1832 35.9728 27.1909 35.9698 27.198C35.9668 27.2051 35.9624 27.2116 35.9568 27.2171C35.9513 27.2225 35.9447 27.2269 35.9374 27.2298C35.9302 27.2328 35.9224 27.2343 35.9146 27.2343Z" fill="#292A2E"/>
<path d="M33.1823 11.7309H30.5949C30.5791 11.7309 30.5639 11.7247 30.5527 11.7137C30.5415 11.7028 30.5352 11.6879 30.5352 11.6724C30.5352 11.6569 30.5415 11.642 30.5527 11.631C30.5639 11.6201 30.5791 11.6139 30.5949 11.6139H33.1819C33.1978 11.6139 33.213 11.6201 33.2242 11.631C33.2354 11.642 33.2417 11.6569 33.2417 11.6724C33.2417 11.6879 33.2354 11.7028 33.2242 11.7137C33.213 11.7247 33.1978 11.7309 33.1819 11.7309H33.1823Z" fill="#292A2E"/>
<path d="M32.4027 12.8918H30.5947C30.5866 12.8921 30.5786 12.8908 30.5711 12.888C30.5636 12.8852 30.5568 12.8809 30.551 12.8755C30.5452 12.87 30.5406 12.8635 30.5375 12.8563C30.5343 12.849 30.5327 12.8412 30.5327 12.8334C30.5327 12.8255 30.5343 12.8177 30.5375 12.8105C30.5406 12.8033 30.5452 12.7967 30.551 12.7913C30.5568 12.7858 30.5636 12.7816 30.5711 12.7788C30.5786 12.776 30.5866 12.7747 30.5947 12.7749H32.4024C32.4179 12.7755 32.4325 12.7819 32.4432 12.7928C32.454 12.8037 32.46 12.8182 32.46 12.8334C32.46 12.8485 32.454 12.8631 32.4432 12.874C32.4325 12.8849 32.4179 12.8913 32.4024 12.8918H32.4027Z" fill="#292A2E"/>
<path d="M33.9924 14.0528H30.5947C30.5788 14.0528 30.5636 14.0466 30.5524 14.0356C30.5412 14.0247 30.5349 14.0098 30.5349 13.9943C30.5349 13.9788 30.5412 13.9639 30.5524 13.9529C30.5636 13.942 30.5788 13.9358 30.5947 13.9358H33.992C34.0079 13.9358 34.0231 13.942 34.0343 13.9529C34.0455 13.9639 34.0518 13.9788 34.0518 13.9943C34.0518 14.0098 34.0455 14.0247 34.0343 14.0356C34.0231 14.0466 34.0079 14.0528 33.992 14.0528H33.9924Z" fill="#292A2E"/>
<path d="M34.6263 15.2139H31.79C31.7819 15.2141 31.7739 15.2128 31.7664 15.21C31.7589 15.2072 31.7521 15.203 31.7463 15.1975C31.7405 15.1921 31.7359 15.1855 31.7328 15.1783C31.7296 15.171 31.728 15.1633 31.728 15.1554C31.728 15.1475 31.7296 15.1398 31.7328 15.1325C31.7359 15.1253 31.7405 15.1188 31.7463 15.1133C31.7521 15.1078 31.7589 15.1036 31.7664 15.1008C31.7739 15.098 31.7819 15.0967 31.79 15.097H34.6263C34.6343 15.0967 34.6423 15.098 34.6498 15.1008C34.6573 15.1036 34.6641 15.1078 34.6699 15.1133C34.6757 15.1188 34.6803 15.1253 34.6835 15.1325C34.6866 15.1398 34.6882 15.1475 34.6882 15.1554C34.6882 15.1633 34.6866 15.171 34.6835 15.1783C34.6803 15.1855 34.6757 15.1921 34.6699 15.1975C34.6641 15.203 34.6573 15.2072 34.6498 15.21C34.6423 15.2128 34.6343 15.2141 34.6263 15.2139Z" fill="#292A2E"/>
<path d="M33.2549 16.3749H31.79C31.7741 16.3749 31.7589 16.3687 31.7477 16.3578C31.7365 16.3468 31.7302 16.3319 31.7302 16.3164C31.7302 16.3009 31.7365 16.286 31.7477 16.2751C31.7589 16.2641 31.7741 16.2579 31.79 16.2579H33.2549C33.2707 16.2579 33.2859 16.2641 33.2971 16.2751C33.3083 16.286 33.3146 16.3009 33.3146 16.3164C33.3146 16.3319 33.3083 16.3468 33.2971 16.3578C33.2859 16.3687 33.2707 16.3749 33.2549 16.3749Z" fill="#292A2E"/>
<path d="M34.3768 17.5359H31.79C31.7741 17.5359 31.7589 17.5297 31.7477 17.5188C31.7365 17.5078 31.7302 17.4929 31.7302 17.4774C31.7302 17.4619 31.7365 17.447 31.7477 17.4361C31.7589 17.4251 31.7741 17.4189 31.79 17.4189H34.3768C34.3926 17.4189 34.4078 17.4251 34.419 17.4361C34.4302 17.447 34.4365 17.4619 34.4365 17.4774C34.4365 17.4929 34.4302 17.5078 34.419 17.5188C34.4078 17.5297 34.3926 17.5359 34.3768 17.5359Z" fill="#292A2E"/>
<path d="M32.5897 18.697H30.5947C30.5788 18.697 30.5636 18.6909 30.5524 18.6799C30.5412 18.6689 30.5349 18.6541 30.5349 18.6386C30.5349 18.6231 30.5412 18.6082 30.5524 18.5972C30.5636 18.5862 30.5788 18.5801 30.5947 18.5801H32.5894C32.6053 18.5801 32.6205 18.5862 32.6317 18.5972C32.6429 18.6082 32.6492 18.6231 32.6492 18.6386C32.6492 18.6541 32.6429 18.6689 32.6317 18.6799C32.6205 18.6909 32.6053 18.697 32.5894 18.697H32.5897Z" fill="#292A2E"/>
<path d="M31.904 19.8581H30.5947C30.5788 19.8581 30.5636 19.8519 30.5524 19.8409C30.5412 19.83 30.5349 19.8151 30.5349 19.7996C30.5349 19.7841 30.5412 19.7692 30.5524 19.7582C30.5636 19.7472 30.5788 19.7411 30.5947 19.7411H31.9037C31.9195 19.7411 31.9347 19.7472 31.9459 19.7582C31.9571 19.7692 31.9634 19.7841 31.9634 19.7996C31.9634 19.8151 31.9571 19.83 31.9459 19.8409C31.9347 19.8519 31.9195 19.8581 31.9037 19.8581H31.904Z" fill="#292A2E"/>
<path d="M37.1516 11.4822V11.5034L37.8984 11.7762C37.909 11.7805 37.9181 11.7879 37.9245 11.7973C37.9309 11.8067 37.9343 11.8179 37.9342 11.8292V11.8492C37.9343 11.8581 37.9322 11.8668 37.9279 11.8746C37.9237 11.8824 37.9175 11.8891 37.91 11.8939C37.9024 11.8991 37.8936 11.9024 37.8844 11.9034C37.8753 11.9045 37.8659 11.9032 37.8574 11.8998L37.0139 11.5751C37.0034 11.571 36.9943 11.5638 36.9879 11.5546C36.9815 11.5454 36.9781 11.5345 36.978 11.5234V11.4634C36.9779 11.4522 36.9813 11.4413 36.9877 11.432C36.9942 11.4228 37.0033 11.4157 37.0139 11.4117L37.8574 11.0862C37.8643 11.0839 37.8715 11.0827 37.8788 11.0826C37.8899 11.0829 37.9007 11.0862 37.91 11.0921C37.9176 11.0971 37.9238 11.104 37.928 11.112C37.9322 11.12 37.9343 11.1289 37.9342 11.138V11.1579C37.9344 11.1691 37.9311 11.1801 37.9247 11.1894C37.9183 11.1987 37.9091 11.2058 37.8984 11.2096L37.1516 11.4822Z" fill="#367CFF"/>
<path d="M38.6325 10.8457L38.1852 12.1936C38.1816 12.2049 38.1744 12.2147 38.1648 12.2217C38.1551 12.2287 38.1434 12.2325 38.1314 12.2325C38.1227 12.2326 38.1141 12.2306 38.1064 12.2267C38.0987 12.2228 38.092 12.2171 38.0871 12.2101C38.0817 12.2031 38.0781 12.195 38.0765 12.1864C38.0748 12.1779 38.0752 12.169 38.0775 12.1606L38.5248 10.8139C38.5287 10.8025 38.5361 10.7925 38.546 10.7854C38.5558 10.7783 38.5677 10.7744 38.5799 10.7742C38.5886 10.7742 38.5971 10.7762 38.6048 10.7801C38.6125 10.784 38.6191 10.7896 38.6241 10.7966C38.6294 10.8035 38.633 10.8116 38.6344 10.8201C38.6359 10.8287 38.6352 10.8374 38.6325 10.8457Z" fill="#367CFF"/>
<path d="M39.7293 11.4634V11.5233C39.7294 11.5344 39.7262 11.5452 39.7201 11.5544C39.7139 11.5637 39.705 11.5709 39.6947 11.5751L38.8499 11.8997C38.8415 11.9031 38.8324 11.9044 38.8234 11.9033C38.8144 11.9023 38.8059 11.899 38.7985 11.8938C38.7909 11.889 38.7846 11.8824 38.7802 11.8746C38.7758 11.8668 38.7735 11.8581 38.7735 11.8492V11.8291C38.7733 11.8176 38.7768 11.8063 38.7834 11.7969C38.7901 11.7874 38.7995 11.7802 38.8105 11.7762L39.5573 11.5034V11.4822L38.8105 11.2093C38.7995 11.2057 38.79 11.1987 38.7833 11.1894C38.7767 11.1801 38.7732 11.1689 38.7735 11.1575V11.1376C38.7735 11.1285 38.7758 11.1196 38.7802 11.1116C38.7846 11.1036 38.7909 11.0968 38.7985 11.0917C38.8078 11.0858 38.8185 11.0825 38.8296 11.0823C38.8365 11.0822 38.8434 11.0834 38.8499 11.0859L39.6947 11.4113C39.7052 11.4154 39.7142 11.4226 39.7203 11.4319C39.7265 11.4413 39.7297 11.4522 39.7293 11.4634Z" fill="#367CFF"/>
<path d="M9.04348 49.0486C8.55633 49.0485 8.07641 48.9325 7.64456 48.7103C7.21271 48.4882 6.84172 48.1666 6.56316 47.7728C6.2846 47.379 6.10672 46.9247 6.04466 46.4486C5.9826 45.9726 6.03819 45.4887 6.20671 45.0384C6.37774 44.5811 10.7648 33.4228 11.5288 31.4835L16.8082 34.5107C16.3789 35.6011 14.8231 39.7344 13.5732 43.064L15.6497 42.8416L16.3029 48.289L9.37063 49.0312C9.26198 49.0428 9.15277 49.0486 9.04348 49.0486Z" fill="#367CFF"/>
<path d="M26.3119 29.1635C26.2934 29.1611 25.7854 31.0449 21.8204 30.7517C19.0755 30.5491 18.4062 28.7082 18.3433 28.7082C18.6392 28.6462 19.1198 28.5819 19.2512 28.5127C19.6835 28.2839 19.9983 28.0053 20.1568 27.4075C20.2808 26.94 20.3439 25.1402 20.3439 24.2373L24.5677 25.1725C24.5089 26.1911 24.0968 28.5525 25.541 28.9704C25.7813 29.0391 26.0402 29.1027 26.3119 29.1635Z" fill="#E98862"/>
<path d="M24.4214 27.1746C22.7563 27.3041 20.6173 26.6113 20.211 24.4224L19.8444 22.4473C19.438 20.2583 20.2756 18.2736 22.3673 17.8966C24.459 17.5197 26.3519 19.0124 26.7581 21.2014L26.9205 22.0758C27.0763 22.9157 27.3924 26.9437 24.4214 27.1746Z" fill="#E98862"/>
<path d="M16.5395 29.0107C15.0432 29.1201 13.5174 29.2798 12.4164 30.2841C11.0904 31.4937 10.8501 32.981 11.6961 37.074C12.4239 40.5958 12.1351 42.1348 12.6221 48.6335C12.6365 48.8249 12.6672 49.2209 12.6672 49.2209L28.6739 49.1947C28.6739 49.1947 30.1738 40.5726 31.0018 36.5959C31.6315 33.5726 33.2856 29.9024 26.3116 29.1627C26.2935 29.1607 20.7005 28.7066 16.5395 29.0107Z" fill="#367CFF"/>
<path d="M12.6681 49.2607C12.6576 49.2607 12.6476 49.2568 12.6401 49.2496C12.6325 49.2425 12.6281 49.2328 12.6277 49.2225L12.1255 36.3927C12.1253 36.3875 12.1262 36.3822 12.128 36.3774C12.1298 36.3725 12.1326 36.368 12.1362 36.3641C12.1399 36.3603 12.1442 36.3572 12.149 36.355C12.1538 36.3529 12.159 36.3516 12.1643 36.3514C12.1697 36.351 12.1751 36.3517 12.1801 36.3534C12.1852 36.3552 12.1899 36.3579 12.1938 36.3615C12.1977 36.3651 12.2009 36.3695 12.203 36.3743C12.2052 36.3791 12.2063 36.3844 12.2062 36.3897L12.7084 49.2195C12.7088 49.23 12.705 49.2403 12.6977 49.248C12.6904 49.2557 12.6803 49.2603 12.6696 49.2606L12.6681 49.2607Z" fill="#0C0C0C"/>
<path d="M38.3521 33.5916L39.4767 31.106C39.5014 31.0514 39.5373 31.0024 39.5823 30.9623C39.6273 30.9221 39.6802 30.8916 39.7378 30.8728C39.7954 30.8539 39.8563 30.847 39.9167 30.8526C39.9771 30.8582 40.0357 30.8761 40.0887 30.9052C40.1849 30.962 40.2563 31.0519 40.2891 31.1577C40.3218 31.2634 40.3134 31.3773 40.2657 31.4773L40.0246 32.0103L41.5637 30.6772C41.7321 30.5262 42.037 30.4468 42.1967 30.6441C42.2631 30.7161 42.3029 30.8082 42.3094 30.9054C42.3159 31.0025 42.2888 31.0989 42.2325 31.1789C42.2344 31.1801 42.2361 31.1815 42.2376 31.1831C42.2386 31.1844 42.2395 31.1859 42.2402 31.1874L42.5 30.9543C42.5482 30.9112 42.6055 30.8792 42.6678 30.8606C42.7301 30.8421 42.7958 30.8374 42.8601 30.8471C42.9245 30.8567 42.9858 30.8804 43.0397 30.9163C43.0936 30.9523 43.1386 30.9996 43.1716 31.0549C43.2217 31.143 43.2396 31.2454 43.2223 31.345C43.205 31.4445 43.1535 31.5352 43.0764 31.6018L42.9659 31.701C42.9673 31.7055 42.9679 31.7102 42.9676 31.7149C43.0581 31.6649 43.1637 31.6484 43.2655 31.6681C43.3672 31.6878 43.4585 31.7426 43.5231 31.8225C43.5911 31.9121 43.6223 32.0236 43.6106 32.1349C43.5988 32.2461 43.5449 32.3489 43.4596 32.4227L43.185 32.669C43.1914 32.6682 43.1979 32.6689 43.2039 32.6711C43.2099 32.6733 43.2154 32.6768 43.2197 32.6815C43.2246 32.6872 43.2277 32.6943 43.2286 32.7018C43.3217 32.6793 43.4197 32.6877 43.5075 32.7255C43.5954 32.7633 43.6682 32.8285 43.7148 32.911C43.7619 32.9987 43.7776 33.0996 43.7593 33.1972C43.741 33.2948 43.6898 33.3834 43.614 33.4488L41.2969 35.5274C40.9727 35.8182 40.5678 36.0069 40.134 36.0695C39.7003 36.1321 39.2574 36.0655 38.8623 35.8785C38.5215 35.7172 38.258 35.4314 38.1278 35.0818C37.9975 34.7322 38.0107 34.3462 38.1647 34.0061L38.3521 33.5916Z" fill="#E98862"/>
<g opacity="0.2">
<path d="M40.7156 32.5057C40.7228 32.5133 40.7327 32.5179 40.7433 32.5185C40.7538 32.519 40.7642 32.5154 40.7721 32.5085L42.2341 31.2389C42.2422 31.2319 42.247 31.2221 42.2477 31.2116C42.2484 31.2011 42.2448 31.1907 42.2377 31.1828C42.2306 31.1749 42.2207 31.1701 42.21 31.1694C42.1993 31.1687 42.1888 31.1723 42.1807 31.1792L40.7188 32.4488C40.7148 32.4523 40.7115 32.4565 40.7092 32.4612C40.7069 32.4658 40.7055 32.4709 40.7052 32.4762C40.7048 32.4814 40.7055 32.4866 40.7072 32.4915C40.709 32.4965 40.7116 32.501 40.7151 32.5049L40.7156 32.5057Z" fill="#0C0C0C"/>
</g>
<g opacity="0.2">
<path d="M41.266 33.1564C41.2731 33.164 41.283 33.1686 41.2936 33.1692C41.3041 33.1697 41.3145 33.1661 41.3224 33.1592L42.954 31.7424C42.958 31.7389 42.9613 31.7348 42.9636 31.7301C42.9659 31.7254 42.9673 31.7203 42.9676 31.7151C42.9679 31.7099 42.9672 31.7046 42.9655 31.6997C42.9638 31.6948 42.9611 31.6902 42.9576 31.6863C42.9503 31.6787 42.9404 31.6741 42.9298 31.6734C42.9193 31.6728 42.9088 31.6761 42.9007 31.6827L41.269 33.0996C41.265 33.1031 41.2618 33.1073 41.2595 33.112C41.2571 33.1167 41.2558 33.1217 41.2554 33.127C41.2551 33.1322 41.2558 33.1374 41.2576 33.1423C41.2593 33.1473 41.262 33.1518 41.2655 33.1557L41.266 33.1564Z" fill="#0C0C0C"/>
</g>
<g opacity="0.2">
<path d="M41.8582 33.8646C41.8654 33.8723 41.8753 33.8769 41.8859 33.8774C41.8964 33.878 41.9068 33.8744 41.9147 33.8675L43.2162 32.7373C43.2242 32.7303 43.2291 32.7205 43.2298 32.7099C43.2304 32.6994 43.2268 32.6891 43.2197 32.6812C43.2127 32.6733 43.2027 32.6685 43.192 32.6678C43.1813 32.6671 43.1708 32.6707 43.1628 32.6777L41.8613 33.8079C41.8573 33.8114 41.8541 33.8155 41.8518 33.8202C41.8494 33.8249 41.8481 33.83 41.8477 33.8352C41.8474 33.8404 41.8481 33.8457 41.8498 33.8506C41.8516 33.8555 41.8543 33.8601 41.8578 33.864L41.8582 33.8646Z" fill="#0C0C0C"/>
</g>
<path d="M25.9651 24.9312C25.6783 23.5115 25.5468 22.5643 25.5619 21.5651C25.9657 20.867 25.8596 20.0659 25.7677 19.7196C25.8835 19.7846 26.0046 19.8398 26.1297 19.8847C26.1879 19.9047 26.2507 19.9078 26.3107 19.8938C26.3706 19.8798 26.4253 19.8493 26.4682 19.8057C26.5112 19.7622 26.5406 19.7074 26.553 19.648C26.5655 19.5885 26.5605 19.5268 26.5386 19.47C26.226 18.6726 25.4226 17.1231 23.7641 16.6039C23.3467 16.4438 22.2804 16.2416 20.8654 16.4328C19.6616 16.5956 16.9362 17.7208 16.5123 21.0123V21.0142C16.4983 21.1233 15.9715 23.9177 15.4035 25.3728C14.6399 27.3289 13.5678 27.9367 13.595 30.1936C13.63 33.0967 19.0461 33.483 22.3136 33.2659C25.5811 33.0488 27.4044 31.9903 27.428 29.8982C27.4537 27.5538 26.5386 27.7715 25.9651 24.9312Z" fill="#0A0A0A"/>
<path d="M25.966 23.9245C25.3303 24.039 24.6906 23.4618 24.5744 22.8355C24.4582 22.2091 24.7479 21.5651 25.5618 21.5651L25.966 23.9245Z" fill="#E98862"/>
<path d="M32.8034 48.598C32.164 48.5979 31.5411 48.3982 31.024 48.0275C30.507 47.6569 30.1224 47.1344 29.9255 46.535L25.7241 33.7321L31.4786 31.8988L33.6881 38.6328L37.5066 32.6496L42.6267 35.8218L35.3627 47.2043C35.0904 47.6309 34.7129 47.9824 34.2653 48.2262C33.8178 48.4699 33.3148 48.5978 32.8034 48.598Z" fill="#367CFF"/>
<path d="M29.4134 45.0627C29.4109 45.0627 29.4084 45.0625 29.406 45.062C29.3955 45.0601 29.3862 45.0541 29.3801 45.0454C29.3741 45.0368 29.3718 45.0261 29.3737 45.0157L30.8019 37.3769C30.8029 37.3718 30.8048 37.3669 30.8077 37.3625C30.8106 37.3581 30.8143 37.3543 30.8187 37.3514C30.8231 37.3484 30.828 37.3463 30.8331 37.3452C30.8383 37.3441 30.8437 37.3441 30.8489 37.345C30.8541 37.346 30.8591 37.3479 30.8635 37.3507C30.868 37.3536 30.8718 37.3573 30.8748 37.3616C30.8778 37.3658 30.8799 37.3707 30.881 37.3758C30.8821 37.3809 30.8822 37.3862 30.8813 37.3913L29.453 45.0304C29.4512 45.0395 29.4463 45.0477 29.4391 45.0536C29.4319 45.0594 29.4228 45.0627 29.4134 45.0627Z" fill="#0C0C0C"/>
<path d="M34.2027 40.4357C34.1937 40.4357 34.1851 40.4328 34.178 40.4275C34.1709 40.4221 34.1659 40.4145 34.1636 40.406L33.6873 38.6004C33.6846 38.5902 33.6862 38.5793 33.6916 38.5702C33.697 38.5612 33.7059 38.5546 33.7163 38.5519C33.7266 38.5493 33.7376 38.5508 33.7469 38.5561C33.7561 38.5615 33.7628 38.5702 33.7655 38.5804L34.2417 40.3861C34.2433 40.392 34.2434 40.3981 34.2422 40.4041C34.2409 40.41 34.2383 40.4156 34.2345 40.4204C34.2308 40.4252 34.2259 40.429 34.2204 40.4317C34.2148 40.4344 34.2088 40.4358 34.2026 40.4357H34.2027Z" fill="#0C0C0C"/>
<path d="M66.5691 40.1328H50.8038C50.7052 40.1328 50.6077 40.1122 50.5177 40.0723C50.4277 40.0325 50.3473 39.9743 50.2818 39.9016C50.2164 39.8289 50.1673 39.7433 50.1378 39.6505C50.1083 39.5578 50.0992 39.4599 50.1109 39.3634L50.5327 35.8951C50.553 35.7281 50.6348 35.5742 50.7625 35.4626C50.8902 35.3509 51.0549 35.2893 51.2257 35.2893H66.5691C66.7542 35.2893 66.9317 35.3618 67.0625 35.4907C67.1934 35.6197 67.2669 35.7945 67.2669 35.9769V39.4453C67.2669 39.6276 67.1934 39.8025 67.0625 39.9314C66.9316 40.0604 66.7542 40.1328 66.5691 40.1328Z" fill="#292A2E"/>
<path d="M55.0684 40.1655L55.7426 37.6162C55.7574 37.5602 55.7603 37.5017 55.7509 37.4446C55.7416 37.3874 55.7202 37.3328 55.6883 37.2842C55.6563 37.2356 55.6144 37.1941 55.5653 37.1623C55.5161 37.1306 55.4608 37.1093 55.4029 37.0997C54.9231 37.0104 54.8647 37.6616 54.7739 37.9737L54.4277 36.0491C54.3749 35.53 53.6666 35.513 53.6141 36.0302C53.6104 36.0296 53.6065 36.0303 53.6032 36.032C53.6199 35.0865 52.5575 35.1597 52.7394 35.9883C52.7355 35.9909 52.7322 35.9941 52.7295 35.9977C52.5521 35.5393 51.8249 35.7538 51.9231 36.24L51.9795 36.5896C51.9761 36.586 51.9721 36.5832 51.9675 36.5813C51.963 36.5793 51.9582 36.5782 51.9532 36.5781C51.9483 36.578 51.9434 36.5788 51.9388 36.5806C51.9342 36.5824 51.93 36.585 51.9265 36.5884C51.6825 36.2481 51.0845 36.4977 51.1765 36.9238L51.6537 39.8756C51.9267 41.7847 54.7781 42.4253 55.0684 40.1655Z" fill="#E98862"/>
<g opacity="0.2">
<path d="M53.9478 37.9366C53.8429 37.9269 53.6185 36.1307 53.5765 36.0745C53.5747 36.0645 53.5771 36.0541 53.583 36.0458C53.589 36.0374 53.5981 36.0318 53.6083 36.03C53.6185 36.0282 53.629 36.0305 53.6375 36.0364C53.646 36.0423 53.6517 36.0512 53.6535 36.0613L53.9801 37.892C53.981 37.897 53.9809 37.9021 53.9798 37.9071C53.9786 37.9121 53.9765 37.9168 53.9735 37.9209C53.9705 37.9251 53.9667 37.9286 53.9623 37.9313C53.9579 37.934 53.953 37.9358 53.9478 37.9366Z" fill="#0C0C0C"/>
</g>
<g opacity="0.2">
<path d="M53.1322 38.1009C53.122 38.1024 53.1117 38.0999 53.1034 38.094C53.0951 38.088 53.0895 38.0791 53.0879 38.0691L52.7228 36.0261C52.721 36.016 52.7233 36.0057 52.7293 35.9973C52.7352 35.989 52.7443 35.9833 52.7545 35.9815C52.8616 35.9719 53.1222 38.0129 53.1649 38.0559C53.1658 38.0609 53.1657 38.0662 53.1646 38.0712C53.1634 38.0762 53.1613 38.081 53.1582 38.0852C53.1552 38.0894 53.1513 38.093 53.1468 38.0957C53.1424 38.0984 53.1374 38.1001 53.1322 38.1009Z" fill="#0C0C0C"/>
</g>
<g opacity="0.2">
<path d="M52.25 38.2839C52.2399 38.2854 52.2295 38.2829 52.2213 38.277C52.213 38.271 52.2074 38.2621 52.2057 38.2522L51.9145 36.6224C51.913 36.6125 51.9156 36.6024 51.9215 36.5944C51.9275 36.5863 51.9364 36.5808 51.9464 36.5791C51.9564 36.5773 51.9667 36.5795 51.9751 36.5851C51.9835 36.5907 51.9893 36.5993 51.9914 36.6091L52.2827 38.2388C52.2837 38.2439 52.2836 38.2491 52.2824 38.2542C52.2813 38.2592 52.2791 38.264 52.2761 38.2682C52.273 38.2724 52.2691 38.2759 52.2647 38.2787C52.2602 38.2814 52.2552 38.2832 52.25 38.2839Z" fill="#0C0C0C"/>
</g>
<path d="M31.103 49.2607H12.3621L11.171 40.2442C11.1471 40.0633 11.1627 39.8794 11.2166 39.7049C11.2706 39.5304 11.3617 39.3692 11.4839 39.2321C11.606 39.095 11.7565 38.9852 11.9252 38.91C12.0939 38.8347 12.2769 38.7958 12.4621 38.7958H28.576C28.8923 38.7957 29.1978 38.909 29.4355 39.1146C29.6732 39.3202 29.8269 39.604 29.8678 39.913L31.103 49.2607Z" fill="white"/>
<path d="M29.9652 39.9011C29.9207 39.5688 29.7553 39.2637 29.4998 39.0425C29.2443 38.8213 28.916 38.6989 28.5758 38.6981H12.4619C12.2849 38.6983 12.1095 38.7314 11.945 38.7958C11.8754 38.8228 11.8082 38.8555 11.7442 38.8936C11.5094 39.0315 11.3208 39.234 11.2014 39.4763C11.082 39.7186 11.0372 39.99 11.0725 40.257L12.2627 49.2607H12.4619L11.2693 40.2325C11.2471 40.0653 11.2615 39.8954 11.3113 39.7341C11.3611 39.5728 11.4452 39.4238 11.5581 39.2971C11.671 39.1704 11.81 39.0689 11.9658 38.9993C12.1217 38.9297 12.2908 38.8937 12.4619 38.8936H28.5758C28.8678 38.8943 29.1496 38.9993 29.369 39.1891C29.5885 39.3788 29.7307 39.6405 29.7693 39.9257L31.0031 49.2607H31.203L29.9652 39.9011Z" fill="#292A2E"/>
<path d="M30.0097 49.2607H11.2686L10.0776 40.2442C10.0536 40.0633 10.0691 39.8794 10.1231 39.7049C10.177 39.5303 10.2681 39.3691 10.3903 39.232C10.5125 39.0949 10.663 38.9851 10.8317 38.9099C11.0004 38.8346 11.1834 38.7957 11.3686 38.7958H27.4823C27.7985 38.7958 28.1038 38.9092 28.3414 39.1147C28.579 39.3203 28.7325 39.6041 28.7733 39.913L30.0097 49.2607Z" fill="#292A2E"/>
<path d="M28.8718 39.9011C28.8443 39.694 28.7695 39.4957 28.653 39.3212C28.5365 39.1467 28.3814 39.0005 28.1993 38.8936C28.1352 38.8557 28.068 38.823 27.9985 38.7958C27.8343 38.7314 27.6592 38.6982 27.4824 38.6981H11.3685C11.1692 38.698 10.9722 38.7399 10.7906 38.8208C10.609 38.9018 10.447 39.02 10.3155 39.1675C10.184 39.3151 10.0859 39.4886 10.0279 39.6765C9.96991 39.8644 9.95327 40.0623 9.9791 40.257L11.1685 49.2607H11.3685L10.1759 40.2325C10.1537 40.0653 10.1681 39.8954 10.2179 39.7341C10.2677 39.5728 10.3518 39.4238 10.4647 39.2971C10.5776 39.1704 10.7166 39.0689 10.8724 38.9993C11.0283 38.9297 11.1974 38.8937 11.3685 38.8936H27.4822C27.7742 38.8943 28.056 38.9993 28.2754 39.1891C28.4948 39.3788 28.637 39.6405 28.6756 39.9257L29.9094 49.2607H30.1094L28.8718 39.9011Z" fill="#292A2E"/>
<path d="M61.8203 29.5571C61.8388 29.5547 62.044 32.9093 65.9991 32.6168C68.7372 32.4147 69.7135 29.5524 69.7762 29.5524C69.481 29.4906 68.9839 29.4006 68.8528 29.3317C68.4216 29.1035 67.8075 28.8659 67.6685 28.0409C67.5884 27.5654 67.7243 25.1329 67.6825 24.6517L63.5602 25.576C63.6189 26.5922 64.03 28.9477 62.5893 29.3645C62.3499 29.4337 62.0914 29.4972 61.8203 29.5571Z" fill="#E98862"/>
<path d="M63.6764 27.1608C65.3363 27.2871 67.4671 26.593 67.8682 24.4107L68.2302 22.4415C68.6314 20.259 67.7932 18.2823 65.7078 17.9102C63.6223 17.5379 61.7383 19.0289 61.3372 21.2113L61.1769 22.0831C61.1271 22.3833 61.0983 22.6866 61.0904 22.9908C61.0636 23.7944 61.0259 25.0168 61.4291 25.9147C61.8105 26.7627 62.6163 27.0802 63.6764 27.1608Z" fill="#E98862"/>
<path d="M67.3986 17.7982C66.7397 17.5957 66.0563 17.4811 65.3665 17.4575C65.2996 17.1981 65.1507 16.9967 64.9317 16.9122C64.567 16.7718 64.1215 16.9979 63.8252 17.4335C63.6604 17.1847 63.4371 16.9605 63.1412 16.8694C62.3248 16.6189 62.2843 17.7745 62.2843 17.7745C62.2843 17.7745 60.9898 16.5158 60.9493 18.1211C60.9004 20.0634 61.2625 20.633 61.5268 20.7768C62.0487 21.0608 62.4374 21.0128 62.6439 21.4305C63.2693 22.6957 62.6563 26.2593 63.3801 26.7055C64.4888 27.3888 66.7598 27.4126 67.4975 27.3607C67.7811 27.3407 68.0466 27.0167 68.1661 26.7624C68.5519 25.9415 69.4123 24.0803 69.6517 23.3107C70.0936 21.8905 70.0603 18.6545 67.3986 17.7982Z" fill="#0C0C0C"/>
<path d="M62.8845 25.4328C63.5248 25.3643 63.9695 24.6338 63.9 24.0027C63.8305 23.3715 63.2731 23.0794 62.6328 23.1478L62.3494 23.6059L62.334 25.4915L62.8845 25.4328Z" fill="#E98862"/>
<path d="M73.5806 48.7342L73.6004 48.7353C73.6004 48.7353 73.5861 48.3595 73.5806 48.7342Z" fill="#333333"/>
<path d="M56.1346 36.9796C56.2597 38.4267 56.8677 47.4547 56.9879 49.237H73.5525C73.646 47.6295 74.0662 40.6004 74.421 37.4564C74.7597 34.4566 75.4243 32.9547 74.9371 32.0678C74.1411 30.6184 71.966 29.7808 70.4829 29.583C69.5771 29.4622 69.3906 29.3756 69.0214 29.3756H62.6437C62.0372 29.3756 58.1643 29.9513 57.3704 30.5265C55.1733 32.1184 55.8693 33.9131 56.1346 36.9796Z" fill="#367CFF"/>
<path d="M77.0893 49.1425C77.5765 49.1425 78.0565 49.0265 78.4885 48.8044C78.9204 48.5823 79.2915 48.2606 79.5701 47.8667C79.8487 47.4729 80.0266 47.0186 80.0886 46.5424C80.1506 46.0662 80.095 45.5823 79.9264 45.1319C79.7553 44.6747 75.7434 34.207 74.9796 32.2672L69.3242 34.5251C69.7536 35.6156 71.3096 39.7492 72.5596 43.0791L70.4829 42.8566L69.8293 48.7813L76.7621 49.125C76.8707 49.1367 76.98 49.1425 77.0893 49.1425Z" fill="#367CFF"/>
<path d="M73.8616 37.5172L73.4546 49.2356L73.5648 49.2393L73.9718 37.5209L73.8616 37.5172Z" fill="#0C0C0C"/>
<path d="M53.7384 49.1426C53.2512 49.1426 52.7712 49.0266 52.3393 48.8044C51.9074 48.5823 51.5363 48.2606 51.2577 47.8668C50.9791 47.4729 50.8012 47.0186 50.7392 46.5424C50.6772 46.0663 50.7328 45.5824 50.9014 45.132C51.0725 44.6747 55.2525 34.1607 56.0162 32.2212L61.5035 34.5254C61.0741 35.6159 59.5181 39.7495 58.2681 43.0794L60.3448 42.8569L60.9985 48.7816L54.0657 49.1253C53.957 49.1369 53.8478 49.1427 53.7384 49.1426Z" fill="#367CFF"/>
<path d="M58.2553 42.3847C58.2458 42.3847 58.2364 42.3825 58.2279 42.3783C58.2194 42.374 58.2121 42.3679 58.2065 42.3603C58.2009 42.3527 58.1971 42.344 58.1956 42.3347C58.1941 42.3255 58.1948 42.316 58.1977 42.3071L59.6659 37.7525C59.6681 37.7449 59.6719 37.7377 59.6769 37.7315C59.682 37.7253 59.6883 37.7202 59.6954 37.7164C59.7026 37.7127 59.7104 37.7103 59.7184 37.7096C59.7265 37.7089 59.7346 37.7097 59.7423 37.7121C59.75 37.7146 59.7572 37.7185 59.7633 37.7237C59.7695 37.7288 59.7745 37.7352 59.7781 37.7423C59.7817 37.7494 59.7839 37.7572 59.7844 37.7652C59.7849 37.7731 59.7838 37.7811 59.7811 37.7886L58.3129 42.3427C58.3091 42.3548 58.3015 42.3655 58.2911 42.373C58.2807 42.3806 58.2682 42.3847 58.2553 42.3847Z" fill="#0C0C0C"/>
<path d="M77.0699 40.2442L75.8781 49.2607H57.1377L58.3732 39.913C58.414 39.6041 58.5676 39.3204 58.8051 39.1148C59.0427 38.9092 59.348 38.7958 59.6642 38.7958H75.7781C75.9633 38.7957 76.1465 38.8345 76.3152 38.9097C76.484 38.9849 76.6346 39.0947 76.7568 39.2318C76.8791 39.3689 76.9703 39.5301 77.0243 39.7047C77.0782 39.8793 77.0938 40.0632 77.0699 40.2442Z" fill="white"/>
<path d="M76.8311 39.1677C76.7347 39.0597 76.6219 38.9672 76.4965 38.8936C76.4322 38.8555 76.3647 38.8228 76.2949 38.7958C76.1304 38.7314 75.955 38.6983 75.778 38.6981H59.6641C59.324 38.699 58.9957 38.8214 58.7402 39.0426C58.4847 39.2638 58.3193 39.5688 58.2747 39.9011L57.0376 49.2607H57.2376L58.4713 39.9257C58.5097 39.6405 58.6517 39.3788 58.8711 39.189C59.0904 38.9992 59.3722 38.8942 59.6641 38.8936H75.778C75.9491 38.8937 76.1182 38.9298 76.2741 38.9994C76.43 39.069 76.569 39.1705 76.6819 39.2972C76.7948 39.4239 76.879 39.5728 76.929 39.7341C76.9789 39.8953 76.9934 40.0652 76.9715 40.2325L75.778 49.2607H75.978L77.1674 40.257C77.1932 40.0623 77.1766 39.8644 77.1186 39.6766C77.0606 39.4887 76.9625 39.3152 76.8311 39.1677Z" fill="#292A2E"/>
<path d="M78.1634 40.2442L76.9716 49.2607H58.2312L59.4667 39.913C59.4962 39.6894 59.5851 39.4775 59.7242 39.2985C59.8634 39.1195 60.0479 38.9798 60.2593 38.8935C60.4172 38.8286 60.5866 38.7954 60.7577 38.7958H76.8724C77.0575 38.7958 77.2405 38.8348 77.4092 38.91C77.5778 38.9853 77.7283 39.0951 77.8505 39.2322C77.9726 39.3693 78.0637 39.5304 78.1177 39.705C78.1717 39.8795 78.1872 40.0633 78.1634 40.2442Z" fill="#292A2E"/>
<path d="M77.9245 39.1677C77.793 39.0203 77.6311 38.9022 77.4496 38.8212C77.2682 38.7403 77.0713 38.6983 76.8722 38.6981H60.7575C60.5053 38.6985 60.2578 38.766 60.0413 38.8936C59.8592 39.0005 59.7039 39.1467 59.5873 39.3212C59.4707 39.4956 59.3958 39.6939 59.3681 39.9011L58.1311 49.2607H58.331L59.5648 39.9257C59.6031 39.6405 59.7451 39.3788 59.9644 39.189C60.1837 38.9992 60.4655 38.8942 60.7574 38.8936H76.8722C77.0433 38.8936 77.2124 38.9297 77.3683 38.9992C77.5241 39.0688 77.6631 39.1704 77.776 39.2971C77.8889 39.4238 77.973 39.5728 78.0228 39.7341C78.0726 39.8954 78.0869 40.0653 78.0648 40.2325L76.8722 49.2607H77.0713L78.2616 40.257C78.2871 40.0623 78.2703 39.8644 78.2121 39.6766C78.154 39.4887 78.0559 39.3153 77.9245 39.1677Z" fill="#292A2E"/>
<path d="M6.07671 49.3159H79.7332C79.7482 49.3159 79.7626 49.3101 79.7731 49.2997C79.7837 49.2893 79.7897 49.2753 79.7897 49.2606C79.7897 49.2459 79.7837 49.2319 79.7731 49.2215C79.7626 49.2111 79.7482 49.2053 79.7332 49.2053H6.07671C6.06174 49.2053 6.04738 49.2111 6.0368 49.2215C6.02621 49.2319 6.02026 49.2459 6.02026 49.2606C6.02026 49.2753 6.02621 49.2893 6.0368 49.2997C6.04738 49.3101 6.06174 49.3159 6.07671 49.3159Z" fill="#292A2E"/>
<g opacity="0.65">
<path d="M6.07671 49.3159H79.7332C79.7482 49.3159 79.7626 49.3101 79.7731 49.2997C79.7837 49.2893 79.7897 49.2753 79.7897 49.2606C79.7897 49.2459 79.7837 49.2319 79.7731 49.2215C79.7626 49.2111 79.7482 49.2053 79.7332 49.2053H6.07671C6.06174 49.2053 6.04738 49.2111 6.0368 49.2215C6.02621 49.2319 6.02026 49.2459 6.02026 49.2606C6.02026 49.2753 6.02621 49.2893 6.0368 49.2997C6.04738 49.3101 6.06174 49.3159 6.07671 49.3159Z" fill="#292A2E"/>
</g>
<path d="M50.7148 46.211L50.9742 39.4931L54.5565 39.3063L54.8825 46.211H50.7148Z" fill="#367CFF"/>
</svg>
