<svg width="265" height="144" viewBox="0 0 265 144" fill="none" xmlns="http://www.w3.org/2000/svg">
<g clip-path="url(#clip0_16_3)">
<path d="M265 144H0C2.90383 136.691 8.26603 130.49 15.8254 128.651C26.8833 125.964 38.5855 133.352 49.6189 130.574C55.8887 128.998 60.8222 124.403 66.0079 120.587C85.5713 106.19 112.381 101.935 135.53 109.555C147.631 113.536 158.657 120.499 171.053 123.46C187.082 127.289 203.845 124.113 220.327 123.59C236.381 123.08 259.383 129.536 265 144Z" fill="#F3F5FD"/>
<path d="M258.249 144H220.63C217.87 141.826 217.68 136.927 220.54 134.742C222.745 133.057 226.078 133.507 228.15 135.26C227.763 133.955 227.755 132.569 228.127 131.259C228.801 128.902 230.299 126.506 232.586 125.553C238.422 123.122 242.568 128.215 243.399 131.062C244.892 128.893 248.236 127.747 250.334 129.207C252.991 131.056 252.872 133.971 250.752 136.064C253.576 135.544 255.704 135.946 257.663 138.02C259.153 139.601 259.383 142.293 258.249 144Z" fill="#8DDBE0"/>
<path d="M207.572 22.9094C207.572 22.9094 205.263 21.7011 205.779 15.4957L201.009 14.6228C201.009 14.6228 201.545 20.1861 199.132 21.9525L207.572 22.9094Z" fill="#E98862"/>
<g opacity="0.15">
<path d="M200.109 20.7895L204.072 17.7975L200.959 17.7656C200.869 18.8171 200.581 19.8426 200.109 20.7895Z" fill="black"/>
</g>
<path d="M208.487 13.0897C208.157 14.9725 207.116 16.7551 205.433 17.3628C203.436 18.0848 201.957 18.1334 199.654 18.1334C196.511 18.1334 196.615 14.8988 196.527 11.6389C196.438 8.36596 196.702 4.85552 197.944 3.71504C200.422 1.43851 207.699 2.88017 208.584 6.68766C209.041 8.65741 208.8 11.2979 208.487 13.0897Z" fill="#E98862"/>
<path d="M194.347 2.35992C194.347 0.803035 196.31 -1.74728 201.546 1.77053L201.551 1.77406C202.911 1.73646 204.271 1.88321 205.591 2.21021C207.985 2.91749 210.988 4.89874 210.219 9.70289C209.359 15.0646 207.134 16.496 206.012 17.1537C205.726 17.3211 205.657 17.1832 205.558 16.8717C205.247 15.7141 205.025 14.535 204.893 13.3445C204.697 12.1858 204.608 11.0121 204.627 9.83757C204.627 9.31714 204.624 7.42105 202.008 7.39925C200.536 7.38746 201.087 7.44522 199.516 7.44522C199.292 7.44522 199.095 7.4352 198.913 7.41928H198.911C193.487 7.4187 194.347 3.91651 194.347 2.35992Z" fill="#0F1011"/>
<path d="M201.016 11.6392C201.255 11.6392 201.448 11.448 201.448 11.2122C201.448 10.9763 201.255 10.7852 201.016 10.7852C200.777 10.7852 200.583 10.9763 200.583 11.2122C200.583 11.448 200.777 11.6392 201.016 11.6392Z" fill="#0F1011"/>
<path d="M197.603 11.3631C197.842 11.3631 198.035 11.1719 198.035 10.936C198.035 10.7002 197.842 10.509 197.603 10.509C197.364 10.509 197.17 10.7002 197.17 10.936C197.17 11.1719 197.364 11.3631 197.603 11.3631Z" fill="#0F1011"/>
<path d="M196.853 10.0261C196.8 10.0245 196.751 10.0028 196.714 9.96563C196.677 9.92848 196.656 9.87872 196.656 9.8268C196.656 9.77489 196.676 9.72486 196.712 9.68723C196.748 9.6496 196.798 9.62729 196.85 9.62499L197.997 9.61084C198.05 9.61265 198.1 9.63396 198.138 9.67058C198.176 9.7072 198.199 9.75652 198.202 9.80888C198.203 9.83522 198.198 9.86137 198.188 9.88584C198.178 9.9103 198.163 9.9326 198.145 9.95146C198.126 9.97032 198.104 9.98537 198.079 9.99574C198.055 10.0061 198.028 10.0116 198.002 10.0119L196.856 10.0261H196.853Z" fill="#0F1011"/>
<path d="M201.948 10.4386C201.932 10.4386 201.916 10.4367 201.901 10.433L200.771 10.1645C200.719 10.1511 200.675 10.1184 200.648 10.0734C200.621 10.0283 200.613 9.97459 200.625 9.9236C200.637 9.87261 200.67 9.82843 200.715 9.80053C200.76 9.77263 200.814 9.76322 200.866 9.77432L201.995 10.0428C202.044 10.0543 202.086 10.0829 202.115 10.1232C202.143 10.1634 202.156 10.2126 202.15 10.2613C202.144 10.3101 202.12 10.355 202.083 10.3877C202.046 10.4203 201.998 10.4384 201.948 10.4386Z" fill="#0F1011"/>
<path d="M203.266 12.2572C203.234 12.7318 203.392 13.2 203.707 13.5604C204.021 13.9208 204.467 14.1446 204.947 14.1833C205.427 14.2221 205.904 14.0726 206.273 13.7673C206.643 13.462 206.876 13.0254 206.922 12.5519C206.946 12.3142 206.921 12.0742 206.849 11.8462C206.777 11.6181 206.659 11.4068 206.502 11.2246C206.346 11.0425 206.154 10.8933 205.938 10.786C205.721 10.6786 205.486 10.6153 205.244 10.5998C203.937 10.5589 203.349 11.2609 203.266 12.2572Z" fill="#E98862"/>
<g opacity="0.15">
<path d="M199.095 13.5809C199.131 13.5809 199.166 13.5683 199.193 13.5452C199.22 13.5222 199.238 13.4903 199.243 13.4554C199.248 13.4205 199.241 13.3849 199.222 13.355C199.203 13.3252 199.173 13.303 199.139 13.2927L198.259 13.026L198.875 11.6733C198.883 11.6556 198.888 11.6365 198.888 11.617C198.889 11.5975 198.886 11.578 198.879 11.5598C198.872 11.5415 198.862 11.5247 198.848 11.5105C198.835 11.4963 198.818 11.4848 198.8 11.4768C198.782 11.4688 198.763 11.4644 198.743 11.4639C198.723 11.4634 198.704 11.4668 198.685 11.4738C198.667 11.4808 198.65 11.4914 198.636 11.5049C198.622 11.5184 198.61 11.5346 198.602 11.5525L197.918 13.0575C197.909 13.0766 197.905 13.0972 197.905 13.1181C197.905 13.139 197.909 13.1596 197.918 13.1787C197.927 13.1977 197.939 13.2147 197.955 13.2285C197.971 13.2423 197.99 13.2526 198.01 13.2588L199.051 13.5744C199.066 13.5787 199.08 13.5809 199.095 13.5809Z" fill="black"/>
</g>
<path d="M200.816 14.5753C200.816 14.5753 199.219 14.7415 198.099 14.3555C198.099 14.3555 198.108 15.3937 199.371 15.4959C200.635 15.5982 200.816 14.5753 200.816 14.5753Z" fill="white"/>
<path d="M97.3875 11.3214C97.5192 10.9898 97.581 10.7025 97.4428 10.6259C96.8206 10.2811 93.6143 13.6023 93.0422 14.1678L94.8336 13.3972L93.7289 14.4876L96.7182 15.9611C96.7182 15.9611 103.762 12.5005 102.38 10.0536C101.785 9.00181 99.3769 10.1293 97.3875 11.3214Z" fill="#E98862"/>
<path d="M74.4916 140.812L68.2654 140.081C68.5457 137.755 68.8625 134.961 68.8843 134.502C68.8828 134.532 68.8828 134.556 68.8828 134.575H75.1526C75.1521 134.76 75.1521 135.325 74.4916 140.812Z" fill="#E98862"/>
<path d="M49.5084 141.551L43.2385 141.531C43.2385 141.531 43.2594 135.141 43.2594 134.574H49.5293C49.5293 135.142 49.5084 141.551 49.5084 141.551Z" fill="#E98862"/>
<path d="M65.7589 138.857L76.804 138.671C76.2851 125.695 76.2537 112.084 76.0916 99.0768C73.936 85.0568 72.8003 69.6612 70.1398 55.7418L70.06 55.7651L69.8269 54.1944L47.1133 52.8096C47.1133 52.8096 42.9723 118.13 41.623 138.505L52.6308 139.423C54.6138 119.446 57.6831 90.339 59.5709 69.3533C61.7388 79.5704 63.2134 90.1495 65.0988 100.279C65.475 112.96 65.7939 126.215 65.7589 138.857Z" fill="#262626"/>
<path d="M57.1304 143.945C57.299 143.944 57.4656 143.909 57.6198 143.842C57.7741 143.774 57.9126 143.677 58.0268 143.554C58.141 143.432 58.2284 143.287 58.2836 143.13C58.3387 142.973 58.3604 142.806 58.3473 142.64C58.3292 142.41 58.2448 142.19 58.1042 142.006C57.9635 141.821 57.7724 141.681 57.5534 141.6L50.2559 139.187C50.1146 139.141 49.9648 139.126 49.8168 139.142C49.6688 139.158 49.5261 139.206 49.3985 139.281C48.3953 139.969 47.1951 140.32 45.9745 140.283C45.0238 140.217 44.1113 139.888 43.3409 139.334C43.2732 139.279 43.1911 139.244 43.1042 139.234C43.0173 139.223 42.9291 139.237 42.85 139.274C42.7709 139.312 42.7041 139.37 42.6574 139.443C42.6108 139.516 42.5861 139.601 42.5864 139.688V143.21C42.5864 143.314 42.6072 143.417 42.6476 143.513C42.688 143.608 42.7472 143.696 42.8218 143.769C42.8964 143.842 42.9849 143.9 43.0823 143.94C43.1797 143.979 43.284 143.999 43.3893 143.999L57.1304 143.945Z" fill="#C1D8ED"/>
<path d="M82.1301 143.945C82.2987 143.944 82.4653 143.909 82.6196 143.842C82.7738 143.774 82.9124 143.677 83.0266 143.554C83.1408 143.432 83.2283 143.287 83.2834 143.13C83.3386 142.973 83.3604 142.806 83.3473 142.64C83.3291 142.41 83.2447 142.19 83.104 142.006C82.9634 141.822 82.7724 141.681 82.5534 141.6L75.2556 139.187C75.1143 139.141 74.9645 139.126 74.8165 139.142C74.6685 139.158 74.5258 139.206 74.3982 139.281C73.395 139.969 72.1948 140.32 70.9742 140.283C70.0236 140.217 69.1112 139.888 68.3409 139.334C68.2732 139.279 68.1911 139.244 68.1042 139.234C68.0173 139.223 67.9291 139.237 67.85 139.274C67.7709 139.312 67.7041 139.37 67.6574 139.443C67.6108 139.516 67.5861 139.601 67.5864 139.688V143.21C67.5864 143.314 67.6072 143.416 67.6476 143.512C67.6879 143.608 67.7471 143.696 67.8217 143.769C67.8962 143.842 67.9847 143.9 68.0821 143.94C68.1794 143.979 68.2837 143.999 68.389 143.999L82.1301 143.945Z" fill="#C1D8ED"/>
<path d="M54.5347 22.8564C54.5347 22.8564 56.8432 21.6481 56.3278 15.443L61.0977 14.5701C61.0977 14.5701 60.5603 20.1334 62.9748 21.8998L54.5347 22.8564Z" fill="#E98862"/>
<g opacity="0.15">
<path d="M61.9975 20.7366L58.0347 17.7442L61.1472 17.7124C61.2372 18.764 61.5256 19.7896 61.9975 20.7366Z" fill="black"/>
</g>
<path d="M53.6219 13.0367C53.9521 14.9195 54.9929 16.7021 56.6753 17.3098C58.5093 18.0281 60.4935 18.2926 62.4549 18.0804C67.6768 17.6578 66.6438 5.93887 64.1645 3.66204C61.6852 1.38521 54.4089 2.82893 53.524 6.63524C53.0663 8.605 53.3069 11.2446 53.6219 13.0367Z" fill="#E98862"/>
<path d="M65.8863 4.06671C65.7305 3.82266 65.5123 3.62344 65.2537 3.48911C62.9347 2.2446 58.6372 1.81405 56.5732 2.42348C54.179 3.13075 51.1764 5.112 51.9455 9.91616C51.978 10.1186 52.0129 10.3134 52.0494 10.5056C51.2931 10.378 50.5159 10.4583 49.8029 10.7377C49.0898 11.0171 48.4684 11.4849 48.0067 12.0897C47.5451 12.6945 47.261 13.4131 47.1855 14.1667C47.1101 14.9203 47.2463 15.6798 47.5791 16.3621C47.9119 17.0444 48.4285 17.6232 49.0724 18.0349C49.7163 18.4467 50.4626 18.6756 51.2295 18.6965C51.9964 18.7175 52.7543 18.5297 53.4203 18.1538C54.0863 17.7778 54.6346 17.2282 55.0052 16.5651C55.3603 16.8681 55.744 17.1368 56.151 17.3676C56.4368 17.5353 56.506 17.3988 56.6052 17.0856C56.9512 15.9922 57.2919 11.667 57.0199 8.52607L62.6469 8.33422L63.6271 5.58087L64.4308 8.33422H66.347C66.604 6.84188 66.8692 5.1509 65.8863 4.06671Z" fill="#0F1011"/>
<path d="M61.0908 11.5865C61.3297 11.5865 61.5234 11.3953 61.5234 11.1594C61.5234 10.9236 61.3297 10.7324 61.0908 10.7324C60.8519 10.7324 60.6582 10.9236 60.6582 11.1594C60.6582 11.3953 60.8519 11.5865 61.0908 11.5865Z" fill="#0F1011"/>
<path d="M64.5039 11.3103C64.7428 11.3103 64.9365 11.1192 64.9365 10.8833C64.9365 10.6475 64.7428 10.4563 64.5039 10.4563C64.265 10.4563 64.0713 10.6475 64.0713 10.8833C64.0713 11.1192 64.265 11.3103 64.5039 11.3103Z" fill="#0F1011"/>
<path d="M65.2533 9.97309H65.2509L64.1051 9.95924C64.0511 9.95889 63.9996 9.93741 63.9617 9.89953C63.9238 9.86164 63.9027 9.81046 63.9031 9.75723C63.9034 9.704 63.9252 9.6531 63.9636 9.61571C64.002 9.57832 64.0538 9.55751 64.1077 9.55787H64.1101L65.256 9.57201C65.3086 9.57431 65.3582 9.59662 65.3944 9.63426C65.4306 9.67189 65.4507 9.72192 65.4503 9.77383C65.45 9.82574 65.4293 9.8755 65.3925 9.91266C65.3558 9.94982 65.3059 9.97148 65.2533 9.97309Z" fill="#0F1011"/>
<path d="M60.1569 10.3861C60.1072 10.386 60.0592 10.3678 60.0221 10.3352C59.985 10.3025 59.9613 10.2576 59.9555 10.2088C59.9497 10.1601 59.9622 10.1109 59.9906 10.0707C60.019 10.0304 60.0614 10.0018 60.1097 9.9903L61.2398 9.72183C61.2917 9.71073 61.346 9.72014 61.391 9.74804C61.436 9.77594 61.4681 9.82011 61.4805 9.87111C61.4929 9.9221 61.4846 9.97586 61.4574 10.0209C61.4301 10.0659 61.3861 10.0986 61.3347 10.112L60.2047 10.3805C60.189 10.3842 60.173 10.3861 60.1569 10.3861Z" fill="#0F1011"/>
<path d="M58.8405 12.2045C58.8769 12.6813 58.7208 13.153 58.4061 13.5166C58.0914 13.8802 57.6437 14.1061 57.1609 14.145C56.678 14.1839 56.1992 14.0327 55.8289 13.7243C55.4586 13.416 55.227 12.9755 55.1846 12.4992C55.1607 12.2615 55.1856 12.0214 55.2577 11.7934C55.3297 11.5653 55.4476 11.3539 55.6042 11.1718C55.7608 10.9896 55.9529 10.8405 56.1691 10.7331C56.3854 10.6258 56.6213 10.5626 56.8628 10.5471C58.1699 10.5062 58.7572 11.2081 58.8405 12.2045Z" fill="#E98862"/>
<g opacity="0.15">
<path d="M63.0114 13.5279C62.9757 13.5279 62.9411 13.5153 62.914 13.4922C62.8869 13.4692 62.869 13.4373 62.8637 13.4024C62.8584 13.3675 62.866 13.3319 62.885 13.302C62.9041 13.2722 62.9334 13.25 62.9675 13.2397L63.8474 12.973L63.2318 11.62C63.223 11.6023 63.218 11.583 63.2169 11.5633C63.2159 11.5435 63.2189 11.5238 63.2257 11.5053C63.2325 11.4867 63.243 11.4697 63.2567 11.4553C63.2703 11.4408 63.2867 11.4292 63.3049 11.4211C63.3232 11.413 63.3429 11.4087 63.3629 11.4082C63.3829 11.4078 63.4027 11.4114 63.4213 11.4187C63.4399 11.426 63.4568 11.4369 63.471 11.4508C63.4852 11.4647 63.4965 11.4812 63.5041 11.4995L64.189 13.0045C64.1977 13.0236 64.2021 13.0442 64.2021 13.0651C64.2021 13.086 64.1976 13.1066 64.1888 13.1257C64.1801 13.1447 64.1674 13.1617 64.1515 13.1755C64.1356 13.1893 64.117 13.1996 64.0967 13.2058L63.0565 13.5214C63.0419 13.5258 63.0267 13.528 63.0114 13.5279Z" fill="black"/>
</g>
<path d="M61.291 14.5226C61.291 14.5226 62.8877 14.6888 64.0079 14.3027C64.0079 14.3027 63.9993 15.341 62.7355 15.4432C61.4716 15.5455 61.291 14.5226 61.291 14.5226Z" fill="white"/>
<path d="M93.5498 11.8635L82.3835 27.1533L67.7393 21.6719C66.8488 21.3591 65.9137 21.1878 64.9689 21.1645C64.7808 21.1556 64.4795 21.1497 64.0911 21.1438C64.0138 22.7647 53.8447 22.7588 53.6294 21.1055C50.7576 21.1085 48.4019 21.9778 47.0372 23.3246C42.3348 27.9661 48.106 35.8758 48.106 42.0644C48.106 48.253 45.2697 51.0291 45.4787 54.2059C45.8071 59.1981 70.3878 58.0193 71.6385 55.1814C72.9283 52.258 70.3099 50.4544 70.4266 40.8886C70.4669 37.4179 71.2746 33.4156 71.4331 29.9258L82.4098 34.0354C83.0796 34.2862 83.8145 34.312 84.5006 34.1085C85.1867 33.9051 85.7857 33.4839 86.2045 32.9102L98.8305 15.6209L93.5498 11.8635Z" fill="#367CFF"/>
<path d="M64.0908 21.1435C64.0135 22.7644 63.1205 25.1485 60.3648 25.3282C56.6924 25.5669 53.8444 22.7585 53.6292 21.1052H53.6384C57.2537 21.1052 61.9818 21.1111 64.0908 21.1435Z" fill="#E98862"/>
<path d="M54.0872 50.8871L36.8869 46.8725C36.3816 46.7549 35.9121 46.5197 35.5177 46.1866C35.1232 45.8534 34.8152 45.4319 34.6194 44.9573C34.4237 44.4827 34.3457 43.9688 34.3922 43.4584C34.4387 42.9481 34.6082 42.4561 34.8866 42.0235L46.6315 23.7703L52.1271 27.215L42.8352 41.6581L55.5839 44.6345L54.0872 50.8871Z" fill="#367CFF"/>
<path d="M187.635 140.812C186.974 135.325 186.974 134.76 186.974 134.575H193.243C193.243 134.556 193.243 134.532 193.243 134.502C193.266 134.961 193.582 137.755 193.862 140.081L187.635 140.812Z" fill="#E98862"/>
<path d="M212.617 141.551C212.617 141.551 212.596 135.143 212.596 134.575H218.866C218.866 135.141 218.887 141.531 218.887 141.531L212.617 141.551Z" fill="#E98862"/>
<path d="M220.503 138.506C219.162 118.256 215.013 52.811 215.013 52.811L192.299 54.1949L192.066 55.7657L191.986 55.7424C189.323 69.6774 188.19 85.0683 186.031 99.1024C185.879 112.099 185.837 125.711 185.322 138.672L196.368 138.858C196.333 126.053 196.958 112.646 197.341 99.8167C197.341 99.8167 199.766 83.1262 202.576 69.5646C204.471 90.5924 207.508 119.392 209.497 139.424L220.503 138.506Z" fill="#262626"/>
<path d="M204.995 143.945C204.827 143.944 204.66 143.909 204.506 143.842C204.352 143.775 204.213 143.677 204.099 143.554C203.985 143.432 203.897 143.288 203.842 143.13C203.787 142.973 203.765 142.806 203.778 142.64C203.796 142.41 203.881 142.19 204.021 142.006C204.162 141.822 204.353 141.681 204.572 141.6L211.87 139.188C212.011 139.142 212.161 139.126 212.309 139.142C212.457 139.158 212.6 139.206 212.727 139.282C213.73 139.969 214.931 140.32 216.151 140.284C217.102 140.217 218.014 139.888 218.784 139.334C218.852 139.279 218.934 139.245 219.021 139.234C219.108 139.224 219.196 139.238 219.275 139.275C219.355 139.312 219.421 139.37 219.468 139.444C219.515 139.517 219.539 139.601 219.539 139.688V143.21C219.539 143.314 219.518 143.417 219.478 143.513C219.438 143.609 219.378 143.696 219.304 143.769C219.229 143.843 219.141 143.901 219.043 143.94C218.946 143.98 218.842 144 218.736 143.999L204.995 143.945Z" fill="#C1D8ED"/>
<path d="M179.995 143.945C179.827 143.944 179.66 143.909 179.506 143.842C179.352 143.775 179.213 143.677 179.099 143.554C178.985 143.432 178.897 143.288 178.842 143.13C178.787 142.973 178.765 142.806 178.778 142.64C178.796 142.41 178.881 142.19 179.021 142.006C179.162 141.822 179.353 141.681 179.572 141.6L186.87 139.188C187.011 139.142 187.161 139.126 187.309 139.142C187.457 139.158 187.6 139.206 187.728 139.282C188.731 139.969 189.931 140.32 191.151 140.284C192.102 140.217 193.014 139.888 193.785 139.334C193.852 139.279 193.935 139.245 194.021 139.234C194.108 139.224 194.197 139.238 194.276 139.275C194.355 139.312 194.422 139.37 194.468 139.443C194.515 139.517 194.54 139.601 194.539 139.688V143.21C194.539 143.314 194.518 143.417 194.478 143.513C194.438 143.609 194.379 143.696 194.304 143.769C194.229 143.843 194.141 143.901 194.043 143.94C193.946 143.98 193.842 144 193.736 143.999L179.995 143.945Z" fill="#C1D8ED"/>
<path d="M215.088 23.3243C213.724 21.9775 211.368 21.1082 208.496 21.1052C208.281 22.7585 198.112 22.7644 198.035 21.1435C197.646 21.1494 197.345 21.1553 197.157 21.1642C193.618 21.3148 191.9 22.8319 191.156 25.0919L183.397 41.4847L165.244 46.362L166.953 52.5621L186.563 47.2938C187.019 47.1713 187.443 46.9521 187.804 46.6516C188.166 46.3511 188.457 45.9764 188.657 45.5536L191.632 39.2674C191.669 39.8176 191.693 40.3578 191.699 40.8883C191.816 50.4541 189.197 52.2577 190.487 55.1811C191.738 58.019 216.319 59.1978 216.647 54.2056C216.856 51.0288 214.02 48.2557 214.02 42.0641C214.02 35.8725 219.791 27.9667 215.088 23.3243Z" fill="#367CFF"/>
<path d="M198.035 21.1435C198.112 22.7644 199.005 25.1485 201.761 25.3282C205.433 25.5669 208.281 22.7585 208.496 21.1052H208.487C204.872 21.1052 200.143 21.1111 198.035 21.1435Z" fill="#E98862"/>
<path d="M60.147 46.0082C60.6445 45.8543 61.1592 45.7614 61.6796 45.7314C62.6845 45.7314 63.0652 46.7372 62.1026 47.098C61.3313 47.3758 60.5297 47.5637 59.7141 47.6579" fill="#E98862"/>
<path d="M165.917 45.9475C166.388 45.802 166.875 45.7141 167.368 45.6858C168.318 45.6858 168.678 46.6371 167.768 46.9783C167.038 47.2415 166.28 47.4195 165.509 47.5088" fill="#E98862"/>
<path d="M225.395 46.7048H35.4307V102.321H225.395V46.7048Z" fill="#C1D8ED"/>
<path d="M208.868 47.7214C208.08 47.9033 203.53 48.8413 203.498 49.5438C203.479 49.9656 205.553 49.9794 205.553 49.9794" fill="#E98862"/>
<path d="M208.472 51.7487C208.472 51.7487 201.779 55.8305 200.402 53.3807C199.678 52.0935 203.195 50.2475 205.46 49.2325L208.78 48.4648" fill="#E98862"/>
<path d="M209.105 52.9921L206.875 46.9561L217.375 43.173L210.6 28.117L216.55 25.5083L224.739 43.7079C224.92 44.1103 225.016 44.5452 225.019 44.9855C225.023 45.4259 224.935 45.8623 224.761 46.2676C224.586 46.673 224.33 47.0386 224.006 47.3418C223.682 47.645 223.299 47.8794 222.88 48.0302L209.105 52.9921Z" fill="#367CFF"/>
<path d="M161.425 46.9784C161.629 47.8354 162.365 48.0019 164.506 48.0019C166.61 48.0019 167.167 47.2651 167.167 46.1129C167.167 44.9606 165.789 44.8188 164.231 44.8188C161.441 44.8188 161.183 45.9587 161.425 46.9784Z" fill="#E98862"/>
<path d="M55.3979 47.098C55.6131 48.0039 56.3909 48.1798 58.6552 48.1798C60.8783 48.1798 61.4677 47.4021 61.4677 46.183C61.4677 44.9638 60.0107 44.8147 58.3641 44.8147C55.4149 44.8147 55.1417 46.02 55.3979 47.098Z" fill="#E98862"/>
<path d="M25.4698 144H9.25543C6.43639 140.34 1.49427 132.959 4.68741 129.806C6.14022 128.375 7.73724 129.736 9.22348 132.177C8.71354 127.395 9.22348 122.825 12.5955 121.49C15.6653 120.278 17.0378 123.941 17.5677 128.855C19.0776 126.061 21.0672 124.093 23.6605 124.249C27.3714 124.468 26.4757 129.352 24.3048 134.76C25.9523 133.525 27.6735 132.916 29.3506 133.459C32.8646 134.595 29.5834 139.46 25.4698 144Z" fill="#C1D8ED"/>
<path d="M54.2227 84.5191H49.8338V67.6951H44.2148V64.0901H59.8426V67.6951H54.2227V84.5191Z" fill="white"/>
<path d="M79.9853 84.5191H75.6125V75.7015H67.4157V84.5191H63.0269V64.0901H67.4157V72.0964H75.6119V64.0901H79.9853V84.5191Z" fill="white"/>
<path d="M97.8797 84.519L96.3788 79.6565H88.8341L87.3335 84.519H82.6055L89.9095 64.0081H95.2747L102.608 84.519H97.8797ZM95.3314 76.0226C93.9441 71.6166 93.1631 69.1249 92.9883 68.5473C92.8136 67.9697 92.6886 67.5133 92.6133 67.1781C92.3018 68.3707 91.41 71.3188 89.9379 76.0226H95.3314Z" fill="white"/>
<path d="M123.572 84.5191H117.995L108.992 69.0652H108.865C109.044 71.795 109.133 73.7419 109.133 74.9058V84.5191H105.212V64.0901H110.747L119.736 79.3914H119.835C119.694 76.7363 119.623 74.8594 119.623 73.7606V64.0901H123.572V84.5191Z" fill="white"/>
<path d="M145.43 84.5191H140.447L135.025 75.9119L133.171 77.2253V84.5191H128.782V64.0901H133.171V73.4385L134.898 71.0352L140.504 64.0901H145.373L138.154 73.1305L145.43 84.5191Z" fill="white"/>
<path d="M163.158 72.5016L167.476 64.0901H172.204L165.337 76.5676V84.5191H160.978V76.7096L154.111 64.0922H158.868L163.158 72.5016Z" fill="white"/>
<path d="M193.594 74.2763C193.594 77.6574 192.744 80.2564 191.046 82.0731C189.347 83.8898 186.912 84.798 183.741 84.7976C180.57 84.7976 178.136 83.8894 176.437 82.0731C174.738 80.2568 173.889 77.6485 173.889 74.2483C173.889 70.8483 174.741 68.2517 176.444 66.4586C178.147 64.6654 180.589 63.7688 183.77 63.7686C186.95 63.7686 189.382 64.6723 191.067 66.4798C192.751 68.2873 193.594 70.8861 193.594 74.2763ZM178.489 74.2763C178.489 76.5588 178.928 78.2779 179.806 79.4335C180.683 80.5891 181.995 81.1667 183.741 81.1663C187.242 81.1663 188.993 78.8701 188.993 74.2778C188.993 69.676 187.252 67.3752 183.768 67.3754C182.022 67.3754 180.706 67.9549 179.819 69.1141C178.932 70.2732 178.489 71.994 178.489 74.2763Z" fill="white"/>
<path d="M214.728 64.0901V77.3084C214.76 78.6988 214.405 80.0711 213.702 81.2765C213.005 82.4243 211.971 83.3356 210.737 83.8893C209.295 84.5253 207.728 84.8356 206.15 84.7976C203.489 84.7976 201.422 84.1245 199.95 82.7783C198.478 81.4321 197.741 79.5901 197.74 77.2522V64.0901H202.116V76.5956C202.116 78.17 202.436 79.3252 203.078 80.0609C203.72 80.7967 204.782 81.1647 206.263 81.1649C207.698 81.1649 208.738 80.7945 209.384 80.0538C210.031 79.3132 210.354 78.1511 210.354 76.5676V64.0901H214.728Z" fill="white"/>
</g>
<defs>
<clipPath id="clip0_16_3">
<rect width="265" height="144" fill="white"/>
</clipPath>
</defs>
</svg>
