<svg width="75" height="70" viewBox="0 0 75 70" fill="none" xmlns="http://www.w3.org/2000/svg">
<g opacity="0.7">
<path d="M63.7835 0.609619H50.592V16.1865H63.7835V0.609619Z" fill="#F4F4F4"/>
<path d="M63.7837 16.1865H64.2117V0.609666H63.7837V16.1865Z" fill="#F4F4F4"/>
<path opacity="0.05" d="M63.7837 16.1865H64.2117V0.609666H63.7837V16.1865Z" fill="#292A2E"/>
<path opacity="0.05" d="M61.3806 3.72534H52.9951V13.0707H61.3806V3.72534Z" fill="#292A2E"/>
<path opacity="0.03" d="M61.3806 3.72534H60.9436V13.0707H61.3806V3.72534Z" fill="#292A2E"/>
<path d="M74.5722 20.3928H63.7837V31.2385H74.5722V20.3928Z" fill="#F4F4F4"/>
<path opacity="0.05" d="M72.607 22.3684H65.749V29.2627H72.607V22.3684Z" fill="#292A2E"/>
<path d="M74.5723 31.2385H75.0002V20.3928H74.5723V31.2385Z" fill="#F4F4F4"/>
<path opacity="0.05" d="M74.5723 31.2385H75.0002V20.3928H74.5723V31.2385Z" fill="#292A2E"/>
<path opacity="0.03" d="M72.6069 22.3684H72.1699V29.2627H72.6069V22.3684Z" fill="#292A2E"/>
</g>
<g opacity="0.7">
<path d="M36.7738 0H5.71729V30.9372H36.7738V0Z" fill="#F4F4F4"/>
<path d="M5.7173 0H5.36133V30.9372H5.7173V0Z" fill="#F4F4F4"/>
<path opacity="0.05" d="M5.7173 0H5.36133V30.9372H5.7173V0Z" fill="#292A2E"/>
<path opacity="0.05" d="M13.2411 21.3183V13.2241H19.897V17.9266H30.207V26.2531H34.5889V30.9372H30.207H29.3629H7.21143V21.3183H13.2411Z" fill="#292A2E"/>
<path opacity="0.34" d="M19.0425 14.1028H14.1956V14.9808H19.0425V14.1028Z" fill="#FFFFFA"/>
<path opacity="0.34" d="M19.0425 15.9241H14.1956V16.8021H19.0425V15.9241Z" fill="#FFFFFA"/>
<path opacity="0.34" d="M19.0425 17.7451H14.1956V18.6231H19.0425V17.7451Z" fill="#FFFFFA"/>
<path opacity="0.34" d="M8.96437 22.1714H8.07104V23.0494H8.96437V22.1714Z" fill="#FFFFFA"/>
<path opacity="0.34" d="M8.96437 23.9927H8.07104V24.8707H8.96437V23.9927Z" fill="#FFFFFA"/>
<path opacity="0.34" d="M8.96437 25.8137H8.07104V26.6917H8.96437V25.8137Z" fill="#FFFFFA"/>
<path opacity="0.34" d="M10.617 22.1714H9.72363V23.0494H10.617V22.1714Z" fill="#FFFFFA"/>
<path opacity="0.34" d="M10.617 23.9927H9.72363V24.8707H10.617V23.9927Z" fill="#FFFFFA"/>
<path opacity="0.34" d="M10.617 25.8137H9.72363V26.6917H10.617V25.8137Z" fill="#FFFFFA"/>
<path opacity="0.34" d="M12.2249 22.1714H11.3315V23.0494H12.2249V22.1714Z" fill="#FFFFFA"/>
<path opacity="0.34" d="M12.2249 23.9927H11.3315V24.8707H12.2249V23.9927Z" fill="#FFFFFA"/>
<path opacity="0.34" d="M12.2249 25.8137H11.3315V26.6917H12.2249V25.8137Z" fill="#FFFFFA"/>
<path d="M5.71729 15.295H11.9664V0H12.4832V15.295H29.3627V0H29.8795V15.295H36.7738V15.8099H29.8795V30.9372H29.3627V15.8099H12.4832V30.9372H11.9664V15.8099H5.71729V15.295Z" fill="white"/>
<path d="M38.0111 30.8999H4.48022V31.9287H38.0111V30.8999Z" fill="#F4F4F4"/>
<path opacity="0.1" d="M38.0111 30.8999H4.48022V31.9287H38.0111V30.8999Z" fill="#292A2E"/>
<path opacity="0.1" d="M4.48017 30.8999H3.99609V31.9287H4.48017V30.8999Z" fill="#292A2E"/>
<path opacity="0.1" d="M4.48017 30.8999H3.99609V31.9287H4.48017V30.8999Z" fill="#292A2E"/>
</g>
<path d="M23.642 3.8418H59.9928C60.5164 3.8418 61.0186 4.04901 61.3889 4.41785C61.7591 4.78668 61.9672 5.28694 61.9672 5.80855V49.1792C61.9672 49.7121 61.7546 50.2233 61.3763 50.6001C60.998 50.977 60.4849 51.1887 59.9499 51.1887H23.685C23.15 51.1887 22.6369 50.977 22.2586 50.6001C21.8803 50.2233 21.6677 49.7121 21.6677 49.1792V5.80832C21.6678 5.28676 21.8758 4.78658 22.246 4.41779C22.6163 4.04901 23.1184 3.84182 23.642 3.8418Z" fill="white"/>
<path d="M59.9496 51.2647H23.6848C23.1294 51.2647 22.5968 51.0449 22.2041 50.6538C21.8114 50.2626 21.5908 49.732 21.5908 49.1788V5.73166C21.5909 5.21009 21.7989 4.7099 22.1691 4.34111C22.5394 3.97232 23.0415 3.76514 23.5651 3.76514H60.0693C60.5929 3.76514 61.095 3.97234 61.4653 4.34116C61.8355 4.70998 62.0436 5.21021 62.0436 5.73181V49.1788C62.0436 49.732 61.823 50.2626 61.4303 50.6538C61.0376 51.0449 60.505 51.2647 59.9496 51.2647ZM21.7442 5.80475V49.1788C21.7441 49.4327 21.7943 49.6841 21.8919 49.9186C21.9894 50.1532 22.1323 50.3663 22.3125 50.5458C22.4927 50.7253 22.7067 50.8677 22.9421 50.9648C23.1776 51.062 23.4299 51.112 23.6848 51.112H59.9496C60.4643 51.112 60.9579 50.9083 61.3219 50.5458C61.6858 50.1832 61.8903 49.6915 61.8903 49.1788V5.78566C61.8902 5.54035 61.8417 5.29745 61.7474 5.07082C61.6532 4.8442 61.515 4.63829 61.3409 4.46485C61.1667 4.29141 60.96 4.15384 60.7324 4.05999C60.5049 3.96614 60.2611 3.91785 60.0148 3.91788H23.6385C23.1361 3.91788 22.6543 4.11667 22.299 4.47052C21.9438 4.82438 21.7442 5.30431 21.7442 5.80475Z" fill="#292A2E"/>
<path d="M29.4851 13.2567H25.0799C24.8344 13.2564 24.599 13.1591 24.4254 12.9862C24.2518 12.8133 24.1541 12.5789 24.1538 12.3343V7.94595C24.1541 7.70137 24.2518 7.46689 24.4254 7.29395C24.599 7.121 24.8344 7.02372 25.0799 7.02344H29.4851C29.7306 7.0237 29.966 7.12097 30.1397 7.29392C30.3133 7.46686 30.411 7.70135 30.4112 7.94595V12.3343C30.4109 12.5789 30.3132 12.8133 30.1396 12.9863C29.966 13.1592 29.7306 13.2564 29.4851 13.2567ZM25.0799 7.17603C24.875 7.17627 24.6786 7.25745 24.5337 7.40176C24.3889 7.54606 24.3074 7.74171 24.3071 7.94579V12.3343C24.3074 12.5384 24.3889 12.7341 24.5337 12.8784C24.6786 13.0227 24.875 13.1038 25.0799 13.1041H29.4851C29.69 13.1039 29.8864 13.0227 30.0313 12.8784C30.1762 12.7341 30.2577 12.5384 30.2579 12.3343V7.94595C30.2577 7.74185 30.1762 7.54619 30.0313 7.40188C29.8864 7.25757 29.69 7.17641 29.4851 7.17618L25.0799 7.17603Z" fill="#292A2E"/>
<path d="M29.4851 21.9507H25.0799C24.8344 21.9504 24.599 21.8531 24.4254 21.6802C24.2518 21.5072 24.1541 21.2728 24.1538 21.0282V16.6399C24.1541 16.3953 24.2517 16.1608 24.4253 15.9878C24.5989 15.8149 24.8343 15.7176 25.0799 15.7173H29.4851C29.7306 15.7176 29.966 15.8149 30.1397 15.9878C30.3133 16.1608 30.411 16.3953 30.4112 16.6399V21.0282C30.411 21.2728 30.3133 21.5073 30.1397 21.6802C29.966 21.8531 29.7306 21.9504 29.4851 21.9507ZM25.0799 15.8703C24.875 15.8705 24.6786 15.9517 24.5337 16.096C24.3888 16.2403 24.3074 16.436 24.3071 16.6401V21.0284C24.3074 21.2325 24.3889 21.4282 24.5337 21.5725C24.6786 21.7168 24.875 21.7979 25.0799 21.7982H29.4851C29.69 21.7979 29.8864 21.7168 30.0313 21.5725C30.1762 21.4282 30.2577 21.2325 30.2579 21.0284V16.6399C30.2577 16.4358 30.1762 16.2401 30.0313 16.0958C29.8864 15.9515 29.69 15.8703 29.4851 15.87L25.0799 15.8703Z" fill="#292A2E"/>
<path d="M29.4851 30.6449H25.0799C24.8344 30.6447 24.599 30.5474 24.4254 30.3744C24.2518 30.2015 24.1541 29.967 24.1538 29.7224V25.3341C24.1541 25.0896 24.2518 24.8551 24.4254 24.6821C24.599 24.5092 24.8344 24.4119 25.0799 24.4116H29.4851C29.7306 24.4119 29.966 24.5092 30.1397 24.6821C30.3133 24.855 30.411 25.0895 30.4112 25.3341V29.7224C30.411 29.967 30.3133 30.2015 30.1397 30.3745C29.966 30.5474 29.7306 30.6447 29.4851 30.6449ZM25.0799 24.5644C24.875 24.5646 24.6786 24.6458 24.5337 24.7901C24.3889 24.9344 24.3074 25.13 24.3071 25.3341V29.7224C24.3074 29.9265 24.3889 30.1222 24.5337 30.2665C24.6786 30.4108 24.875 30.492 25.0799 30.4922H29.4851C29.69 30.492 29.8864 30.4108 30.0313 30.2665C30.1762 30.1222 30.2577 29.9265 30.2579 29.7224V25.3341C30.2577 25.13 30.1762 24.9344 30.0313 24.7901C29.8864 24.6458 29.69 24.5646 29.4851 24.5644H25.0799Z" fill="#292A2E"/>
<path d="M29.4851 39.2195H25.0799C24.8344 39.2192 24.599 39.1219 24.4254 38.949C24.2518 38.776 24.1541 38.5416 24.1538 38.297V33.9087C24.1541 33.6641 24.2517 33.4296 24.4253 33.2566C24.5989 33.0837 24.8343 32.9864 25.0799 32.9861H29.4851C29.7306 32.9864 29.966 33.0837 30.1397 33.2566C30.3133 33.4296 30.411 33.6641 30.4112 33.9087V38.297C30.411 38.5416 30.3133 38.7761 30.1397 38.949C29.966 39.1219 29.7306 39.2192 29.4851 39.2195ZM25.0799 33.1388C24.875 33.1391 24.6786 33.2202 24.5337 33.3646C24.3888 33.5089 24.3073 33.7046 24.3071 33.9087V38.297C24.3074 38.5011 24.3889 38.6967 24.5337 38.841C24.6786 38.9853 24.875 39.0665 25.0799 39.0667H29.4851C29.69 39.0665 29.8864 38.9853 30.0313 38.841C30.1762 38.6967 30.2577 38.5011 30.2579 38.297V33.9087C30.2577 33.7046 30.1762 33.5089 30.0313 33.3646C29.8864 33.2202 29.69 33.1391 29.4851 33.1388H25.0799Z" fill="#292A2E"/>
<path d="M29.4851 47.7942H25.0799C24.8343 47.7939 24.5989 47.6966 24.4253 47.5237C24.2517 47.3507 24.1541 47.1162 24.1538 46.8716V42.4834C24.1541 42.2388 24.2517 42.0043 24.4253 41.8313C24.5989 41.6584 24.8343 41.5611 25.0799 41.5608H29.4851C29.7306 41.5611 29.966 41.6584 30.1397 41.8313C30.3133 42.0043 30.411 42.2388 30.4112 42.4834V46.8717C30.4109 47.1163 30.3133 47.3507 30.1396 47.5237C29.966 47.6966 29.7306 47.7939 29.4851 47.7942ZM25.0799 41.7135C24.875 41.7137 24.6786 41.7949 24.5337 41.9392C24.3888 42.0835 24.3074 42.2792 24.3071 42.4833V46.8716C24.3074 47.0757 24.3888 47.2714 24.5337 47.4157C24.6786 47.56 24.875 47.6412 25.0799 47.6414H29.4851C29.69 47.6412 29.8864 47.56 30.0313 47.4157C30.1762 47.2714 30.2577 47.0757 30.2579 46.8716V42.4834C30.2577 42.2793 30.1762 42.0836 30.0313 41.9393C29.8864 41.795 29.69 41.7138 29.4851 41.7135L25.0799 41.7135Z" fill="#292A2E"/>
<path d="M26.4987 20.5897C26.4194 20.5897 26.3432 20.5591 26.2861 20.5044L25.0021 19.2748C24.9731 19.247 24.9498 19.2137 24.9337 19.177C24.9175 19.1402 24.9088 19.1007 24.908 19.0605C24.9072 19.0204 24.9144 18.9806 24.929 18.9432C24.9437 18.9058 24.9656 18.8717 24.9935 18.8428C25.0214 18.8139 25.0548 18.7907 25.0917 18.7746C25.1286 18.7585 25.1683 18.7498 25.2086 18.749C25.2488 18.7483 25.2889 18.7554 25.3264 18.77C25.3639 18.7846 25.3981 18.8064 25.4272 18.8342L26.4935 19.8554L29.1662 17.1686C29.2236 17.112 29.3011 17.0803 29.3819 17.0803C29.4627 17.0804 29.5402 17.1121 29.5976 17.1688C29.655 17.2254 29.6877 17.3024 29.6885 17.3828C29.6893 17.4633 29.6581 17.5408 29.6019 17.5986L26.7165 20.4989C26.688 20.5276 26.6541 20.5505 26.6167 20.5661C26.5793 20.5817 26.5392 20.5897 26.4987 20.5897Z" fill="#0CBC8B"/>
<path d="M26.4987 29.2837C26.4194 29.2838 26.3432 29.2533 26.2861 29.1985L25.0021 27.9689C24.9435 27.9128 24.9096 27.8357 24.908 27.7547C24.9064 27.6737 24.9372 27.5954 24.9935 27.5369C25.0499 27.4785 25.1272 27.4448 25.2086 27.4432C25.2899 27.4416 25.3685 27.4722 25.4272 27.5284L26.4935 28.5493L29.1662 25.8627C29.2234 25.8051 29.3013 25.7726 29.3826 25.7722C29.4639 25.7718 29.5421 25.8037 29.5999 25.8607C29.6576 25.9177 29.6903 25.9953 29.6907 26.0763C29.6911 26.1573 29.6591 26.2352 29.6019 26.2927L26.7165 29.193C26.688 29.2218 26.6541 29.2446 26.6167 29.2602C26.5793 29.2757 26.5392 29.2838 26.4987 29.2837Z" fill="#0CBC8B"/>
<path opacity="0.5" d="M58.6547 8.78125H32.8187C32.7005 8.78125 32.6047 8.87659 32.6047 8.9942C32.6047 9.11181 32.7005 9.20716 32.8187 9.20716H58.6547C58.7729 9.20716 58.8687 9.11181 58.8687 8.9942C58.8687 8.87659 58.7729 8.78125 58.6547 8.78125Z" fill="#262626"/>
<path opacity="0.5" d="M49.4546 11.0723H32.8187C32.7005 11.0723 32.6047 11.1676 32.6047 11.2852C32.6047 11.4028 32.7005 11.4982 32.8187 11.4982H49.4546C49.5728 11.4982 49.6686 11.4028 49.6686 11.2852C49.6686 11.1676 49.5728 11.0723 49.4546 11.0723Z" fill="#262626"/>
<path opacity="0.5" d="M58.6547 17.4753H32.8187C32.7005 17.4753 32.6047 17.5707 32.6047 17.6883C32.6047 17.8059 32.7005 17.9012 32.8187 17.9012H58.6547C58.7729 17.9012 58.8687 17.8059 58.8687 17.6883C58.8687 17.5707 58.7729 17.4753 58.6547 17.4753Z" fill="#262626"/>
<path opacity="0.5" d="M49.4546 19.7666H32.8187C32.7005 19.7666 32.6047 19.8619 32.6047 19.9796C32.6047 20.0972 32.7005 20.1925 32.8187 20.1925H49.4546C49.5728 20.1925 49.6686 20.0972 49.6686 19.9796C49.6686 19.8619 49.5728 19.7666 49.4546 19.7666Z" fill="#262626"/>
<path opacity="0.5" d="M58.6547 26.1694H32.8187C32.7005 26.1694 32.6047 26.2648 32.6047 26.3824C32.6047 26.5 32.7005 26.5953 32.8187 26.5953H58.6547C58.7729 26.5953 58.8687 26.5 58.8687 26.3824C58.8687 26.2648 58.7729 26.1694 58.6547 26.1694Z" fill="#262626"/>
<path opacity="0.5" d="M49.4546 28.4607H32.8187C32.7005 28.4607 32.6047 28.556 32.6047 28.6736C32.6047 28.7913 32.7005 28.8866 32.8187 28.8866H49.4546C49.5728 28.8866 49.6686 28.7913 49.6686 28.6736C49.6686 28.556 49.5728 28.4607 49.4546 28.4607Z" fill="#262626"/>
<path opacity="0.5" d="M58.6547 34.7441H32.8187C32.7005 34.7441 32.6047 34.8395 32.6047 34.9571C32.6047 35.0747 32.7005 35.17 32.8187 35.17H58.6547C58.7729 35.17 58.8687 35.0747 58.8687 34.9571C58.8687 34.8395 58.7729 34.7441 58.6547 34.7441Z" fill="#262626"/>
<path opacity="0.5" d="M49.4546 37.0354H32.8187C32.7005 37.0354 32.6047 37.1307 32.6047 37.2484C32.6047 37.366 32.7005 37.4613 32.8187 37.4613H49.4546C49.5728 37.4613 49.6686 37.366 49.6686 37.2484C49.6686 37.1307 49.5728 37.0354 49.4546 37.0354Z" fill="#262626"/>
<path opacity="0.5" d="M58.6547 43.3186H32.8187C32.7005 43.3186 32.6047 43.4139 32.6047 43.5316C32.6047 43.6492 32.7005 43.7445 32.8187 43.7445H58.6547C58.7729 43.7445 58.8687 43.6492 58.8687 43.5316C58.8687 43.4139 58.7729 43.3186 58.6547 43.3186Z" fill="#262626"/>
<path opacity="0.5" d="M49.4546 45.6099H32.8187C32.7005 45.6099 32.6047 45.7052 32.6047 45.8228C32.6047 45.9404 32.7005 46.0358 32.8187 46.0358H49.4546C49.5728 46.0358 49.6686 45.9404 49.6686 45.8228C49.6686 45.7052 49.5728 45.6099 49.4546 45.6099Z" fill="#262626"/>
<path d="M26.2773 11.7025C26.2997 11.6478 26.3394 11.6018 26.3903 11.5716C26.4413 11.5415 26.5008 11.5287 26.5597 11.5353C26.5597 11.5306 26.5556 11.5191 26.5638 11.5192L26.3722 11.3985C26.3149 11.3642 26.272 11.3103 26.2514 11.2469C26.2309 11.1835 26.2341 11.1149 26.2604 11.0536C26.2884 10.994 26.3376 10.9468 26.3985 10.9212C26.4594 10.8956 26.5277 10.8935 26.5901 10.9153C26.5895 10.9127 26.5911 10.9101 26.5913 10.9077L26.5125 10.8581C26.4586 10.8255 26.4177 10.7754 26.3967 10.7162C26.3756 10.6571 26.3757 10.5925 26.397 10.5334C26.4112 10.4966 26.4333 10.4634 26.4619 10.4362C26.4904 10.409 26.5247 10.3885 26.5622 10.3761C26.5997 10.3636 26.6395 10.3597 26.6787 10.3644C26.7179 10.3692 26.7556 10.3825 26.789 10.4035L26.971 10.5181C26.9715 10.517 26.971 10.5159 26.9715 10.5149C26.9719 10.5139 26.974 10.5134 26.9749 10.5123C26.9322 10.4697 26.9053 10.4139 26.8986 10.3541C26.8918 10.2942 26.9057 10.2339 26.9379 10.1829C27.0126 10.046 27.2044 10.0618 27.3221 10.1359L27.6748 10.3977C27.7291 10.4381 27.7727 10.4913 27.8014 10.5525C27.8302 10.6138 27.8433 10.6811 27.8396 10.7486C27.8082 11.3327 27.6896 12.8565 27.314 12.6197L26.3895 12.0382C26.336 12.0027 26.2959 11.9503 26.2756 11.8895C26.2552 11.8287 26.2559 11.7629 26.2773 11.7025Z" fill="#E98862"/>
<path d="M26.4986 11.8086C26.4193 11.8086 26.3431 11.778 26.286 11.7233L25.002 10.4937C24.9725 10.466 24.9489 10.4327 24.9324 10.3959C24.9159 10.359 24.9068 10.3192 24.9059 10.2789C24.9049 10.2385 24.9119 10.1984 24.9266 10.1608C24.9413 10.1232 24.9633 10.0888 24.9914 10.0597C25.0194 10.0306 25.053 10.0073 25.0902 9.99125C25.1273 9.97516 25.1673 9.96657 25.2078 9.96596C25.2484 9.96536 25.2886 9.97276 25.3262 9.98773C25.3638 10.0027 25.3981 10.025 25.4271 10.0532L26.4933 11.0742L29.166 8.38759C29.1944 8.3591 29.2281 8.33644 29.2652 8.32091C29.3024 8.30539 29.3422 8.29731 29.3825 8.29712C29.4228 8.29694 29.4627 8.30466 29.5 8.31984C29.5372 8.33502 29.5711 8.35737 29.5998 8.38561C29.6284 8.41385 29.6511 8.44742 29.6667 8.48442C29.6823 8.52141 29.6904 8.5611 29.6906 8.60122C29.6908 8.64134 29.683 8.6811 29.6678 8.71823C29.6525 8.75537 29.6301 8.78915 29.6017 8.81765L26.7164 11.7179C26.6879 11.7467 26.654 11.7695 26.6166 11.785C26.5792 11.8006 26.5391 11.8086 26.4986 11.8086Z" fill="#0CBC8B"/>
<path d="M25.6151 11.0629C25.6215 11.0184 25.637 10.9757 25.6605 10.9373C25.6841 10.899 25.7152 10.8658 25.7521 10.8399C25.7889 10.8139 25.8307 10.7957 25.8748 10.7864C25.9189 10.7771 25.9645 10.7768 26.0088 10.7856C26.0938 10.8056 26.168 10.857 26.2165 10.9294C26.265 11.0018 26.284 11.0898 26.2699 11.1757L26.2607 11.6447C26.2587 11.7439 26.2933 11.8404 26.3579 11.9159C26.4224 11.9915 26.5125 12.0409 26.6111 12.0548C26.7078 12.0685 26.8062 12.0471 26.8884 11.9947C26.9706 11.9422 27.0312 11.8621 27.0591 11.7689L27.2993 10.9683L27.0381 10.5798C27.1295 10.4332 27.2062 10.054 27.3645 10.1669C27.4984 10.2499 27.8026 10.4504 27.8858 10.6405C27.8874 10.6412 28.0431 12.2716 27.9584 12.4075L27.2088 14.4051C26.8491 14.9819 25.1135 14.5356 25.1135 14.5356L25.6151 11.0629Z" fill="#E98862"/>
<path d="M26.4937 11.0742L29.1664 8.38759C29.1947 8.3591 29.2284 8.33644 29.2655 8.32091C29.3027 8.30539 29.3425 8.29731 29.3828 8.29712C29.4231 8.29694 29.463 8.30466 29.5003 8.31984C29.5375 8.33502 29.5715 8.35737 29.6001 8.38561C29.6287 8.41385 29.6514 8.44742 29.667 8.48442C29.6826 8.52141 29.6907 8.5611 29.6909 8.60122C29.6911 8.64134 29.6833 8.6811 29.6681 8.71823C29.6528 8.75537 29.6304 8.78915 29.6021 8.81765L26.7167 11.7179" fill="#0CBC8B"/>
<path d="M12.8528 24.9594L23.6695 24.0526C24.4659 24.0735 25.1594 23.4138 25.4515 22.6736L28.2854 13.8252L24.5783 12.3735L22.0767 19.953L12.5637 20.6162L12.8528 24.9594Z" fill="#367CFF"/>
<path d="M6.57234 66.6201C6.57234 66.6201 6.91849 68.4072 8.5985 68.5071C10.2785 68.607 9.91419 69.94 9.91419 69.94H3.49414V66.7447L6.57234 66.6201Z" fill="#367CFF"/>
<path d="M4.59201 34.014C4.59201 34.014 4.61217 33.4767 4.60788 34.6956C4.59201 39.242 4.51281 44.435 4.3193 47.4739C4.00826 52.359 3.21069 67.7607 3.21069 67.7607L7.42939 67.7254L11.5182 33.8293L4.59201 34.014Z" fill="#262626"/>
<path d="M9.35596 39.3755C9.35596 39.3755 9.53076 42.6748 9.56296 43.4493C9.63794 45.2406 9.66401 47.0953 9.66401 49.1981L10.3292 43.6854C10.3292 43.6854 9.84256 41.9579 9.35596 39.3755Z" fill="#0A0A0A"/>
<path d="M14.0826 66.6201C14.0826 66.6201 14.4287 68.4072 16.1088 68.5071C17.7888 68.607 17.4244 69.94 17.4244 69.94H11.0044V66.7447L14.0826 66.6201Z" fill="#367CFF"/>
<path d="M16.1254 34.3671C16.1254 34.3671 16.499 49.9057 16.4443 50.6651L14.8755 67.6428L10.7264 67.7192L11.1308 50.0508C11.1308 50.0508 10.8456 45.177 9.66345 40.6513C9.05862 38.3286 8.69462 35.9502 8.57715 33.5535L16.1254 34.3671Z" fill="#262626"/>
<path d="M4.54583 34.013L4.53198 34.0138C4.53198 34.0138 4.54206 33.7504 4.54583 34.013Z" fill="#333333"/>
<path d="M16.719 26.2005C16.6321 27.2187 16.2088 33.113 16.1252 34.3671H4.59653C4.53144 33.236 4.23896 28.2897 3.99201 26.0777C3.75626 23.9669 3.29372 22.9101 3.63275 22.2861C4.18675 21.2662 5.70062 20.6769 6.73287 20.5377C7.36323 20.4527 12.7372 20.3916 12.75 20.3916C13.1722 20.3916 15.6301 20.5893 16.1735 21.0061C17.1566 21.7604 16.871 24.4249 16.719 26.2005Z" fill="#367CFF"/>
<path d="M16.8785 24.6521C16.8883 24.6521 16.8977 24.6484 16.9049 24.6417C16.9121 24.635 16.9164 24.6258 16.9169 24.6161L17.0102 23.1519C17.0108 23.1418 17.0073 23.1319 17.0006 23.1243C16.9938 23.1168 16.9843 23.1122 16.9741 23.1116C16.9639 23.1111 16.954 23.1146 16.9464 23.1214C16.9388 23.1281 16.9342 23.1374 16.9335 23.1475L16.8402 24.6117C16.8396 24.6218 16.843 24.6317 16.8498 24.6392C16.8566 24.6468 16.8661 24.6514 16.8763 24.652L16.8785 24.6521Z" fill="#0C0C0C"/>
<path d="M2.1041 34.3007C1.76506 34.3005 1.43106 34.2188 1.13052 34.0625C0.829988 33.9062 0.571813 33.6798 0.377965 33.4027C0.184116 33.1256 0.0603325 32.806 0.0171457 32.471C-0.0260411 32.136 0.0126473 31.7956 0.129919 31.4787C0.248677 31.1569 3.0409 23.7913 3.57228 22.4265L7.50831 24.0151C7.20931 24.7824 6.12653 27.691 5.25651 30.0341L6.70184 29.8776L7.15679 34.0464L2.33173 34.2883C2.25613 34.2965 2.18015 34.3006 2.1041 34.3007Z" fill="#367CFF"/>
<path d="M14.1237 20.2524C14.1108 20.2507 13.7572 21.5764 10.9974 21.37C9.08683 21.2274 8.6207 19.932 8.57715 19.932C8.78315 19.8884 9.11773 19.8431 9.20919 19.7945C9.51004 19.6335 9.72923 19.4375 9.83948 19.0167C9.92573 18.6878 9.96981 17.4213 9.96981 16.7859L12.9098 17.444C12.8688 18.1608 12.5819 19.8225 13.5872 20.1166C13.7544 20.1652 13.9346 20.2098 14.1237 20.2524Z" fill="#E98862"/>
<path d="M12.8078 18.853C11.6489 18.9441 10.16 18.4566 9.87715 16.9162L9.622 15.5263C9.33917 13.9859 9.92208 12.5892 11.3781 12.324C12.834 12.0587 14.1515 13.1092 14.4343 14.6496L14.5473 15.2649C14.6557 15.856 14.8757 18.6905 12.8078 18.853Z" fill="#E98862"/>
<path d="M13.8824 17.4389C13.6744 16.3976 13.5789 15.7028 13.59 14.97C13.8831 14.4583 13.806 13.8702 13.7394 13.6163C13.9412 13.744 14.1785 13.8046 14.417 13.7894C14.417 13.7894 13.9324 11.852 12.2853 11.3306C11.9824 11.2132 11.2091 11.0649 10.1822 11.2052C9.30893 11.3245 7.15611 11.975 6.84852 14.3894V14.3907C6.8384 14.4709 6.6317 16.6954 6.21985 17.7627C5.66592 19.1974 4.88813 19.6432 4.90784 21.2987C4.93321 23.4281 8.86295 23.7116 11.2329 23.5523C13.6028 23.393 14.9263 22.6166 14.9436 21.0821C14.9625 19.3625 14.2987 19.5222 13.8824 17.4389Z" fill="#0A0A0A"/>
<path d="M4.35154 26.1202L4.27466 26.1228L4.55793 34.3684L4.63481 34.3658L4.35154 26.1202Z" fill="#0C0C0C"/>
<path d="M73.2547 69.9928H1.15523C1.141 69.9928 1.12735 69.9872 1.11728 69.9773C1.10722 69.9673 1.10156 69.9538 1.10156 69.9397C1.10156 69.9256 1.10722 69.912 1.11728 69.9021C1.12735 69.8921 1.141 69.8865 1.15523 69.8865H73.2547C73.2689 69.8865 73.2826 69.8921 73.2926 69.9021C73.3027 69.912 73.3083 69.9256 73.3083 69.9397C73.3083 69.9538 73.3027 69.9673 73.2926 69.9773C73.2826 69.9872 73.2689 69.9928 73.2547 69.9928Z" fill="#292A2E"/>
<path d="M65.8126 59.9842C65.7923 59.9842 65.7728 59.9761 65.7584 59.9618C65.6504 59.8542 65.4743 57.88 65.0001 52.0019C64.806 49.5968 64.6226 47.3251 64.4889 45.9444C64.4794 45.8458 64.441 45.8344 64.4284 45.8306C64.2453 45.7756 63.6884 46.213 63.3775 46.596C63.3712 46.6038 63.3633 46.6103 63.3545 46.6151C63.3457 46.6199 63.3359 46.6229 63.3259 46.624C63.3159 46.625 63.3058 46.6241 63.2961 46.6212C63.2865 46.6184 63.2775 46.6137 63.2697 46.6074C63.2618 46.6011 63.2553 46.5933 63.2505 46.5845C63.2457 46.5757 63.2427 46.566 63.2416 46.556C63.2406 46.546 63.2415 46.536 63.2444 46.5263C63.2472 46.5167 63.2519 46.5078 63.2583 46.5C63.4639 46.2467 64.1339 45.5828 64.4725 45.6843C64.5408 45.7048 64.6258 45.7639 64.6416 45.9298C64.7754 47.3116 64.9588 49.584 65.1529 51.9897C65.4411 55.5617 65.7676 59.6084 65.8749 59.8632C65.8831 59.8746 65.888 59.8881 65.8891 59.9021C65.8901 59.9161 65.8873 59.9302 65.8808 59.9427C65.8744 59.9552 65.8646 59.9657 65.8526 59.973C65.8405 59.9803 65.8267 59.9842 65.8126 59.9842Z" fill="#494949"/>
<path d="M64.2919 48.4783C65.5641 47.4624 65.9857 45.8813 65.2337 44.9466C64.4816 44.012 62.8406 44.0779 61.5684 45.0937C60.2962 46.1096 59.8746 47.6908 60.6266 48.6254C61.3787 49.56 63.0197 49.4941 64.2919 48.4783Z" fill="#0CBC8B"/>
<path opacity="0.2" d="M64.2919 48.4783C65.5641 47.4624 65.9857 45.8813 65.2337 44.9466C64.4816 44.012 62.8406 44.0779 61.5684 45.0937C60.2962 46.1096 59.8746 47.6908 60.6266 48.6254C61.3787 49.56 63.0197 49.4941 64.2919 48.4783Z" fill="white"/>
<path d="M60.9831 48.863C60.9758 48.863 60.9687 48.8609 60.9626 48.857C60.9564 48.8531 60.9515 48.8476 60.9484 48.841C60.9454 48.8345 60.9442 48.8272 60.9451 48.82C60.9461 48.8128 60.949 48.806 60.9536 48.8004L64.5793 44.445C64.5825 44.441 64.5864 44.4377 64.5909 44.4353C64.5954 44.4329 64.6003 44.4314 64.6054 44.4309C64.6104 44.4303 64.6156 44.4308 64.6204 44.4323C64.6253 44.4338 64.6298 44.4362 64.6337 44.4395C64.6376 44.4427 64.6409 44.4467 64.6432 44.4512C64.6456 44.4557 64.647 44.4606 64.6474 44.4657C64.6479 44.4707 64.6473 44.4758 64.6457 44.4806C64.6441 44.4855 64.6416 44.4899 64.6383 44.4938L61.0126 48.8492C61.009 48.8536 61.0045 48.857 60.9994 48.8594C60.9943 48.8618 60.9887 48.863 60.9831 48.863Z" fill="white"/>
<path d="M66.603 59.0505C66.5908 59.0505 66.5787 59.0476 66.5679 59.042C66.557 59.0364 66.5476 59.0283 66.5405 59.0184C66.5334 59.0085 66.5289 58.997 66.5271 58.9849C66.5254 58.9729 66.5266 58.9606 66.5306 58.949L67.8925 55.0474C67.9326 54.9327 68.0009 54.83 68.0912 54.7484C68.1815 54.6669 68.2909 54.6093 68.4094 54.5808C68.5279 54.5523 68.6516 54.5539 68.7693 54.5854C68.887 54.6169 68.9949 54.6773 69.083 54.7611L69.803 55.4466C69.8177 55.4606 69.8262 55.4798 69.8267 55.5001C69.8272 55.5203 69.8195 55.5399 69.8055 55.5546C69.7914 55.5692 69.7721 55.5777 69.7518 55.5782C69.7315 55.5786 69.7118 55.571 69.6971 55.557L68.9771 54.8719C68.9075 54.8057 68.8223 54.7581 68.7294 54.7332C68.6365 54.7084 68.5389 54.7071 68.4454 54.7296C68.3519 54.7521 68.2655 54.7975 68.1942 54.8619C68.1229 54.9262 68.069 55.0073 68.0373 55.0978L66.6754 58.9992C66.6702 59.0142 66.6604 59.0272 66.6474 59.0364C66.6344 59.0456 66.6189 59.0505 66.603 59.0505Z" fill="#494949"/>
<path d="M71.815 57.6069C72.7579 56.8635 72.7018 55.2284 71.6899 53.9549C70.678 52.6813 69.0933 52.2516 68.1505 52.995C67.2077 53.7384 67.2637 55.3735 68.2756 56.647C69.2876 57.9205 70.8722 58.3503 71.815 57.6069Z" fill="#0CBC8B"/>
<path d="M65.1938 59.7356C65.1766 59.7356 65.1599 59.7298 65.1463 59.7191C65.1328 59.7085 65.1233 59.6936 65.1193 59.6769L62.8338 50.1575C62.8182 50.0926 62.785 50.0332 62.7377 49.986C62.6904 49.9387 62.6309 49.9053 62.5659 49.8895C62.5008 49.8737 62.4326 49.8761 62.3687 49.8965C62.3049 49.9168 62.248 49.9543 62.2042 50.0048L61.4997 50.8158C61.4864 50.8311 61.4675 50.8405 61.4472 50.842C61.4269 50.8434 61.4069 50.8368 61.3915 50.8236C61.3761 50.8103 61.3667 50.7915 61.3652 50.7713C61.3637 50.7511 61.3704 50.7311 61.3837 50.7158L62.0883 49.9048C62.1505 49.8331 62.2315 49.7798 62.3222 49.751C62.4129 49.7221 62.5098 49.7188 62.6023 49.7413C62.6948 49.7637 62.7793 49.8112 62.8464 49.8784C62.9136 49.9457 62.9608 50.0301 62.983 50.1223L65.2685 59.6417C65.2712 59.653 65.2713 59.6647 65.2688 59.6759C65.2663 59.6872 65.2613 59.6978 65.2541 59.7069C65.2469 59.7159 65.2377 59.7232 65.2273 59.7283C65.2169 59.7333 65.2054 59.7359 65.1938 59.7359V59.7356Z" fill="#494949"/>
<path d="M64.3054 52.9319C64.5825 51.3321 63.8471 49.8701 62.6627 49.6665C61.4783 49.4628 60.2935 50.5947 60.0163 52.1945C59.7391 53.7944 60.4745 55.2564 61.6589 55.46C62.8433 55.6636 64.0282 54.5318 64.3054 52.9319Z" fill="#0CBC8B"/>
<path d="M65.8126 59.9845C65.8094 59.9845 65.8063 59.9843 65.8031 59.9839C65.7931 59.9827 65.7835 59.9795 65.7747 59.9746C65.766 59.9696 65.7583 59.963 65.7521 59.9551C65.7459 59.9472 65.7413 59.9381 65.7386 59.9285C65.7359 59.9188 65.7352 59.9087 65.7364 59.8987L67.1959 48.0948C67.2117 47.9662 67.2646 47.8449 67.348 47.7455C67.4314 47.6461 67.5419 47.5729 67.6661 47.5345C67.7904 47.4962 67.9231 47.4944 68.0483 47.5294C68.1735 47.5644 68.2859 47.6347 68.372 47.7318L70.0401 49.6138C70.0536 49.629 70.0605 49.6489 70.0592 49.6692C70.058 49.6894 70.0487 49.7083 70.0334 49.7217C70.0182 49.7351 69.9982 49.742 69.9779 49.7407C69.9576 49.7395 69.9386 49.7302 69.9251 49.715L68.257 47.833C68.1905 47.7579 68.1036 47.7036 68.0068 47.6765C67.9101 47.6495 67.8075 47.6508 67.7115 47.6805C67.6155 47.7101 67.5301 47.7667 67.4656 47.8435C67.4011 47.9203 67.3603 48.014 67.348 48.1134L65.8886 59.9175C65.8863 59.9359 65.8773 59.953 65.8633 59.9653C65.8494 59.9777 65.8313 59.9845 65.8126 59.9845Z" fill="#494949"/>
<path d="M71.7511 50.6598C72.3331 49.6117 71.6483 48.1247 70.2215 47.3385C68.7948 46.5523 67.1664 46.7647 66.5844 47.8129C66.0023 48.861 66.6871 50.348 68.1139 51.1342C69.5406 51.9203 71.169 51.708 71.7511 50.6598Z" fill="#0CBC8B"/>
<path opacity="0.2" d="M71.815 57.6069C72.7579 56.8635 72.7018 55.2284 71.6899 53.9549C70.678 52.6813 69.0933 52.2516 68.1505 52.995C67.2077 53.7384 67.2637 55.3735 68.2756 56.647C69.2876 57.9205 70.8722 58.3503 71.815 57.6069Z" fill="white"/>
<path opacity="0.5" d="M64.3054 52.9319C64.5825 51.3321 63.8471 49.8701 62.6627 49.6665C61.4783 49.4628 60.2935 50.5947 60.0163 52.1945C59.7391 53.7944 60.4745 55.2564 61.6589 55.46C62.8433 55.6636 64.0282 54.5318 64.3054 52.9319Z" fill="white"/>
<path opacity="0.5" d="M71.7511 50.6598C72.3331 49.6117 71.6483 48.1247 70.2215 47.3385C68.7948 46.5523 67.1664 46.7647 66.5844 47.8129C66.0023 48.861 66.6871 50.348 68.1139 51.1342C69.5406 51.9203 71.169 51.708 71.7511 50.6598Z" fill="white"/>
<path d="M67.6792 70H63.9458L63.3271 58.1008H68.2979L67.6792 70Z" fill="#292A2E"/>
<path opacity="0.3" d="M67.6792 70H63.9458L63.3271 58.1008H68.2979L67.6792 70Z" fill="white"/>
<path d="M71.8152 57.6446C71.8094 57.6446 71.8036 57.6433 71.7984 57.6408C71.7932 57.6383 71.7886 57.6346 71.785 57.6301L68.1203 53.0182C68.114 53.0103 68.1111 53.0002 68.1123 52.9901C68.1135 52.98 68.1186 52.9708 68.1266 52.9645C68.1346 52.9583 68.1448 52.9554 68.1549 52.9566C68.165 52.9577 68.1742 52.9629 68.1805 52.9708L71.8452 57.5827C71.8497 57.5883 71.8525 57.595 71.8533 57.6022C71.8541 57.6093 71.8529 57.6165 71.8497 57.623C71.8466 57.6295 71.8417 57.6349 71.8356 57.6387C71.8295 57.6426 71.8225 57.6446 71.8152 57.6446H71.8152Z" fill="white"/>
<path d="M71.5073 51.0294C71.4991 51.0293 71.4912 51.0267 71.4847 51.0218L66.7953 47.6111C66.7912 47.6081 66.7878 47.6044 66.7851 47.6001C66.7825 47.5958 66.7808 47.591 66.78 47.5861C66.7792 47.5811 66.7794 47.5761 66.7806 47.5712C66.7818 47.5663 66.7839 47.5617 66.7869 47.5577C66.7899 47.5536 66.7936 47.5502 66.7979 47.5476C66.8022 47.545 66.807 47.5432 66.812 47.5424C66.817 47.5417 66.822 47.5419 66.8269 47.5431C66.8318 47.5443 66.8364 47.5464 66.8405 47.5493L71.5303 50.9604C71.5367 50.9652 71.5414 50.9719 71.5438 50.9795C71.5462 50.9872 71.5462 50.9954 71.5436 51.003C71.5411 51.0106 71.5362 51.0172 71.5297 51.0219C71.5231 51.0266 71.5153 51.0291 71.5073 51.0291V51.0294Z" fill="white"/>
<path d="M61.5118 55.4091C61.5084 55.4091 61.5051 55.4087 61.5018 55.4078C61.492 55.4052 61.4836 55.3988 61.4785 55.39C61.4734 55.3813 61.4721 55.3709 61.4747 55.3611L62.9676 49.7894C62.9688 49.7845 62.971 49.7799 62.974 49.7758C62.9771 49.7718 62.9809 49.7684 62.9853 49.7658C62.9897 49.7632 62.9945 49.7615 62.9996 49.7608C63.0046 49.7602 63.0097 49.7605 63.0146 49.7618C63.0196 49.7631 63.0242 49.7654 63.0282 49.7685C63.0322 49.7716 63.0356 49.7754 63.0381 49.7798C63.0406 49.7842 63.0422 49.7891 63.0428 49.7941C63.0434 49.7992 63.043 49.8043 63.0416 49.8092L61.5487 55.3808C61.5466 55.3889 61.5418 55.3961 61.5351 55.4012C61.5284 55.4063 61.5202 55.4091 61.5118 55.4091Z" fill="white"/>
</svg>
