<svg width="50" height="50" viewBox="0 0 50 50" fill="none" xmlns="http://www.w3.org/2000/svg">
<path d="M25 50C20.0555 50 15.222 48.5338 11.1107 45.7867C6.99952 43.0397 3.79521 39.1352 1.90302 34.5671C0.0108347 29.9989 -0.484252 24.9723 0.480378 20.1227C1.44501 15.2732 3.82603 10.8186 7.32234 7.32234C10.8187 3.82602 15.2732 1.44501 20.1227 0.48038C24.9723 -0.484251 29.9989 0.0108302 34.5671 1.90302C39.1352 3.79521 43.0397 6.99952 45.7867 11.1108C48.5338 15.222 50 20.0555 50 25C49.9924 31.6281 47.356 37.9825 42.6692 42.6692C37.9825 47.356 31.6281 49.9924 25 50ZM25 0.789901C20.2117 0.789901 15.5309 2.20979 11.5496 4.87003C7.56826 7.53027 4.46519 11.3114 2.63278 15.7352C0.800377 20.159 0.320941 25.0269 1.25509 29.7232C2.18925 34.4195 4.49503 38.7333 7.88088 42.1191C11.2667 45.505 15.5805 47.8108 20.2768 48.7449C24.9731 49.6791 29.841 49.1996 34.2648 47.3672C38.6886 45.5348 42.4697 42.4317 45.13 38.4504C47.7902 34.4691 49.2101 29.7883 49.2101 25C49.2031 18.5811 46.6502 12.4271 42.1115 7.88805C37.5728 3.34904 31.4189 0.795738 25 0.788316V0.789901Z" fill="#292A2E"/>
<path opacity="0.6" d="M37.8836 33.7868H12.2181C11.9295 33.7883 11.6521 33.6751 11.4469 33.4721C11.2418 33.2691 11.1257 32.9929 11.1241 32.7043L11.0344 17.3216C11.0337 17.1942 11.058 17.0678 11.1061 16.9498C11.1542 16.8318 11.225 16.7244 11.3147 16.6338C11.4043 16.5432 11.5109 16.4712 11.6283 16.4218C11.7458 16.3724 11.8719 16.3467 11.9993 16.3461L37.9017 16.2134C38.1588 16.212 38.4059 16.3128 38.5887 16.4936C38.7715 16.6744 38.875 16.9204 38.8765 17.1775L38.9661 32.6929C38.9669 32.8358 38.9395 32.9774 38.8855 33.1098C38.8315 33.2421 38.752 33.3625 38.6515 33.4641C38.5509 33.5657 38.4314 33.6465 38.2996 33.7019C38.1679 33.7572 38.0265 33.7861 37.8836 33.7868Z" fill="#367CFF"/>
<path d="M38.6004 16.5039C37.068 17.6295 25.9388 25.8207 25.927 25.8286C25.6247 25.9981 25.2827 26.0838 24.9362 26.0768C24.5898 26.0699 24.2514 25.9706 23.9562 25.7891L11.2979 16.654C11.388 16.5575 11.4968 16.4804 11.6178 16.4274C11.7387 16.3744 11.8692 16.3467 12.0013 16.346L37.9013 16.2117C38.0315 16.2113 38.1603 16.2369 38.2804 16.2871C38.4005 16.3373 38.5093 16.411 38.6004 16.5039Z" fill="#367CFF"/>
</svg>
