<svg width="50" height="50" viewBox="0 0 50 50" fill="none" xmlns="http://www.w3.org/2000/svg">
<path d="M25 50C20.0555 50 15.222 48.5338 11.1108 45.7867C6.99953 43.0397 3.79522 39.1352 1.90303 34.5671C0.0108435 29.9989 -0.484255 24.9723 0.480375 20.1227C1.44501 15.2732 3.82603 10.8186 7.32234 7.32234C10.8186 3.82602 15.2732 1.44501 20.1227 0.48038C24.9723 -0.48425 29.999 0.0108302 34.5671 1.90302C39.1353 3.79521 43.0397 6.99952 45.7867 11.1108C48.5338 15.222 50 20.0555 50 25C49.9924 31.6281 47.356 37.9825 42.6693 42.6692C37.9825 47.356 31.6281 49.9924 25 50ZM25 0.789901C20.2117 0.789901 15.5309 2.20979 11.5496 4.87003C7.56827 7.53028 4.46519 11.3114 2.63278 15.7352C0.800374 20.159 0.32095 25.0269 1.2551 29.7232C2.18925 34.4195 4.49504 38.7333 7.88089 42.1191C11.2667 45.505 15.5806 47.8108 20.2769 48.7449C24.9732 49.6791 29.841 49.1996 34.2648 47.3672C38.6886 45.5348 42.4697 42.4317 45.13 38.4504C47.7902 34.4691 49.2101 29.7883 49.2101 25C49.2031 18.5811 46.6502 12.4271 42.1115 7.88805C37.5728 3.34904 31.4189 0.795738 25 0.788316V0.789901Z" fill="#292A2E"/>
<path d="M20.2096 23.84L18.7516 24.0449C18.1948 24.1231 17.8007 24.6859 17.8715 25.3018L19.4311 38.8848C19.5018 39.5007 20.0106 39.9366 20.5674 39.8584L22.0254 39.6535C22.5822 39.5753 22.9763 39.0126 22.9056 38.3966L21.3459 24.8136C21.2752 24.1977 20.7665 23.7618 20.2096 23.84Z" fill="#292A2E"/>
<path d="M16.4426 17.9853L15.997 18.0479C13.2372 18.4357 11.2842 21.2248 11.6347 24.2776L11.6347 24.2778C11.9853 27.3306 14.5067 29.491 17.2664 29.1033L17.712 29.0407C20.4718 28.6529 22.4249 25.8638 22.0744 22.811L22.0743 22.8108C21.7238 19.758 19.2024 17.5975 16.4426 17.9853Z" fill="#367CFF"/>
<path d="M33.1136 24.7132L32.1503 25.1712L31.3406 18.1023L32.347 18.1878C32.3917 19.1907 32.4756 20.2474 32.6001 21.3368C32.7357 22.5212 32.91 23.6562 33.1136 24.7132Z" fill="#367CFF"/>
<path d="M36.0571 20.8527C36.2161 22.2407 36.0828 23.4023 35.7603 23.4483C35.7225 23.4496 35.6849 23.4411 35.6505 23.4235C35.6162 23.406 35.586 23.3798 35.5623 23.3472C35.2916 23.0485 35.0158 22.129 34.8887 21.0182C34.7704 19.9871 34.8137 19.0804 34.9765 18.6639C35.0324 18.5206 35.1026 18.4356 35.1854 18.4241C35.5072 18.3771 35.8982 19.4653 36.0571 20.8527Z" fill="#367CFF"/>
<path d="M32.6024 21.3597L32.6 21.3366C32.0838 16.8298 32.809 12.004 33.5209 10.1877C30.9013 12.89 27.136 15.5953 23.6572 16.603C22.2533 17.0095 20.5414 17.3601 17.9473 17.7203L19.2309 28.9273C21.8244 28.5603 23.5612 28.4277 25.0123 28.4341C28.6083 28.4501 32.8654 30.0307 36.0107 31.9252C34.9124 30.3627 33.1216 25.8895 32.6053 21.3828L32.6024 21.3597Z" fill="#367CFF"/>
<path d="M21.3661 16.6475L15.9968 17.4001C15.7944 17.4284 15.6512 17.6329 15.6768 17.8567L16.9964 29.3773C17.022 29.6011 17.2068 29.7596 17.4092 29.7312L22.7785 28.9787C22.9809 28.9503 23.1241 28.7458 23.0985 28.522L21.7789 17.0015C21.7533 16.7776 21.5685 16.6192 21.3661 16.6475Z" fill="#292A2E"/>
<path opacity="0.1" d="M21.3661 16.6475L15.9968 17.4001C15.7944 17.4284 15.6512 17.6329 15.6768 17.8567L16.9964 29.3773C17.022 29.6011 17.2068 29.7596 17.4092 29.7312L22.7785 28.9787C22.9809 28.9503 23.1241 28.7458 23.0985 28.522L21.7789 17.0015C21.7533 16.7776 21.5685 16.6192 21.3661 16.6475Z" fill="white"/>
<path d="M37.7069 20.6209C38.4012 26.6832 37.8194 31.7558 36.4106 31.9533C36.1298 31.9928 35.8378 31.8363 35.5461 31.5114C35.5445 31.5114 35.5444 31.5098 35.5427 31.5101C34.3604 30.205 33.1561 26.1893 32.6004 21.3366C32.0841 16.8299 32.2727 12.8702 32.984 11.054C33.2284 10.4278 33.5344 10.0566 33.8967 10.0059C35.3059 9.80843 37.0128 14.5607 37.7069 20.6209Z" fill="#0CBC8B"/>
<path opacity="0.3" d="M37.7069 20.6209C38.4012 26.6832 37.8194 31.7558 36.4106 31.9533C36.1298 31.9928 35.8378 31.8363 35.5461 31.5114L35.5427 31.5101C34.3604 30.205 33.1561 26.1893 32.6004 21.3366C32.0841 16.8299 32.2727 12.8702 32.984 11.054C33.2284 10.4278 33.5344 10.0566 33.8967 10.0059C35.3059 9.80843 37.0128 14.5607 37.7069 20.6209Z" fill="#367CFF"/>
<path opacity="0.6" d="M35.1861 18.429L35.7618 23.4541L33.114 24.7132C32.9104 23.6561 32.7362 22.5211 32.6005 21.3368C32.4758 20.2473 32.3916 19.1906 32.3474 18.1877L35.1861 18.429Z" fill="white"/>
<path d="M36.0571 20.8527C36.2161 22.2407 36.0828 23.4023 35.7603 23.4483C35.7225 23.4496 35.6849 23.4411 35.6505 23.4235C35.6162 23.406 35.586 23.3798 35.5623 23.3472C35.2916 23.0485 35.0158 22.129 34.8887 21.0182C34.7704 19.9871 34.8137 19.0804 34.9765 18.6639C35.0324 18.5206 35.1026 18.4356 35.1854 18.4241C35.5072 18.3771 35.8982 19.4653 36.0571 20.8527Z" fill="white"/>
</svg>
