<svg width="50" height="50" viewBox="0 0 50 50" fill="none" xmlns="http://www.w3.org/2000/svg">
<path d="M25 50C20.0555 50 15.222 48.5338 11.1108 45.7867C6.99953 43.0397 3.79522 39.1352 1.90303 34.5671C0.0108435 29.9989 -0.484255 24.9723 0.480375 20.1227C1.44501 15.2732 3.82603 10.8186 7.32234 7.32234C10.8186 3.82602 15.2732 1.44501 20.1227 0.48038C24.9723 -0.484251 29.999 0.0108302 34.5671 1.90302C39.1353 3.79521 43.0397 6.99952 45.7867 11.1108C48.5338 15.222 50 20.0555 50 25C49.9924 31.6281 47.356 37.9825 42.6693 42.6692C37.9825 47.356 31.6281 49.9924 25 50ZM25 0.789901C20.2117 0.789901 15.5309 2.20979 11.5496 4.87003C7.56827 7.53027 4.46519 11.3114 2.63278 15.7352C0.800374 20.159 0.32095 25.0269 1.2551 29.7232C2.18925 34.4195 4.49504 38.7333 7.88089 42.1191C11.2667 45.505 15.5806 47.8108 20.2769 48.7449C24.9732 49.6791 29.841 49.1996 34.2648 47.3672C38.6886 45.5348 42.4697 42.4317 45.13 38.4504C47.7902 34.4691 49.2101 29.7883 49.2101 25C49.2031 18.5811 46.6502 12.4271 42.1115 7.88805C37.5728 3.34904 31.4189 0.795738 25 0.788316V0.789901Z" fill="#292A2E"/>
<path opacity="0.6" d="M40.5624 28.6016V13.0356H22.6023V25.2489H35.8819L40.5624 28.6016Z" fill="#367CFF"/>
<path d="M9.43677 39.9135V18.8613H33.7274V35.3791H15.7673L9.43677 39.9135Z" fill="#367CFF"/>
<path d="M14.9427 29.3871C16.1053 29.3871 17.0477 28.4446 17.0477 27.2821C17.0477 26.1195 16.1053 25.177 14.9427 25.177C13.7801 25.177 12.8376 26.1195 12.8376 27.2821C12.8376 28.4446 13.7801 29.3871 14.9427 29.3871Z" fill="white"/>
<path d="M21.5821 29.3871C22.7447 29.3871 23.6871 28.4446 23.6871 27.2821C23.6871 26.1195 22.7447 25.177 21.5821 25.177C20.4195 25.177 19.4771 26.1195 19.4771 27.2821C19.4771 28.4446 20.4195 29.3871 21.5821 29.3871Z" fill="white"/>
<path d="M28.2215 29.3871C29.3841 29.3871 30.3266 28.4446 30.3266 27.2821C30.3266 26.1195 29.3841 25.177 28.2215 25.177C27.0589 25.177 26.1165 26.1195 26.1165 27.2821C26.1165 28.4446 27.0589 29.3871 28.2215 29.3871Z" fill="white"/>
</svg>
