<svg width="50" height="50" viewBox="0 0 50 50" fill="none" xmlns="http://www.w3.org/2000/svg">
<path d="M25 50C20.0555 50 15.222 48.5338 11.1108 45.7867C6.99952 43.0397 3.79521 39.1352 1.90302 34.5671C0.0108302 29.9989 -0.484251 24.9723 0.48038 20.1227C1.44501 15.2732 3.82603 10.8186 7.32234 7.32234C10.8187 3.82602 15.2732 1.44501 20.1227 0.48038C24.9723 -0.484251 29.9989 0.0108302 34.5671 1.90302C39.1352 3.79521 43.0397 6.99952 45.7867 11.1108C48.5338 15.222 50 20.0555 50 25C49.9924 31.6281 47.356 37.9825 42.6692 42.6692C37.9825 47.356 31.6281 49.9924 25 50ZM25 0.789901C20.2117 0.789901 15.5309 2.20979 11.5496 4.87003C7.56826 7.53027 4.46519 11.3114 2.63278 15.7352C0.800379 20.159 0.320936 25.0269 1.25509 29.7232C2.18924 34.4195 4.49503 38.7333 7.88087 42.1191C11.2667 45.505 15.5805 47.8108 20.2768 48.7449C24.9731 49.6791 29.841 49.1996 34.2648 47.3672C38.6886 45.5348 42.4697 42.4317 45.13 38.4504C47.7902 34.4691 49.2101 29.7883 49.2101 25C49.2031 18.5811 46.6502 12.4271 42.1115 7.88805C37.5728 3.34904 31.4189 0.795738 25 0.788316V0.789901Z" fill="#292A2E"/>
<path d="M37.4559 32.6493C37.6978 32.8107 37.8683 33.0591 37.932 33.3428C37.9958 33.6266 37.9479 33.924 37.7983 34.1734L36.4366 36.4423C36.0754 37.056 35.4919 37.5071 34.807 37.7022C32.5436 38.323 27.5523 38.4479 19.5515 30.4483C11.5507 22.4487 11.6767 17.4546 12.2976 15.1923C12.4925 14.5074 12.9433 13.9237 13.5566 13.562L15.8264 12.2006C16.0757 12.0511 16.3731 12.0033 16.6568 12.0672C16.9404 12.1311 17.1886 12.3018 17.3497 12.5438L20.9682 17.9716C21.1263 18.2092 21.1887 18.4979 21.1429 18.7797C21.0971 19.0614 20.9465 19.3155 20.7213 19.4909L18.6889 21.0707C18.4758 21.2352 18.3286 21.4707 18.2741 21.7345C18.2196 21.9982 18.2614 22.2727 18.3919 22.5083C18.9883 23.581 19.5535 24.8452 22.3521 27.6473C25.1506 30.4494 26.42 31.011 27.4911 31.6074C27.7266 31.738 28.0012 31.7797 28.2648 31.725C28.5285 31.6703 28.7638 31.5228 28.9279 31.3092L30.5077 29.278C30.683 29.0526 30.9371 28.9018 31.219 28.856C31.501 28.8102 31.7898 28.8728 32.0274 29.0312L37.4559 32.6493Z" fill="#367CFF"/>
</svg>
